<svg xmlns="http://www.w3.org/2000/svg" width="375" height="279" viewBox="0 0 375 279">
  <g id="Group_286" data-name="Group 286" transform="translate(0 -54.953)">
    <g id="Background_2" data-name="Background 2" transform="translate(0 54.953)">
      <g id="Group_269" data-name="Group 269">
        <g id="Group_255" data-name="Group 255">
          <g id="Group_254" data-name="Group 254">
            <g id="Group_253" data-name="Group 253">
              <rect id="Rectangle_162" data-name="Rectangle 162" width="375" height="0.188" transform="translate(0 245.083)" fill="#d3ecf0"/>
              <rect id="Rectangle_163" data-name="Rectangle 163" width="20.968" height="0.188" transform="translate(313.168 250.791)" fill="#d3ecf0"/>
              <rect id="Rectangle_164" data-name="Rectangle 164" width="17.199" height="0.188" transform="translate(192.113 250.791)" fill="#d3ecf0"/>
              <rect id="Rectangle_165" data-name="Rectangle 165" width="62.126" height="0.188" transform="translate(108.45 253.993)" fill="#d3ecf0"/>
              <rect id="Rectangle_166" data-name="Rectangle 166" width="36.542" height="0.188" transform="translate(50.241 252.71)" fill="#d3ecf0"/>
              <rect id="Rectangle_167" data-name="Rectangle 167" width="64.046" height="0.188" transform="translate(241.962 250.791)" fill="#d3ecf0"/>
              <rect id="Rectangle_168" data-name="Rectangle 168" width="5.322" height="0.188" transform="translate(38.786 252.71)" fill="#d3ecf0"/>
              <path id="Path_355" data-name="Path 355" d="M187.511,267.371H42.494a4.292,4.292,0,0,1-4.287-4.287V59.239a4.291,4.291,0,0,1,4.287-4.286H187.511a4.291,4.291,0,0,1,4.286,4.286V263.084A4.292,4.292,0,0,1,187.511,267.371ZM42.494,55.141a4.1,4.1,0,0,0-4.1,4.1V263.084a4.1,4.1,0,0,0,4.1,4.1H187.511a4.1,4.1,0,0,0,4.1-4.1V59.239a4.1,4.1,0,0,0-4.1-4.1Z" transform="translate(-9.514 -54.953)" fill="#d3ecf0"/>
              <path id="Path_356" data-name="Path 356" d="M403.808,267.371H258.791a4.291,4.291,0,0,1-4.286-4.287V59.239a4.291,4.291,0,0,1,4.286-4.286H403.808a4.291,4.291,0,0,1,4.287,4.286V263.084A4.292,4.292,0,0,1,403.808,267.371ZM258.791,55.141a4.1,4.1,0,0,0-4.1,4.1V263.084a4.1,4.1,0,0,0,4.1,4.1H403.808a4.1,4.1,0,0,0,4.1-4.1V59.239a4.1,4.1,0,0,0-4.1-4.1Z" transform="translate(-63.872 -54.953)" fill="#d3ecf0"/>
            </g>
          </g>
        </g>
        <g id="Group_268" data-name="Group 268" transform="translate(36.235 13.767)">
          <g id="Group_258" data-name="Group 258" transform="translate(77.288 134.036)">
            <g id="Group_256" data-name="Group 256" transform="translate(124.851 23.84)">
              <path id="Path_357" data-name="Path 357" d="M335.853,284.61v.005c-.413,0-.828.008-1.247.037a17.785,17.785,0,0,0-15.921,22.361,89,89,0,0,1,2.788,23.159v22.74a2.985,2.985,0,0,0,2.985,2.985h72.179V284.61Z" transform="translate(-318.075 -284.609)" fill="#d3ecf0"/>
              <path id="Path_358" data-name="Path 358" d="M434.567,302.387a17.778,17.778,0,1,0-34.946,4.625,89.028,89.028,0,0,1,2.787,23.159v22.74a2.986,2.986,0,0,0,2.985,2.985h22.793a2.986,2.986,0,0,0,2.985-2.985V328.836a81.175,81.175,0,0,1,2.753-21.7A17.758,17.758,0,0,0,434.567,302.387Z" transform="translate(-338.228 -284.609)" fill="#f5feff"/>
            </g>
            <rect id="Rectangle_169" data-name="Rectangle 169" width="101.201" height="43.282" transform="translate(77.714 51.845)" fill="#d3ecf0"/>
            <path id="Path_440" data-name="Path 440" d="M17.916,0h87.3a17.916,17.916,0,0,1,17.916,17.916V61.63H0V17.916A17.916,17.916,0,0,1,17.916,0Z" transform="translate(24.167)" fill="#b5dce2"/>
            <path id="Rectangle_171" data-name="Rectangle 171" d="M17.053,0h89.023a17.053,17.053,0,0,1,17.053,17.053V61.63a0,0,0,0,1,0,0H0a0,0,0,0,1,0,0V17.053A17.053,17.053,0,0,1,17.053,0Z" transform="translate(41.108)" fill="#f5feff"/>
            <path id="Rectangle_172" data-name="Rectangle 172" d="M1.553,0H96a5.2,5.2,0,0,1,5.2,5.2v7.228a5.2,5.2,0,0,1-5.2,5.2H1.553A1.553,1.553,0,0,1,0,16.074V1.553A1.553,1.553,0,0,1,1.553,0Z" transform="translate(80.788 47.893)" fill="#b5dce2"/>
            <g id="Group_257" data-name="Group 257" transform="translate(0 23.84)">
              <path id="Path_359" data-name="Path 359" d="M169.607,284.61v.005c-.413,0-.828.008-1.247.037a17.785,17.785,0,0,0-15.921,22.361,89,89,0,0,1,2.788,23.159v22.74a2.985,2.985,0,0,0,2.985,2.985H230.39V284.61Z" transform="translate(-151.829 -284.609)" fill="#d3ecf0"/>
              <path id="Path_360" data-name="Path 360" d="M268.322,302.387a17.779,17.779,0,1,0-34.947,4.625,89.027,89.027,0,0,1,2.787,23.159v22.74a2.986,2.986,0,0,0,2.985,2.985H261.94a2.986,2.986,0,0,0,2.985-2.985V328.836a81.173,81.173,0,0,1,2.753-21.7A17.759,17.759,0,0,0,268.322,302.387Z" transform="translate(-171.982 -284.609)" fill="#f5feff"/>
            </g>
            <path id="Path_361" data-name="Path 361" d="M359.57,381.7h-183.1a2.164,2.164,0,0,1-2.164-2.164H361.734A2.164,2.164,0,0,1,359.57,381.7Z" transform="translate(-157.426 -284.405)" fill="#b5dce2"/>
          </g>
          <g id="Group_259" data-name="Group 259" transform="translate(0 177.261)">
            <rect id="Rectangle_173" data-name="Rectangle 173" width="20.076" height="50.833" transform="translate(0 0)" fill="#d3ecf0"/>
            <rect id="Rectangle_174" data-name="Rectangle 174" width="99.006" height="3.221" transform="translate(3.855 50.833)" fill="#d3ecf0"/>
            <rect id="Rectangle_175" data-name="Rectangle 175" width="86.639" height="50.833" transform="translate(106.715 50.833) rotate(180)" fill="#f5feff"/>
            <rect id="Rectangle_176" data-name="Rectangle 176" width="70.853" height="16.671" transform="translate(98.822 22.928) rotate(180)" fill="#d3ecf0"/>
            <rect id="Rectangle_177" data-name="Rectangle 177" width="70.853" height="16.671" transform="translate(98.822 44.576) rotate(180)" fill="#d3ecf0"/>
            <path id="Path_362" data-name="Path 362" d="M138.146,320.061H120.609a1.147,1.147,0,0,1-1.144-1.143h0a1.147,1.147,0,0,1,1.144-1.144h17.537a1.147,1.147,0,0,1,1.144,1.144h0A1.147,1.147,0,0,1,138.146,320.061Z" transform="translate(-65.982 -312.253)" fill="#f3f8ff"/>
            <path id="Path_363" data-name="Path 363" d="M138.146,348.886H120.609a1.147,1.147,0,0,1-1.144-1.143h0a1.147,1.147,0,0,1,1.144-1.143h17.537a1.147,1.147,0,0,1,1.144,1.143h0A1.147,1.147,0,0,1,138.146,348.886Z" transform="translate(-65.982 -319.43)" fill="#f3f8ff"/>
          </g>
          <g id="Group_263" data-name="Group 263" transform="translate(75.447)">
            <g id="Group_260" data-name="Group 260" transform="translate(3.093 2.748)">
              <rect id="Rectangle_178" data-name="Rectangle 178" width="141.272" height="101.473" fill="#d1e3ff"/>
              <rect id="Rectangle_179" data-name="Rectangle 179" width="142.533" height="101.473" transform="translate(1.106)" fill="#d3ecf0"/>
              <rect id="Rectangle_180" data-name="Rectangle 180" width="141.272" height="2.283" transform="translate(0 101.473)" fill="#d1e3ff"/>
              <rect id="Rectangle_181" data-name="Rectangle 181" width="137.354" height="2.283" transform="translate(17.106 101.473)" fill="#f3f8ff"/>
              <rect id="Rectangle_182" data-name="Rectangle 182" width="92.865" height="135.906" transform="translate(140.325 4.304) rotate(90)" fill="#f5feff"/>
              <path id="Path_364" data-name="Path 364" d="M208.317,175.54l19.448-92.865h24.814L233.131,175.54Z" transform="translate(-166.911 -78.37)" fill="#fff"/>
              <path id="Path_365" data-name="Path 365" d="M250.707,175.54l19.448-92.865h11.514L262.221,175.54Z" transform="translate(-177.466 -78.37)" fill="#fff"/>
              <rect id="Rectangle_183" data-name="Rectangle 183" width="83.73" height="0.421" transform="translate(140.325 3.722) rotate(90)" fill="#d1e3ff"/>
            </g>
            <g id="Group_261" data-name="Group 261">
              <path id="Path_366" data-name="Path 366" d="M149.872,75.886v36.128h9.559a53.773,53.773,0,0,0,21.078-34.248,3.832,3.832,0,0,0-3.769-4.481H152.473A2.6,2.6,0,0,0,149.872,75.886Z" transform="translate(-149.265 -73.285)" fill="#b5dce2"/>
              <path id="Path_367" data-name="Path 367" d="M149.872,183.738v-55h9.559s5.5,11.1,10.976,23.871a22.335,22.335,0,0,1-20.535,31.128Z" transform="translate(-149.265 -87.093)" fill="#b5dce2"/>
              <rect id="Rectangle_184" data-name="Rectangle 184" width="10.842" height="2.917" rx="1.275" transform="translate(0 38.729)" fill="#b5dce2"/>
            </g>
            <g id="Group_262" data-name="Group 262" transform="translate(118.747)">
              <path id="Path_368" data-name="Path 368" d="M337.874,75.886v36.128h-9.559a53.773,53.773,0,0,1-21.078-34.248,3.832,3.832,0,0,1,3.769-4.481h24.266A2.6,2.6,0,0,1,337.874,75.886Z" transform="translate(-307.183 -73.285)" fill="#b5dce2"/>
              <path id="Path_369" data-name="Path 369" d="M340.634,183.738v-55h-9.559s-5.5,11.1-10.976,23.871a22.335,22.335,0,0,0,20.535,31.128Z" transform="translate(-309.943 -87.093)" fill="#b5dce2"/>
              <rect id="Rectangle_185" data-name="Rectangle 185" width="10.842" height="2.917" rx="1.275" transform="translate(31.298 41.646) rotate(180)" fill="#f3f8ff"/>
            </g>
          </g>
          <g id="Group_264" data-name="Group 264" transform="translate(246.338 14.305)">
            <rect id="Rectangle_186" data-name="Rectangle 186" width="46.909" height="70.066" fill="#b5dce2"/>
            <rect id="Rectangle_187" data-name="Rectangle 187" width="52.495" height="70.066" transform="translate(1.203)" fill="#d3ecf0"/>
            <rect id="Rectangle_188" data-name="Rectangle 188" width="59.237" height="41.666" transform="translate(48.284 5.414) rotate(90)" fill="#fff"/>
            <path id="Path_370" data-name="Path 370" d="M408.159,142.779v-3.37a7.993,7.993,0,0,1,7.993-7.993h0v3.37a7.993,7.993,0,0,1-7.993,7.993Z" transform="translate(-384.705 -102.065)" fill="#b5dce2"/>
            <path id="Path_371" data-name="Path 371" d="M408.159,164.039v-3.37a7.993,7.993,0,0,1,7.993-7.993h0v3.37a7.993,7.993,0,0,1-7.993,7.993Z" transform="translate(-384.705 -107.359)" fill="#b5dce2"/>
            <path id="Path_372" data-name="Path 372" d="M408.159,121.519v-3.37a7.993,7.993,0,0,1,7.993-7.993h0v3.37a7.993,7.993,0,0,1-7.993,7.993Z" transform="translate(-384.705 -96.771)" fill="#b5dce2"/>
          </g>
          <g id="Group_267" data-name="Group 267" transform="translate(2.758 67.886)">
            <g id="Group_265" data-name="Group 265">
              <path id="Path_373" data-name="Path 373" d="M90.6,263.859c1.9-19.645,3.6-74.521,2.487-84.373l-2.629-1.917s.81,35.832-.6,65.93-.206,15.888-.8,20.36Z" transform="translate(-61.169 -167.6)" fill="#b5dce2"/>
              <path id="Path_374" data-name="Path 374" d="M98.391,238.078c5.3-4.161,16.122-7.119,27.15-7.1,4.33.007-13.173,4.84-20.452,10.175-5.655,4.144-12.03,11.116-14.2,14.985C92.293,247.992,93.093,242.239,98.391,238.078Z" transform="translate(-61.625 -180.898)" fill="#b5dce2"/>
              <path id="Path_375" data-name="Path 375" d="M78.184,245.959c-4.4-4.333-14.559-7.665-25.549-8.042-4.315-.148,12.1,5.29,18.228,10.863,4.759,4.33,9.639,11.5,10.982,15.434C82.167,256.053,82.585,250.293,78.184,245.959Z" transform="translate(-51.922 -182.626)" fill="#b5dce2"/>
              <path id="Path_376" data-name="Path 376" d="M99.087,199.361c4.486-3.523,13.652-6.028,22.99-6.016,3.666.005-11.155,4.1-17.319,8.616-4.788,3.509-10.187,9.412-12.022,12.689C93.924,207.756,94.6,202.885,99.087,199.361Z" transform="translate(-62.085 -171.529)" fill="#b5dce2"/>
              <path id="Path_377" data-name="Path 377" d="M81.977,206.035c-3.726-3.669-12.328-6.491-21.634-6.81-3.654-.125,10.247,4.48,15.435,9.2,4.03,3.666,8.162,9.739,9.3,13.068C85.349,214.582,85.7,209.7,81.977,206.035Z" transform="translate(-53.868 -172.992)" fill="#b5dce2"/>
              <path id="Path_378" data-name="Path 378" d="M86.71,170.5c-2.651-2.987-9.074-5.535-16.168-6.189-2.785-.257,7.591,3.9,11.3,7.754,2.883,3,5.715,7.85,6.406,10.461C88.828,177.218,89.36,173.482,86.71,170.5Z" transform="translate(-56.441 -164.295)" fill="#b5dce2"/>
              <path id="Path_379" data-name="Path 379" d="M94.03,173.389c1.916-2.577,6.468-4.815,11.459-5.441,1.959-.246-5.4,3.4-8.074,6.732a28.471,28.471,0,0,0-4.688,9C92.419,179.153,92.115,175.966,94.03,173.389Z" transform="translate(-62.026 -165.202)" fill="#b5dce2"/>
            </g>
            <g id="Group_266" data-name="Group 266" transform="translate(14.867 87.028)">
              <path id="Path_380" data-name="Path 380" d="M86.7,303.941h0a10.954,10.954,0,0,0,10.936-10.325l.967-9.223H74.8l.967,9.223A10.954,10.954,0,0,0,86.7,303.941Z" transform="translate(-72.484 -281.228)" fill="#d3ecf0"/>
              <path id="Path_381" data-name="Path 381" d="M72.488,287.154h26.89l.77-6.976H71.718Z" transform="translate(-71.718 -280.178)" fill="#d3ecf0"/>
            </g>
          </g>
        </g>
      </g>
    </g>
    <g id="Objects" transform="translate(42.139 96.794)">
      <g id="Group_285" data-name="Group 285" transform="translate(0 0)">
        <ellipse id="Ellipse_38" data-name="Ellipse 38" cx="145.361" cy="8.504" rx="145.361" ry="8.504" transform="translate(0 220.152)" fill="#f5feff"/>
        <g id="Group_284" data-name="Group 284" transform="translate(27.401)">
          <g id="Group_279" data-name="Group 279" transform="translate(100.013 12.403)">
            <path id="Path_382" data-name="Path 382" d="M249.12,394.927l-5.088-2.014,3.31-12.318,5.088,2.014Z" transform="translate(-230.318 -191.111)" fill="#ffbe9d"/>
            <path id="Path_383" data-name="Path 383" d="M315.625,403h-5.472l-4.263-12.672h5.472Z" transform="translate(-245.721 -193.535)" fill="#ffbe9d"/>
            <path id="Path_384" data-name="Path 384" d="M307.24,406.362h6.671a.478.478,0,0,1,.466.374l1.081,4.864a.8.8,0,0,1-.8.973c-2.146-.037-3.712-.163-6.416-.163-1.663,0-6.679.173-8.975.173-2.246,0-2.6-2.271-1.657-2.477,4.216-.922,7.394-2.194,8.743-3.407A1.329,1.329,0,0,1,307.24,406.362Z" transform="translate(-243.537 -197.527)" fill="#0e1d3b"/>
            <path id="Path_385" data-name="Path 385" d="M239.755,395.823l5.556,2.2a.478.478,0,0,1,.3.519l-.786,4.921a.8.8,0,0,1-1.09.615c-1.991-.828-4.841-2.091-7.36-3.088-2.945-1.166-5.553-2.012-9.008-3.379-2.089-.827-1.832-3.168-.882-3.013,4.325.7,7.611,1.9,11.891,1.139A2.536,2.536,0,0,1,239.755,395.823Z" transform="translate(-225.771 -194.595)" fill="#0e1d3b"/>
            <path id="Path_386" data-name="Path 386" d="M282.812,182.76c-.509.409-.909.713-1.361,1.049s-.888.636-1.335.945q-1.345.92-2.734,1.772a49.329,49.329,0,0,1-5.834,3.061,34.708,34.708,0,0,1-6.5,2.179,20.247,20.247,0,0,1-7.461.377,16.069,16.069,0,0,1-2.024-.44A6.552,6.552,0,0,1,252.7,189.9a12.991,12.991,0,0,1-2.256-3.47,36.443,36.443,0,0,1-2.172-6.3,75.259,75.259,0,0,1-2.02-12.413l4.037-.766c1.25,3.776,2.557,7.612,4.013,11.2a37.4,37.4,0,0,0,2.391,4.99,6.43,6.43,0,0,0,1.191,1.533c.11.1.142-.014-.325-.183.259.029.632.11.971.118a13.982,13.982,0,0,0,4.625-.586,30.946,30.946,0,0,0,4.964-1.926,55.485,55.485,0,0,0,4.906-2.7c.806-.492,1.6-1.006,2.385-1.538l1.16-.807c.372-.258.789-.56,1.08-.778Z" transform="translate(-230.87 -137.912)" fill="#ffbe9d"/>
            <path id="Path_387" data-name="Path 387" d="M291.929,183.73c-1.328,5.06-17.721,10.731-17.721,10.731l-5.047-11.384s6.658-3.506,12.825-6.294C286.122,174.912,293.375,178.225,291.929,183.73Z" transform="translate(-236.575 -140.231)" fill="#0d7684"/>
            <path id="Path_388" data-name="Path 388" d="M249.74,166.53l.138-4.878-5.934,1.761a5.876,5.876,0,0,0,2.286,4.215Z" transform="translate(-230.296 -136.594)" fill="#ffbe9d"/>
            <path id="Path_389" data-name="Path 389" d="M250.161,157.126l-5.7,1.966-.514,3.194,5.934-1.761Z" transform="translate(-230.296 -135.467)" fill="#ffbe9d"/>
            <g id="Group_273" data-name="Group 273" transform="translate(12.87 17.391)">
              <path id="Path_390" data-name="Path 390" d="M248.82,167.335l5.624-1.245a.621.621,0,0,0,.454-.849L250.006,152.2a.875.875,0,0,0-.973-.534l-5.624,1.245a.622.622,0,0,0-.454.85l4.893,13.043A.874.874,0,0,0,248.82,167.335Z" transform="translate(-242.908 -151.494)" fill="#0d7684"/>
              <path id="Path_391" data-name="Path 391" d="M249.74,167.131l5.624-1.244a.622.622,0,0,0,.454-.85l-4.893-13.043a.874.874,0,0,0-.973-.533l-5.624,1.245a.621.621,0,0,0-.454.849l4.893,13.043A.873.873,0,0,0,249.74,167.131Z" transform="translate(-243.137 -151.443)" fill="#0d7684"/>
              <g id="Group_272" data-name="Group 272" transform="translate(0.905 1.003)">
                <path id="Path_392" data-name="Path 392" d="M244.113,154.338l2.2,5.863.2.54.988,2.633.21.563.791,2.1,7.051-1.562-.192-.518-.209-.547-1.9-5.069-.591-1.587-1.493-3.978-2.333.515-.6.136-3.193.7-.5.108Z" transform="translate(-244.113 -152.779)" fill="#d3ecf0"/>
                <g id="Group_271" data-name="Group 271" transform="translate(3.992 3.459)">
                  <path id="Path_393" data-name="Path 393" d="M250.025,157.878l-.592,4.837a.561.561,0,0,0,.683.615l3.8-.873a.562.562,0,0,0,.311-.9l-3.208-3.964A.561.561,0,0,0,250.025,157.878Z" transform="translate(-249.429 -157.385)" fill="#0d7684"/>
                  <g id="Group_270" data-name="Group 270" transform="translate(1.046 1.277)">
                    <path id="Path_394" data-name="Path 394" d="M252.7,162.89c.078.263-.017.513-.214.558s-.419-.131-.5-.394.018-.513.214-.558S252.62,162.627,252.7,162.89Z" transform="translate(-251.105 -159.933)" fill="#fff"/>
                    <path id="Path_395" data-name="Path 395" d="M251.957,161.2l-.324.074a.163.163,0,0,1-.168-.123l-.629-1.73c-.035-.095,0-.19.07-.207l.54-.124c.072-.017.153.053.176.15l.413,1.779C252.054,161.1,252.02,161.182,251.957,161.2Z" transform="translate(-250.822 -159.086)" fill="#fff"/>
                  </g>
                </g>
              </g>
            </g>
            <g id="Group_274" data-name="Group 274" transform="translate(15.318 189.488)">
              <path id="Path_396" data-name="Path 396" d="M247.874,380.6l-1.707,6.349,5.09,2.015,1.707-6.349Z" transform="translate(-246.167 -380.6)" fill="#eaac8d"/>
              <path id="Path_397" data-name="Path 397" d="M311.365,390.337h-5.474l2.2,6.532h5.474Z" transform="translate(-261.038 -383.025)" fill="#eaac8d"/>
            </g>
            <path id="Path_398" data-name="Path 398" d="M316.011,181.4a122.936,122.936,0,0,0-5.4,17.519c-.971,4.16-1.717,8.149-2.3,11.776-1.379,8.5-1.9,15.042-2.391,17.223-4.222-.756-20.131-3.608-28.806-5.167-.6-31.373,8.677-46.5,8.677-46.5a57.081,57.081,0,0,1,7.041-.106c.495.022,1,.059,1.506.1a107.929,107.929,0,0,1,12.247,2.2c.767.177,1.54.376,2.291.581C312.693,180.087,316.011,181.4,316.011,181.4Z" transform="translate(-238.549 -140.189)" fill="#0d7684"/>
            <path id="Path_399" data-name="Path 399" d="M317.976,192.534a23.019,23.019,0,0,0,2.23,12.967c.171-.819.357-1.645.552-2.479.73-3.126,1.585-6.35,2.607-9.591Z" transform="translate(-248.691 -144.283)" fill="#0d7684"/>
            <path id="Path_400" data-name="Path 400" d="M313.35,160.585c-1.48,3.8-3.547,10.882-1.262,14.006a12.441,12.441,0,0,1-10.115,2.061c-3.377-.682-3.122-3.082-2.131-4.26,4.582-.26,5.053-3.54,4.838-6.739Z" transform="translate(-244.052 -136.328)" fill="#ffbe9d"/>
            <path id="Path_401" data-name="Path 401" d="M311.633,163.34l-5.131,3a12.741,12.741,0,0,1-.013,2.241c1.722.059,4.359-1.37,4.852-3.095A5.989,5.989,0,0,0,311.633,163.34Z" transform="translate(-245.87 -137.014)" fill="#f29994"/>
            <path id="Path_402" data-name="Path 402" d="M299.977,142.711c-1.2,2.439-1.739,10,1.646,8.829s3.21-6.932,3.21-6.932S302.79,137,299.977,142.711Z" transform="translate(-244.019 -131.348)" fill="#0f264c"/>
            <path id="Path_403" data-name="Path 403" d="M314.7,149.735c-1.285,5.277-1.769,8.429-4.956,10.684-4.792,3.391-10.939-.234-11.256-5.789-.285-5,1.865-12.787,7.468-13.973A7.407,7.407,0,0,1,314.7,149.735Z" transform="translate(-243.872 -131.323)" fill="#ffbe9d"/>
            <path id="Path_404" data-name="Path 404" d="M311.758,142.842c-3.088,1.87-2.567,7.907,1.69,9.491s5.186-1.517,4.49-1.84c1.475-.311,7.272-2.906,4.968-7.613-1.4-2.859-5.659-2.387-5.659-2.387s5.05-4.953-2.892-8.938c-9.7-4.869-11.167,4.064-11.167,4.064s-6.244-.691-5.716,3.467c.7,5.512,6.555,1.11,6.555,1.11S304.4,145.047,311.758,142.842Z" transform="translate(-243.617 -128.738)" fill="#0e1d3b"/>
            <path id="Path_405" data-name="Path 405" d="M305.291,137.253a.282.282,0,0,1-.266-.19c-.059-.167-1.392-4.116.647-6.692,1.323-1.672,3.737-2.345,7.191-2a.281.281,0,0,1,.252.308.274.274,0,0,1-.309.252c-3.243-.327-5.494.271-6.691,1.783-1.847,2.332-.571,6.123-.557,6.16a.283.283,0,0,1-.267.374Z" transform="translate(-245.385 -128.286)" fill="#0f264c"/>
            <path id="Path_406" data-name="Path 406" d="M320.092,159.9a5.161,5.161,0,0,1-3.569,1.675c-1.809.07-2.3-1.648-1.443-3.137.767-1.34,2.632-2.99,4.28-2.354A2.318,2.318,0,0,1,320.092,159.9Z" transform="translate(-247.907 -135.171)" fill="#ffbe9d"/>
            <path id="Path_407" data-name="Path 407" d="M244.248,349.569l8.616,3.406s10.043-33.4,13.464-50.1a178.938,178.938,0,0,1,5.711-19.551c3.2-9.407,7.032-19.538,10.129-27.461,3.267-8.344,5.7-14.237,5.7-14.237l-18.938-3.4s-16.454,43.858-18.815,60.391C247.662,315.809,244.248,349.569,244.248,349.569Z" transform="translate(-230.372 -155.661)" fill="#b5dce2"/>
            <path id="Path_408" data-name="Path 408" d="M281.253,287.686c3.2-9.407,7.032-19.538,10.129-27.461l-1.518-4.479C284.522,260.857,281.362,278.129,281.253,287.686Z" transform="translate(-239.586 -160.023)" fill="#0d7684" opacity="0.499"/>
            <path id="Path_409" data-name="Path 409" d="M289.9,240.67s-2.988,46.8-2.4,62.818c.644,17.546,13.417,54.849,13.417,54.849H310.94s-6.49-33.556-7.8-50.625c-1.489-19.443,5.348-63.705,5.348-63.705Z" transform="translate(-241.123 -156.269)" fill="#b5dce2"/>
            <path id="Path_410" data-name="Path 410" d="M303.334,396.394h11.8v-3.526l-13.192-.229Z" transform="translate(-244.738 -194.11)" fill="#0d7684"/>
            <path id="Path_411" data-name="Path 411" d="M242.7,384.865l10.266,4.063,1.313-3.317-11.407-4.717Z" transform="translate(-229.986 -191.185)" fill="#0d7684"/>
            <path id="Path_418" data-name="Path 418" d="M307.746,407.176a1.659,1.659,0,0,1-1.054-.279.78.78,0,0,1-.267-.685.413.413,0,0,1,.222-.367c.609-.306,2.37.774,2.57.9a.13.13,0,0,1-.039.236A6.439,6.439,0,0,1,307.746,407.176Zm-.813-1.133a.365.365,0,0,0-.167.033c-.035.017-.076.051-.083.152a.53.53,0,0,0,.176.47,2.63,2.63,0,0,0,1.943.1A5.232,5.232,0,0,0,306.933,406.043Z" transform="translate(-245.853 -197.384)" fill="#0d7684"/>
            <path id="Path_419" data-name="Path 419" d="M309.515,406.557a.118.118,0,0,1-.062-.017c-.566-.307-1.661-1.506-1.546-2.116a.423.423,0,0,1,.412-.339.694.694,0,0,1,.552.166c.636.52.767,2.1.772,2.165a.131.131,0,0,1-.129.14Zm-1.1-2.218a.51.51,0,0,0-.059,0c-.169.021-.183.1-.19.131-.068.36.629,1.266,1.192,1.693a3.124,3.124,0,0,0-.646-1.715A.461.461,0,0,0,308.411,404.339Z" transform="translate(-246.221 -196.958)" fill="#0d7684"/>
            <path id="Path_420" data-name="Path 420" d="M242.4,396.182l-.023,0c-.885-.161-2.422-.538-2.784-1.253a.723.723,0,0,1,.006-.675.41.41,0,0,1,.326-.242.419.419,0,0,1,.062,0c.779,0,2.332,1.757,2.511,1.962a.13.13,0,0,1-.1.215Zm-2.4-1.917h-.038a.154.154,0,0,0-.126.1.473.473,0,0,0-.008.446c.2.4,1.021.781,2.218,1.039C241.384,395.138,240.428,394.265,240,394.265Z" transform="translate(-229.193 -194.45)" fill="#0d7684"/>
            <path id="Path_421" data-name="Path 421" d="M242.985,395.952a.13.13,0,0,1-.093-.039c-.5-.519-1.286-2.1-.965-2.639.076-.126.238-.255.582-.159a.948.948,0,0,1,.587.472,3.689,3.689,0,0,1,.014,2.272.127.127,0,0,1-.092.089A.114.114,0,0,1,242.985,395.952Zm-.695-2.612a.141.141,0,0,0-.141.067c-.192.323.292,1.515.77,2.139a3.039,3.039,0,0,0-.05-1.834.687.687,0,0,0-.43-.348A.555.555,0,0,0,242.291,393.34Z" transform="translate(-229.775 -194.22)" fill="#0d7684"/>
            <g id="Group_275" data-name="Group 275" transform="translate(68.506 40.642)">
              <path id="Path_422" data-name="Path 422" d="M327.02,186.567c.728.849,1.35,1.612,1.976,2.44.626.813,1.235,1.634,1.835,2.463,1.187,1.668,2.321,3.379,3.382,5.147,1.076,1.758,2.056,3.6,2.971,5.49l.67,1.434.613,1.479c.21.487.386,1,.569,1.514l.272.765.068.191.1.321c.078.246.126.467.175.695a11.235,11.235,0,0,1-.075,4.263,25.054,25.054,0,0,1-.88,3.305,47.671,47.671,0,0,1-2.458,5.8,77.559,77.559,0,0,1-6.279,10.4l-3.569-2.036c1.47-3.548,2.9-7.193,4.125-10.76a52.463,52.463,0,0,0,1.537-5.295,17.884,17.884,0,0,0,.4-2.446,4.5,4.5,0,0,0-.073-1.6c-.01-.011-.014-.03-.02-.016-.008-.013.015.041-.016-.029l-.069-.151-.273-.6c-.183-.4-.354-.805-.569-1.206l-.611-1.2-.656-1.2q-1.356-2.389-2.9-4.735c-1.038-1.555-2.107-3.1-3.219-4.626-1.082-1.519-2.289-3.059-3.373-4.45Z" transform="translate(-317.908 -183.439)" fill="#ffbe9d"/>
              <path id="Path_423" data-name="Path 423" d="M324.47,182.527c5.173.783,12.048,12.459,12.048,12.459L326.8,205.567a100.956,100.956,0,0,1-8.444-12.876C314.974,186.148,318.2,181.579,324.47,182.527Z" transform="translate(-316.99 -182.402)" fill="#0d7684"/>
              <path id="Path_424" data-name="Path 424" d="M328.037,243.328l-4.785,2.82,5.737,3.992s3.541-3.306,2-5.377Z" transform="translate(-318.549 -197.573)" fill="#ffbe9d"/>
              <path id="Path_425" data-name="Path 425" d="M320.991,251.327l4.9,3.078,2.538-3.329-5.737-3.992Z" transform="translate(-317.986 -198.508)" fill="#ffbe9d"/>
            </g>
            <g id="Group_278" data-name="Group 278" transform="translate(12.495 12.329)">
              <g id="Group_276" data-name="Group 276" transform="translate(6.928)">
                <path id="Path_426" data-name="Path 426" d="M255.012,152.081h-.751a2.632,2.632,0,0,0-2.628-2.629V148.7A3.383,3.383,0,0,1,255.012,152.081Z" transform="translate(-251.633 -145.698)" fill="#0d7684"/>
                <path id="Path_427" data-name="Path 427" d="M256.514,151.584h-.751a4.135,4.135,0,0,0-4.13-4.131V146.7A4.887,4.887,0,0,1,256.514,151.584Z" transform="translate(-251.633 -145.2)" fill="#0d7684"/>
                <path id="Path_428" data-name="Path 428" d="M258.016,151.086h-.751a5.638,5.638,0,0,0-5.632-5.633V144.7A6.391,6.391,0,0,1,258.016,151.086Z" transform="translate(-251.633 -144.702)" fill="#0d7684"/>
              </g>
              <g id="Group_277" data-name="Group 277" transform="translate(0 20.568)">
                <path id="Path_429" data-name="Path 429" d="M249.788,175.469a3.384,3.384,0,0,1-3.38-3.379h.751a2.631,2.631,0,0,0,2.629,2.628Z" transform="translate(-243.404 -172.09)" fill="#0d7684"/>
                <path id="Path_430" data-name="Path 430" d="M249.289,176.971a4.887,4.887,0,0,1-4.882-4.881h.751a4.135,4.135,0,0,0,4.13,4.13Z" transform="translate(-242.906 -172.09)" fill="#0d7684"/>
                <path id="Path_431" data-name="Path 431" d="M248.792,178.473a6.391,6.391,0,0,1-6.383-6.383h.751a5.638,5.638,0,0,0,5.632,5.633Z" transform="translate(-242.408 -172.09)" fill="#0d7684"/>
              </g>
            </g>
          </g>
          <g id="Group_283" data-name="Group 283">
            <rect id="Rectangle_189" data-name="Rectangle 189" width="0.751" height="14.775" transform="translate(6.265 23.954)" fill="#0d7684"/>
            <rect id="Rectangle_190" data-name="Rectangle 190" width="0.751" height="4.741" transform="translate(6.265 42.812)" fill="#0d7684"/>
            <rect id="Rectangle_191" data-name="Rectangle 191" width="84.119" height="65.899" rx="13.653" transform="translate(8.894 8.87)" fill="#0d7684"/>
            <g id="Group_280" data-name="Group 280">
              <path id="Path_432" data-name="Path 432" d="M100.928,120.851a.749.749,0,0,1-.531-.22l-5.8-5.8a.751.751,0,1,1,1.062-1.062l5.8,5.8a.751.751,0,0,1-.531,1.282Z" transform="translate(-93.041 -112.213)" fill="#0d7684"/>
              <path id="Path_433" data-name="Path 433" d="M107.458,118.811a.749.749,0,0,1-.737-.61l-1.065-5.539a.751.751,0,0,1,1.475-.283l1.064,5.54a.75.75,0,0,1-.6.879A.768.768,0,0,1,107.458,118.811Z" transform="translate(-95.846 -111.77)" fill="#0d7684"/>
              <path id="Path_434" data-name="Path 434" d="M98.889,127.381a.7.7,0,0,1-.142-.014l-5.54-1.064a.751.751,0,0,1,.283-1.475l5.54,1.065a.751.751,0,0,1-.141,1.488Z" transform="translate(-92.598 -115.018)" fill="#0d7684"/>
            </g>
            <path id="Path_435" data-name="Path 435" d="M214.43,161.593l18.438-5.653L214.43,175.487Z" transform="translate(-122.934 -122.768)" fill="#0d7684"/>
            <g id="Group_281" data-name="Group 281" transform="translate(32.688 21.167)">
              <path id="Path_436" data-name="Path 436" d="M172.652,172.377H136.123a7.325,7.325,0,0,1,2.155-5.2l.728-.736a6.284,6.284,0,0,0,1.847-4.461V153.49a13.539,13.539,0,0,1,14.029-13.526,13.384,13.384,0,0,1,3.267.533,9.847,9.847,0,0,0,9.222,13.315c.188,0,.368-.007.548-.015v8.186a6.316,6.316,0,0,0,1.847,4.461l.728.736a7.279,7.279,0,0,1,2.155,5.2Z" transform="translate(-136.123 -139.956)" fill="#fff"/>
              <path id="Path_437" data-name="Path 437" d="M165.27,185.76a7.233,7.233,0,0,1-7.493,6.9,7.321,7.321,0,0,1-6.945-6.9Z" transform="translate(-139.785 -151.361)" fill="#fff"/>
            </g>
            <path id="Path_439" data-name="Path 439" d="M7.375,0A7.375,7.375,0,1,1,0,7.375,7.375,7.375,0,0,1,7.375,0Z" transform="matrix(0.737, -0.676, 0.676, 0.737, 53.514, 24.728)" fill="#ce082e"/>
            <g id="Group_282" data-name="Group 282" transform="translate(61.219 21.618)">
              <path id="Path_438" data-name="Path 438" d="M178.294,140.556v7.419h-2.05v-4.861a6.278,6.278,0,0,1-.963.611,7.521,7.521,0,0,1-1.167.448v-1.662a4.932,4.932,0,0,0,1.607-.8,3.261,3.261,0,0,0,.9-1.154Z" transform="translate(-174.114 -140.556)" fill="#fff"/>
            </g>
          </g>
        </g>
      </g>
    </g>
  </g>
</svg>
