<svg xmlns="http://www.w3.org/2000/svg" width="310" height="290" viewBox="0 0 310 290">
  <g id="Chef-pana" transform="translate(-26.194 -51.79)">
    <g id="freepik--background-complete--inject-35" transform="translate(26.194 77.942)">
      <circle id="Ellipse_23" data-name="Ellipse 23" cx="10.601" cy="10.601" r="10.601" transform="translate(25.068 166.929)" fill="#e0e0e0"/>
      <circle id="Ellipse_24" data-name="Ellipse 24" cx="10.601" cy="10.601" r="10.601" transform="translate(41.358 177.354) rotate(-45)" fill="#ebebeb"/>
      <circle id="Ellipse_25" data-name="Ellipse 25" cx="10.601" cy="10.601" r="10.601" transform="translate(0 177.356) rotate(-45)" fill="#ebebeb"/>
      <path id="Path_98" data-name="Path 98" d="M27.5,349H96.739s-.692,28.547-19.3,32.037l-.3,6.045H45.987v-6.169S27.5,376.2,27.5,349Z" transform="translate(-26.596 -169.366)" fill="#e0e0e0"/>
      <path id="Path_99" data-name="Path 99" d="M85.593,395.19c0,.1-7.069.18-15.787.18s-15.787-.076-15.787-.18,7.069-.18,15.787-.18S85.593,395.093,85.593,395.19Z" transform="translate(-34.754 -183.519)" fill="#fff"/>
      <path id="Path_100" data-name="Path 100" d="M95.385,365.548a2.657,2.657,0,0,0-.443.055l-1.309.111a17.377,17.377,0,0,1-5.027-.242,10.178,10.178,0,0,1-3.386-1.35,7.734,7.734,0,0,1-2.867-3.234,5.692,5.692,0,0,1-.485-2.389,4.238,4.238,0,0,1,.872-2.437,3,3,0,0,1,1.08-.866,2.658,2.658,0,0,1,1.385-.187,3.379,3.379,0,0,1,2.319,1.7,4.486,4.486,0,0,1,.4,3,8.69,8.69,0,0,1-1.191,2.936,10.434,10.434,0,0,1-5.158,4.154,9.977,9.977,0,0,1-7.049-.041,10.387,10.387,0,0,1-3.213-1.959,7.118,7.118,0,0,1-2.181-3.192,3.566,3.566,0,0,1,0-2.015,2.693,2.693,0,0,1,1.274-1.613,3.3,3.3,0,0,1,3.85.872,7.243,7.243,0,0,1,1.613,3.815,11.681,11.681,0,0,1-.125,4.217,12.387,12.387,0,0,1-4.48,7.256,11.21,11.21,0,0,1-3.974,1.946,12.657,12.657,0,0,1-4.48.3,11.867,11.867,0,0,1-7.776-4.023,8.4,8.4,0,0,1-1.9-3.933,5.657,5.657,0,0,1,.886-4.189,4.272,4.272,0,0,1,3.649-2.015,4.037,4.037,0,0,1,3.407,2.264,3.012,3.012,0,0,1,.138,2.077,3.988,3.988,0,0,1-1.094,1.752,7.927,7.927,0,0,1-3.51,1.842A14.436,14.436,0,0,1,42.846,366.7a7.88,7.88,0,0,1-1.869-2.867,5.636,5.636,0,0,1-.187-3.289,4.639,4.639,0,0,1,1.7-2.673,4.016,4.016,0,0,1,2.936-.692,3.905,3.905,0,0,1,2.527,1.385,4.189,4.189,0,0,1,.935,2.576,4.085,4.085,0,0,1-.81,2.458,6.078,6.078,0,0,1-1.821,1.613,14.409,14.409,0,0,1-4.057,1.551,25.839,25.839,0,0,1-3.594.6,25.025,25.025,0,0,1-5.041,0c-1.142-.132-1.738-.263-1.738-.263a3.152,3.152,0,0,1,.45.048c.3.048.727.09,1.295.138a26.394,26.394,0,0,0,5.02-.035,26.916,26.916,0,0,0,3.566-.623,14.077,14.077,0,0,0,4-1.537,5.9,5.9,0,0,0,1.759-1.565,3.863,3.863,0,0,0,.755-2.326,4,4,0,0,0-.893-2.43,3.7,3.7,0,0,0-2.375-1.295,3.808,3.808,0,0,0-2.77.692,4.411,4.411,0,0,0-1.586,2.52,5.331,5.331,0,0,0,.187,3.13,7.686,7.686,0,0,0,1.807,2.77,14.173,14.173,0,0,0,13.474,3.33,7.616,7.616,0,0,0,3.358-1.766,3.677,3.677,0,0,0,1-1.6,2.68,2.68,0,0,0-.132-1.856,3.663,3.663,0,0,0-3.1-2.077,3.4,3.4,0,0,0-1.89.485,4.459,4.459,0,0,0-1.454,1.385,5.3,5.3,0,0,0-.824,3.933,8.1,8.1,0,0,0,1.828,3.76,11.521,11.521,0,0,0,7.54,3.9,12.393,12.393,0,0,0,4.348-.291,10.988,10.988,0,0,0,3.85-1.89,12.027,12.027,0,0,0,4.369-7.132,11.314,11.314,0,0,0,.125-4.092,7.014,7.014,0,0,0-1.516-3.635,2.971,2.971,0,0,0-3.462-.81,2.341,2.341,0,0,0-1.108,1.385,3.219,3.219,0,0,0,0,1.828,6.924,6.924,0,0,0,2.077,3.047,10.262,10.262,0,0,0,3.116,1.9,9.694,9.694,0,0,0,6.855.1,10.22,10.22,0,0,0,5.027-4.037,8.309,8.309,0,0,0,1.163-2.832,4.251,4.251,0,0,0-.36-2.832,3.116,3.116,0,0,0-2.133-1.586,2.368,2.368,0,0,0-1.281.159,2.853,2.853,0,0,0-1,.789,3.988,3.988,0,0,0-.838,2.306,5.428,5.428,0,0,0,.45,2.3,7.554,7.554,0,0,0,2.77,3.171,9.839,9.839,0,0,0,3.323,1.385,17.913,17.913,0,0,0,4.992.312l1.3-.076C95.232,365.548,95.385,365.548,95.385,365.548Z" transform="translate(-27.928 -171.207)" fill="#fff"/>
      <path id="Path_101" data-name="Path 101" d="M414.79,172.52c-.27.907-4.881,8.177-11.535,10.649s-11.6,5.207-9.749,8.461,10.019,1.482,10.019,1.482-16.583,18-.969,28.326C421.59,234,441.5,189.04,441.5,189.04Z" transform="translate(-138.794 -115.079)" fill="#ebebeb"/>
      <path id="Path_102" data-name="Path 102" d="M446.062,197.731c-.048.083-6.322-3.656-14.014-8.35s-13.882-8.579-13.848-8.662,6.328,3.656,14.014,8.35S446.117,197.648,446.062,197.731Z" transform="translate(-146.51 -117.601)" fill="#e0e0e0"/>
      <path id="Path_103" data-name="Path 103" d="M440.818,205.048c-.055.083-6.834-3.9-15.143-8.883s-15-9.112-14.956-9.195,6.834,3.891,15.143,8.883S440.867,204.992,440.818,205.048Z" transform="translate(-144.209 -119.524)" fill="#e0e0e0"/>
      <path id="Path_104" data-name="Path 104" d="M434.026,211.434c-.049.083-7.665-4.4-17-10.005S400.161,191.2,400.21,191.12s7.665,4.39,17.005,10S434.075,211.344,434.026,211.434Z" transform="translate(-140.976 -120.8)" fill="#e0e0e0"/>
      <path id="Path_105" data-name="Path 105" d="M431.028,222.327c-.055.083-5.955-3.517-13.155-8.039s-13.038-8.253-12.982-8.309,5.948,3.517,13.155,8.039S431.076,222.244,431.028,222.327Z" transform="translate(-142.416 -125.371)" fill="#e0e0e0"/>
      <path id="Path_106" data-name="Path 106" d="M424.3,231.232c-.055.083-5.539-3.462-12.269-7.914S399.909,215.182,400,215.1s5.539,3.462,12.269,7.921S424.358,231.149,424.3,231.232Z" transform="translate(-140.911 -128.177)" fill="#e0e0e0"/>
      <path id="Path_107" data-name="Path 107" d="M416.768,238.931a4.618,4.618,0,0,1-.831-.388c-.526-.277-1.274-.692-2.195-1.2-1.842-1.032-4.348-2.52-7.062-4.258s-5.117-3.4-6.827-4.639c-.852-.623-1.537-1.135-2-1.5a4.153,4.153,0,0,1-.692-.6,4.648,4.648,0,0,1,.782.478l2.077,1.385c1.745,1.184,4.154,2.811,6.875,4.549s5.193,3.254,7,4.348l2.133,1.295A4.846,4.846,0,0,1,416.768,238.931Z" transform="translate(-140.038 -131.638)" fill="#e0e0e0"/>
      <path id="Path_108" data-name="Path 108" d="M399.928,200.945a11.327,11.327,0,0,1-3.677-1.689,11.182,11.182,0,0,1-3.081-2.617c.069-.083,1.385,1.135,3.275,2.313S399.976,200.841,399.928,200.945Z" transform="translate(-138.811 -122.497)" fill="#e0e0e0"/>
      <path id="Path_109" data-name="Path 109" d="M448.811,195a1.6,1.6,0,0,1-.235.395l-.741,1.073c-.644.935-1.6,2.271-2.77,3.905-2.389,3.282-5.761,7.762-9.61,12.608S428,222.128,425.346,225.2c-1.322,1.537-2.41,2.77-3.171,3.607-.36.395-.651.692-.879.962a2.207,2.207,0,0,1-.325.325,2.15,2.15,0,0,1,.27-.367l.831-1.011,3.074-3.67c2.6-3.109,6.169-7.436,10.019-12.276s7.249-9.3,9.693-12.539l2.894-3.836.789-1.032A2.91,2.91,0,0,1,448.811,195Z" transform="translate(-147.362 -121.994)" fill="#e0e0e0"/>
      <path id="Path_110" data-name="Path 110" d="M440.141,189.47c.076.062-6.536,8.69-14.769,19.269s-14.97,19.11-15.053,19.048,6.536-8.683,14.769-19.269S440.065,189.408,440.141,189.47Z" transform="translate(-144.086 -120.293)" fill="#e0e0e0"/>
      <path id="Path_111" data-name="Path 111" d="M429.843,183.31a2.7,2.7,0,0,1-.215.429l-.692,1.191c-.6,1.032-1.5,2.506-2.652,4.293-2.313,3.58-5.747,8.364-9.8,13.453s-7.879,9.555-10.642,12.8l-3.289,3.815-.914,1.032a2.7,2.7,0,0,1-.332.339,3.413,3.413,0,0,1,.277-.388l.859-1.073,3.206-3.891c2.714-3.282,6.508-7.776,10.552-12.858s7.505-9.832,9.867-13.37c1.184-1.766,2.112-3.213,2.77-4.224l.734-1.156a2.076,2.076,0,0,1,.27-.388Z" transform="translate(-141.315 -118.398)" fill="#e0e0e0"/>
      <path id="Path_112" data-name="Path 112" d="M422.288,178.2c.076.062-5.539,7.519-12.588,16.659s-12.754,16.5-12.872,16.437,5.539-7.519,12.588-16.666S422.205,178.137,422.288,178.2Z" transform="translate(-139.936 -116.826)" fill="#e0e0e0"/>
      <path id="Path_113" data-name="Path 113" d="M416.579,173.83a7.423,7.423,0,0,1-.6,1c-.194.312-.45.692-.762,1.122s-.658.928-1.087,1.44A39.564,39.564,0,0,1,397.5,189.582c-.616.256-1.2.429-1.7.6a13.326,13.326,0,0,1-1.3.395,8.077,8.077,0,0,1-1.129.27,6.6,6.6,0,0,1,1.087-.4c.353-.118.782-.256,1.274-.45s1.066-.381,1.669-.651a45,45,0,0,0,4.2-2,46.268,46.268,0,0,0,4.812-3.06,45.574,45.574,0,0,0,4.355-3.677,41.615,41.615,0,0,0,3.164-3.413c.443-.5.8-.983,1.122-1.385s.6-.782.817-1.087A6.419,6.419,0,0,1,416.579,173.83Z" transform="translate(-138.872 -115.482)" fill="#e0e0e0"/>
      <rect id="Rectangle_149" data-name="Rectangle 149" width="88.536" height="9.347" transform="translate(221.464 48.412)" fill="#e0e0e0"/>
      <path id="Path_114" data-name="Path 114" d="M376.57,172.52c-.27.907-4.881,8.177-11.535,10.649s-11.6,5.207-9.749,8.461,10.019,1.482,10.019,1.482-16.583,18-.969,28.326c19.034,12.567,38.926-32.4,38.926-32.4Z" transform="translate(-127.037 -115.079)" fill="#f5f5f5"/>
      <path id="Path_115" data-name="Path 115" d="M407.842,197.731c-.048.083-6.322-3.656-14.014-8.35s-13.882-8.579-13.848-8.662,6.329,3.656,14.014,8.35S407.9,197.648,407.842,197.731Z" transform="translate(-134.753 -117.601)" fill="#e0e0e0"/>
      <path id="Path_116" data-name="Path 116" d="M402.619,205.057c-.055.083-6.834-3.9-15.143-8.883S372.451,187.062,372.5,187s6.834,3.891,15.143,8.883S402.619,205,402.619,205.057Z" transform="translate(-132.452 -119.533)" fill="#e0e0e0"/>
      <path id="Path_117" data-name="Path 117" d="M395.809,211.434c-.048.083-7.665-4.4-17-10.005S361.944,191.2,362,191.119s7.665,4.39,17.005,10S395.858,211.344,395.809,211.434Z" transform="translate(-129.222 -120.8)" fill="#e0e0e0"/>
      <path id="Path_118" data-name="Path 118" d="M392.808,222.327c-.055.083-5.955-3.517-13.155-8.039s-13.038-8.253-12.982-8.309,5.948,3.517,13.155,8.039S392.856,222.244,392.808,222.327Z" transform="translate(-130.704 -125.371)" fill="#e0e0e0"/>
      <path id="Path_119" data-name="Path 119" d="M386.067,231.232c-.055.083-5.539-3.462-12.269-7.914s-12.124-8.136-12.068-8.219,5.539,3.462,12.269,7.921S386.15,231.149,386.067,231.232Z" transform="translate(-129.189 -128.177)" fill="#e0e0e0"/>
      <path id="Path_120" data-name="Path 120" d="M378.548,238.931a4.617,4.617,0,0,1-.831-.388c-.526-.277-1.274-.692-2.195-1.2-1.842-1.032-4.348-2.52-7.062-4.258s-5.117-3.4-6.827-4.639c-.852-.623-1.537-1.136-2-1.5a4.151,4.151,0,0,1-.692-.6,4.649,4.649,0,0,1,.782.478l2.077,1.385c1.745,1.184,4.154,2.811,6.875,4.549s5.193,3.254,6.993,4.348l2.139,1.295a4.846,4.846,0,0,1,.741.526Z" transform="translate(-128.336 -131.638)" fill="#e0e0e0"/>
      <path id="Path_121" data-name="Path 121" d="M361.708,200.945a11.327,11.327,0,0,1-3.677-1.689,11.182,11.182,0,0,1-3.081-2.617c.069-.083,1.385,1.135,3.275,2.313S361.749,200.841,361.708,200.945Z" transform="translate(-127.121 -122.497)" fill="#e0e0e0"/>
      <path id="Path_122" data-name="Path 122" d="M410.6,195a1.6,1.6,0,0,1-.235.395l-.741,1.073c-.644.935-1.6,2.271-2.77,3.905-2.389,3.282-5.761,7.762-9.61,12.608s-7.512,9.16-10.185,12.235c-1.322,1.537-2.41,2.77-3.171,3.607-.36.395-.651.692-.879.962a2.212,2.212,0,0,1-.325.325,2.143,2.143,0,0,1,.27-.367l.831-1.011,3.081-3.684c2.6-3.109,6.169-7.436,10.019-12.276s7.249-9.3,9.693-12.539l2.894-3.836.789-1.032A2.911,2.911,0,0,1,410.6,195Z" transform="translate(-135.584 -121.994)" fill="#e0e0e0"/>
      <path id="Path_123" data-name="Path 123" d="M401.921,189.47c.076.062-6.536,8.69-14.769,19.269s-14.969,19.11-15.053,19.048,6.536-8.683,14.769-19.269S401.845,189.408,401.921,189.47Z" transform="translate(-132.329 -120.293)" fill="#e0e0e0"/>
      <path id="Path_124" data-name="Path 124" d="M391.623,183.31a2.7,2.7,0,0,1-.215.429l-.692,1.191c-.6,1.032-1.5,2.506-2.652,4.293-2.313,3.58-5.747,8.364-9.8,13.453s-7.879,9.555-10.642,12.8l-3.289,3.815-.914,1.032a2.7,2.7,0,0,1-.332.339,2.55,2.55,0,0,1,.277-.388l.859-1.073,3.206-3.891c2.714-3.282,6.509-7.776,10.552-12.858s7.505-9.832,9.867-13.37c1.184-1.766,2.112-3.213,2.77-4.224.3-.478.547-.859.734-1.156a2.078,2.078,0,0,1,.27-.388Z" transform="translate(-129.604 -118.398)" fill="#e0e0e0"/>
      <path id="Path_125" data-name="Path 125" d="M384.069,178.2c.076.062-5.539,7.519-12.588,16.659s-12.788,16.5-12.872,16.437,5.539-7.519,12.588-16.666S383.986,178.137,384.069,178.2Z" transform="translate(-128.23 -116.826)" fill="#e0e0e0"/>
      <path id="Path_126" data-name="Path 126" d="M378.359,173.83a7.415,7.415,0,0,1-.6,1c-.194.312-.45.692-.762,1.122s-.658.928-1.087,1.44a40.217,40.217,0,0,1-12.373,10.247,39.918,39.918,0,0,1-4.265,1.946c-.616.256-1.2.429-1.7.6a13.318,13.318,0,0,1-1.3.395,8.079,8.079,0,0,1-1.129.27,6.6,6.6,0,0,1,1.087-.4c.353-.118.782-.256,1.274-.45s1.066-.381,1.669-.651a45,45,0,0,0,4.2-2,46.271,46.271,0,0,0,4.819-3.012,45.575,45.575,0,0,0,4.355-3.677,41.623,41.623,0,0,0,3.164-3.413c.443-.5.8-.983,1.122-1.385s.6-.782.81-1.087A6.7,6.7,0,0,1,378.359,173.83Z" transform="translate(-127.17 -115.482)" fill="#e0e0e0"/>
      <rect id="Rectangle_150" data-name="Rectangle 150" width="5.664" height="5.664" transform="translate(262.952 1.634)" fill="#e0e0e0"/>
      <rect id="Rectangle_151" data-name="Rectangle 151" width="52.774" height="33.304" transform="translate(239.528 14.831)" fill="#f5f5f5"/>
      <path id="Path_127" data-name="Path 127" d="M371.75,107.4s8.08-8.44,28.34-8.1,24.455,8.1,24.455,8.1Z" transform="translate(-132.222 -92.552)" fill="#f5f5f5"/>
      <path id="Path_128" data-name="Path 128" d="M424.136,111.687c0,.1-11.868.18-26.5.18s-26.5-.083-26.5-.18,11.861-.187,26.5-.187S424.136,111.583,424.136,111.687Z" transform="translate(-132.034 -96.309)" fill="#e0e0e0"/>
      <path id="Path_129" data-name="Path 129" d="M447.68,111.767H459.6a1.911,1.911,0,0,1,1.911,1.911v.734a1.911,1.911,0,0,1-1.911,1.911H447.68v-4.556Z" transform="translate(-155.578 -96.389)" fill="#e0e0e0"/>
      <path id="Path_130" data-name="Path 130" d="M0,.007H11.923a1.911,1.911,0,0,1,1.911,1.911v.734a1.911,1.911,0,0,1-1.911,1.911H0V0Z" transform="translate(239.658 19.941) rotate(180)" fill="#e0e0e0"/>
      <rect id="Rectangle_152" data-name="Rectangle 152" width="14.284" height="3.268" rx="1.634" transform="translate(258.777 0)" fill="#e0e0e0"/>
    </g>
    <g id="freepik--Table--inject-35" transform="translate(28.483 295.4)">
      <path id="Path_131" data-name="Path 131" d="M335.113,403.69c0,.1-68.42.18-152.8.18S29.5,403.787,29.5,403.69s68.406-.18,152.814-.18S335.113,403.593,335.113,403.69Z" transform="translate(-29.5 -403.51)" fill="#263238"/>
    </g>
    <g id="freepik--Character--inject-35" transform="translate(99.674 62.321)">
      <path id="Path_132" data-name="Path 132" d="M285.61,247.928c-.277,1.184-6.169,54.831-6.169,54.831l-5.331,7.582-1.447,11.6,11.078,27.4H201.776s-1.295-14.478-1.184-18.348,2.077-18.071,2.077-18.071l-.187-14.423-3.1-62.862,27.765-8.96c16.777-2.887,41.467,9.693,41.467,9.693Z" transform="translate(-152.813 -115.928)" fill="#0d7684"/>
      <path id="Path_133" data-name="Path 133" d="M307.549,183.331C311.2,183.1,314,180.056,316,177c1.883-2.853,3.462-6.051,3.5-9.465,0-2.963-1.163-5.788-2.326-8.516a35.622,35.622,0,0,0-4.293-8.053,11.814,11.814,0,0,0-7.568-4.729" transform="translate(-185.401 -91.356)" fill="#263238"/>
      <path id="Path_134" data-name="Path 134" d="M246.94,193.844l.042-.907,2.139-52.379,1.184-2.97,26.2-3.607a15.08,15.08,0,0,1,16.243,14.54c.332,9.534.374,21.187-.955,28.256-2.659,14.18-13.654,15.7-13.654,15.7s-.187,3.718-.395,9.1c-.152,4.057-3.739,15.766-7.8,15.883-1.745.048-6.509-1.468-8.78-1.8C246.836,213.563,246.94,193.844,246.94,193.844Z" transform="translate(-167.442 -87.57)" fill="#ffbe9d"/>
      <path id="Path_135" data-name="Path 135" d="M304.486,166.182a1.828,1.828,0,0,1-1.814,1.8,1.752,1.752,0,0,1-1.842-1.7,1.828,1.828,0,0,1,1.814-1.8,1.752,1.752,0,0,1,1.842,1.7Z" transform="translate(-184.019 -96.965)" fill="#263238"/>
      <path id="Path_136" data-name="Path 136" d="M305.994,162.69c-.235.235-1.592-.831-3.566-.879s-3.462.893-3.649.644c-.1-.1.139-.533.782-.969a4.992,4.992,0,0,1,2.929-.817,4.847,4.847,0,0,1,2.832,1C305.911,162.15,306.105,162.586,305.994,162.69Z" transform="translate(-183.382 -95.793)" fill="#263238"/>
      <path id="Path_137" data-name="Path 137" d="M276.636,165.912a1.828,1.828,0,0,1-1.814,1.8,1.752,1.752,0,0,1-1.842-1.7,1.828,1.828,0,0,1,1.814-1.8,1.752,1.752,0,0,1,1.842,1.7Z" transform="translate(-175.453 -96.882)" fill="#263238"/>
      <path id="Path_138" data-name="Path 138" d="M278,162.45c-.235.235-1.6-.831-3.566-.879s-3.462.893-3.649.644c-.1-.1.138-.533.782-.969a4.978,4.978,0,0,1,2.929-.817,4.847,4.847,0,0,1,2.832,1C277.921,161.91,278.115,162.346,278,162.45Z" transform="translate(-174.772 -95.719)" fill="#263238"/>
      <path id="Path_139" data-name="Path 139" d="M290.792,177.434a13.083,13.083,0,0,1,3.22-.485c.505-.042.983-.132,1.08-.471a2.6,2.6,0,0,0-.3-1.5l-1.385-3.87c-1.911-5.539-3.289-10.04-3.06-10.116s1.953,4.334,3.87,9.846c.457,1.385.9,2.652,1.316,3.891a2.9,2.9,0,0,1,.208,1.987,1.267,1.267,0,0,1-.845.692,3.322,3.322,0,0,1-.859.09A12.232,12.232,0,0,1,290.792,177.434Z" transform="translate(-180.788 -95.891)" fill="#263238"/>
      <path id="Path_140" data-name="Path 140" d="M283.565,215.979a36.364,36.364,0,0,1-18.985-5.629s4.369,9.936,18.695,9Z" transform="translate(-172.869 -111.066)" fill="#eb996e"/>
      <path id="Path_141" data-name="Path 141" d="M286.948,190.948a3.545,3.545,0,0,0-3.143-1.385,3.268,3.268,0,0,0-2.278,1.136,2.077,2.077,0,0,0-.215,2.347,2.375,2.375,0,0,0,2.562.692,7.4,7.4,0,0,0,2.562-1.433,2.133,2.133,0,0,0,.575-.568.651.651,0,0,0,0-.734" transform="translate(-177.934 -104.672)" fill="#eb996e"/>
      <path id="Path_142" data-name="Path 142" d="M282.385,186.48c.325,0,.27,2.126,2.077,3.7s4.071,1.385,4.085,1.7c0,.132-.519.4-1.489.4a5.3,5.3,0,0,1-3.407-1.295,4.625,4.625,0,0,1-1.586-3.095C282.018,186.985,282.24,186.466,282.385,186.48Z" transform="translate(-178.246 -103.728)" fill="#263238"/>
      <path id="Path_143" data-name="Path 143" d="M278.255,151.516c-.208.526-2.167.222-4.487.436s-4.21.789-4.5.3c-.132-.235.208-.692.976-1.226a7.845,7.845,0,0,1,6.848-.568C277.93,150.83,278.345,151.26,278.255,151.516Z" transform="translate(-174.302 -92.493)" fill="#263238"/>
      <path id="Path_144" data-name="Path 144" d="M305.412,154.372c-.36.443-1.7-.062-3.337-.125s-3.026.215-3.33-.263c-.132-.229.1-.692.692-1.08a4.847,4.847,0,0,1,5.373.312C305.391,153.693,305.571,154.15,305.412,154.372Z" transform="translate(-183.367 -93.202)" fill="#263238"/>
      <path id="Path_145" data-name="Path 145" d="M242.078,160.256a26.311,26.311,0,0,0-7.194,6.508c-2.271,2.846-3.746,6.529-3.178,10.13.782,4.992,5.11,8.537,9.133,11.6,2.313.332,4.037-2.223,4.4-4.535s.042-4.812,1.136-6.882c.983-1.856,2.922-2.991,4.217-4.646,2.41-3.074,2.25-7.4,1.662-11.265s0-9.693,4.964-15.233C257.214,145.978,245.138,150.694,242.078,160.256Z" transform="translate(-162.719 -91.261)" fill="#263238"/>
      <path id="Path_146" data-name="Path 146" d="M230.646,179.02c2.077-3,1.551-7.395-.852-10.171a11.851,11.851,0,0,0-9.936-3.67,10.335,10.335,0,0,0-7.069,3.317,6.536,6.536,0,0,0-.81,7.45c.789,1.246,2.16,2.423,1.849,3.87s-1.953,1.911-3.116,2.728a5.962,5.962,0,0,0-2.077,6.647,7.422,7.422,0,0,0,5.38,4.688,9.88,9.88,0,0,0,7.159-1.288c0,2.223,2.389,3.919,4.6,3.732a7.347,7.347,0,0,0,5.269-3.677,16.1,16.1,0,0,0,2.174-9,47.985,47.985,0,0,0-1.433-9.278" transform="translate(-155.566 -97.163)" fill="#263238"/>
      <path id="Path_147" data-name="Path 147" d="M241.024,195.5a1.44,1.44,0,0,1-.325-.208l-.9-.651c-.769-.575-1.883-1.385-3.178-2.548a23.084,23.084,0,0,1-4.05-4.5,13.654,13.654,0,0,1-2.375-7,9.638,9.638,0,0,1,.6-3.822,9.479,9.479,0,0,1,1.939-3.047,27.694,27.694,0,0,1,4.764-3.732,29.189,29.189,0,0,0,3.22-2.451c.353-.325.616-.589.789-.775a1.759,1.759,0,0,1,.277-.263,2.76,2.76,0,0,1-.228.312,7.75,7.75,0,0,1-.741.824,24.691,24.691,0,0,1-3.171,2.569,29.079,29.079,0,0,0-4.667,3.753,9.085,9.085,0,0,0-1.849,2.943,9.416,9.416,0,0,0-.575,3.684,13.494,13.494,0,0,0,2.271,6.827,23.811,23.811,0,0,0,3.947,4.494c1.267,1.149,2.354,2.015,3.095,2.624l.852.692A1.919,1.919,0,0,1,241.024,195.5Z" transform="translate(-162.289 -97.584)" fill="#455a64"/>
      <path id="Path_148" data-name="Path 148" d="M225.463,180.1c-.062.035-.422-.734-1.336-1.7a8.745,8.745,0,0,0-9.472-2.32c-1.253.443-1.932.949-1.966.893s.138-.159.45-.381a7.8,7.8,0,0,1,1.426-.755,8.558,8.558,0,0,1,9.756,2.389,7.312,7.312,0,0,1,.914,1.329A1.717,1.717,0,0,1,225.463,180.1Z" transform="translate(-156.905 -100.262)" fill="#455a64"/>
      <path id="Path_149" data-name="Path 149" d="M215.088,186.849a2.366,2.366,0,0,1,1.149-1.274,4.985,4.985,0,0,1,1.773-.637,12.012,12.012,0,0,1,2.278-.132,15.926,15.926,0,0,1,4.071.644,5.373,5.373,0,0,1,1.579.637,15.384,15.384,0,0,1-1.648-.395,20.329,20.329,0,0,0-4.016-.526,7.852,7.852,0,0,0-3.912.63A5.344,5.344,0,0,0,215.088,186.849Z" transform="translate(-157.643 -103.211)" fill="#455a64"/>
      <path id="Path_150" data-name="Path 150" d="M211.65,199.9c0-.062.99-.042,2.548-.346a14.887,14.887,0,0,0,5.629-2.368,15.067,15.067,0,0,0,4.154-4.473c.817-1.35,1.142-2.292,1.2-2.264a2.584,2.584,0,0,1-.187.692,12.466,12.466,0,0,1-.8,1.724,13.882,13.882,0,0,1-9.964,6.965,12.1,12.1,0,0,1-1.89.145A2.021,2.021,0,0,1,211.65,199.9Z" transform="translate(-156.587 -104.948)" fill="#455a64"/>
      <path id="Path_151" data-name="Path 151" d="M232.14,171.184a11.885,11.885,0,0,0,1.295.852,7.921,7.921,0,0,0,4.057.886,9.4,9.4,0,0,0,2.825-.54,10.455,10.455,0,0,0,2.88-1.641,16.908,16.908,0,0,0,4.556-6.058,62.312,62.312,0,0,0,2.631-7.235,41.6,41.6,0,0,1,2.3-5.9,17.919,17.919,0,0,1,2.306-3.594,8.088,8.088,0,0,1,.789-.852,2.134,2.134,0,0,1,.3-.263s-.374.415-.983,1.2a19.75,19.75,0,0,0-2.188,3.614,43.519,43.519,0,0,0-2.209,5.892,58.53,58.53,0,0,1-2.624,7.284A16.867,16.867,0,0,1,243.4,171a10.538,10.538,0,0,1-2.977,1.655,9.374,9.374,0,0,1-2.922.519,7.748,7.748,0,0,1-4.154-1.025,3.461,3.461,0,0,1-.561-.374,2.766,2.766,0,0,1-.381-.312,2.075,2.075,0,0,1-.263-.284Z" transform="translate(-162.89 -91.542)" fill="#455a64"/>
      <path id="Path_152" data-name="Path 152" d="M252.068,163.42c.035,0-.249.415-.568,1.226a12.22,12.22,0,0,0-.692,3.594,30,30,0,0,1-.616,5.484,11.473,11.473,0,0,1-3.628,5.671,10.988,10.988,0,0,1-6.183,2.666,11.646,11.646,0,0,1-5.449-.838,10.988,10.988,0,0,1-3.157-1.966,7.423,7.423,0,0,1-.692-.692,1.566,1.566,0,0,1-.222-.277c.035,0,.346.346,1.025.886a11.487,11.487,0,0,0,3.164,1.842,11.612,11.612,0,0,0,5.325.741,10.739,10.739,0,0,0,5.975-2.61,11.251,11.251,0,0,0,3.545-5.484,31.678,31.678,0,0,0,.692-5.415,11.66,11.66,0,0,1,.817-3.628,6.68,6.68,0,0,1,.485-.893A1.54,1.54,0,0,1,252.068,163.42Z" transform="translate(-162.496 -96.639)" fill="#455a64"/>
      <path id="Path_153" data-name="Path 153" d="M318.483,180.609a8.385,8.385,0,0,0,.6-.637,6.4,6.4,0,0,0,1.212-2.036,8.309,8.309,0,0,0,.492-3.462,11.286,11.286,0,0,0-1.184-4.154,38.918,38.918,0,0,0-4.494-6.515,18.121,18.121,0,0,1-1.343-2.022,3.586,3.586,0,0,1-.388-.8,4.557,4.557,0,0,1,.505.734c.312.471.789,1.142,1.426,1.932a33.662,33.662,0,0,1,4.618,6.515,11.2,11.2,0,0,1,1.191,4.265,8.26,8.26,0,0,1-.582,3.573,6.127,6.127,0,0,1-1.385,2.036,4.463,4.463,0,0,1-.505.422C318.559,180.582,318.49,180.623,318.483,180.609Z" transform="translate(-187.88 -95.888)" fill="#455a64"/>
      <path id="Path_154" data-name="Path 154" d="M316.436,186.817a10.428,10.428,0,0,0,1.71-2.479,7.843,7.843,0,0,0,.692-3.157,9.812,9.812,0,0,0-.8-3.884,33.929,33.929,0,0,0-1.869-3.587c-.6-1.094-1.122-2.077-1.544-2.943s-.741-1.537-.949-2.022a3.2,3.2,0,0,1-.284-.775,4.422,4.422,0,0,1,.409.692l1.052,1.966c.45.831.99,1.814,1.606,2.9a30.049,30.049,0,0,1,1.911,3.607,9.845,9.845,0,0,1,.8,4.03,7.989,7.989,0,0,1-.782,3.261,7.124,7.124,0,0,1-1.309,1.842,5.7,5.7,0,0,1-.457.409C316.506,186.782,316.443,186.824,316.436,186.817Z" transform="translate(-187.883 -98.037)" fill="#455a64"/>
      <path id="Path_155" data-name="Path 155" d="M245.76,137.811c4.743-8.094,11.376-15.62,20.5-17.8a33.6,33.6,0,0,1,26.311,4.411V108.46l-11.39-36.766L272.313,67,251.348,78.992l-5.421,44.223Z" transform="translate(-167.08 -67)" fill="#0d7684"/>
      <g id="Group_173" data-name="Group 173" transform="translate(78.68)" opacity="0.7">
        <path id="Path_156" data-name="Path 156" d="M245.76,137.811c4.743-8.094,11.376-15.62,20.5-17.8a33.6,33.6,0,0,1,26.311,4.411V108.46l-11.39-36.766L272.313,67,251.348,78.992l-5.421,44.223Z" transform="translate(-245.76 -67)" fill="#fff"/>
      </g>
      <path id="Path_157" data-name="Path 157" d="M292.219,125.71a2.769,2.769,0,0,1-.505-.235c-.325-.159-.782-.436-1.385-.692a30.466,30.466,0,0,0-5.442-2.036,35.52,35.52,0,0,0-8.516-1.226,42.708,42.708,0,0,0-5.089.187,25.73,25.73,0,0,0-5.352.976,36.1,36.1,0,0,0-9.4,4.708,32.69,32.69,0,0,0-6.391,5.74,25.688,25.688,0,0,0-3.22,4.847c-.263.6-.478,1.08-.644,1.44a2.605,2.605,0,0,1-.242.5,2.872,2.872,0,0,1,.18-.519c.132-.339.312-.845.582-1.482a24.282,24.282,0,0,1,3.143-4.937,32.468,32.468,0,0,1,6.4-5.851,35.714,35.714,0,0,1,9.486-4.777,26.228,26.228,0,0,1,5.428-.983,41.725,41.725,0,0,1,5.124-.166,35.008,35.008,0,0,1,8.579,1.309,28.388,28.388,0,0,1,5.435,2.16c.623.3,1.073.6,1.385.775A3.3,3.3,0,0,1,292.219,125.71Z" transform="translate(-167.163 -83.668)" fill="#263238"/>
      <path id="Path_158" data-name="Path 158" d="M289.938,104.853c-.1,0-1.586-8.385-3.317-18.764s-3.06-18.805-2.963-18.819,1.586,8.385,3.317,18.764S290.035,104.839,289.938,104.853Z" transform="translate(-178.736 -67.083)" fill="#263238"/>
      <path id="Path_159" data-name="Path 159" d="M272.647,107.926c-.1,0,.055-7.969.353-17.8s.609-17.794.692-17.794-.062,7.976-.353,17.808S272.751,107.933,272.647,107.926Z" transform="translate(-175.341 -68.64)" fill="#263238"/>
      <path id="Path_160" data-name="Path 160" d="M255.574,116.853a1.462,1.462,0,0,1,0-.381,10.866,10.866,0,0,1,.042-1.087c.048-.942.138-2.313.27-4,.263-3.365.692-8.018,1.385-13.155s1.385-9.693,1.932-13.059c.291-1.669.54-3.012.734-3.94.09-.429.166-.775.222-1.059a1.322,1.322,0,0,1,.1-.367,1.579,1.579,0,0,1,0,.381c-.048.284-.1.637-.159,1.073-.152.983-.367,2.32-.616,3.954-.519,3.337-1.184,7.956-1.828,13.065s-1.142,9.749-1.468,13.107c-.159,1.648-.291,2.991-.381,3.981-.048.443-.083.8-.118,1.087A1.418,1.418,0,0,1,255.574,116.853Z" transform="translate(-170.095 -70.94)" fill="#263238"/>
      <path id="Path_161" data-name="Path 161" d="M295.27,125.44a7.618,7.618,0,0,1,0,1.606c-.083,1.122-.18,2.416-.284,3.85s-.208,2.728-.291,3.85a7.481,7.481,0,0,1-.2,1.592,6.6,6.6,0,0,1-.055-1.606c0-.99.076-2.354.187-3.864s.256-2.867.388-3.85A6.926,6.926,0,0,1,295.27,125.44Z" transform="translate(-182.046 -84.977)" fill="#263238"/>
      <path id="Path_162" data-name="Path 162" d="M188.574,351.666a7.8,7.8,0,0,0-4.757-2.576c-5.318-.582-10.164,1.71-14.36,5.034l-.824,1.5c-2.257,1.759-4.611,3.767-5.311,6.543a40.81,40.81,0,0,0-.962,8.807,6.46,6.46,0,0,0,1.793,4.2,5.775,5.775,0,0,0,3.891,1.89,14.167,14.167,0,0,0,8.108-1.814,22.385,22.385,0,0,0,6.356-5.47,31.158,31.158,0,0,0,6.481-13.848A5.7,5.7,0,0,0,188.574,351.666Z" transform="translate(-141.425 -153.682)" fill="#0d7684"/>
      <g id="Group_174" data-name="Group 174" transform="translate(20.935 195.318)" opacity="0.4">
        <path id="Path_163" data-name="Path 163" d="M188.574,351.666a7.8,7.8,0,0,0-4.757-2.576c-5.318-.582-10.164,1.71-14.36,5.034l-.824,1.5c-2.257,1.759-4.611,3.767-5.311,6.543a40.81,40.81,0,0,0-.962,8.807,6.46,6.46,0,0,0,1.793,4.2,5.775,5.775,0,0,0,3.891,1.89,14.167,14.167,0,0,0,8.108-1.814,22.385,22.385,0,0,0,6.356-5.47,31.158,31.158,0,0,0,6.481-13.848A5.7,5.7,0,0,0,188.574,351.666Z" transform="translate(-162.36 -349)"/>
      </g>
      <path id="Path_164" data-name="Path 164" d="M178.7,239.81c-.838.277-42.333,59.089-43.448,63.008s-7.187,13.232,1.385,21.977A171.373,171.373,0,0,0,153.6,339.84c-1.925-14.824,12.664-26.775,22.849-23.673l-7.789-5.283,17.8-23.645" transform="translate(-132.124 -120.103)" fill="#0d7684"/>
      <path id="Path_165" data-name="Path 165" d="M321.176,257.56s6.529,8.163,8.156,13.446c1.385,4.514,8.793,25.4,8.793,25.4l13.481,33.408a17.306,17.306,0,0,0-2.541,5.449c-.194,1-1.9,16.347-5.989,22.849l-21.623-9.693-2.728-19.352L315,312.39l3.85-44.9Z" transform="translate(-188.378 -125.557)" fill="#0d7684"/>
      <path id="Path_166" data-name="Path 166" d="M236.27,224.96s5.539-5.11,7.076-5.83c0,0,1.759,6,6.924,8.842s8.5,5.9,8.5,6.308v7.443S237.6,235.941,236.27,224.96Z" transform="translate(-164.16 -113.763)" fill="#0d7684"/>
      <path id="Path_167" data-name="Path 167" d="M241.38,266.718l41.128-2.486-1.925-23.493-1.766-3.96-2.77-5a7.908,7.908,0,0,1-1.946,4.563,15.676,15.676,0,0,1-8.357,4.417l-.81,4.847L244.094,237s-2.714,28.388-2.714,29.039" transform="translate(-165.732 -117.649)" fill="#0d7684"/>
      <path id="Path_168" data-name="Path 168" d="M265.126,244.72a1.573,1.573,0,0,1,0,.318c-.035.229-.083.54-.138.935q-.2,1.267-.568,3.635v.062h-.069l-16.915.519-2.77.076-1.447.042a4.461,4.461,0,0,0-1.385.18,3.178,3.178,0,0,0-1.959,1.966,3.711,3.711,0,0,0-.159,1.475v1.579c.09,4.237.187,8.724.284,13.363.318,13,.519,24.781.457,33.3,0,4.265-.069,7.713-.125,10.1-.035,1.17-.055,2.077-.076,2.77v.692a1.109,1.109,0,0,1,0,.242.934.934,0,0,1,0-.242v-13.55c0-8.523-.242-20.294-.561-33.3-.09-4.639-.18-9.126-.27-13.363v-1.579a4.154,4.154,0,0,1,.187-1.586,3.5,3.5,0,0,1,2.167-2.174,4.736,4.736,0,0,1,1.5-.187l1.44-.035,2.77-.069,16.922-.374-.076.069.637-3.621.18-.928a2.287,2.287,0,0,1-.028-.318Z" transform="translate(-165.127 -121.62)" fill="#263238"/>
      <circle id="Ellipse_26" data-name="Ellipse 26" cx="1.759" cy="1.759" r="1.759" transform="translate(77.607 135.278)" fill="#263238"/>
      <path id="Path_169" data-name="Path 169" d="M257.118,262.13c0,.111-1.98.367-4.39.928s-4.314,1.2-4.348,1.1a15.927,15.927,0,0,1,4.265-1.454A16.465,16.465,0,0,1,257.118,262.13Z" transform="translate(-167.885 -126.983)" fill="#263238"/>
      <path id="Path_170" data-name="Path 170" d="M253.958,266.606a29.038,29.038,0,0,1-3.074-.644,28.253,28.253,0,0,1-3.074-.644,13.848,13.848,0,0,1,6.148,1.288Z" transform="translate(-167.71 -127.963)" fill="#263238"/>
      <circle id="Ellipse_27" data-name="Ellipse 27" cx="1.759" cy="1.759" r="1.759" transform="translate(77.607 155.17)" fill="#263238"/>
      <path id="Path_171" data-name="Path 171" d="M257.118,290.859c0,.1-1.98.36-4.39.921s-4.314,1.2-4.348,1.1a15.759,15.759,0,0,1,4.265-1.447A16.147,16.147,0,0,1,257.118,290.859Z" transform="translate(-167.885 -135.815)" fill="#263238"/>
      <path id="Path_172" data-name="Path 172" d="M253.958,295.326a29.038,29.038,0,0,1-3.074-.644,28.253,28.253,0,0,1-3.074-.644A13.848,13.848,0,0,1,253.958,295.326Z" transform="translate(-167.71 -136.791)" fill="#263238"/>
      <circle id="Ellipse_28" data-name="Ellipse 28" cx="1.759" cy="1.759" r="1.759" transform="translate(77.607 175.068)" fill="#263238"/>
      <path id="Path_173" data-name="Path 173" d="M257.118,319.579c0,.1-1.98.36-4.39.921s-4.314,1.2-4.348,1.1a15.756,15.756,0,0,1,4.265-1.447A16.146,16.146,0,0,1,257.118,319.579Z" transform="translate(-167.885 -144.643)" fill="#263238"/>
      <path id="Path_174" data-name="Path 174" d="M253.958,324.035a29.03,29.03,0,0,1-3.074-.644,28.259,28.259,0,0,1-3.074-.644,9.361,9.361,0,0,1,3.15.291,9.174,9.174,0,0,1,3,1Z" transform="translate(-167.71 -145.609)" fill="#263238"/>
      <path id="Path_175" data-name="Path 175" d="M204.293,295.227a2.4,2.4,0,0,1,.1-.505c.083-.36.2-.831.346-1.419.3-1.239.762-3.019,1.281-5.228s1.094-4.847,1.544-7.824a54.054,54.054,0,0,0,.637-9.693A35.776,35.776,0,0,0,206.55,261a27.875,27.875,0,0,0-3.42-7.139,23.049,23.049,0,0,0-3.462-4.071c-.443-.45-.852-.734-1.094-.962a2.279,2.279,0,0,1-.374-.353,3.368,3.368,0,0,1,.415.291,13.684,13.684,0,0,1,1.149.921,21.879,21.879,0,0,1,3.58,4.03,27.757,27.757,0,0,1,3.531,7.18,35.568,35.568,0,0,1,1.689,9.652,52.028,52.028,0,0,1-.692,9.777c-.464,2.977-1.073,5.622-1.62,7.831s-1.046,3.981-1.385,5.207c-.166.582-.3,1.052-.409,1.385a3.7,3.7,0,0,1-.166.485Z" transform="translate(-152.45 -122.777)" fill="#263238"/>
      <path id="Path_176" data-name="Path 176" d="M205.453,304.481a5.537,5.537,0,0,1-.235-.921c-.132-.6-.284-1.468-.443-2.555a55.65,55.65,0,0,1-.547-8.537,55.019,55.019,0,0,1,.789-8.523c.187-1.073.367-1.946.519-2.534a4.721,4.721,0,0,1,.263-.921,5.146,5.146,0,0,1-.125.949c-.111.6-.249,1.468-.4,2.548a65.928,65.928,0,0,0-.692,8.489,66.857,66.857,0,0,0,.443,8.5c.125,1.087.235,1.959.325,2.562a4.21,4.21,0,0,1,.1.949Z" transform="translate(-154.302 -132.624)" fill="#263238"/>
      <path id="Path_177" data-name="Path 177" d="M149.15,338.582a7.618,7.618,0,0,1,1.073-.27,14.932,14.932,0,0,0,2.77-1.122c1.129-.582,2.41-1.385,3.87-2.264a15.426,15.426,0,0,1,5.11-2.126,8.69,8.69,0,0,1,5.442.893,16.8,16.8,0,0,1,3.67,2.645,23.01,23.01,0,0,1,2.077,2.2,6.236,6.236,0,0,1,.692.893,8.045,8.045,0,0,1-.775-.8,29.6,29.6,0,0,0-2.16-2.077,17.6,17.6,0,0,0-3.649-2.541,8.44,8.44,0,0,0-5.234-.831,15.37,15.37,0,0,0-5.006,2.077c-1.461.845-2.77,1.641-3.926,2.2a12.8,12.8,0,0,1-2.867,1.025,7.55,7.55,0,0,1-.824.125A1.1,1.1,0,0,1,149.15,338.582Z" transform="translate(-137.361 -148.673)" fill="#263238"/>
      <path id="Path_178" data-name="Path 178" d="M169.86,320.39a2.691,2.691,0,0,1,.658.256,4.846,4.846,0,0,1,.741.367,10.976,10.976,0,0,1,.942.568,15.348,15.348,0,0,1,2.236,1.786,16.1,16.1,0,0,1,3.857,5.8,15.231,15.231,0,0,1,.782,2.77,10.589,10.589,0,0,1,.159,1.087,6.381,6.381,0,0,1,.055.824,2.334,2.334,0,0,1,0,.692c-.069,0-.1-1-.443-2.569a17.313,17.313,0,0,0-.838-2.68,19.661,19.661,0,0,0-1.613-3.033,18.627,18.627,0,0,0-2.174-2.652,17.021,17.021,0,0,0-2.146-1.814C170.746,320.861,169.832,320.452,169.86,320.39Z" transform="translate(-143.732 -144.891)" fill="#263238"/>
      <g id="Group_175" data-name="Group 175" transform="translate(9.793 178.669)" opacity="0.4">
        <path id="Path_179" data-name="Path 179" d="M171.7,335.085a16.929,16.929,0,0,0-14.54-10.1,5.055,5.055,0,0,0-2.465.381,2.146,2.146,0,0,0-1.26,2.008,6.134,6.134,0,0,1,.194,1.212c-.1.921-1.246,1.253-2.139,1.509a9,9,0,0,0-4.452,2.9c-.6.692-1.087,1.807-.512,2.555a2.189,2.189,0,0,0,2.153.471c2.853-.5,5.394-2.036,8-3.3s5.539-2.278,8.364-1.641c3.123.692,5.442,3.254,7.54,5.671" transform="translate(-146.269 -324.966)"/>
      </g>
      <path id="Path_180" data-name="Path 180" d="M299.909,336.75a2.309,2.309,0,0,1-.256.3l-.8.817c-.339.353-.769.776-1.288,1.246s-1.094,1.032-1.773,1.592a61.357,61.357,0,0,1-18.348,10.808c-2.195.8-4.2,1.433-5.913,1.869-.852.235-1.634.395-2.319.547s-1.274.27-1.766.346l-1.115.18a1.424,1.424,0,0,1-.395.042,1.458,1.458,0,0,1,.381-.111l1.108-.249c.478-.1,1.066-.229,1.745-.4s1.454-.346,2.292-.6c1.7-.464,3.69-1.115,5.865-1.932a64.393,64.393,0,0,0,13.363-6.986c1.918-1.316,3.587-2.583,4.937-3.711.692-.54,1.274-1.08,1.8-1.537s.976-.865,1.329-1.2L299.6,337A1.712,1.712,0,0,1,299.909,336.75Z" transform="translate(-173.287 -149.919)" fill="#263238"/>
      <path id="Path_181" data-name="Path 181" d="M321.45,271a2.342,2.342,0,0,1-.048.464c-.048.339-.118.782-.2,1.329l-.762,4.847c-.637,4.106-1.475,9.8-2.333,16.084s-1.606,11.958-2.167,16.119l-.651,4.881c-.083.547-.145.99-.194,1.329a2.364,2.364,0,0,1-.09.457,2.014,2.014,0,0,1,0-.471q.042-.512.125-1.329c.132-1.2.312-2.867.54-4.9.478-4.154,1.191-9.839,2.077-16.133s1.738-11.978,2.437-16.077c.36-2.077.651-3.711.886-4.847.1-.54.194-.976.263-1.316A1.813,1.813,0,0,1,321.45,271Z" transform="translate(-188.375 -129.702)" fill="#263238"/>
      <path id="Path_182" data-name="Path 182" d="M290.48,363.024a2.964,2.964,0,0,1,.374-.692c.263-.409.651-1,1.142-1.724.99-1.44,2.4-3.407,4.009-5.539s3.136-4,4.272-5.331c.561-.692,1.025-1.2,1.385-1.565s.519-.554.54-.533a3.317,3.317,0,0,1-.429.623l-1.3,1.7c-1.073,1.385-2.562,3.268-4.154,5.387s-3.047,4.057-4.085,5.463l-1.26,1.613a3.14,3.14,0,0,1-.492.6Z" transform="translate(-180.836 -153.266)" fill="#263238"/>
      <path id="Path_183" data-name="Path 183" d="M344.207,347.343a9.63,9.63,0,0,1-1.108-.457c-.692-.3-1.731-.741-3.026-1.191a29.773,29.773,0,0,0-10.5-1.766,8.309,8.309,0,0,0-2.929.6,7.52,7.52,0,0,0-2.306,1.558,12.027,12.027,0,0,0-2.6,4.023,32.169,32.169,0,0,0-1.094,3.067,7.9,7.9,0,0,1-.395,1.136,8.224,8.224,0,0,1,.256-1.177,27.364,27.364,0,0,1,1-3.123,11.923,11.923,0,0,1,2.6-4.113,7.762,7.762,0,0,1,2.4-1.648,8.613,8.613,0,0,1,3.047-.637,28.152,28.152,0,0,1,10.607,1.863,30.2,30.2,0,0,1,3.005,1.309c.346.166.609.318.789.415A1.059,1.059,0,0,1,344.207,347.343Z" transform="translate(-189.993 -152.03)" fill="#263238"/>
      <path id="Path_184" data-name="Path 184" d="M340.436,333.331c0,.076-1.087.042-2.77.339a18.1,18.1,0,0,0-2.936.775,18.343,18.343,0,0,0-6.3,3.857,17.866,17.866,0,0,0-2.029,2.264c-1.039,1.385-1.5,2.368-1.572,2.333a3.226,3.226,0,0,1,.3-.692,7.3,7.3,0,0,1,.429-.789,11.573,11.573,0,0,1,.637-1,16.75,16.75,0,0,1,2.008-2.354,17.137,17.137,0,0,1,6.418-3.926,16.343,16.343,0,0,1,3.005-.692c.436-.076.838-.09,1.184-.118a8.181,8.181,0,0,1,.893,0,3.518,3.518,0,0,1,.734,0Z" transform="translate(-191.402 -148.864)" fill="#263238"/>
      <path id="Path_185" data-name="Path 185" d="M344.087,391.522a13.654,13.654,0,0,0-7.9-10.441c-3.3-1.475-7.859-1.814-11,0s-7.332,6.273-6.481,9.784l7.194,12.082a11.445,11.445,0,0,0,12.83.408,12.463,12.463,0,0,0,5.352-11.833Z" transform="translate(-189.485 -163.152)" fill="#0d7684"/>
      <g id="Group_176" data-name="Group 176" transform="translate(129.113 216.692)" opacity="0.4">
        <path id="Path_186" data-name="Path 186" d="M344.087,391.522a13.654,13.654,0,0,0-7.9-10.441c-3.3-1.475-7.859-1.814-11,0s-7.332,6.273-6.481,9.784l7.194,12.082a11.445,11.445,0,0,0,12.83.408,12.463,12.463,0,0,0,5.352-11.833Z" transform="translate(-318.599 -379.844)"/>
      </g>
      <path id="Path_187" data-name="Path 187" d="M343.092,400.327s.256-.485.692-1.343a14.042,14.042,0,0,0,1.239-3.919,12.615,12.615,0,0,0-.526-6.017,14.621,14.621,0,0,0-.692-1.627,13.678,13.678,0,0,0-.935-1.579,13.024,13.024,0,0,0-5.878-4.812,13.4,13.4,0,0,0-9.493,0,14.407,14.407,0,0,0-3.628,1.932c-.782.589-1.184.956-1.212.928a2.231,2.231,0,0,1,.277-.284,9.082,9.082,0,0,1,.845-.755,13.732,13.732,0,0,1,13.322-2.139,13,13,0,0,1,3.4,2.008,13.542,13.542,0,0,1,2.652,2.929,15.518,15.518,0,0,1,.949,1.627,14.036,14.036,0,0,1,.692,1.676,12.539,12.539,0,0,1,.464,6.162,13.052,13.052,0,0,1-1.385,3.94c-.235.429-.464.748-.6.962A1.3,1.3,0,0,1,343.092,400.327Z" transform="translate(-190.735 -163.15)" fill="#263238"/>
      <path id="Path_188" data-name="Path 188" d="M322.082,375.456c-.1,0-.942-4.722-1.883-10.587s-1.62-10.628-1.523-10.649.942,4.729,1.883,10.594S322.179,375.442,322.082,375.456Z" transform="translate(-189.506 -155.288)" fill="#263238"/>
      <g id="Group_177" data-name="Group 177" transform="translate(127.882 184.716)" opacity="0.4">
        <path id="Path_189" data-name="Path 189" d="M316.82,341.466l3.677-.256a16.915,16.915,0,0,1,10.614-7.3,6.571,6.571,0,0,1,3.067-.062,2.991,2.991,0,0,1,2.174,2,1.98,1.98,0,0,1-1.385,2.4,7.617,7.617,0,0,1,4.805,3.815c.208.395.36.935.048,1.253a1.142,1.142,0,0,1-.831.222c-1.7,0-3.379-.381-5.075-.457a7.617,7.617,0,0,0-4.847,1.142,9.078,9.078,0,0,0-2.77,4.154,84.47,84.47,0,0,0-5.151,17.386c-.852-3.372-.928-6.924-1.544-10.123-.879-4.535-1.731-9.174-2.77-14.152" transform="translate(-316.82 -333.691)"/>
      </g>
      <g id="Group_178" data-name="Group 178" transform="translate(47.785 181.354)" opacity="0.4">
        <path id="Path_190" data-name="Path 190" d="M201.492,370.547c4.577,4.881,10.753,7.166,17.365,8.246s13.363.692,20.079.318c1.648-.1,3.6-.381,4.321-1.869a4.416,4.416,0,0,0-.249-3.407c-2.95-7.8-8.78-14.111-14.478-20.2-2.077-2.229-4.307-4.542-7.222-5.442-3.206-.983-6.848-.118-9.887-1.53-3.656-1.7-5.144-6-6.273-9.873l-2.326-7.962c.512,8.676.422,15.648.422,15.648s-2.4,16.036-2.077,19.671S201.492,370.547,201.492,370.547Z" transform="translate(-201.138 -328.83)"/>
      </g>
      <path id="Path_191" data-name="Path 191" d="M258.679,240.654a4.2,4.2,0,0,1-.907-.2c-.582-.145-1.385-.4-2.423-.762a39.606,39.606,0,0,1-7.533-3.642,40.083,40.083,0,0,1-6.612-5.138,24.76,24.76,0,0,1-1.752-1.835,3.973,3.973,0,0,1-.582-.727,5.539,5.539,0,0,1,.692.63c.415.429,1.039,1.025,1.828,1.745a44.756,44.756,0,0,0,14.056,8.731c.99.388,1.807.692,2.375.865A5.277,5.277,0,0,1,258.679,240.654Z" transform="translate(-164.96 -116.598)" fill="#263238"/>
      <path id="Path_192" data-name="Path 192" d="M290.109,240.569a1.653,1.653,0,0,1-.263.512,10.386,10.386,0,0,1-.893,1.288,16.251,16.251,0,0,1-8.551,5.539,10.319,10.319,0,0,1-1.537.3,1.821,1.821,0,0,1-.575.035c0-.062.8-.194,2.043-.575a18.813,18.813,0,0,0,4.6-2.153,18.562,18.562,0,0,0,3.822-3.33C289.611,241.22,290.054,240.535,290.109,240.569Z" transform="translate(-177.086 -120.355)" fill="#263238"/>
      <path id="Path_193" data-name="Path 193" d="M297.493,246.74a12.089,12.089,0,0,1-5.643,6.308,40.089,40.089,0,0,0,3.123-2.887A40.589,40.589,0,0,0,297.493,246.74Z" transform="translate(-181.257 -122.252)" fill="#263238"/>
      <path id="Path_194" data-name="Path 194" d="M247.54,365.284l.429-.09c1.537-.3,6.633-1.226,7.457-.4.962.969,7.866,7.748,7.866,7.748s-1.329,2.181-5.691,0S247.54,365.284,247.54,365.284Z" transform="translate(-167.627 -158.438)" fill="#ffbe9d"/>
      <path id="Path_195" data-name="Path 195" d="M232.7,345.5h0a3.5,3.5,0,0,1,4.764.845l21.042,27.91-5.394,3.954-21.25-27.64a3.5,3.5,0,0,1,.838-5.068Z" transform="translate(-162.579 -152.424)" fill="#263238"/>
      <path id="Path_196" data-name="Path 196" d="M163.91,365.578s24.988,4.057,28.45,4.327,12.941,10.324,15.69,11.286,10.192.824,10.192.824,13.488.692,13.9,0,1.239-.554,0-3.171a26.428,26.428,0,0,0-2.77-4.542s3.462,4.265,4.411,4.4,3.026.388,2.887-1.454-3.718-9.417-3.718-9.417-1.509-3.538-4.265-4.321-14.734-6.557-14.734-6.557H201.147l-14.942-7.1s-9.043-2.908-17.649,6.585a18.569,18.569,0,0,0-3.746,6.488Z" transform="translate(-141.902 -153.814)" fill="#ffbe9d"/>
      <path id="Path_197" data-name="Path 197" d="M260.831,378.369a3.138,3.138,0,0,1-.374-.727c-.242-.554-.54-1.232-.886-2.036s-.81-1.911-1.281-3.033a6.529,6.529,0,0,0-2.181-3.185,10.08,10.08,0,0,0-1.793-.983l-1.766-.789c-1.136-.5-2.16-.928-3.019-1.288l-2.077-.852a3.878,3.878,0,0,1-.734-.346,3.862,3.862,0,0,1,.789.215c.492.166,1.212.415,2.077.741s1.918.741,3.06,1.225l1.779.776a9.625,9.625,0,0,1,1.863,1.011,6.751,6.751,0,0,1,2.278,3.365c.45,1.129.852,2.16,1.2,3.053s.568,1.509.782,2.077a3.988,3.988,0,0,1,.277.776Z" transform="translate(-167.375 -158.644)" fill="#eb996e"/>
      <path id="Path_198" data-name="Path 198" d="M249,374.23a6.627,6.627,0,0,1,1.322,1.025,28.12,28.12,0,0,1,2.77,2.9,27.471,27.471,0,0,1,2.368,3.268,6.336,6.336,0,0,1,.775,1.475,9.612,9.612,0,0,1-.99-1.336c-.589-.838-1.426-1.98-2.43-3.178s-1.973-2.216-2.7-2.943A9.281,9.281,0,0,1,249,374.23Z" transform="translate(-168.076 -161.442)" fill="#eb996e"/>
      <path id="Path_199" data-name="Path 199" d="M254.81,392.339a1.578,1.578,0,0,1-.526-.208,9.607,9.607,0,0,1-1.316-.8,22.622,22.622,0,0,1-3.649-3.51c-1.295-1.489-2.451-2.846-3.268-3.843a12.822,12.822,0,0,1-1.281-1.655,11.664,11.664,0,0,1,1.468,1.489c.872.955,2.077,2.285,3.351,3.767a28.283,28.283,0,0,0,3.531,3.545C254.124,391.923,254.837,392.29,254.81,392.339Z" transform="translate(-166.775 -163.929)" fill="#eb996e"/>
      <path id="Path_200" data-name="Path 200" d="M245.083,394.16a5.187,5.187,0,0,1-1.288-.644,30.081,30.081,0,0,1-2.88-1.939,33.627,33.627,0,0,1-2.645-2.236,5.808,5.808,0,0,1-.99-1.052c.076-.083,1.717,1.385,3.857,3.005S245.139,394.07,245.083,394.16Z" transform="translate(-164.471 -165.763)" fill="#eb996e"/>
      <path id="Path_201" data-name="Path 201" d="M304.853,406.984a28.656,28.656,0,0,1-2.5-4.6c-.3-1.212,0-6.979-4.044-6.072v.45c.1.492,0,12.221,0,12.221Z" transform="translate(-183.244 -168.186)" fill="#ffbe9d"/>
      <path id="Path_202" data-name="Path 202" d="M232.89,420.64s-3.732,34.44,36.593,33.436c32.875-.817,32.3-32.861,32.3-32.861Z" transform="translate(-163.092 -175.701)" fill="#0d7684"/>
      <ellipse id="Ellipse_29" data-name="Ellipse 29" cx="37.576" cy="9.084" rx="37.576" ry="9.084" transform="translate(66.065 236.18)" fill="#0d7684"/>
      <ellipse id="Ellipse_30" data-name="Ellipse 30" cx="34.488" cy="5.74" rx="34.488" ry="5.74" transform="translate(69.714 239.199)" opacity="0.4"/>
      <path id="Path_203" data-name="Path 203" d="M302.805,424.859l-.166.1-.464.291c-.409.256-1.032.609-1.849,1.025a37.174,37.174,0,0,1-7.284,2.735,92.192,92.192,0,0,1-11.341,2.119,111.9,111.9,0,0,1-14.111.692c-5.006-.042-9.784-.208-14.111-.589a80.5,80.5,0,0,1-11.4-1.773,51.333,51.333,0,0,1-7.422-2.313c-.859-.325-1.5-.644-1.946-.838l-.492-.235c-.118-.048-.173-.083-.166-.09a1.249,1.249,0,0,1,.18.062l.512.2c.45.173,1.094.464,1.959.769a55.73,55.73,0,0,0,7.436,2.195,83.127,83.127,0,0,0,11.369,1.689c4.32.36,9.084.519,14.09.561a113.991,113.991,0,0,0,14.063-.692,94.229,94.229,0,0,0,11.314-2.036,39.08,39.08,0,0,0,7.291-2.61c.817-.4,1.454-.727,1.869-.962l.485-.263C302.743,424.88,302.8,424.853,302.805,424.859Z" transform="translate(-162.862 -176.998)" fill="#263238"/>
      <path id="Path_204" data-name="Path 204" d="M301,407.379s4.113-13.786,5.539-15.62c1.17-1.516,9.458-7.789,12.3-9.915a6.793,6.793,0,0,1,2.347-1.142,13.8,13.8,0,0,1,10.275.769,11.771,11.771,0,0,1,6.328,6.827l-15.475,9.617-.6,6.508-12.463-3.178a3.462,3.462,0,0,0-.367-1.9S304.926,408.944,301,407.379Z" transform="translate(-184.072 -163.216)" fill="#ffbe9d"/>
      <path id="Path_205" data-name="Path 205" d="M276.31,400.286c-1.572-2.077-2.88-4.078-3.919-5.775a45.578,45.578,0,0,1-2.271-4.154,10.169,10.169,0,0,0-.81-1.537,10.594,10.594,0,0,0,.616,1.627,43.048,43.048,0,0,0,2.133,4.23,68.4,68.4,0,0,0,3.85,5.872c1.551,2.139,3.372,4.41,5.3,6.758,2.7,3.24,5.193,6.266,7.222,8.918h.561c-2.029-2.77-4.584-5.906-7.36-9.243C279.7,404.648,277.882,402.4,276.31,400.286Z" transform="translate(-174.324 -165.913)" fill="#f5f5f5"/>
      <path id="Path_206" data-name="Path 206" d="M265.14,391.12a10.821,10.821,0,0,0,.651,1.6c.45,1.025,1.1,2.5,1.869,4.334a145.883,145.883,0,0,1,5.214,14.637c.54,1.946,1.115,3.836,1.793,5.588h.554c-.692-1.779-1.26-3.7-1.828-5.733a118.555,118.555,0,0,0-5.38-14.637c-.817-1.821-1.523-3.275-2.029-4.272A10.8,10.8,0,0,0,265.14,391.12Z" transform="translate(-173.041 -166.62)" fill="#f5f5f5"/>
      <path id="Path_207" data-name="Path 207" d="M267.1,388.73a10.956,10.956,0,0,0,.741,1.579c.512,1,1.267,2.444,2.216,4.217,1.9,3.538,4.57,8.42,7.817,13.633,1.883,3.033,3.773,5.809,5.539,8.239h.582c-1.759-2.5-3.7-5.373-5.636-8.509-3.24-5.2-5.955-10.04-7.942-13.529l-2.368-4.154a10.661,10.661,0,0,0-.949-1.475Z" transform="translate(-173.644 -165.885)" fill="#f5f5f5"/>
      <path id="Path_208" data-name="Path 208" d="M296.606,409.7a22.93,22.93,0,0,0-6.114-8.406,55.324,55.324,0,0,0-7.616-5.539c-2.486-1.572-4.847-3-6.855-4.445a48.1,48.1,0,0,1-8.71-7.942c-.907-1.059-1.579-1.918-2.022-2.5l-.512-.692a.963.963,0,0,0-.187-.215,1.121,1.121,0,0,0,.145.249l.464.692c.422.609,1.059,1.489,1.953,2.576a46.05,46.05,0,0,0,8.648,8.115c2.029,1.475,4.362,2.929,6.834,4.514a55.34,55.34,0,0,1,7.526,5.539,22.49,22.49,0,0,1,5.975,8.239,16.283,16.283,0,0,1,.921,2.922l.54-.055A17.452,17.452,0,0,0,296.606,409.7Z" transform="translate(-172.872 -163.187)" fill="#f5f5f5"/>
      <path id="Path_209" data-name="Path 209" d="M296.65,414.229a24.033,24.033,0,0,0-3.7-6.315,40,40,0,0,0-6.439-6.232c-2.486-1.973-4.971-3.677-7.187-5.276s-4.154-3.1-5.733-4.438a42.5,42.5,0,0,1-3.517-3.386,15.434,15.434,0,0,0-1.225-1.323,1.545,1.545,0,0,0,.249.4c.173.249.45.609.817,1.059a33.686,33.686,0,0,0,3.42,3.531,72.807,72.807,0,0,0,5.691,4.556c2.209,1.627,4.681,3.344,7.145,5.3a41.621,41.621,0,0,1,6.391,6.107,24.519,24.519,0,0,1,3.725,6.135c.125.3.228.589.332.872l.36-.035A6.592,6.592,0,0,0,296.65,414.229Z" transform="translate(-174.182 -165.433)" fill="#f5f5f5"/>
      <path id="Path_210" data-name="Path 210" d="M278.774,413.628c-2.659-4.847-4.9-9.361-6.481-12.636l-1.869-3.877a9.248,9.248,0,0,0-.734-1.385,8.951,8.951,0,0,0,.54,1.489c.388.942.962,2.292,1.71,3.953,1.5,3.317,3.69,7.852,6.349,12.733.907,1.655,1.8,3.24,2.666,4.736h.6C280.657,417.042,279.723,415.373,278.774,413.628Z" transform="translate(-174.441 -168.038)" fill="#f5f5f5"/>
      <path id="Path_211" data-name="Path 211" d="M284.294,405.177a144.212,144.212,0,0,1-10.566-11.6c-1.267-1.558-2.264-2.839-2.963-3.725a11.229,11.229,0,0,0-1.115-1.385,10.627,10.627,0,0,0,.949,1.475c.644.928,1.592,2.25,2.832,3.843a117.9,117.9,0,0,0,10.483,11.771c2.188,2.167,4.41,4.078,6.273,5.955a29.294,29.294,0,0,1,3.635,4.334h.457a27,27,0,0,0-3.732-4.66C288.677,409.249,286.468,407.331,284.294,405.177Z" transform="translate(-174.428 -165.805)" fill="#f5f5f5"/>
      <path id="Path_212" data-name="Path 212" d="M271.095,416.084c-.921-2.77-1.544-5.456-2.126-7.886a74.325,74.325,0,0,0-3.282-11.4,20.183,20.183,0,0,0-1.987-3.87.542.542,0,0,0,.111.263l.388.748c.325.658.8,1.634,1.295,2.936a78.871,78.871,0,0,1,3.1,11.411c.568,2.437,1.17,5.117,2.077,7.935.18.533.381,1.073.582,1.62h.5C271.524,417.254,271.3,416.658,271.095,416.084Z" transform="translate(-172.598 -167.177)" fill="#f5f5f5"/>
      <path id="Path_213" data-name="Path 213" d="M298.564,414.287a.6.6,0,0,1,.166,0,4.7,4.7,0,0,1,.485,0c.422.035,1.046.1,1.842.215a42,42,0,0,1,6.654,1.475,14.649,14.649,0,0,1,2.077.921,2.77,2.77,0,0,1,.949.817,1.6,1.6,0,0,1,.194,1.316,1.772,1.772,0,0,1-.9,1.018,7.328,7.328,0,0,1-1.2.637,20.4,20.4,0,0,1-2.638.921,81.524,81.524,0,0,1-12.158,2.333,143.4,143.4,0,0,1-22.454.623c-2.873-.111-5.193-.249-6.8-.346l-1.849-.132-.478-.042a.4.4,0,0,1-.166,0h.651l1.849.062,6.8.228a154.561,154.561,0,0,0,22.406-.692,84.633,84.633,0,0,0,12.11-2.3,21.3,21.3,0,0,0,2.6-.893,6.782,6.782,0,0,0,1.156-.6,1.551,1.551,0,0,0,.782-.838,1.309,1.309,0,0,0-.152-1.08,2.575,2.575,0,0,0-.845-.741,14.912,14.912,0,0,0-2.029-.914,45.706,45.706,0,0,0-6.6-1.579c-.789-.132-1.385-.228-1.821-.284A2.453,2.453,0,0,1,298.564,414.287Z" transform="translate(-172.164 -173.745)" fill="#263238"/>
      <path id="Path_214" data-name="Path 214" d="M317.149,402c.062.083-1.226,1.087-2.7,2.451s-2.576,2.569-2.659,2.5A17.275,17.275,0,0,1,317.149,402Z" transform="translate(-187.391 -169.967)" fill="#eb996e"/>
      <path id="Path_215" data-name="Path 215" d="M317.121,409.513a7.3,7.3,0,0,0-2.223-.464,7.486,7.486,0,0,0-2.209.554c0-.035.152-.242.54-.464a3.462,3.462,0,0,1,1.655-.45,3.539,3.539,0,0,1,1.683.381C316.962,409.278,317.149,409.479,317.121,409.513Z" transform="translate(-187.668 -172.024)" fill="#eb996e"/>
    </g>
    <g id="freepik--Shelves--inject-35" transform="translate(30.823 51.79)">
      <path id="Path_216" data-name="Path 216" d="M127.757,203.48c-.4.319-22.357,10.178-22.357,10.178s6.045,12.837,17.774,7.118C133.885,215.555,127.757,203.48,127.757,203.48Z" transform="translate(-55.188 -98.451)" fill="#455a64"/>
      <path id="Path_217" data-name="Path 217" d="M136.937,101.07c.492,0,.9,17.047.9,38.082s-.409,38.082-.9,38.082-.907-17.04-.907-38.082S136.439,101.07,136.937,101.07Z" transform="translate(-64.61 -66.949)" fill="#455a64"/>
      <path id="Path_218" data-name="Path 218" d="M104.837,175.34c-.4.318-22.357,10.178-22.357,10.178s6.045,12.837,17.781,7.118C110.972,187.415,104.837,175.34,104.837,175.34Z" transform="translate(-48.137 -89.795)" fill="#455a64"/>
      <path id="Path_219" data-name="Path 219" d="M114.02,99.21c.5,0,.9,12.975.9,28.977s-.4,28.977-.9,28.977-.9-12.975-.9-28.977S113.522,99.21,114.02,99.21Z" transform="translate(-57.562 -66.377)" fill="#455a64"/>
      <path id="Path_220" data-name="Path 220" d="M77.064,147.59c-.409.312-22.364,10.171-22.364,10.171s6.052,12.837,17.781,7.118C83.206,159.645,77.064,147.59,77.064,147.59Z" transform="translate(-39.592 -81.259)" fill="#455a64"/>
      <path id="Path_221" data-name="Path 221" d="M86.26,102c.5,0,.9,8.233.9,18.383s-.4,18.39-.9,18.39-.9-8.233-.9-18.39S85.762,102,86.26,102Z" transform="translate(-49.023 -67.235)" fill="#455a64"/>
      <circle id="Ellipse_31" data-name="Ellipse 31" cx="22.433" cy="22.433" r="22.433" transform="translate(76.011 63.658)" fill="#455a64"/>
      <path id="Path_222" data-name="Path 222" d="M173.069,134.542,171.31,105.69h8.267l-2.292,28.852Z" transform="translate(-75.462 -68.37)" fill="#455a64"/>
      <path id="Path_223" data-name="Path 223" d="M176.376,183.753l-.145.1-.457.263c-.2.111-.443.27-.748.415l-1.066.478a18.432,18.432,0,0,1-7.284,1.343,18.965,18.965,0,0,1-10.386-3.31,16.853,16.853,0,0,1-4.535-4.687,19.228,19.228,0,0,1-2.86-13.467,16.852,16.852,0,0,1,2.223-6.128,19.027,19.027,0,0,1,8.163-7.27,18.507,18.507,0,0,1,7.2-1.745h1.108c.339,0,.623.055.852.069l.519.062a.766.766,0,0,1,.18,0h-.692c-.229,0-.512-.042-.852-.042H166.44a19.11,19.11,0,0,0-7.1,1.835,18.9,18.9,0,0,0-7.969,7.249,16.576,16.576,0,0,0-2.167,6.017,18.992,18.992,0,0,0,2.818,13.218,16.576,16.576,0,0,0,4.424,4.611,19.041,19.041,0,0,0,17.462,2.112l1.066-.45c.312-.138.554-.277.762-.381l.471-.235Z" transform="translate(-68.495 -81.923)" fill="#263238"/>
      <path id="Path_224" data-name="Path 224" d="M45.16,51.79,53.1,80.524H86.745L94.694,51.79Z" transform="translate(-36.657 -51.79)" fill="#455a64"/>
      <path id="Path_225" data-name="Path 225" d="M93.816,59.92c0,.1-10.386.187-23.188.187S47.44,60.031,47.44,59.92s10.386-.18,23.188-.18S93.816,59.83,93.816,59.92Z" transform="translate(-37.359 -54.235)" fill="#263238"/>
      <path id="Path_226" data-name="Path 226" d="M120.254,61.155H113.33l1.108-3h5.781a1.5,1.5,0,0,1,1.5,1.5h0A1.5,1.5,0,0,1,120.254,61.155Z" transform="translate(-57.627 -53.746)" fill="#263238"/>
      <path id="Path_227" data-name="Path 227" d="M37.782,61.155h6.889l-1.1-3H37.782a1.5,1.5,0,0,0-1.5,1.5h0A1.5,1.5,0,0,0,37.782,61.155Z" transform="translate(-33.926 -53.746)" fill="#263238"/>
      <rect id="Rectangle_153" data-name="Rectangle 153" width="125.648" height="8.98" transform="translate(0 28.347)" fill="#0d7684"/>
    </g>
    <g id="freepik--kitchen-tools--inject-35" transform="translate(260.059 207.821)">
      <path id="Path_228" data-name="Path 228" d="M444.49,277.306a3.746,3.746,0,0,0-4.847,2.119l-5.574,14.935h0l6.924,2.548,5.622-14.789A3.739,3.739,0,0,0,444.49,277.306Z" transform="translate(-385.256 -277.049)" fill="#0d7684"/>
      <path id="Path_229" data-name="Path 229" d="M447.485,283.532a1.579,1.579,0,1,1-.46-1.128A1.593,1.593,0,0,1,447.485,283.532Z" transform="translate(-388.403 -278.553)" fill="#fafafa"/>
      <path id="Path_230" data-name="Path 230" d="M441.785,297.676a1.592,1.592,0,1,1-1.592-1.586A1.592,1.592,0,0,1,441.785,297.676Z" transform="translate(-386.65 -282.906)" fill="#fafafa"/>
      <path id="Path_231" data-name="Path 231" d="M429.319,302.05,418.58,330.064,431.8,329.9l10.78-23.147Z" transform="translate(-380.492 -284.739)" fill="#e0e0e0"/>
      <rect id="Rectangle_154" data-name="Rectangle 154" width="37.043" height="42.603" transform="translate(21.769 45.325)" fill="#0d7684"/>
      <path id="Path_232" data-name="Path 232" d="M432.05,357.75c0,.1-8.309.187-18.522.187S395,357.868,395,357.75s8.309-.18,18.521-.18S432.05,357.653,432.05,357.75Z" transform="translate(-373.238 -301.818)" fill="#fff"/>
      <path id="Path_233" data-name="Path 233" d="M432.05,364.38c0,.1-8.309.18-18.522.18S395,364.477,395,364.38s8.309-.18,18.521-.18S432.05,364.276,432.05,364.38Z" transform="translate(-373.238 -303.857)" fill="#fff"/>
      <path id="Path_234" data-name="Path 234" d="M432.053,371c0,.1-8.309.18-18.521.18S395.01,371.1,395.01,371s8.309-.18,18.521-.18S432.053,370.9,432.053,371Z" transform="translate(-373.241 -305.894)" fill="#fff"/>
      <path id="Path_235" data-name="Path 235" d="M432.053,377.63c0,.1-8.309.18-18.521.18s-18.521-.083-18.521-.18,8.309-.18,18.521-.18S432.053,377.526,432.053,377.63Z" transform="translate(-373.241 -307.933)" fill="#fff"/>
      <path id="Path_236" data-name="Path 236" d="M432.053,384.25c0,.1-8.309.18-18.521.18s-18.521-.083-18.521-.18,8.309-.18,18.521-.18S432.053,384.153,432.053,384.25Z" transform="translate(-373.241 -309.969)" fill="#fff"/>
      <path id="Path_237" data-name="Path 237" d="M432.05,390.92c0,.1-8.309.18-18.522.18S395,390.989,395,390.92s8.309-.18,18.521-.18S432.05,390.788,432.05,390.92Z" transform="translate(-373.238 -312.021)" fill="#fff"/>
      <path id="Path_238" data-name="Path 238" d="M363.57,303.57l24.767,1.98s.692-12.027-10.9-13.3S363.57,303.57,363.57,303.57Z" transform="translate(-363.57 -281.697)" fill="#455a64"/>
      <path id="Path_239" data-name="Path 239" d="M404.767,330c-.471.159-3.047-6.01-5.747-13.786s-4.514-14.222-4.044-14.381,3.04,6.01,5.747,13.786S405.238,329.829,404.767,330Z" transform="translate(-373.208 -284.67)" fill="#455a64"/>
    </g>
    <g id="freepik--Food--inject-35" transform="translate(129.937 269.629)">
      <path id="Path_240" data-name="Path 240" d="M390.809,454.72a2.672,2.672,0,0,1-.492.111l-1.419.235-1.025.159c-.381.048-.789.076-1.232.125-.886.076-1.89.208-3.005.222l-1.752.055h-1.9c-1.316,0-2.714-.132-4.154-.249a56.7,56.7,0,0,1-18.508-5.048c-1.323-.651-2.6-1.253-3.732-1.925-.568-.325-1.129-.623-1.648-.949l-1.489-.976c-.956-.582-1.752-1.212-2.472-1.724-.36-.263-.692-.5-1-.734l-.8-.692-1.1-.921a2.95,2.95,0,0,1-.367-.339,1.958,1.958,0,0,1,.415.284l1.142.865.817.637c.3.228.644.457,1.011.692.727.5,1.53,1.108,2.493,1.676l1.482.921c.519.319,1.08.6,1.648.921,1.136.658,2.4,1.246,3.725,1.89a64.162,64.162,0,0,0,9,3.268,63.448,63.448,0,0,0,9.389,1.759c1.461.125,2.853.27,4.154.277.658,0,1.288.062,1.89.048l1.752-.035c1.108,0,2.112-.111,3-.166a10.864,10.864,0,0,0,1.225-.1l1.025-.125,1.426-.173A3.421,3.421,0,0,1,390.809,454.72Z" transform="translate(-227.647 -389.601)" fill="#455a64"/>
      <path id="Path_241" data-name="Path 241" d="M361.66,456.34a21.6,21.6,0,0,0-15.87,4.847,51.173,51.173,0,0,0,15.87-4.847" transform="translate(-227.979 -393.949)" fill="#455a64"/>
      <path id="Path_242" data-name="Path 242" d="M368.564,451.225c1.9-4.888-.907-11.771-.907-11.771-.547-.928-.3,6.349.907,11.771" transform="translate(-234.62 -388.771)" fill="#455a64"/>
      <path id="Path_243" data-name="Path 243" d="M356.881,447.03c1.385-3.587-.63-8.627-.63-8.627-.388-.692-.228,4.66.63,8.627" transform="translate(-231.135 -388.454)" fill="#455a64"/>
      <path id="Path_244" data-name="Path 244" d="M379.319,455.14c1.385-3.587-.63-8.627-.63-8.627-.395-.692-.235,4.66.63,8.627" transform="translate(-238.036 -390.949)" fill="#455a64"/>
      <path id="Path_245" data-name="Path 245" d="M352.235,450.956a16.094,16.094,0,0,0-11.805,3.6,38.007,38.007,0,0,0,11.805-3.6" transform="translate(-226.33 -392.303)" fill="#455a64"/>
      <path id="Path_246" data-name="Path 246" d="M373.853,459.79a22.687,22.687,0,0,0-15.7,7.422,53.494,53.494,0,0,0,15.7-7.422" transform="translate(-231.781 -395.052)" fill="#455a64"/>
      <path id="Path_247" data-name="Path 247" d="M401.934,419.7a11.189,11.189,0,0,0-19.615,1.835,12.927,12.927,0,0,0,.159,9.88,17.691,17.691,0,0,0,6.467,7.616c7.319,4.985,17.933,4.757,24.732-.914a13.5,13.5,0,0,0,5.02-8.233,10.254,10.254,0,0,0-15.17-10.386" transform="translate(-238.937 -381.186)" fill="#0d7684"/>
      <path id="Path_248" data-name="Path 248" d="M408.959,420.624a3.9,3.9,0,0,0-4.154-2.853l2.451,2.915a3.794,3.794,0,0,0-3.012,2.361c-.111.3-.145.692.138.872a.734.734,0,0,0,.609-.069l2.977-1.232a10.233,10.233,0,0,0,1.773,4.618,12.02,12.02,0,0,0,1.122-4.646l3.289,1.454a4.9,4.9,0,0,0-1.544-2.43,8.192,8.192,0,0,0,2.77-1.073c.256-.159.533-.429.422-.692s-.36-.27-.589-.291a10.85,10.85,0,0,0-6.266,1.3" transform="translate(-245.935 -382.12)" fill="#455a64"/>
      <path id="Path_249" data-name="Path 249" d="M410.417,419.208a21.464,21.464,0,0,0-.817-9.929c.782-.173,1.745-.291,2.257.332a2.119,2.119,0,0,1,.332,1.323,23.415,23.415,0,0,1-1.759,9.188" transform="translate(-247.607 -379.472)" fill="#455a64"/>
      <path id="Path_250" data-name="Path 250" d="M386.478,433.855a2.515,2.515,0,0,1-.512-.512,9.138,9.138,0,0,1-1.1-1.655,10.137,10.137,0,0,1,2.008-12.131,8.76,8.76,0,0,1,1.572-1.212,2.942,2.942,0,0,1,.651-.325,21.6,21.6,0,0,0-2.043,1.717,10.3,10.3,0,0,0-1.959,11.833,21.113,21.113,0,0,0,1.385,2.285Z" transform="translate(-239.635 -382.203)" fill="#fff"/>
      <path id="Path_251" data-name="Path 251" d="M391.693,443.914c-.035.09-.554,0-1.08-.395s-.8-.831-.692-.893.45.256.928.6S391.727,443.817,391.693,443.914Z" transform="translate(-241.547 -389.77)" fill="#fff"/>
      <path id="Path_252" data-name="Path 252" d="M191.517,366.816c-.3.069,1.932,11.3,1.932,11.3h5.719l2.527-10.85A18.043,18.043,0,0,0,191.517,366.816Z" transform="translate(-180.514 -366.29)" fill="#455a64"/>
      <path id="Path_253" data-name="Path 253" d="M183.282,432.082S174.863,408.5,176.04,402.1s3.7-7.748,5.726-9.77,3.7-3.7,4.21-5.726,0-10.1,0-10.1-1.516-2.361-1.011-3.2,12.968,0,12.968,0a5.663,5.663,0,0,1-1.011,2.86s-.332,9.43.173,10.441,8.253,9.6,9.43,13.979-4.653,31.5-4.653,31.5Z" transform="translate(-175.728 -368.333)" fill="#f5f5f5"/>
      <path id="Path_254" data-name="Path 254" d="M183.194,432.017h4.93l13.661-.062-.111.09c.692-3.427,1.489-7.312,2.278-11.584s1.613-8.939,2.188-13.945c.132-1.253.249-2.52.277-3.815a6.411,6.411,0,0,0-.8-3.732,44.712,44.712,0,0,0-4.494-6.8c-.845-1.108-1.731-2.209-2.624-3.317-.443-.561-.893-1.115-1.329-1.7a5.088,5.088,0,0,1-.325-.471,2.379,2.379,0,0,1-.138-.575,9.991,9.991,0,0,1-.1-1.1c-.132-2.915-.042-5.865.042-8.863v-.09a6.342,6.342,0,0,0,.381-.692,5.38,5.38,0,0,0,.6-2.077l.166.173c-2.839-.18-5.65-.319-8.4-.367a26.746,26.746,0,0,0-4.037.159,1.128,1.128,0,0,0-.36.125.692.692,0,0,0-.083.367,2.95,2.95,0,0,0,.208.914,10.667,10.667,0,0,0,.872,1.731v.083c.125,2.153.215,4.272.222,6.356a29.023,29.023,0,0,1-.118,3.109,6.19,6.19,0,0,1-1.129,2.86,17.536,17.536,0,0,1-1.918,2.285c-.692.692-1.385,1.385-2.077,2.043a22.38,22.38,0,0,0-1.994,1.973,10.893,10.893,0,0,0-1.482,2.264,18.23,18.23,0,0,0-1.516,4.978,11.875,11.875,0,0,0,0,2.479c.055.81.166,1.613.277,2.4a86.978,86.978,0,0,0,1.9,8.558c1.385,5.151,2.686,9.209,3.58,12q.685,2.077,1.052,3.185c.118.353.2.63.27.824a1.774,1.774,0,0,1,.083.284,2.033,2.033,0,0,1-.111-.27l-.3-.817c-.256-.692-.63-1.786-1.1-3.171-.935-2.77-2.278-6.82-3.69-11.978A87.422,87.422,0,0,1,176,407.257c-.118-.789-.229-1.592-.291-2.423a11.508,11.508,0,0,1,0-2.534,18.513,18.513,0,0,1,1.53-5.068,11.23,11.23,0,0,1,1.516-2.333,21.984,21.984,0,0,1,2.015-2c.692-.644,1.385-1.336,2.043-2.036a17.308,17.308,0,0,0,1.883-2.25,5.865,5.865,0,0,0,1.066-2.714,29.851,29.851,0,0,0,.111-3.067c0-2.077-.1-4.189-.228-6.335v.083a10.22,10.22,0,0,1-.914-1.8,3.51,3.51,0,0,1-.228-1.032.942.942,0,0,1,.159-.582,1.025,1.025,0,0,1,.561-.256,26.428,26.428,0,0,1,4.12-.166c2.77.042,5.539.18,8.419.367h.284v.173a5.754,5.754,0,0,1-.63,2.257,7.447,7.447,0,0,1-.409.692v-.09c-.083,2.984-.173,5.941-.048,8.828a10.693,10.693,0,0,0,.1,1.066,2.252,2.252,0,0,0,.1.471c.09.138.18.277.291.422.422.568.879,1.122,1.322,1.676.893,1.115,1.779,2.216,2.624,3.33a44.5,44.5,0,0,1,4.521,6.869,6.779,6.779,0,0,1,.824,3.884,34.826,34.826,0,0,1-.291,3.843c-.582,5.02-1.433,9.693-2.223,13.959s-1.6,8.163-2.34,11.584v.1h-.1l-13.716-.062h-4.563Z" transform="translate(-175.639 -368.269)" fill="#263238"/>
      <path id="Path_255" data-name="Path 255" d="M201.472,442.449a134.864,134.864,0,0,0,4.224-24.074,3.051,3.051,0,0,0-.63-2.617c-.859-.748-2.167-.346-3.254,0a19.684,19.684,0,0,1-9.88.526c-3.192-.692-6.363-2.119-9.576-1.586a3.053,3.053,0,0,0-2.112,1.115,3.792,3.792,0,0,0-.249,2.714,192.636,192.636,0,0,0,5.948,23.922Z" transform="translate(-176.939 -381.145)" fill="#0d7684"/>
      <path id="Path_256" data-name="Path 256" d="M204.8,417.689a3.725,3.725,0,0,1-.6.658,14.856,14.856,0,0,1-1.911,1.53,16.957,16.957,0,0,1-15.482,1.946,14.611,14.611,0,0,1-2.23-1.011,3.351,3.351,0,0,1-.748-.492c0-.062,1.122.616,3.06,1.267a17.663,17.663,0,0,0,15.233-1.918A29.106,29.106,0,0,0,204.8,417.689Z" transform="translate(-178.159 -382.1)" fill="#fff"/>
    </g>
  </g>
</svg>
