<svg xmlns="http://www.w3.org/2000/svg" width="375" height="222" viewBox="0 0 375 222">
  <g id="Take_Away-pana" data-name="Take Away-pana" transform="translate(-26.08 -50.12)">
    <g id="freepik--background-complete--inject-3" transform="translate(43.699 74.544)">
      <rect id="Rectangle_192" data-name="Rectangle 192" width="55.76" height="43.007" transform="translate(70.804 124.713) rotate(180)" fill="#f5f5f5"/>
      <path id="Path_441" data-name="Path 441" d="M113.059,290.711c.075,0,.139-9.583.139-21.415s-.064-21.415-.139-21.415-.139,9.583-.139,21.415S112.963,290.711,113.059,290.711Z" transform="translate(-84.047 -166.303)" fill="#ebebeb"/>
      <rect id="Rectangle_193" data-name="Rectangle 193" width="4.272" height="4.834" transform="translate(24.044 119.771) rotate(180)" fill="#fafafa"/>
      <rect id="Rectangle_194" data-name="Rectangle 194" width="6.334" height="9.176" transform="translate(47.456 81.791)" fill="#ebebeb"/>
      <rect id="Rectangle_195" data-name="Rectangle 195" width="6.334" height="9.176" transform="translate(47.456 115.428)" fill="#ebebeb"/>
      <rect id="Rectangle_196" data-name="Rectangle 196" width="92.053" height="70.997" transform="translate(0 125.428)" fill="#ebebeb"/>
      <path id="Path_442" data-name="Path 442" d="M187.692,399.93c-.1,0-.182-15.826-.182-35.335s.08-35.335.182-35.335.182,15.82.182,35.335S187.772,399.93,187.692,399.93Z" transform="translate(-118.703 -204.003)" fill="#e0e0e0"/>
      <rect id="Rectangle_197" data-name="Rectangle 197" width="7.056" height="7.977" transform="translate(77.237 180.267)" fill="#fafafa"/>
      <rect id="Rectangle_198" data-name="Rectangle 198" width="10.456" height="15.151" transform="translate(28.081 125.538)" fill="#e0e0e0"/>
      <rect id="Rectangle_199" data-name="Rectangle 199" width="10.456" height="15.151" transform="translate(28.081 181.065)" fill="#e0e0e0"/>
      <path id="Path_443" data-name="Path 443" d="M362.937,95.879a6.506,6.506,0,0,1-2.677,0A6.5,6.5,0,0,1,362.937,95.879Z" transform="translate(-198.872 -95.74)" fill="#ebebeb"/>
      <path id="Path_444" data-name="Path 444" d="M372.937,95.879a6.5,6.5,0,0,1-2.677,0A6.5,6.5,0,0,1,372.937,95.879Z" transform="translate(-203.515 -95.74)" fill="#ebebeb"/>
      <path id="Path_445" data-name="Path 445" d="M382.937,95.879a6.5,6.5,0,0,1-2.677,0A6.5,6.5,0,0,1,382.937,95.879Z" transform="translate(-208.158 -95.74)" fill="#ebebeb"/>
      <path id="Path_446" data-name="Path 446" d="M392.937,95.879a6.505,6.505,0,0,1-2.677,0A6.5,6.5,0,0,1,392.937,95.879Z" transform="translate(-212.801 -95.74)" fill="#ebebeb"/>
      <path id="Path_447" data-name="Path 447" d="M402.937,95.879a6.5,6.5,0,0,1-2.677,0A6.5,6.5,0,0,1,402.937,95.879Z" transform="translate(-217.444 -95.74)" fill="#ebebeb"/>
      <path id="Path_448" data-name="Path 448" d="M412.937,95.879a6.506,6.506,0,0,1-2.677,0A6.5,6.5,0,0,1,412.937,95.879Z" transform="translate(-222.087 -95.74)" fill="#ebebeb"/>
      <path id="Path_449" data-name="Path 449" d="M422.937,95.879a6.505,6.505,0,0,1-2.677,0A6.5,6.5,0,0,1,422.937,95.879Z" transform="translate(-226.73 -95.74)" fill="#ebebeb"/>
      <path id="Path_450" data-name="Path 450" d="M432.937,95.879a6.505,6.505,0,0,1-2.677,0A6.5,6.5,0,0,1,432.937,95.879Z" transform="translate(-231.373 -95.74)" fill="#ebebeb"/>
      <path id="Path_451" data-name="Path 451" d="M442.937,95.879a6.505,6.505,0,0,1-2.677,0A6.5,6.5,0,0,1,442.937,95.879Z" transform="translate(-236.016 -95.74)" fill="#ebebeb"/>
      <path id="Path_452" data-name="Path 452" d="M452.937,95.879a6.506,6.506,0,0,1-2.677,0A6.5,6.5,0,0,1,452.937,95.879Z" transform="translate(-240.659 -95.74)" fill="#ebebeb"/>
      <path id="Path_453" data-name="Path 453" d="M462.937,95.879a6.505,6.505,0,0,1-2.677,0A6.5,6.5,0,0,1,462.937,95.879Z" transform="translate(-245.302 -95.74)" fill="#ebebeb"/>
      <path id="Path_454" data-name="Path 454" d="M472.937,95.879a6.505,6.505,0,0,1-2.677,0A6.5,6.5,0,0,1,472.937,95.879Z" transform="translate(-249.945 -95.74)" fill="#ebebeb"/>
      <path id="Path_455" data-name="Path 455" d="M482.937,95.879a6.5,6.5,0,0,1-2.677,0A6.5,6.5,0,0,1,482.937,95.879Z" transform="translate(-254.589 -95.74)" fill="#ebebeb"/>
      <path id="Path_456" data-name="Path 456" d="M492.937,95.879a6.505,6.505,0,0,1-2.677,0A6.5,6.5,0,0,1,492.937,95.879Z" transform="translate(-259.232 -95.74)" fill="#ebebeb"/>
      <path id="Path_457" data-name="Path 457" d="M502.937,95.879a6.506,6.506,0,0,1-2.677,0A6.505,6.505,0,0,1,502.937,95.879Z" transform="translate(-263.875 -95.74)" fill="#ebebeb"/>
      <path id="Path_458" data-name="Path 458" d="M512.937,95.879a6.5,6.5,0,0,1-2.677,0A6.5,6.5,0,0,1,512.937,95.879Z" transform="translate(-268.518 -95.74)" fill="#ebebeb"/>
      <path id="Path_459" data-name="Path 459" d="M522.937,95.879a6.505,6.505,0,0,1-2.677,0A6.5,6.5,0,0,1,522.937,95.879Z" transform="translate(-273.161 -95.74)" fill="#ebebeb"/>
      <path id="Path_460" data-name="Path 460" d="M532.937,95.879a6.505,6.505,0,0,1-2.677,0,6.5,6.5,0,0,1,2.677,0Z" transform="translate(-277.804 -95.74)" fill="#ebebeb"/>
      <path id="Path_461" data-name="Path 461" d="M542.937,95.879a6.506,6.506,0,0,1-2.677,0A6.5,6.5,0,0,1,542.937,95.879Z" transform="translate(-282.447 -95.74)" fill="#ebebeb"/>
      <path id="Path_462" data-name="Path 462" d="M552.937,95.879a6.506,6.506,0,0,1-2.677,0A6.505,6.505,0,0,1,552.937,95.879Z" transform="translate(-287.09 -95.74)" fill="#ebebeb"/>
      <path id="Path_463" data-name="Path 463" d="M562.937,95.879a6.505,6.505,0,0,1-2.677,0A6.5,6.5,0,0,1,562.937,95.879Z" transform="translate(-291.733 -95.74)" fill="#ebebeb"/>
      <path id="Path_464" data-name="Path 464" d="M572.937,95.879a6.505,6.505,0,0,1-2.677,0A6.5,6.5,0,0,1,572.937,95.879Z" transform="translate(-296.376 -95.74)" fill="#ebebeb"/>
      <path id="Path_465" data-name="Path 465" d="M582.937,95.879a6.505,6.505,0,0,1-2.677,0A6.5,6.5,0,0,1,582.937,95.879Z" transform="translate(-300.981 -95.74)" fill="#ebebeb"/>
      <path id="Path_466" data-name="Path 466" d="M587.685,101.087a6.506,6.506,0,0,1,0-2.677,6.506,6.506,0,0,1,0,2.677Z" transform="translate(-304.358 -96.981)" fill="#ebebeb"/>
      <path id="Path_467" data-name="Path 467" d="M587.685,111.087a6.506,6.506,0,0,1,0-2.677,6.506,6.506,0,0,1,0,2.677Z" transform="translate(-304.358 -101.627)" fill="#ebebeb"/>
      <path id="Path_468" data-name="Path 468" d="M587.685,121.087a6.506,6.506,0,0,1,0-2.677,6.506,6.506,0,0,1,0,2.677Z" transform="translate(-304.358 -106.273)" fill="#ebebeb"/>
      <path id="Path_469" data-name="Path 469" d="M587.7,131.087a6.5,6.5,0,0,1,0-2.677A6.5,6.5,0,0,1,587.7,131.087Z" transform="translate(-304.372 -110.919)" fill="#ebebeb"/>
      <path id="Path_470" data-name="Path 470" d="M587.7,141.087a6.5,6.5,0,0,1,0-2.677,6.5,6.5,0,0,1,0,2.677Z" transform="translate(-304.372 -115.565)" fill="#ebebeb"/>
      <path id="Path_471" data-name="Path 471" d="M588.734,150.043c0,.07-.444.123-1.044.139h-.134v-.434a3.379,3.379,0,0,1,.139-1.338,3.271,3.271,0,0,1,.139,1.338v.294l-.139-.134A2.484,2.484,0,0,1,588.734,150.043Z" transform="translate(-304.363 -120.211)" fill="#ebebeb"/>
      <path id="Path_472" data-name="Path 472" d="M597.447,151.339a6.5,6.5,0,0,1-2.677,0A6.505,6.505,0,0,1,597.447,151.339Z" transform="translate(-307.722 -121.508)" fill="#ebebeb"/>
      <path id="Path_473" data-name="Path 473" d="M607.447,151.339a6.5,6.5,0,0,1-2.677,0A6.505,6.505,0,0,1,607.447,151.339Z" transform="translate(-312.369 -121.508)" fill="#ebebeb"/>
      <path id="Path_474" data-name="Path 474" d="M617.447,151.339a6.5,6.5,0,0,1-2.677,0A6.505,6.505,0,0,1,617.447,151.339Z" transform="translate(-317.015 -121.508)" fill="#ebebeb"/>
      <path id="Path_475" data-name="Path 475" d="M627.447,151.339a6.5,6.5,0,0,1-2.677,0A6.505,6.505,0,0,1,627.447,151.339Z" transform="translate(-321.661 -121.508)" fill="#ebebeb"/>
      <path id="Path_476" data-name="Path 476" d="M637.447,151.339a6.5,6.5,0,0,1-2.677,0A6.505,6.505,0,0,1,637.447,151.339Z" transform="translate(-326.307 -121.508)" fill="#ebebeb"/>
      <path id="Path_477" data-name="Path 477" d="M647.447,151.339a6.5,6.5,0,0,1-2.677,0A6.505,6.505,0,0,1,647.447,151.339Z" transform="translate(-330.953 -121.508)" fill="#ebebeb"/>
      <path id="Path_478" data-name="Path 478" d="M657.447,151.339a6.5,6.5,0,0,1-2.677,0A6.505,6.505,0,0,1,657.447,151.339Z" transform="translate(-335.599 -121.508)" fill="#ebebeb"/>
      <path id="Path_479" data-name="Path 479" d="M667.447,151.339a6.5,6.5,0,0,1-2.677,0A6.505,6.505,0,0,1,667.447,151.339Z" transform="translate(-340.246 -121.508)" fill="#ebebeb"/>
      <path id="Path_480" data-name="Path 480" d="M673.539,155.257a6.506,6.506,0,0,1,0-2.677,6.5,6.5,0,0,1,0,2.677Z" transform="translate(-344.255 -122.149)" fill="#ebebeb"/>
      <path id="Path_481" data-name="Path 481" d="M673.539,165.257a6.506,6.506,0,0,1,0-2.677A6.5,6.5,0,0,1,673.539,165.257Z" transform="translate(-344.255 -126.795)" fill="#ebebeb"/>
      <path id="Path_482" data-name="Path 482" d="M673.539,175.257a6.506,6.506,0,0,1,0-2.677A6.5,6.5,0,0,1,673.539,175.257Z" transform="translate(-344.255 -131.392)" fill="#ebebeb"/>
      <path id="Path_483" data-name="Path 483" d="M673.539,185.257a6.506,6.506,0,0,1,0-2.677A6.5,6.5,0,0,1,673.539,185.257Z" transform="translate(-344.255 -136.031)" fill="#ebebeb"/>
      <path id="Path_484" data-name="Path 484" d="M673.539,195.257a6.506,6.506,0,0,1,0-2.677A6.5,6.5,0,0,1,673.539,195.257Z" transform="translate(-344.255 -140.671)" fill="#ebebeb"/>
      <path id="Path_485" data-name="Path 485" d="M673.539,205.257a6.506,6.506,0,0,1,0-2.677A6.5,6.5,0,0,1,673.539,205.257Z" transform="translate(-344.255 -145.311)" fill="#ebebeb"/>
      <path id="Path_486" data-name="Path 486" d="M673.539,215.257a6.506,6.506,0,0,1,0-2.677A6.5,6.5,0,0,1,673.539,215.257Z" transform="translate(-344.255 -149.95)" fill="#ebebeb"/>
      <path id="Path_487" data-name="Path 487" d="M673.539,225.257a6.506,6.506,0,0,1,0-2.677,6.5,6.5,0,0,1,0,2.677Z" transform="translate(-344.255 -154.59)" fill="#ebebeb"/>
      <path id="Path_488" data-name="Path 488" d="M673.539,235.257a6.506,6.506,0,0,1,0-2.677,6.5,6.5,0,0,1,0,2.677Z" transform="translate(-344.255 -159.23)" fill="#ebebeb"/>
      <path id="Path_489" data-name="Path 489" d="M673.539,245.257a6.506,6.506,0,0,1,0-2.677A6.5,6.5,0,0,1,673.539,245.257Z" transform="translate(-344.255 -163.869)" fill="#ebebeb"/>
      <path id="Path_490" data-name="Path 490" d="M673.539,255.257a6.506,6.506,0,0,1,0-2.677A6.5,6.5,0,0,1,673.539,255.257Z" transform="translate(-344.255 -168.509)" fill="#ebebeb"/>
      <path id="Path_491" data-name="Path 491" d="M379.4,112.8s-4.155-2.3-8.229,7.527a122.613,122.613,0,0,0-5.466,15.419s-1.119,2.083-2.581.894-3.614-4.711-5.889-3.871c-2.345.878-2.923,3.614-2.142,7.5s2.142,12.49,2.254,13.267-.236,1.933-1.36,1.28-7.806-7-10.633-3.657,1.071,13.856,1.5,14.991.214,1.676-.321,2.013-2.586-2.013-4.556-3.748-4.567-3.389-6.039-1.322-1.355,10.172,7.351,22.663l4.406,5.525,7.04-.948c14.932-2.945,20.639-8.695,21.019-11.205s-2.634-3.052-5.257-3.148-5.723.145-5.889-.471.075-1.124,1.167-1.676,11.206-5.386,11.5-9.76-8.93-4.438-10.172-4.754-.707-1.4-.091-1.863,7.581-5.713,10.836-7.983,4.743-4.642,3.662-6.9c-1.039-2.174-5.033-1.135-6.912-1.3s-1.237-2.431-1.237-2.431a122.96,122.96,0,0,0,6.773-14.894c3.892-9.9-.814-11.136-.814-11.136" transform="translate(-187.235 -103.556)" fill="#ebebeb"/>
      <path id="Path_492" data-name="Path 492" d="M359,197.78c2.886-7.26,6.96-17.255,11.5-28.284s8.63-21.008,11.559-28.252c1.456-3.614,2.634-6.542,3.459-8.566l.942-2.329c.107-.257.187-.46.252-.6a2.183,2.183,0,0,1,.091-.2.545.545,0,0,1-.07.214c-.07.139-.129.348-.23.61-.209.535-.509,1.338-.9,2.35-.787,2.04-1.943,4.979-3.389,8.609-2.886,7.26-6.96,17.255-11.495,28.279s-8.63,21.014-11.559,28.257" transform="translate(-198.279 -111.444)" fill="#e0e0e0"/>
      <path id="Path_493" data-name="Path 493" d="M381.61,159.78a2.256,2.256,0,0,1,.22.46c.128.305.3.75.5,1.3.412,1.1.937,2.639,1.483,4.342s1.012,3.212,1.387,4.374l.423,1.322a2.005,2.005,0,0,1,.134.493,2.254,2.254,0,0,1-.219-.46c-.128-.305-.3-.75-.5-1.3-.4-1.1-.9-2.645-1.456-4.353l-1.413-4.358c-.166-.535-.311-.958-.428-1.322A2,2,0,0,1,381.61,159.78Z" transform="translate(-208.784 -125.451)" fill="#e0e0e0"/>
      <path id="Path_494" data-name="Path 494" d="M390.59,178.314c0-.064,3.095-1.29,6.96-2.736s7.024-2.575,7.046-2.511-3.089,1.29-6.96,2.736S390.611,178.384,390.59,178.314Z" transform="translate(-212.951 -131.616)" fill="#e0e0e0"/>
      <path id="Path_495" data-name="Path 495" d="M376.15,212.578a2.142,2.142,0,0,1,.535-.07l1.413-.112c1.194-.091,2.843-.225,4.658-.439s3.448-.455,4.631-.642l1.4-.219a1.8,1.8,0,0,1,.535-.048,2.5,2.5,0,0,1-.5.145c-.327.075-.8.177-1.392.294-1.173.225-2.811.5-4.631.712s-3.475.321-4.674.369c-.6,0-1.071.037-1.419.032A2.418,2.418,0,0,1,376.15,212.578Z" transform="translate(-206.246 -149.238)" fill="#e0e0e0"/>
      <path id="Path_496" data-name="Path 496" d="M363.44,194.81a1.987,1.987,0,0,1,.311.369c.182.246.45.61.771,1.071.642.9,1.52,2.142,2.473,3.55s1.8,2.677,2.415,3.592c.305.46.535.841.707,1.1a1.907,1.907,0,0,1,.236.423,3.969,3.969,0,0,1-.311-.369c-.187-.246-.45-.61-.776-1.071-.642-.9-1.515-2.142-2.473-3.55s-1.8-2.677-2.415-3.592c-.3-.46-.535-.841-.707-1.1A1.725,1.725,0,0,1,363.44,194.81Z" transform="translate(-200.347 -141.703)" fill="#e0e0e0"/>
      <path id="Path_497" data-name="Path 497" d="M347.21,220.59a2.941,2.941,0,0,1,.391.477c.262.364.6.814,1,1.36.83,1.151,1.965,2.747,3.212,4.524s2.356,3.389,3.148,4.567c.375.535.685,1.028.932,1.4a3.751,3.751,0,0,1,.316.535,2.629,2.629,0,0,1-.391-.476l-1-1.354c-.83-1.151-1.965-2.752-3.212-4.524s-2.35-3.389-3.143-4.567l-.932-1.4A2.678,2.678,0,0,1,347.21,220.59Z" transform="translate(-192.811 -153.662)" fill="#e0e0e0"/>
      <path id="Path_498" data-name="Path 498" d="M363.75,241.838a3.589,3.589,0,0,1,.653-.107l1.788-.2c1.51-.171,3.592-.412,5.889-.744s4.363-.685,5.857-.948l1.772-.311a3.6,3.6,0,0,1,.658-.086,3.452,3.452,0,0,1-.637.177c-.418.1-1.017.236-1.761.385-1.488.311-3.56.691-5.857,1.017s-4.39.535-5.889.68c-.755.064-1.371.107-1.794.128a3.686,3.686,0,0,1-.68.011Z" transform="translate(-200.488 -162.413)" fill="#e0e0e0"/>
      <path id="Path_499" data-name="Path 499" d="M676.146,265.693a18.813,18.813,0,1,0-35.03,9.5h0l.053.07c.717,1.215,1.606,2.083,2.538,3.362l10.922,14.455a3.389,3.389,0,0,0,5.418,0l10.745-14.225a40.73,40.73,0,0,0,2.73-3.625l.037-.048h0A18.738,18.738,0,0,0,676.146,265.693Zm-18.813,8.191a8.282,8.282,0,1,1,8.277-8.281,8.282,8.282,0,0,1-8.277,8.281Z" transform="translate(-328.049 -165.818)" fill="#f5f5f5"/>
      <path id="Path_500" data-name="Path 500" d="M542.9,125.053v22.122a.862.862,0,0,0,.862.862h46.385a.857.857,0,0,0,.862-.873l-.1-8.095a.92.92,0,0,0-.171-.535l-6.655-8.893a.862.862,0,0,0-.685-.343l-7.667-.059a.867.867,0,0,1-.857-.862v-3.346a.862.862,0,0,0-.862-.862H543.762a.862.862,0,0,0-.862.883Z" transform="translate(-283.622 -108.949)" fill="#f5f5f5"/>
      <path id="Path_501" data-name="Path 501" d="M606.65,136.722v7.1a.493.493,0,0,0,.5.493l10.242-.182a.493.493,0,0,0,.4-.771l-4.818-7.062a.487.487,0,0,0-.418-.219l-5.456.15a.493.493,0,0,0-.455.493Z" transform="translate(-313.242 -114.483)" fill="#ebebeb"/>
      <rect id="Rectangle_200" data-name="Rectangle 200" width="49.967" height="1.542" transform="translate(258.346 39.811)" fill="#f5f5f5"/>
      <circle id="Ellipse_39" data-name="Ellipse 39" cx="4.942" cy="4.942" r="4.942" transform="translate(262.894 40.394) rotate(-45)" fill="#ebebeb"/>
      <path id="Path_502" data-name="Path 502" d="M563.174,168.587a2.907,2.907,0,1,1-2.907-2.907,2.907,2.907,0,0,1,2.907,2.907Z" transform="translate(-290.385 -128.189)" fill="#fafafa"/>
      <path id="Path_503" data-name="Path 503" d="M602.355,148.056c-.123,0-.225-5.354-.225-11.923s.1-11.923.225-11.923.225,5.354.225,11.923S602.478,148.056,602.355,148.056Z" transform="translate(-311.142 -108.968)" fill="#ebebeb"/>
      <circle id="Ellipse_40" data-name="Ellipse 40" cx="4.942" cy="4.942" r="4.942" transform="translate(289.874 40.392) rotate(-45)" fill="#ebebeb"/>
      <path id="Path_504" data-name="Path 504" d="M613.475,168.587a2.912,2.912,0,1,1-2.907-2.907,2.912,2.912,0,0,1,2.907,2.907Z" transform="translate(-313.707 -128.189)" fill="#fafafa"/>
      <path id="Path_505" data-name="Path 505" d="M610.355,153.885c0,.123-.707.225-1.606.225s-1.579-.1-1.579-.225.707-.225,1.579-.225S610.355,153.756,610.355,153.885Z" transform="translate(-313.484 -122.651)" fill="#ebebeb"/>
    </g>
    <g id="freepik--Floor--inject-3" transform="translate(26.08 270.829)">
      <path id="Path_506" data-name="Path 506" d="M401.08,462.069c0,.08-83.955.139-187.484.139S26.08,462.15,26.08,462.069s83.939-.139,187.516-.139S401.08,461.994,401.08,462.069Z" transform="translate(-26.08 -461.93)" fill="#0e1d3b"/>
    </g>
    <g id="freepik--Plant--inject-3" transform="translate(71.001 218.884)">
      <path id="Path_507" data-name="Path 507" d="M139.9,414.634c7.217-5.006,8.882-14.332,8.625-22.722-.043-1.4.118-2.875-.535-4.106a2.847,2.847,0,0,0-3.469-1.488c-1.039.487-1.5,1.692-2.083,2.677a8.186,8.186,0,0,1-3.293,3.127,3.144,3.144,0,0,1-2.88.246c-1.2-.669-1.338-2.34-1.328-3.748q.043-3.892.075-7.784a12.919,12.919,0,0,0-.391-4.1,4.332,4.332,0,0,0-2.709-2.934,2.611,2.611,0,0,0-3.244,1.745,12.474,12.474,0,0,0-.048,1.735,1.467,1.467,0,0,1-.862,1.376,1.7,1.7,0,0,1-1.526-.642,18.268,18.268,0,0,1-3.309-5.033,25.1,25.1,0,0,0-3.084-5.188,7.537,7.537,0,0,0-5.091-2.88,4.519,4.519,0,0,0-4.636,3.057c-.514,1.954.626,3.962,1.868,5.552a31.053,31.053,0,0,0,6.425,6.194,2.553,2.553,0,0,1,1.071,1.167c.294.932-.584,1.847-1.5,2.142a15.821,15.821,0,0,1-3.25.353,3.118,3.118,0,0,0-2.677,1.606c-.573,1.424.61,2.918,1.777,3.9a26.518,26.518,0,0,0,7.87,4.578,9.026,9.026,0,0,1,2.923,1.435,2.267,2.267,0,0,1-2.045,4.026,19.937,19.937,0,0,1-3.052-1.178c-1.911-.728-4.385-.6-5.616,1.044a4.417,4.417,0,0,0-.482,3.9,10.172,10.172,0,0,0,2.1,3.448,26.769,26.769,0,0,0,11.409,8.074c4.433,1.558,8.566,1.986,12.962.391" transform="translate(-109.984 -364.905)" fill="#0d7684"/>
      <path id="Path_508" data-name="Path 508" d="M141.3,418.014c-.289-3.325-.439-3.394-1.67-7.629a124.206,124.206,0,0,0-4.9-13.454q-.75-1.751-1.467-3.459c-.487-1.135-.964-2.259-1.5-3.33a61.942,61.942,0,0,0-3.459-5.964c-1.183-1.852-2.377-3.56-3.507-5.156s-2.211-3.052-3.255-4.342a49.728,49.728,0,0,0-5.354-5.718c-.685-.626-1.231-1.071-1.606-1.4l-.428-.348c-.1-.08-.15-.118-.155-.112a1.844,1.844,0,0,0,.139.134l.412.369c.364.321.9.8,1.574,1.435a52.473,52.473,0,0,1,5.295,5.761c1.033,1.29,2.1,2.757,3.212,4.353s2.3,3.309,3.485,5.156a62.857,62.857,0,0,1,3.41,5.964c.535,1.071,1.012,2.184,1.494,3.319s.969,2.291,1.467,3.459a127.878,127.878,0,0,1,4.915,13.422c1.237,4.219,1.4,4.283,1.719,7.576" transform="translate(-111.845 -365.925)" fill="#0e1d3b"/>
      <path id="Path_509" data-name="Path 509" d="M146.995,396.827a2.828,2.828,0,0,0,.134-.594c.075-.385.166-.942.268-1.638.2-1.387.412-3.309.642-5.429s.466-4.037.685-5.418c.112-.691.2-1.247.278-1.633a2.511,2.511,0,0,0,.075-.6,3.406,3.406,0,0,0-.177.584c-.1.38-.22.937-.353,1.606-.268,1.376-.535,3.3-.766,5.418s-.418,3.989-.567,5.44c-.07.653-.134,1.2-.182,1.644A2.388,2.388,0,0,0,146.995,396.827Z" transform="translate(-127.177 -372.62)" fill="#263238"/>
      <path id="Path_510" data-name="Path 510" d="M113.58,403.737a3.684,3.684,0,0,0,.717.091c.455.043,1.124.1,1.943.2,1.638.182,3.892.535,6.366.99s4.69,1.007,6.285,1.435c.8.209,1.44.4,1.885.535a4.335,4.335,0,0,0,.7.171,4.2,4.2,0,0,0-.669-.273c-.439-.155-1.071-.369-1.868-.6-1.606-.477-3.807-1.033-6.285-1.515a62.211,62.211,0,0,0-6.425-.916c-.824-.075-1.494-.107-1.954-.118A4.01,4.01,0,0,0,113.58,403.737Z" transform="translate(-111.655 -382.94)" fill="#263238"/>
      <path id="Path_511" data-name="Path 511" d="M161.44,427.519a.968.968,0,0,0,.128-.219c.08-.177.182-.391.305-.648.268-.562.626-1.387,1.071-2.409.867-2.051,1.986-4.915,3.169-8.1s2.275-6.055,3.1-8.116l.99-2.441c.1-.268.193-.487.262-.664s.086-.236.075-.241a1.033,1.033,0,0,0-.123.219l-.305.642c-.268.568-.632,1.392-1.071,2.415-.873,2.045-1.986,4.915-3.169,8.1s-2.275,6.055-3.105,8.122c-.4,1-.739,1.826-.985,2.436-.107.268-.193.487-.262.669a1.224,1.224,0,0,0-.08.241Z" transform="translate(-133.891 -383.385)" fill="#263238"/>
      <path id="Path_512" data-name="Path 512" d="M117.05,432.86a1.175,1.175,0,0,0,.236.1l.691.236,2.548.835c2.142.7,5.1,1.713,8.368,2.827s6.237,2.1,8.4,2.763c1.071.332,1.959.589,2.57.755l.707.193a1.412,1.412,0,0,0,.246.048,1.725,1.725,0,0,0-.236-.1l-.685-.23-2.527-.835c-2.142-.707-5.1-1.713-8.373-2.832s-6.232-2.1-8.395-2.763c-1.071-.332-1.96-.589-2.57-.755l-.707-.187A.729.729,0,0,0,117.05,432.86Z" transform="translate(-113.267 -396.478)" fill="#263238"/>
    </g>
    <g id="freepik--Device--inject-3" transform="translate(96.825 50.12)">
      <path id="Path_513" data-name="Path 513" d="M249.2,270.969H174.69a16.912,16.912,0,0,1-16.57-16.738l.792-187.856A16.311,16.311,0,0,1,175.29,50.12l74.852.348a16.306,16.306,0,0,1,16.227,16.389l-.792,187.856A16.311,16.311,0,0,1,249.2,270.969Z" transform="translate(-158.12 -50.12)" fill="#0e1d3b"/>
      <path id="Path_514" data-name="Path 514" d="M254.351,63.82l-14.514-.043a3.605,3.605,0,0,0-3.539,3.672v2.637a3.611,3.611,0,0,1-3.539,3.672l-28.29-.134a3.605,3.605,0,0,1-3.507-3.7V67.288a3.622,3.622,0,0,0-3.512-3.709h-5.1l-12.7-.059A11.426,11.426,0,0,0,168.176,74.9L167.4,258.239a11.426,11.426,0,0,0,11.366,11.481l74.7.343a11.421,11.421,0,0,0,11.473-11.384L265.7,75.3A11.432,11.432,0,0,0,254.351,63.82Z" transform="translate(-162.431 -56.346)" fill="#f5f5f5"/>
      <path id="Path_515" data-name="Path 515" d="M270.386,383.714c-.086,2.211-.166,4.283-.236,6.012h10.708l-1.312-6.6Z" transform="translate(-210.171 -204.608)" fill="#f5f5f5"/>
      <path id="Path_516" data-name="Path 516" d="M189.13,387.038l.091,3.255h42.215c.07-1.831.15-3.855.23-5.943Z" transform="translate(-172.528 -205.175)" fill="#f5f5f5"/>
      <path id="Path_517" data-name="Path 517" d="M288.75,381.927l1.317,6.623h19.788l-.241-7.94Z" transform="translate(-218.813 -203.437)" fill="#f5f5f5"/>
      <path id="Path_518" data-name="Path 518" d="M267.335,190.626l3.742-21.688-9.8-.728v22.416Z" transform="translate(-206.05 -104.912)" fill="#f5f5f5"/>
      <path id="Path_519" data-name="Path 519" d="M178.225,366.88l-10.633,4.165-.032,7.533,10.981-.7Z" transform="translate(-162.506 -197.102)" fill="#f5f5f5"/>
      <path id="Path_520" data-name="Path 520" d="M178.209,340.006l-.578-20.2h-.011V312.68l-9.862,1.044-.128,30.415L178.2,340Z" transform="translate(-162.538 -171.936)" fill="#f5f5f5"/>
      <path id="Path_521" data-name="Path 521" d="M177.741,281.856l-9.781-1.3-.07,16.629,9.851-1.044Z" transform="translate(-162.659 -157.045)" fill="#f5f5f5"/>
      <path id="Path_522" data-name="Path 522" d="M312.1,312.989l-.412,5.793-11.553,1.242.894,4.583,13.112-.99-.193-6.569,1.044-4.347Z" transform="translate(-224.1 -171.962)" fill="#f5f5f5"/>
      <path id="Path_523" data-name="Path 523" d="M282.855,326.785l9.214-.7-2.008-10.279-8.041.814Z" transform="translate(-215.686 -173.405)" fill="#f5f5f5"/>
      <path id="Path_524" data-name="Path 524" d="M283.75,336.814l.7,8.571,1.247,11.757.514,2.575,21.046-1.328-.7-23.3Z" transform="translate(-216.49 -182.34)" fill="#f5f5f5"/>
      <path id="Path_525" data-name="Path 525" d="M193.77,239.627l.808,1.387L178.351,250.5v22.459l17.132-1.215,33.038-3.346-1.21-14.718-31.539-4.122.209-1.606,31.2,4.074-2.045-24.911-30.881,2.966-.1-1.071,30.892-2.966-1.071-13H194.257l-26.078,4.743-.128,29.767,9.867,1.338ZM180.01,270.792s.123-18.514,0-19.2l13.245-7.046,1.719,25.307Z" transform="translate(-162.734 -125.688)" fill="#f5f5f5"/>
      <path id="Path_526" data-name="Path 526" d="M310.038,313.45l-12,1.21.91,4.658,10.756-1.156Z" transform="translate(-223.129 -172.314)" fill="#f5f5f5"/>
      <path id="Path_527" data-name="Path 527" d="M270.777,376.81c-.038.974-.075,1.938-.107,2.891l8.93-.568-.46-2.3Z" transform="translate(-210.413 -201.718)" fill="#f5f5f5"/>
      <path id="Path_528" data-name="Path 528" d="M203.969,188.183l1.574-7.137h11.993V165.729l-37.493-2.779v14.386l-11.709,2.65L168.28,192.9l25.929-4.717Z" transform="translate(-162.84 -102.469)" fill="#f5f5f5"/>
      <path id="Path_529" data-name="Path 529" d="M271.541,108.144l-.321-1.312,14.316-5.664-9.31-18.7a3.329,3.329,0,0,1-.535.043l-15.82-.075L260.3,108.6Z" transform="translate(-205.395 -65.136)" fill="#f5f5f5"/>
      <path id="Path_530" data-name="Path 530" d="M308.735,89.548V64.027L298.3,64a3.6,3.6,0,0,0-3.539,3.667V70.3a3.748,3.748,0,0,1-1.531,3.02l9.316,18.706Z" transform="translate(-220.895 -56.569)" fill="#f5f5f5"/>
      <path id="Path_531" data-name="Path 531" d="M204.1,90.4l-1.21-26.876h-2.9l-11.323-.054L183.85,87.5Zm-2.581-24.151.385,21.886-15.05-2.2,3.293-19.686Z" transform="translate(-170.075 -56.322)" fill="#f5f5f5"/>
      <path id="Path_532" data-name="Path 532" d="M221.621,90.536v.225c0,2.1.064,5.889.1,9.91l19.718-.8-.428-26.186-11.934-.059a3.6,3.6,0,0,1-3.507-3.7V67.295a3.619,3.619,0,0,0-3.512-3.7H220.39l1.21,26.946Z" transform="translate(-187.052 -56.378)" fill="#f5f5f5"/>
      <path id="Path_533" data-name="Path 533" d="M175.239,87.258l4.776-23.8A11.414,11.414,0,0,0,168.8,74.821l-.054,11.864.054-.348Z" transform="translate(-163.059 -56.318)" fill="#f5f5f5"/>
      <path id="Path_534" data-name="Path 534" d="M178.487,162.084l-10.028-.744-.07,16.249,10.1-2.286Z" transform="translate(-162.892 -101.726)" fill="#f5f5f5"/>
      <path id="Path_535" data-name="Path 535" d="M175.034,108.1l-6.382-.916-.112,26.314,1.376.1Z" transform="translate(-162.961 -76.631)" fill="#f5f5f5"/>
      <path id="Path_536" data-name="Path 536" d="M204,344.811l.166-21.121-16.87,1.194.6,20.692Z" transform="translate(-171.677 -177.053)" fill="#f5f5f5"/>
      <path id="Path_537" data-name="Path 537" d="M223.617,336.981l23.889,11.446c.289-7.5.535-14.455.535-14.921l.535-.027.257-.5c.337.166.337.166.161,5.268-.1,2.843-.241,6.628-.385,10.413h8.261l-1.215-11.479-1.606-19.809-31.218,3.148Z" transform="translate(-188.185 -174.112)" fill="#f5f5f5"/>
      <path id="Path_538" data-name="Path 538" d="M308.6,286.139l-.273-2.789-28.638,2.982,1.2,14.675,24.729-2.495Z" transform="translate(-214.604 -158.339)" fill="#f5f5f5"/>
      <path id="Path_539" data-name="Path 539" d="M249.933,199.75h-10.7l-1.221,5.53h11.923Z" transform="translate(-195.238 -119.553)" fill="#f5f5f5"/>
      <path id="Path_540" data-name="Path 540" d="M301.247,201.632l-26.8-1.852-1.071,6.328,1.13,13.738,28.257-2.72ZM275.436,206.1l1.44-3.994,23.273,1.472L301.493,215l-25.27,3Z" transform="translate(-211.672 -119.561)" fill="#f5f5f5"/>
      <path id="Path_541" data-name="Path 541" d="M305.061,246.328l-1.178-12.148-28.273,2.714,1.065,12.929Z" transform="translate(-212.708 -135.525)" fill="#f5f5f5"/>
      <path id="Path_542" data-name="Path 542" d="M178.559,389.421l-10.97.691-.043-.712-.016,3.234h11.12Z" transform="translate(-162.492 -207.521)" fill="#f5f5f5"/>
      <path id="Path_543" data-name="Path 543" d="M337.87,83.552l.161.412.016-8.416A11.425,11.425,0,0,0,326.68,64.08h-3.56V89.393Z" transform="translate(-234.782 -56.606)" fill="#f5f5f5"/>
      <path id="Path_544" data-name="Path 544" d="M231.506,351.839l-24.387-11.687-.862-16.741-1.017.1-.177,21.683-16.624.787v.482h0l.321,11.179,42.611-2.677Q231.453,353.4,231.506,351.839Zm-42.022-4.476,23.268-1.606,15.135,7.019-38.4,2.077Z" transform="translate(-172.207 -176.912)" fill="#f5f5f5"/>
      <path id="Path_545" data-name="Path 545" d="M325.542,134.857l1-5.916c-8.748-3.121-9.353-12.244-9.326-14.991l-5.707,2.259,8.593,17.255Z" transform="translate(-229.388 -79.736)" fill="#f5f5f5"/>
      <path id="Path_546" data-name="Path 546" d="M278.7,275.741l11.891-1.237-2.34-10.5-10.408,1.285Z" transform="translate(-213.744 -149.364)" fill="#f5f5f5"/>
      <path id="Path_547" data-name="Path 547" d="M302.45,169.779H280.243l-1.842-.139-2.511,14.546,26.362,1.82-.61-6.323,2.6-9.337Z" transform="translate(-212.838 -105.578)" fill="#f5f5f5"/>
      <path id="Path_548" data-name="Path 548" d="M305.413,143.653l.278-6.96-8.727-17.523-13.534,5.354,4.652,19.1Zm-8.978-22.331,8,15.216-1.156,4.743-13.684-.535-3.421-14.391Z" transform="translate(-216.341 -82.158)" fill="#f5f5f5"/>
      <path id="Path_549" data-name="Path 549" d="M330.94,316.285l.412,13.636,9.621-.541.032.535-9.637.541.487,16.318,9.1-.578.064,1.071-9.134.578.246,8.111H341l.193-45.5-9.069.915Z" transform="translate(-238.415 -170.892)" fill="#f5f5f5"/>
      <path id="Path_550" data-name="Path 550" d="M199.593,112.243l-20.377-2.923-5.1,25.388,25.564,1.9C199.786,132.705,199.7,120.7,199.593,112.243Z" transform="translate(-165.554 -77.625)" fill="#f5f5f5"/>
      <path id="Path_551" data-name="Path 551" d="M273.349,149.354h3.084l-4.363-17.914-11.339.466L261,148.438Z" transform="translate(-205.794 -87.852)" fill="#f5f5f5"/>
      <path id="Path_552" data-name="Path 552" d="M167.43,419.79v0Z" transform="translate(-162.446 -221.641)" fill="#f5f5f5"/>
      <path id="Path_553" data-name="Path 553" d="M222.84,147.341l20.018,1.483-.268-16.474-19.723.8C222.926,138.726,222.926,144.669,222.84,147.341Z" transform="translate(-188.19 -88.275)" fill="#f5f5f5"/>
      <path id="Path_554" data-name="Path 554" d="M315.745,259.86l-17.475,2.152,2.35,10.509,16.185-1.681Z" transform="translate(-223.236 -147.442)" fill="#f5f5f5"/>
      <path id="Path_555" data-name="Path 555" d="M332.047,123.054l1.119-6.639,4.818.375.064-14.3-14.878,5.889C322.866,118.439,329.188,121.978,332.047,123.054Z" transform="translate(-234.801 -74.452)" fill="#f5f5f5"/>
      <path id="Path_556" data-name="Path 556" d="M329.06,181.23l.605,6.275,10.9.755.054-12.919-9.123-2.88Z" transform="translate(-237.542 -106.886)" fill="#f5f5f5"/>
      <path id="Path_557" data-name="Path 557" d="M336.259,286.271l-2.859,11.9,8.936-.9.053-12.48c-2.741-.723-5.134-1.312-6.425-1.558Z" transform="translate(-239.558 -158.285)" fill="#f5f5f5"/>
      <path id="Path_558" data-name="Path 558" d="M327.48,159.821l12.415,3.924.032-7.062-12.2-3.153Z" transform="translate(-236.808 -98.104)" fill="#f5f5f5"/>
      <path id="Path_559" data-name="Path 559" d="M335.819,257.809a64.872,64.872,0,0,1,6.585,1.526l.118-27.3-9.1.878Z" transform="translate(-239.568 -134.521)" fill="#f5f5f5"/>
      <path id="Path_560" data-name="Path 560" d="M331.942,218.645l9.219-.889.054-13.422-10.734-.744Z" transform="translate(-238.202 -121.331)" fill="#f5f5f5"/>
      <path id="Path_561" data-name="Path 561" d="M341.68,136.466a50.076,50.076,0,0,0,4.877,1.247v-6.778l-3.924-.305Z" transform="translate(-243.405 -87.479)" fill="#f5f5f5"/>
      <path id="Path_562" data-name="Path 562" d="M339.67,148.382l5.927,1.531.027-6.119c-1.537-.311-3.212-.728-4.968-1.264Z" transform="translate(-242.472 -93.001)" fill="#f5f5f5"/>
      <path id="Path_563" data-name="Path 563" d="M178.587,237.983l.091,3.212h.535l-.091-3.255,42.536-2.677c-.08,2.088-.161,4.112-.23,5.943H222.5c.07-1.729.15-3.8.236-6.012l9.182-.584,1.312,6.6h.535l-1.317-6.628,20.88-1.317.241,7.945h2.677L256,233.089l9.134-.578-.064-1.071-9.1.578-.487-16.318,9.637-.535-.032-.535-9.637.535-.412-13.636,1.183-4.909,9.069-.915v-.535l-8.935.9,2.859-11.9-.294-3.041c1.29.246,3.683.835,6.425,1.558V181c-3.689-.974-5.584-1.376-6.585-1.526l-2.409-24.885,9.1-.878v-1.071l-9.219.889-1.462-15.055,10.708.744v-1.606l-10.9-.755-.6-6.275,2.436-8.77,9.1,2.88v-2.8l-12.415-3.924.252-6.291,12.2,3.153v-1.66l-5.927-1.531.985-5.852c1.777.535,3.432.953,4.968,1.264v-.535a50.07,50.07,0,0,1-4.877-1.247l.98-5.836,3.924.305V98.671l-4.818-.375-1.119,6.639c-2.859-1.071-9.182-4.615-8.877-14.68l14.878-5.889v-.68l-.161-.412L250.783,89.1V63.786h-.535V89.307l-6.2,2.457-9.316-18.706a3.394,3.394,0,0,1-1.494.6l9.31,18.7-14.2,5.659.321,1.312-11.243.46-.428-26.164h-.535l.428,26.185-19.718.8c-.032-4.037-.075-7.811-.1-9.91V90.48h0l-1.21-26.946h-.535l1.21,26.876L176.285,87.5,181.1,63.47h-1.638l-4.776,23.8-6.425-.921-.054.348v.182l6.382.915-5.118,25.5-1.376-.1v2.677l10.028.744v13.219l-10.1,2.286v1.649l11.709-2.677V116.756l37.477,2.779v15.323H205.222l-1.574,7.131h-9.76l-25.929,4.717v1.633l26.084-4.77h29.7l1.071,13-30.891,2.966.1,1.071,30.881-2.966,2.045,24.911-31.2-4.074-.209,1.606,31.539,4.122,1.221,14.7-33.017,3.33-17.132,1.215V181l16.227-9.465-.808-1.387L177.7,179.4l-9.894-1.317v1.606L177.6,181v14.289l-9.851,1.044v1.606l9.862-1.044v7.126h0l.584,20.2h0l-10.574,4.144v1.724l10.633-4.165.316,11-10.981.7v.359l.043.712Zm44.19-3.865c.032-.953.07-1.917.107-2.891h8.363l.46,2.3Zm9.466-.6-.535-2.575-1.247-11.778-.7-8.566,22.807-1.724.7,23.294Zm5.166-35,12-1.21-.337,4.711-10.756,1.156Zm-.535.054,2.008,10.279-9.214.7-.835-10.172Zm15.66,9.251-13.111.99-.894-4.583,11.554-1.242.412-5.793,2.891-.289-1.044,4.347Zm-15.526-36.99,2.34,10.5-11.891,1.237-.857-10.456Zm2.88,10.445-2.35-10.51,17.475-2.142,1.071,10.981Zm12.03-44.6-26.362-1.826,2.511-14.541,1.842.139h22.213l1.783.568-2.575,9.337Zm-1.606-46.219c-.027,2.763.578,11.885,9.326,14.991l-.964,5.953-5.44-1.408-8.593-17.277Zm-7.206,2.854,8.759,17.523-.278,6.96H234.261l-4.652-19.1ZM228.757,99.86l4.363,17.914h-3.046l-12.346-.91-.273-16.538Zm-11.875.487.268,16.474-20.018-1.483c.086-2.677.07-8.614,0-14.188ZM176.145,88.033l20.377,2.923c.1,8.459.193,20.452.091,24.36l-25.564-1.9ZM227.51,120.29l-3.748,21.688H217.75V119.546Zm-21.035,16.163h10.708v5.525h-11.9Zm17.668,6.339,1.071-6.328,26.8,1.852,1.5,15.494-28.257,2.72Zm29.489,12.089,1.178,12.148-28.375,3.5L225.363,157.6Zm-26.089,29.307,28.638-2.982.273,2.789-2.977,12.373-24.729,2.495Zm2.345,35.062,1.215,11.479h-8.2c.145-3.785.284-7.57.385-10.413.177-5.1.177-5.1-.161-5.268l-.257.5-.535.027c0,.444-.23,7.442-.535,14.921l-23.851-11.484-.846-16.452,31.2-3.127ZM194.948,202.8l-.166,21.121-16.1.766-.6-20.692ZM178.7,225.717h0v-.482l16.624-.787.177-21.683,1.017-.1.862,16.741,24.387,11.687c-.037,1.039-.08,2.083-.118,3.121l-42.611,2.677Z" transform="translate(-162.52 -56.322)" fill="#fff"/>
      <path id="Path_564" data-name="Path 564" d="M213.658,365.1l-23.268,1.628V374.2l38.408-2.083Z" transform="translate(-173.113 -196.279)" fill="#ebebeb"/>
      <path id="Path_565" data-name="Path 565" d="M301.933,205.592,278.66,204.12l-1.44,3.994.787,11.9,25.27-3Z" transform="translate(-213.456 -121.577)" fill="#ebebeb"/>
      <path id="Path_566" data-name="Path 566" d="M178.78,423.707l74.7.343a11.414,11.414,0,0,0,11.473-11.371l.075-17.229H167.484l-.054,13.031v4.1A11.414,11.414,0,0,0,178.78,423.707Z" transform="translate(-162.446 -210.332)" fill="#ebebeb"/>
      <path id="Path_567" data-name="Path 567" d="M204.51,90.546l-.385-21.886H192.758l-3.3,19.686Z" transform="translate(-172.681 -58.734)" fill="#ebebeb"/>
      <path id="Path_568" data-name="Path 568" d="M305.655,143.149l1.156-4.743-8-15.216-10.263,5.054,3.421,14.391Z" transform="translate(-218.72 -84.024)" fill="#ebebeb"/>
      <path id="Path_569" data-name="Path 569" d="M190.39,278.886c.123.691,0,19.2,0,19.2l14.991-.942-1.719-25.307Z" transform="translate(-173.113 -152.992)" fill="#ebebeb"/>
      <path id="Path_570" data-name="Path 570" d="M282.9,300.3l-.792-11.473,25.661-3.3v1.981l-3.105,10.552Z" transform="translate(-215.728 -159.352)" fill="#ebebeb"/>
      <path id="Path_571" data-name="Path 571" d="M242.713,132.677a3.127,3.127,0,1,1-3.127-3.127A3.127,3.127,0,0,1,242.713,132.677Z" transform="translate(-194.518 -86.978)" fill="#0d7684"/>
      <g id="Group_287" data-name="Group 287" transform="translate(41.939 42.575)" opacity="0.6">
        <path id="Path_572" data-name="Path 572" d="M242.706,132.545a3.127,3.127,0,1,1-3.255-2.987A3.127,3.127,0,0,1,242.706,132.545Z" transform="translate(-236.455 -129.555)" fill="#fff"/>
      </g>
      <circle id="Ellipse_41" data-name="Ellipse 41" cx="2.077" cy="2.077" r="2.077" transform="translate(42.991 43.515)" fill="#0d7684"/>
      <path id="Path_573" data-name="Path 573" d="M330.207,367.36a1.339,1.339,0,1,1-.39-.966,1.338,1.338,0,0,1,.39.966Z" transform="translate(-236.831 -196.702)" fill="#0d7684"/>
      <path id="Path_574" data-name="Path 574" d="M274.559,259.446l-.327-7.5-22.55,1.1a3.442,3.442,0,0,1-1.708-.364l-31.989-16.158a2.323,2.323,0,0,1-1.269-1.949l-4.358-84.451a1.408,1.408,0,0,1,1.515-1.478l13.711,1.012V134.67h1.606v15.194a1.419,1.419,0,0,1-.428,1.044,1.44,1.44,0,0,1-1.071.369l-13.7-1.012,4.342,84.232a.717.717,0,0,0,.391.594l31.989,16.168a1.815,1.815,0,0,0,.9.193l22.743-1.108a1.43,1.43,0,0,1,1.023.369,1.408,1.408,0,0,1,.466.99l.327,7.672Z" transform="translate(-183.319 -89.293)" fill="#0d7684"/>
      <circle id="Ellipse_42" data-name="Ellipse 42" cx="4.047" cy="4.047" r="4.047" transform="translate(27.615 93.458)" fill="#0d7684"/>
      <circle id="Ellipse_43" data-name="Ellipse 43" cx="2.811" cy="2.811" r="2.811" transform="translate(28.852 94.694)" fill="#fafafa"/>
      <path id="Path_575" data-name="Path 575" d="M214.64,232.448a3.014,3.014,0,1,1,3.009-3.014A3.014,3.014,0,0,1,214.64,232.448Zm0-5.627a2.613,2.613,0,1,0,2.607,2.613A2.613,2.613,0,0,0,214.64,226.822Z" transform="translate(-182.977 -131.929)" fill="#0d7684"/>
      <path id="Path_576" data-name="Path 576" d="M243.591,200.34H224.317a1.7,1.7,0,0,0-1.7,1.7V209a1.7,1.7,0,0,0,1.7,1.7h.225v1.665l1.933-1.665h17.132a1.7,1.7,0,0,0,1.7-1.7v-6.96a1.7,1.7,0,0,0-1.713-1.7Z" transform="translate(-188.088 -119.824)" fill="#0d7684"/>
      <g id="Group_288" data-name="Group 288" transform="translate(34.532 80.515)" opacity="0.4">
        <path id="Path_577" data-name="Path 577" d="M243.591,200.34H224.317a1.7,1.7,0,0,0-1.7,1.7V209a1.7,1.7,0,0,0,1.7,1.7h.225v1.665l1.933-1.665h17.132a1.7,1.7,0,0,0,1.7-1.7v-6.96a1.7,1.7,0,0,0-1.713-1.7Z" transform="translate(-222.62 -200.34)" fill="#fff"/>
      </g>
      <path id="Path_578" data-name="Path 578" d="M230.719,208.779a1.156,1.156,0,1,1,1.162,1.114,1.108,1.108,0,0,1-1.162-1.114Zm2,0a.846.846,0,1,0-.841.841.814.814,0,0,0,.841-.841Z" transform="translate(-191.851 -123.188)" fill="#fff"/>
      <path id="Path_579" data-name="Path 579" d="M237.518,209.028a.8.8,0,0,1-.83.841.691.691,0,0,1-.589-.278v.262h-.289V207.54h.3v.91a.707.707,0,0,1,.578-.262.8.8,0,0,1,.83.841Zm-.3,0a.23.23,0,1,0,.021,0Z" transform="translate(-194.216 -123.17)" fill="#fff"/>
      <path id="Path_580" data-name="Path 580" d="M238.75,210.339l.1-.23a.369.369,0,0,0,.246.08c.155,0,.246-.1.246-.289v-1.729h.294V209.9a.493.493,0,0,1-.535.535A.594.594,0,0,1,238.75,210.339Zm.535-2.677a.2.2,0,1,1,.2.193.187.187,0,0,1-.2-.2Z" transform="translate(-195.582 -123.137)" fill="#fff"/>
      <path id="Path_581" data-name="Path 581" d="M242.818,209.687h-1.338a.535.535,0,0,0,.6.482.621.621,0,0,0,.477-.2l.166.193a.9.9,0,0,1-1.542-.573.808.808,0,0,1,.83-.841.792.792,0,0,1,.814.846A.534.534,0,0,1,242.818,209.687Zm-1.338-.214h1.071a.535.535,0,1,0-1.071,0Z" transform="translate(-196.711 -123.731)" fill="#fff"/>
      <path id="Path_582" data-name="Path 582" d="M244.74,209.589a.824.824,0,0,1,.873-.841.728.728,0,0,1,.669.348l-.225.15a.535.535,0,0,0-.45-.241.584.584,0,0,0,0,1.162.535.535,0,0,0,.45-.236l.225.145a.733.733,0,0,1-.669.353.83.83,0,0,1-.873-.841Z" transform="translate(-198.365 -123.73)" fill="#fff"/>
      <path id="Path_583" data-name="Path 583" d="M249.093,210a.589.589,0,0,1-.364.112.466.466,0,0,1-.535-.535v-.91h-.284v-.241h.284v-.364h.3v.364h.471v.241h-.471v.894a.241.241,0,0,0,.257.278.369.369,0,0,0,.23-.075Z" transform="translate(-199.838 -123.411)" fill="#fff"/>
      <path id="Path_584" data-name="Path 584" d="M250.69,207.652a.2.2,0,0,1,.2-.193.193.193,0,0,1,.2.187.2.2,0,1,1-.407,0Zm.054.535h.3v1.649h-.3Z" transform="translate(-201.13 -123.132)" fill="#fff"/>
      <path id="Path_585" data-name="Path 585" d="M253.621,208.78l-.723,1.649h-.305l-.723-1.649h.316l.535,1.322.578-1.322Z" transform="translate(-201.678 -123.745)" fill="#fff"/>
      <path id="Path_586" data-name="Path 586" d="M256.928,209.687h-1.338a.535.535,0,0,0,.6.482.621.621,0,0,0,.477-.2l.161.193a.808.808,0,0,1-.648.268.83.83,0,0,1-.889-.841.808.808,0,0,1,.83-.841.792.792,0,0,1,.814.846.534.534,0,0,1-.005.091Zm-1.338-.214h1.071a.535.535,0,0,0-1.071,0Z" transform="translate(-203.266 -123.731)" fill="#fff"/>
      <path id="Path_587" data-name="Path 587" d="M242.949,112.277a4,4,0,1,0-7.442,2.024h0c.155.257.348.444.535.717l2.329,3.078a.723.723,0,0,0,1.156,0l2.286-3.03a8.534,8.534,0,0,0,.584-.771h0a3.994,3.994,0,0,0,.551-2.018Zm-4,1.724a1.767,1.767,0,1,1,1.761-1.767A1.767,1.767,0,0,1,238.945,114Z" transform="translate(-193.812 -77.124)" fill="#0d7684"/>
      <path id="Path_588" data-name="Path 588" d="M200.794,410.413h-.744v-.273h1.8v.273h-.755v1.906h-.311Z" transform="translate(-177.601 -217.158)" fill="#0e1d3b"/>
      <path id="Path_589" data-name="Path 589" d="M203.36,411.917a.857.857,0,1,1,.862.846.819.819,0,0,1-.862-.846Zm1.413,0a.554.554,0,1,0-.554.554.554.554,0,0,0,.554-.554Z" transform="translate(-179.139 -217.58)" fill="#0e1d3b"/>
      <path id="Path_590" data-name="Path 590" d="M208.052,412.327a.536.536,0,0,1-.359.118.471.471,0,0,1-.535-.535V411h-.278v-.246h.278V410.4h.321v.359h.471V411h-.471v.894a.241.241,0,0,0,.257.278.4.4,0,0,0,.236-.08Z" transform="translate(-180.775 -217.278)" fill="#0e1d3b"/>
      <path id="Path_591" data-name="Path 591" d="M210.949,411.761v1h-.284v-.214a.626.626,0,0,1-.535.236c-.375,0-.61-.2-.61-.487s.171-.482.659-.482h.477v-.059c0-.252-.145-.4-.444-.4a.8.8,0,0,0-.535.182l-.129-.225a1.071,1.071,0,0,1,.685-.214.616.616,0,0,1,.717.669Zm-.3.493v-.23h-.46c-.294,0-.38.118-.38.257s.134.268.364.268a.477.477,0,0,0,.477-.295Z" transform="translate(-182.001 -217.596)" fill="#0e1d3b"/>
      <path id="Path_592" data-name="Path 592" d="M213.22,409.9h.3v2.307h-.3Z" transform="translate(-183.72 -217.046)" fill="#0e1d3b"/>
      <path id="Path_593" data-name="Path 593" d="M217.877,409.9v2.307h-.284v-.262a.7.7,0,0,1-.589.284.846.846,0,0,1,0-1.686.7.7,0,0,1,.578.268v-.91Zm-.294,1.483a.535.535,0,1,0-.139.41A.535.535,0,0,0,217.582,411.383Z" transform="translate(-185.117 -217.046)" fill="#0e1d3b"/>
      <path id="Path_594" data-name="Path 594" d="M220.27,410.006a.225.225,0,1,1,.2.193.2.2,0,0,1-.2-.193Zm.054.509h.3v1.649h-.3Z" transform="translate(-186.996 -217.002)" fill="#0e1d3b"/>
      <path id="Path_595" data-name="Path 595" d="M221.6,412.594l.128-.241a1.039,1.039,0,0,0,.578.171c.278,0,.391-.08.391-.22,0-.375-1.071-.054-1.071-.707,0-.3.268-.5.691-.5a1.226,1.226,0,0,1,.6.15l-.128.236a.867.867,0,0,0-.477-.128c-.262,0-.385.1-.385.225,0,.391,1.071.075,1.071.712,0,.3-.273.493-.712.493A1.225,1.225,0,0,1,221.6,412.594Z" transform="translate(-187.614 -217.604)" fill="#0e1d3b"/>
      <path id="Path_596" data-name="Path 596" d="M225.613,412.327a.535.535,0,0,1-.364.118.471.471,0,0,1-.535-.535V411h-.284v-.246h.305V410.4h.3v.359h.471V411h-.471v.894a.241.241,0,0,0,.257.278.375.375,0,0,0,.23-.08Z" transform="translate(-188.929 -217.278)" fill="#0e1d3b"/>
      <path id="Path_597" data-name="Path 597" d="M228.519,411.763v1h-.284v-.214a.632.632,0,0,1-.535.236c-.369,0-.61-.2-.61-.487s.171-.482.664-.482h.477v-.059c0-.252-.15-.4-.444-.4a.83.83,0,0,0-.535.182l-.123-.225a1.07,1.07,0,0,1,.685-.214.616.616,0,0,1,.707.669Zm-.3.493v-.23h-.46c-.3,0-.38.118-.38.257s.134.268.364.268a.477.477,0,0,0,.477-.294Z" transform="translate(-190.165 -217.597)" fill="#0e1d3b"/>
      <path id="Path_598" data-name="Path 598" d="M232.339,411.8v.948h-.294v-.916c0-.321-.166-.482-.45-.482a.492.492,0,0,0-.535.535v.846h-.3v-1.649h.284v.252a.712.712,0,0,1,.6-.268.637.637,0,0,1,.7.733Z" transform="translate(-191.87 -217.587)" fill="#0e1d3b"/>
      <path id="Path_599" data-name="Path 599" d="M234.48,411.939a.825.825,0,0,1,.873-.841.744.744,0,0,1,.675.353l-.23.145a.535.535,0,0,0-.45-.236.584.584,0,0,0,0,1.162.535.535,0,0,0,.45-.236l.23.139a.749.749,0,0,1-.675.359.83.83,0,0,1-.873-.846Z" transform="translate(-193.598 -217.602)" fill="#0e1d3b"/>
      <path id="Path_600" data-name="Path 600" d="M239.388,412.042h-1.338a.535.535,0,0,0,.6.482.621.621,0,0,0,.476-.2l.166.193a.846.846,0,0,1-.653.268.83.83,0,0,1-.889-.846.808.808,0,0,1,.83-.84.792.792,0,0,1,.814.851.534.534,0,0,1-.005.091Zm-1.338-.214h1.071a.535.535,0,0,0-1.071,0Z" transform="translate(-195.117 -217.603)" fill="#0e1d3b"/>
      <path id="Path_601" data-name="Path 601" d="M203.153,418.78v5.193h-1.2v-4.23H200.91v-.964Z" transform="translate(-178.001 -221.172)" fill="#0e1d3b"/>
      <path id="Path_602" data-name="Path 602" d="M208.164,426.617a1.772,1.772,0,0,1-.2.739l-.428,1.071H206.8l.327-1.178a.648.648,0,0,1-.4-.632.717.717,0,0,1,1.435,0Z" transform="translate(-180.704 -224.48)" fill="#0e1d3b"/>
      <path id="Path_603" data-name="Path 603" d="M212.03,418.78v5.193H210.8v-4.23H209.76v-.964Z" transform="translate(-182.113 -221.172)" fill="#0e1d3b"/>
      <path id="Path_604" data-name="Path 604" d="M215.64,421.307c0-1.713.948-2.677,2.227-2.677s2.227.974,2.227,2.677-.942,2.677-2.227,2.677S215.64,423.02,215.64,421.307Zm3.244,0c0-1.178-.418-1.67-1.017-1.67s-1.012.493-1.012,1.67.418,1.67,1.012,1.67S218.884,422.49,218.884,421.307Z" transform="translate(-184.845 -221.102)" fill="#0e1d3b"/>
      <path id="Path_605" data-name="Path 605" d="M225.05,421.307c0-1.713.953-2.677,2.233-2.677s2.227.974,2.227,2.677-.942,2.677-2.227,2.677S225.05,423.02,225.05,421.307Zm3.25,0c0-1.178-.418-1.67-1.017-1.67s-1.012.493-1.012,1.67.418,1.67,1.012,1.67S228.3,422.49,228.3,421.307Z" transform="translate(-189.217 -221.102)" fill="#0e1d3b"/>
      <path id="Path_606" data-name="Path 606" d="M245.606,422.652v2.286h-1.156v-2.1c0-.648-.289-.948-.76-.948s-.883.337-.883,1.071v2h-1.156v-2.1c0-.648-.273-.948-.755-.948s-.878.337-.878,1.071v2H238.86v-4.047h1.1v.46a1.606,1.606,0,0,1,1.258-.535,1.488,1.488,0,0,1,1.312.653,1.8,1.8,0,0,1,1.44-.653A1.581,1.581,0,0,1,245.606,422.652Z" transform="translate(-195.633 -222.136)" fill="#0e1d3b"/>
      <circle id="Ellipse_44" data-name="Ellipse 44" cx="4.481" cy="4.481" r="4.481" transform="matrix(0.229, -0.973, 0.973, 0.229, 9.965, 200.525)" fill="#0d7684"/>
      <path id="Path_607" data-name="Path 607" d="M183.29,417.073a6.993,6.993,0,0,1,1.151-.07c.733,0,1.783-.038,3.036-.048l-.091.2c-.359-.407-.739-.857-1.146-1.322l-.07-.08.07-.091,1.13-1.408.107.225h-4.213l.128-.123c0,1.36-.032,2.506-.054,3.309a7.948,7.948,0,0,1-.075,1.269,8.842,8.842,0,0,1-.075-1.269c0-.8-.037-1.949-.048-3.309v-.123h4.6l-.182.225-1.14,1.408v-.171l1.124,1.338.171.2h-.262c-1.253,0-2.3-.032-3.036-.048a6.56,6.56,0,0,1-1.124-.107Z" transform="translate(-169.745 -219.058)" fill="#fafafa"/>
      <path id="Path_608" data-name="Path 608" d="M308.212,403.73H294.667a2.6,2.6,0,0,0-2.6,2.6v10.665a2.6,2.6,0,0,0,2.6,2.591h.343v2.543l2.95-2.543h10.253a2.6,2.6,0,0,0,2.6-2.591V406.327A2.6,2.6,0,0,0,308.212,403.73Z" transform="translate(-220.356 -214.179)" fill="#0d7684"/>
      <path id="Path_609" data-name="Path 609" d="M299.33,412.7v5.472a.214.214,0,0,0,.214.214h11.468a.214.214,0,0,0,.209-.219l-.027-2a.209.209,0,0,0-.037-.123l-1.649-2.2a.2.2,0,0,0-.166-.086h-1.9a.214.214,0,0,1-.214-.209v-.83a.209.209,0,0,0-.209-.214h-7.5a.214.214,0,0,0-.2.2Z" transform="translate(-223.729 -218.254)" fill="#fafafa"/>
      <path id="Path_610" data-name="Path 610" d="M315.09,415.57v1.761a.123.123,0,0,0,.123.123l2.532-.043a.123.123,0,0,0,.1-.193l-1.194-1.756a.112.112,0,0,0-.1-.054l-1.349.038a.118.118,0,0,0-.107.123Z" transform="translate(-231.051 -219.606)" fill="#0d7684"/>
      <rect id="Rectangle_201" data-name="Rectangle 201" width="12.351" height="0.38" transform="translate(75.371 200.296)" fill="#fafafa"/>
      <path id="Path_611" data-name="Path 611" d="M304.4,423.011a1.226,1.226,0,1,1-1.221-1.221,1.226,1.226,0,0,1,1.221,1.221Z" transform="translate(-224.946 -222.57)" fill="#0d7684"/>
      <path id="Path_612" data-name="Path 612" d="M304.336,423.447a.723.723,0,1,1-.717-.717A.723.723,0,0,1,304.336,423.447Z" transform="translate(-225.383 -223.007)" fill="#fafafa"/>
      <path id="Path_613" data-name="Path 613" d="M314.029,418.37c-.032,0-.059-1.322-.059-2.95a26.356,26.356,0,0,1,.059-2.95,27.247,27.247,0,0,1,.054,2.95C314.082,417.047,314.056,418.37,314.029,418.37Z" transform="translate(-230.531 -218.24)" fill="#0d7684"/>
      <path id="Path_614" data-name="Path 614" d="M316.881,423.011a1.221,1.221,0,1,1-1.221-1.221A1.221,1.221,0,0,1,316.881,423.011Z" transform="translate(-230.749 -222.57)" fill="#0d7684"/>
      <path id="Path_615" data-name="Path 615" d="M316.746,423.447a.723.723,0,1,1-.723-.717A.723.723,0,0,1,316.746,423.447Z" transform="translate(-231.149 -223.007)" fill="#fafafa"/>
      <path id="Path_616" data-name="Path 616" d="M316.012,419.809c0,.032-.177.054-.391.054s-.391,0-.391-.054.177-.059.391-.059S316.012,419.777,316.012,419.809Z" transform="translate(-231.116 -221.623)" fill="#0d7684"/>
    </g>
    <g id="freepik--Character--inject-3" transform="translate(190.28 105.044)">
      <path id="Path_617" data-name="Path 617" d="M554.755,252.13s8.636,1.456,9.332,1.644,3.432,1.483,3.571,2.318a25.051,25.051,0,0,1,0,3.293s-.5.4-.8-.4a8.2,8.2,0,0,1-.262-2.393L565.061,256l.835,1.483.139,3.475s-1.071-.1-1.28-.926a8.2,8.2,0,0,1-.2-1.761l-1.114-.942.835,1.13.279,2.5s-.814.268-1.071-.289a8.623,8.623,0,0,1-.278-2.211l-3.148-1.1-2.083,1.162-3.892-2.174Z" transform="translate(-435.398 -198.667)" fill="#ffbe9d"/>
      <path id="Path_618" data-name="Path 618" d="M495.134,212.26c.043.171,10.408,14.455,10.408,14.455l20.826,6.478-.948,7.822-25.522-5.14-9.059-10.4Z" transform="translate(-406.015 -180.143)" fill="#0d7684"/>
      <g id="Group_289" data-name="Group 289" transform="translate(84.825 32.117)" opacity="0.2">
        <path id="Path_619" data-name="Path 619" d="M495.134,212.26c.043.171,10.408,14.455,10.408,14.455l20.826,6.478-.948,7.822-25.522-5.14-9.059-10.4Z" transform="translate(-490.84 -212.26)"/>
      </g>
      <rect id="Rectangle_202" data-name="Rectangle 202" width="45.818" height="8.293" rx="3.05" transform="translate(8.656 51.76)" fill="#f5f5f5"/>
      <path id="Path_620" data-name="Path 620" d="M392.64,257.08a1.451,1.451,0,0,0,.268-.038,1.606,1.606,0,0,0,1.306-1.408v-5.252a1.606,1.606,0,0,0-.535-1.146,1.558,1.558,0,0,0-.605-.316,2.458,2.458,0,0,0-.723-.048h-4.963l-37.268.043a1.5,1.5,0,0,0-1.108.487,1.537,1.537,0,0,0-.385,1.151v4.685a2.239,2.239,0,0,0,.054.61,1.51,1.51,0,0,0,1.28,1.1h10.526l16.752.032,11.3.043,3.073.027h0l-3.073.027-11.3.043-16.752.032h-10.6a1.826,1.826,0,0,1-.664-.214,1.772,1.772,0,0,1-.846-1.071,2.173,2.173,0,0,1-.064-.685v-4.663a1.847,1.847,0,0,1,.466-1.338,1.756,1.756,0,0,1,1.312-.578l37.268.043h4.963a3.086,3.086,0,0,1,.766.064,1.692,1.692,0,0,1,.664.353,1.724,1.724,0,0,1,.594,1.258v3.491c0,.669,0,1.253-.027,1.777a1.692,1.692,0,0,1-.648,1.119,1.606,1.606,0,0,1-.739.305.952.952,0,0,1-.295.07Z" transform="translate(-339.794 -197.027)" fill="#263238"/>
      <circle id="Ellipse_45" data-name="Ellipse 45" cx="21.892" cy="21.892" r="21.892" transform="translate(144.417 123.34) rotate(-2.75)" fill="#0e1d3b"/>
      <path id="Path_621" data-name="Path 621" d="M604.078,420.84v.059a21.892,21.892,0,1,0,43.779.632s0-.038,0-.059Z" transform="translate(-458.627 -277.053)" fill="#0e1d3b"/>
      <path id="Path_622" data-name="Path 622" d="M616.249,407.974a15.371,15.371,0,1,0,15.59-15.146,15.371,15.371,0,0,0-15.59,15.146Z" transform="translate(-464.282 -264.038)" fill="#fafafa"/>
      <path id="Path_623" data-name="Path 623" d="M631.84,392.829a15.371,15.371,0,0,0-15.59,15.146l30.736.444A15.371,15.371,0,0,0,631.84,392.829Z" transform="translate(-464.283 -264.038)" fill="#e0e0e0"/>
      <path id="Path_624" data-name="Path 624" d="M627.469,413.274a9.364,9.364,0,1,0,9.5-9.225,9.364,9.364,0,0,0-9.5,9.225Z" transform="translate(-469.495 -269.251)" fill="#0e1d3b"/>
      <path id="Path_625" data-name="Path 625" d="M612.341,360.828s22.411-6.778,31.679,17.571l-46.9,14.53Z" transform="translate(-455.395 -248.767)" fill="#0d7684"/>
      <circle id="Ellipse_46" data-name="Ellipse 46" cx="21.892" cy="21.892" r="21.892" transform="translate(9.351 123.343) rotate(-2.75)" fill="#0e1d3b"/>
      <path id="Path_626" data-name="Path 626" d="M351.788,420.84v.059a21.892,21.892,0,1,0,43.779.632v-.07Z" transform="translate(-341.408 -277.053)" fill="#0e1d3b"/>
      <path id="Path_627" data-name="Path 627" d="M364,407.974a15.371,15.371,0,1,0,15.59-15.146A15.371,15.371,0,0,0,364,407.974Z" transform="translate(-347.082 -264.038)" fill="#fafafa"/>
      <path id="Path_628" data-name="Path 628" d="M379.569,392.829A15.371,15.371,0,0,0,364,407.975l30.736.444a15.371,15.371,0,0,0-15.167-15.59Z" transform="translate(-347.083 -264.038)" fill="#e0e0e0"/>
      <path id="Path_629" data-name="Path 629" d="M375.179,413.274a9.364,9.364,0,1,0,9.5-9.225,9.364,9.364,0,0,0-9.5,9.225Z" transform="translate(-352.277 -269.251)" fill="#0e1d3b"/>
      <path id="Path_630" data-name="Path 630" d="M418.38,403.591c-.123.064-11.521-1.761-11.521-1.761h0a6.96,6.96,0,0,1-5.2,2.72c-4.926.236-9.739.455-13.92.642a7.067,7.067,0,0,0-6.746,7.351h0a7.072,7.072,0,0,0,6.783,6.767l24.269.958a16.193,16.193,0,0,0,11.778-5.386h0Z" transform="translate(-354.976 -268.221)" fill="#455a64"/>
      <path id="Path_631" data-name="Path 631" d="M339.572,336.705s-1.039-21.335,19.011-25.779v-2.736h70.231v6.564s-10.306,12.415-6.96,22.722,4.417,11.361,4.417,11.361h39.972a27.3,27.3,0,0,0,5.049-15.146c.214-9.048-3.544-24.515-6.355-34.4-2.538-9.021-4.144-16.538-4.144-16.538l11.993-4s22.192,29.044,23.1,30.651,3.989,5.44,3.266,13.781-20.687,34.072-25.923,36.973-9.969,3.084-14.686,3.807c-4.09.632-34.35.214-42.268.091a15.526,15.526,0,0,1-7.817-2.168c-2.366-1.435-4.144-3.812-6.109-7.71l-4.192-8.159Z" transform="translate(-335.729 -211.035)" fill="#0d7684"/>
      <path id="Path_632" data-name="Path 632" d="M341.62,384.26l-8.844,13.856a2.142,2.142,0,0,0,2.629,3.169,10.3,10.3,0,0,0,2.971-2.013c4.042-3.849,11.243-13.99,11.243-13.99Z" transform="translate(-332.402 -260.057)" fill="#455a64"/>
      <path id="Path_633" data-name="Path 633" d="M415.543,367.956a.622.622,0,0,1,.054-.2l.177-.584a15.4,15.4,0,0,0,.466-2.286,16.136,16.136,0,0,0-1.371-8.363,17.518,17.518,0,0,0-3.26-4.9,21.382,21.382,0,0,0-5.354-4.1,27.1,27.1,0,0,0-7.014-2.613,36.941,36.941,0,0,0-8.031-.83,60.511,60.511,0,0,0-8.031.594c-2.591.348-5.075.776-7.42,1.312a43.944,43.944,0,0,0-11.912,4.406,29.478,29.478,0,0,0-6.8,5.2c-.707.728-1.215,1.333-1.553,1.745l-.38.477a.96.96,0,0,1-.139.155,18,18,0,0,1,1.992-2.452,28.912,28.912,0,0,1,6.789-5.295,43.559,43.559,0,0,1,11.955-4.486c2.345-.535,4.818-.98,7.436-1.333a60.911,60.911,0,0,1,8.095-.6,36.841,36.841,0,0,1,8.074.841,27.429,27.429,0,0,1,7.078,2.677,21.529,21.529,0,0,1,5.423,4.165,17.625,17.625,0,0,1,3.271,4.979,16.061,16.061,0,0,1,1.3,8.459,13.658,13.658,0,0,1-.535,2.286c-.086.246-.15.434-.2.578A1.13,1.13,0,0,1,415.543,367.956Z" transform="translate(-342.888 -241.258)" fill="#263238"/>
      <path id="Path_634" data-name="Path 634" d="M446.961,366.987c-.032,0,.112-.337.262-.948a6.929,6.929,0,0,0,.08-2.677A11,11,0,0,0,446,359.647a12.688,12.688,0,0,0-1.3-1.949,11.746,11.746,0,0,0-1.74-1.8,15.2,15.2,0,0,0-4.176-2.441,19.65,19.65,0,0,0-3.833-1.071,25.1,25.1,0,0,0-2.677-.305,7.854,7.854,0,0,1-.985-.075.864.864,0,0,1,.257,0h.733a20.02,20.02,0,0,1,2.677.22,18.512,18.512,0,0,1,3.9,1,15.264,15.264,0,0,1,4.283,2.468,12.267,12.267,0,0,1,1.777,1.847,13.384,13.384,0,0,1,1.3,2,10.654,10.654,0,0,1,1.274,3.812,6.6,6.6,0,0,1-.166,2.709,3.845,3.845,0,0,1-.257.691A.94.94,0,0,1,446.961,366.987Z" transform="translate(-378.347 -245.065)" fill="#f5f5f5"/>
      <g id="Group_290" data-name="Group 290" transform="translate(54.859 103.194)" opacity="0.4">
        <path id="Path_635" data-name="Path 635" d="M434.87,345.041a28.128,28.128,0,0,1,10.574,4.283,18.69,18.69,0,0,1,7.083,8.8,15.437,15.437,0,0,1-.284,11.377l4.963.412c1.67-5.573-.145-12.41-4.16-16.774a24.627,24.627,0,0,0-18.176-8.122" transform="translate(-434.87 -345.02)"/>
      </g>
      <rect id="Rectangle_203" data-name="Rectangle 203" width="52.601" height="37.536" rx="8.58" transform="translate(5.267 59.636)" fill="#455a64"/>
      <path id="Path_636" data-name="Path 636" d="M394.646,279.179c0,.08-11.827.139-26.41.139s-26.416-.059-26.416-.139,11.821-.139,26.416-.139S394.646,279.1,394.646,279.179Z" transform="translate(-336.778 -211.17)" fill="#263238"/>
      <path id="Path_637" data-name="Path 637" d="M445.02,338.289c0,.075-15.788.139-35.255.139s-35.255-.064-35.255-.139,15.783-.139,35.255-.139S445.02,338.214,445.02,338.289Z" transform="translate(-351.966 -238.634)" fill="#263238"/>
      <path id="Path_638" data-name="Path 638" d="M477.9,327.6a6.071,6.071,0,0,0,1.274-3.148c.107-1.761-.7-3.967-2.6-3.967H452.325a7.115,7.115,0,0,0-7.115,7.115Z" transform="translate(-384.815 -230.424)" fill="#455a64"/>
      <path id="Path_639" data-name="Path 639" d="M561.9,265.563l-4.219-8.8a5.354,5.354,0,0,1,2.142-6.88l12.614-7.522a4.229,4.229,0,0,1,2.179-.6h2.725l1.071,17.78-4.2,1.622,2.677,4.326Z" transform="translate(-436.839 -193.849)" fill="#0d7684"/>
      <path id="Path_640" data-name="Path 640" d="M594.91,243s4.315.99,4.856,7.64-3.807,8.727-3.807,8.727Z" transform="translate(-454.368 -194.425)" fill="#ebebeb"/>
      <path id="Path_641" data-name="Path 641" d="M559.373,262.759s-8.721,4.133-9.787,4.818a2.031,2.031,0,0,0-.792,2.746c.985,2.468,5.065.145,5.065.145l8.122-4.058s3.121-1.472,1.965-3.319C562.655,261.024,559.373,262.759,559.373,262.759Z" transform="translate(-432.837 -203.289)" fill="#0e1d3b"/>
      <path id="Path_642" data-name="Path 642" d="M545.258,260.54s8.2,1.4,8.893,1.606,3.426,1.483,3.566,2.318a25.051,25.051,0,0,1,0,3.293s-.493.4-.8-.4a8.44,8.44,0,0,1-.262-2.4l-1.531-.589.835,1.483.139,3.48s-1.071-.1-1.274-.932a8.124,8.124,0,0,1-.2-1.756L553.5,265.7l.835,1.13.284,2.506s-.814.262-1.071-.294a8.6,8.6,0,0,1-.278-2.211l-3.148-1.1-2.083,1.162-3.276-1.82Z" transform="translate(-431.068 -202.575)" fill="#ffbe9d"/>
      <path id="Path_643" data-name="Path 643" d="M563.62,234.007c0,3.319-1.526,6.007-3.4,6.007s-3.405-2.677-3.405-6.007S558.331,228,560.215,228,563.62,230.677,563.62,234.007Z" transform="translate(-436.666 -187.456)" fill="#0e1d3b"/>
      <path id="Path_644" data-name="Path 644" d="M564.21,245.892l1.874,6.489a1.681,1.681,0,0,0,.873-1.917c-.471-2.222-.739-3.8-1.253-5.75-.064-.193-1.494,1.178-1.494,1.178" transform="translate(-440.104 -195.213)" fill="#0e1d3b"/>
      <g id="Group_291" data-name="Group 291" transform="translate(84.566 68.759)" opacity="0.4">
        <path id="Path_645" data-name="Path 645" d="M492.843,341.128c-.182-.535-.375-1.071-.535-1.644s-.364-1.071-.5-1.606a17.248,17.248,0,0,1-.471-2.447c-3.159,12.849,1.665,21.913,9.942,22.55,12.1.932,26.849,1.606,32.814.043,10.874-2.854,14.862-11.923,15.815-13.417s9.6-17.3,4.283-32.524S539.651,280.7,539.651,280.7l-8.8,2.955s1.606,7.5,4.16,16.511c2.811,9.889,6.569,25.356,6.355,34.4a27.3,27.3,0,0,1-5.049,15.146H496.355s-.857-.857-3.5-8.566" transform="translate(-490.357 -280.7)"/>
      </g>
      <path id="Path_646" data-name="Path 646" d="M336.583,378.132l.284-3.052,72.962,8.406a7.206,7.206,0,0,1,6.253,8.416l-.327,1.847-75.489-10.97A4.283,4.283,0,0,1,336.583,378.132Z" transform="translate(-334.336 -255.792)" fill="#0d7684"/>
      <g id="Group_292" data-name="Group 292" transform="translate(2.228 119.288)" opacity="0.6">
        <path id="Path_647" data-name="Path 647" d="M336.583,378.132l.284-3.052,72.962,8.406a7.206,7.206,0,0,1,6.253,8.416l-.327,1.847-75.489-10.97A4.283,4.283,0,0,1,336.583,378.132Z" transform="translate(-336.564 -375.08)"/>
      </g>
      <g id="Group_293" data-name="Group 293" transform="translate(144.113 111.192)" opacity="0.3">
        <path id="Path_648" data-name="Path 648" d="M601.58,391.515s16.061-17.668,19.375-31.555a31.231,31.231,0,0,1,4.974.369S616.431,386.15,601.58,391.515Z" transform="translate(-601.58 -359.959)"/>
      </g>
      <path id="Path_649" data-name="Path 649" d="M620,348.34a2.571,2.571,0,0,1,.086.444c.043.294.128.728.182,1.29a19.666,19.666,0,0,1-.123,4.818A24.344,24.344,0,0,1,618,361.682a76.938,76.938,0,0,1-4.251,7.6,101.517,101.517,0,0,1-9.4,12.71c-1.306,1.547-2.388,2.779-3.137,3.624l-.867.969a3.737,3.737,0,0,1-.316.327,2.39,2.39,0,0,1,.273-.359l.83-1.007,3.068-3.678a110.394,110.394,0,0,0,9.316-12.731,81.615,81.615,0,0,0,4.283-7.565,24.85,24.85,0,0,0,2.141-6.714,21.417,21.417,0,0,0,.209-4.754c-.037-.562-.107-1-.129-1.3a2.371,2.371,0,0,1-.021-.471Z" transform="translate(-456.747 -243.368)" fill="#263238"/>
      <path id="Path_650" data-name="Path 650" d="M581.172,414.455a21.463,21.463,0,0,1-2.575-2.324,22.033,22.033,0,0,1-2.377-2.522A42.912,42.912,0,0,1,581.172,414.455Z" transform="translate(-445.684 -271.835)" fill="#263238"/>
      <path id="Path_651" data-name="Path 651" d="M496.43,413.979a7.435,7.435,0,0,1,1.183-2.286,7.533,7.533,0,0,1,1.686-1.943c.059.059-.675.937-1.456,2.1S496.5,414.012,496.43,413.979Z" transform="translate(-408.613 -271.9)" fill="#263238"/>
      <path id="Path_652" data-name="Path 652" d="M432.155,422.567a10.782,10.782,0,0,0,2.19-2.784,9.582,9.582,0,0,0,1.071-3.667,8.518,8.518,0,0,0-3.844-8.031,9.567,9.567,0,0,0-3.523-1.472,10.765,10.765,0,0,0-3.539-.048,1.028,1.028,0,0,1,.236-.07,5.846,5.846,0,0,1,.707-.139,8.4,8.4,0,0,1,2.634.064,9.58,9.58,0,0,1,3.63,1.451,8.652,8.652,0,0,1,3.956,8.293,9.578,9.578,0,0,1-1.156,3.748A8.3,8.3,0,0,1,432.91,422a5.5,5.5,0,0,1-.535.466,1,1,0,0,1-.22.1Z" transform="translate(-375.197 -270.289)" fill="#0e1d3b"/>
      <path id="Path_653" data-name="Path 653" d="M388.712,421.771a11.5,11.5,0,0,1-.262-2.57,12.16,12.16,0,0,1,0-2.591,24.025,24.025,0,0,1,.246,5.161Z" transform="translate(-358.411 -275.088)" fill="#263238"/>
      <path id="Path_654" data-name="Path 654" d="M392.069,421.772a24.789,24.789,0,0,1-.659-5.172,12.592,12.592,0,0,1,.466,2.57,12.466,12.466,0,0,1,.193,2.6Z" transform="translate(-359.818 -275.083)" fill="#263238"/>
      <path id="Path_655" data-name="Path 655" d="M414.468,333.649c0,.075-8.871.139-19.809.139s-19.809-.064-19.809-.139,8.871-.139,19.809-.139S414.468,333.569,414.468,333.649Z" transform="translate(-352.124 -236.478)" fill="#263238"/>
      <path id="Path_656" data-name="Path 656" d="M395.069,294.357c-.08,0-.139-10.172-.139-22.689s.037-22.668.139-22.668.139,10.172.139,22.695S395.144,294.357,395.069,294.357Z" transform="translate(-361.454 -197.213)" fill="#263238"/>
      <path id="Path_657" data-name="Path 657" d="M384.992,294.3c-.075,0,.305-10.172.851-22.679s1.071-22.673,1.124-22.668-.3,10.172-.846,22.679S385.094,294.3,384.992,294.3Z" transform="translate(-356.832 -197.19)" fill="#263238"/>
      <path id="Path_658" data-name="Path 658" d="M357.086,423.35a1.734,1.734,0,0,1-.236-.241c-.139-.161-.369-.391-.621-.717a20.55,20.55,0,0,1-1.976-2.9,22.181,22.181,0,0,1,.091-22.208,20.158,20.158,0,0,1,2-2.886c.257-.327.487-.535.632-.717s.23-.241.236-.23a1.345,1.345,0,0,1-.193.268c-.128.177-.348.412-.589.75a22.917,22.917,0,0,0-.112,27.856c.236.337.45.578.578.755A1.592,1.592,0,0,1,357.086,423.35Z" transform="translate(-341.192 -264.326)" fill="#455a64"/>
      <path id="Path_659" data-name="Path 659" d="M498.478,373.11l-.166.311-3.234,6.055-4.519,4.347,9.032,12.025,7.522-1.247s-.841-1.719-4.62-2.051l-1.43-7.185,5.306-8.223" transform="translate(-405.885 -254.877)" fill="#455a64"/>
      <path id="Path_660" data-name="Path 660" d="M490.58,392.346l9.032,12.025,7.522-1.247-1.033-.99-6.173.675-8.384-11.388Z" transform="translate(-405.895 -263.384)" fill="#e0e0e0"/>
      <path id="Path_661" data-name="Path 661" d="M509.912,402.993c-.043.086-.535-.091-1.071.027s-.969.423-1.039.359.268-.567.974-.691S509.971,402.923,509.912,402.993Z" transform="translate(-413.892 -268.607)" fill="#263238"/>
      <path id="Path_662" data-name="Path 662" d="M509.088,399.414c-.064.064-.477-.321-1.071-.343s-1.071.337-1.119.268.037-.166.23-.321a1.451,1.451,0,0,1,.9-.278,1.408,1.408,0,0,1,.878.337A.594.594,0,0,1,509.088,399.414Z" transform="translate(-413.47 -266.784)" fill="#263238"/>
      <path id="Path_663" data-name="Path 663" d="M508.57,394.978c-.075.059-.407-.332-.958-.428s-1,.155-1.071.075.048-.155.246-.268a1.322,1.322,0,0,1,1.606.289C508.575,394.817,508.607,394.956,508.57,394.978Z" transform="translate(-413.3 -264.677)" fill="#263238"/>
      <path id="Path_664" data-name="Path 664" d="M511.9,390.817c-.08.043-.364-.348-.883-.573s-.991-.193-1.012-.284.535-.311,1.151,0S512,390.79,511.9,390.817Z" transform="translate(-414.922 -262.631)" fill="#263238"/>
      <path id="Path_665" data-name="Path 665" d="M513.112,386.089c-.038.027-.332-.23-.787-.68l-.771-.8a2.461,2.461,0,0,1-.45-.535.6.6,0,0,1-.032-.466.466.466,0,0,1,.412-.311,1.37,1.37,0,0,1,.766.246,2.821,2.821,0,0,1,.535.444,2.608,2.608,0,0,1,.573,1.023,1.408,1.408,0,0,1,0,1.071,8.025,8.025,0,0,0-.225-.98,2.677,2.677,0,0,0-.573-.883,2.452,2.452,0,0,0-.487-.375,1.247,1.247,0,0,0-.568-.2.139.139,0,0,0-.128.091.289.289,0,0,0,0,.219,2.365,2.365,0,0,0,.375.471l.733.851A3.213,3.213,0,0,1,513.112,386.089Z" transform="translate(-415.401 -259.611)" fill="#263238"/>
      <path id="Path_666" data-name="Path 666" d="M515.4,387.3c-.037,0-.075-.4.257-.915a1.906,1.906,0,0,1,2.141-.776.364.364,0,0,1,.161.252.451.451,0,0,1-.054.252,1.071,1.071,0,0,1-.23.284,3.583,3.583,0,0,1-.482.391,3.337,3.337,0,0,1-.942.439,1.542,1.542,0,0,1-.942.07c0-.054.348-.086.867-.294a3.747,3.747,0,0,0,.841-.466,3.412,3.412,0,0,0,.428-.375.856.856,0,0,0,.166-.2c.027-.075,0-.054,0-.07a.6.6,0,0,0-.23-.048,1.662,1.662,0,0,0-.284,0,1.874,1.874,0,0,0-.535.128,1.837,1.837,0,0,0-.744.535,6.651,6.651,0,0,0-.417.792Z" transform="translate(-417.385 -260.647)" fill="#263238"/>
      <path id="Path_667" data-name="Path 667" d="M500.16,390.2a.9.9,0,1,1-1.039-.744.9.9,0,0,1,1.039.744Z" transform="translate(-409.511 -262.468)" fill="#e0e0e0"/>
      <path id="Path_668" data-name="Path 668" d="M556.55,382.674l2.415,15.676,19.525-2.9c-.4-1.847-11.05-4.09-11.05-4.09L566.3,381.25Z" transform="translate(-436.545 -258.659)" fill="#455a64"/>
      <path id="Path_669" data-name="Path 669" d="M564.979,400.167a.8.8,0,0,0-.418.99.782.782,0,0,0,.98.423.851.851,0,0,0,.434-1.071.8.8,0,0,0-1.071-.327" transform="translate(-440.247 -267.414)" fill="#e0e0e0"/>
      <path id="Path_670" data-name="Path 670" d="M560.9,409.9l-.182-1.606,18.787-2.19s.926.252.921.878Z" transform="translate(-438.483 -270.205)" fill="#e0e0e0"/>
      <path id="Path_671" data-name="Path 671" d="M576.037,399.814c0,.1-.455.209-.883.584s-.61.814-.707.792-.032-.6.487-1.044S576.048,399.723,576.037,399.814Z" transform="translate(-444.843 -267.259)" fill="#263238"/>
      <path id="Path_672" data-name="Path 672" d="M580.539,400.848c.037.091-.353.311-.616.766s-.294.889-.391.9-.236-.535.1-1.071S580.523,400.757,580.539,400.848Z" transform="translate(-447.172 -267.753)" fill="#263238"/>
      <path id="Path_673" data-name="Path 673" d="M584.208,403.6c-.086.037-.289-.423-.123-.98s.584-.835.637-.76-.182.4-.316.857S584.3,403.578,584.208,403.6Z" transform="translate(-449.309 -268.229)" fill="#263238"/>
      <path id="Path_674" data-name="Path 674" d="M574.741,395.414c0,.091-.482.027-1.017.139s-.926.353-.99.278.294-.476.921-.6S574.779,395.329,574.741,395.414Z" transform="translate(-444.061 -265.135)" fill="#263238"/>
      <path id="Path_675" data-name="Path 675" d="M572.256,390.366a1.857,1.857,0,0,1-.98.139,4.482,4.482,0,0,1-1.071-.161,4.582,4.582,0,0,1-.626-.2,1.071,1.071,0,0,1-.327-.187.407.407,0,0,1-.118-.5.535.535,0,0,1,.385-.284,1.216,1.216,0,0,1,.369,0,3.034,3.034,0,0,1,.642.118,3.55,3.55,0,0,1,.99.455c.535.353.723.685.691.712s-.305-.23-.814-.509a3.813,3.813,0,0,0-.948-.359,2.891,2.891,0,0,0-.589-.091c-.214,0-.391,0-.428.1s0,.048.037.107a.99.99,0,0,0,.241.134,5.779,5.779,0,0,0,.562.22,5.507,5.507,0,0,0,1,.22A6.892,6.892,0,0,1,572.256,390.366Z" transform="translate(-442.374 -262.336)" fill="#263238"/>
      <path id="Path_676" data-name="Path 676" d="M574.4,388.928a1.674,1.674,0,0,1-.4-.9,3.3,3.3,0,0,1,0-1.071,3.658,3.658,0,0,1,.161-.632.814.814,0,0,1,.535-.584.466.466,0,0,1,.45.209,1.4,1.4,0,0,1,.155.348,2.179,2.179,0,0,1,.1.659,2.275,2.275,0,0,1-.268,1.071c-.305.535-.685.733-.7.7a4.046,4.046,0,0,0,.482-.8,2.231,2.231,0,0,0,.171-.964,1.889,1.889,0,0,0-.1-.562c-.059-.2-.161-.359-.236-.327a.7.7,0,0,0-.294.369,3.229,3.229,0,0,0-.166.568,3.612,3.612,0,0,0-.043,1C574.3,388.553,574.452,388.906,574.4,388.928Z" transform="translate(-444.634 -260.742)" fill="#263238"/>
      <path id="Path_677" data-name="Path 677" d="M513.331,314.456,496.59,350.937l11.056,6.639,23.15-43.9" transform="translate(-408.687 -227.265)" fill="#0e1d3b"/>
      <path id="Path_678" data-name="Path 678" d="M522.295,347.256l-12.009,1.927-7.19-42.905-35.523,2.575a8.653,8.653,0,0,1-2.795-.262c-9.974-2.736-8.625-15.456-7.661-17.5l49.153-1.408a10.461,10.461,0,0,1,10.665,9.01Z" transform="translate(-390.041 -216.114)" fill="#0e1d3b"/>
      <path id="Path_679" data-name="Path 679" d="M453.666,251.565l.177-18.139S451.5,221.648,450.807,217c-1.071-7.2-2.548-10.617,9.241-15.73l2.581-1,3.989.054c4.754.359,9.765,4.658,9.883,7.5l4.6,40.887Z" transform="translate(-387.088 -174.572)" fill="#0d7684"/>
      <path id="Path_680" data-name="Path 680" d="M455.743,210s-3.33,7.163-2.677,13.69l12.4,11.907c2.779,3.095,6.259,4.412,10.708,4.679l25.666,2.805.712-6.714-24.4-6.917c-.974-.182-1.462-1.194-2.206-1.847L455.743,210" transform="translate(-388.426 -179.093)" fill="#0d7684"/>
      <path id="Path_681" data-name="Path 681" d="M454.39,213.07a1.756,1.756,0,0,1,.493-.332,6.119,6.119,0,0,1,1.66-.466,8.566,8.566,0,0,1,2.773,0,2.874,2.874,0,0,1,.814.278,8.188,8.188,0,0,1,.755.535c.493.385.99.83,1.5,1.312,1.028.958,2,2.174,3.143,3.405s2.388,2.554,3.748,3.94,2.821,2.838,4.385,4.337c.787.75,1.606,1.51,2.457,2.254.434.353.862.771,1.274,1.162a3.084,3.084,0,0,0,1.419.835h0l24.451,6.906.112.032v.118c-.048.477-.107.985-.161,1.5-.187,1.783-.375,3.55-.535,5.209v.139h-.139l-10.879-1.21-5.14-.562-4.92-.5c-1.606-.177-3.153-.359-4.658-.578a20.971,20.971,0,0,1-4.315-1,15.89,15.89,0,0,1-3.63-1.954c-1.071-.755-2.077-1.542-3-2.318-3.667-3.127-6.36-5.927-8.229-7.833-.926-.958-1.638-1.713-2.115-2.227l-.535-.589-.177-.209s.07.059.2.187.316.327.535.573l2.142,2.2c1.89,1.879,4.6,4.658,8.277,7.758.926.766,1.917,1.547,2.993,2.291a16.009,16.009,0,0,0,3.6,1.917,20.951,20.951,0,0,0,4.283.974c1.5.214,3.057.4,4.652.568l4.92.482,5.14.562,10.868,1.183-.155.123c.177-1.66.364-3.426.535-5.215.059-.535.112-1.028.161-1.5l.1.15-24.413-6.933h0a3.255,3.255,0,0,1-1.563-.9c-.434-.412-.824-.8-1.269-1.167-.862-.75-1.67-1.515-2.457-2.265-1.563-1.5-3.02-2.966-4.374-4.358s-2.6-2.72-3.748-3.967-2.093-2.457-3.111-3.416a17.835,17.835,0,0,0-1.478-1.312,6.338,6.338,0,0,0-.739-.535,2.585,2.585,0,0,0-.776-.273,8.3,8.3,0,0,0-2.736-.043,6.184,6.184,0,0,0-1.654.423,3.745,3.745,0,0,0-.476.316Z" transform="translate(-389.08 -180.096)" fill="#0e1d3b"/>
      <path id="Path_682" data-name="Path 682" d="M466.334,163.441l1.242,17.668a5.5,5.5,0,0,0,5.493,5.113h0a5.5,5.5,0,0,0,5.493-5.862c-.112-1.681-.209-3.057-.209-3.057s4.283-.664,4.326-4.942c.032-2.468-.4-8.068-.76-12.362a5.606,5.606,0,0,0-5.605-5.129h-2.586a7.9,7.9,0,0,0-7.394,8.571Z" transform="translate(-394.616 -153.478)" fill="#ffbe9d"/>
      <path id="Path_683" data-name="Path 683" d="M483.983,195.269a9.963,9.963,0,0,1-5.573-1.579s1.317,3.073,5.584,2.677Z" transform="translate(-400.24 -171.515)" fill="#eb996e"/>
      <path id="Path_689" data-name="Path 689" d="M482.8,182.63c.107,0,.107.707.717,1.21s1.371.428,1.376.535-.171.134-.493.145a1.777,1.777,0,0,1-1.146-.4,1.542,1.542,0,0,1-.535-1.017C482.669,182.828,482.749,182.625,482.8,182.63Z" transform="translate(-402.234 -166.376)" fill="#0e1d3b"/>
      <path id="Path_692" data-name="Path 692" d="M466.581,176.762c-.075-.032-2.939-.873-2.843,2.051a2.2,2.2,0,0,0,3.009,2.142C466.752,180.868,466.581,176.762,466.581,176.762Z" transform="translate(-393.422 -163.587)" fill="#ffbe9d"/>
      <path id="Path_693" data-name="Path 693" d="M466.441,180.693a.874.874,0,0,1-.134.08.536.536,0,0,1-.38,0,1.258,1.258,0,0,1-.616-1.108,1.693,1.693,0,0,1,.118-.733.594.594,0,0,1,.369-.407.262.262,0,0,1,.305.134c.043.08.027.139.043.145s.059-.054.032-.171a.316.316,0,0,0-.123-.182.38.38,0,0,0-.284-.064.707.707,0,0,0-.535.471,1.7,1.7,0,0,0-.15.819,1.312,1.312,0,0,0,.782,1.237.535.535,0,0,0,.46-.091C466.441,180.762,466.452,180.7,466.441,180.693Z" transform="translate(-394.048 -164.401)" fill="#eb996e"/>
      <path id="Path_694" data-name="Path 694" d="M465.538,166.036a1.542,1.542,0,0,1,1.408.723c.187.418.23.889.418,1.306a1.071,1.071,0,0,0,1.071.691.9.9,0,0,0,.61-.669,2.425,2.425,0,0,0,0-.942c-.171-1.365-.455-2.714-.509-4.09a6.96,6.96,0,0,1,.862-3.973,3.823,3.823,0,0,1,3.416-1.922c.91.075,1.74.535,2.645.675a3.576,3.576,0,0,0,2.966-.99,5.951,5.951,0,0,1,.535-.4,1.654,1.654,0,0,0-.305-.9c-1.794-1.66-5.017-2.142-7.383-1.526a8.529,8.529,0,0,0-5.595,4.481c-1.017,2.216-.717,5.295-.155,7.538" transform="translate(-394.013 -152.962)" fill="#0e1d3b"/>
      <path id="Path_695" data-name="Path 695" d="M480.99,158.127s-11.211-3.608-16.061,6.093a18.084,18.084,0,0,1-.728-3.748,8.342,8.342,0,0,1,5.846-7.672C470.046,152.822,478.072,149.759,480.99,158.127Z" transform="translate(-393.638 -152.271)" fill="#0d7684"/>
      <path id="Path_696" data-name="Path 696" d="M477.356,161.928a2.441,2.441,0,0,0,3.887.353,1.435,1.435,0,0,0,2.714-.139,3.325,3.325,0,0,0,1.071.8,1.114,1.114,0,0,0,1.247-.262,1.071,1.071,0,0,0-.08-1.285,2.613,2.613,0,0,0-1.135-.766,8.218,8.218,0,0,0-4.23-.642A5.713,5.713,0,0,0,477.12,162" transform="translate(-399.641 -155.831)" fill="#0e1d3b"/>
      <g id="Group_294" data-name="Group 294" transform="translate(70.562 0.002)" opacity="0.4">
        <path id="Path_697" data-name="Path 697" d="M480.99,158.129a5.209,5.209,0,0,0-3.566-1.606,14.083,14.083,0,0,0-12.5,7.709,18.084,18.084,0,0,1-.728-3.748,8.342,8.342,0,0,1,5.846-7.672C470.046,152.824,478.072,149.761,480.99,158.129Z" transform="translate(-464.2 -152.275)"/>
      </g>
      <path id="Path_698" data-name="Path 698" d="M466.43,163.307a21.11,21.11,0,0,1,6.532-6.253,41.134,41.134,0,0,1,9.776-3.983,6.382,6.382,0,0,1,2.7-.284,2.436,2.436,0,0,1,2,1.638c.278,1.108-1.686,2.816-2.613,3.485a29.543,29.543,0,0,1-2.805,1.66s.027-2.056-3.26-2.479C474.295,156.518,466.43,163.307,466.43,163.307Z" transform="translate(-394.674 -152.492)" fill="#0d7684"/>
      <g id="Group_295" data-name="Group 295" transform="translate(67.81 47.247)" opacity="0.3">
        <path id="Path_699" data-name="Path 699" d="M459.06,240.52c1.156,2.789,2.324,6.232,4,8.743a15.418,15.418,0,0,0,6.7,5.889,14.461,14.461,0,0,0,11.12.2c.284-.123.841-.278.787-.584,0,0-1.151-.134-1.51-.193-7.03-1.167-7.8-2.024-11.163-4.7-2.1-1.654-6.751-6.671-9.931-9.358" transform="translate(-459.06 -240.52)"/>
      </g>
      <path id="Path_700" data-name="Path 700" d="M487.063,278.46a2.942,2.942,0,0,1-.295.653,8.168,8.168,0,0,1-1.135,1.606,12.314,12.314,0,0,1-5.434,3.314,24.914,24.914,0,0,1-6.339.948c-.819.032-1.483.037-1.938.037a4.139,4.139,0,0,1-.712-.032,3.134,3.134,0,0,1,.707-.08l1.933-.123a27.737,27.737,0,0,0,6.269-1.017,12.742,12.742,0,0,0,5.386-3.212A13.726,13.726,0,0,0,487.063,278.46Z" transform="translate(-396.895 -210.901)" fill="#263238"/>
      <path id="Path_701" data-name="Path 701" d="M532.431,364.749a.537.537,0,0,1-.043-.166,3.1,3.1,0,0,0-.1-.493c-.08-.45-.2-1.071-.343-1.9-.294-1.67-.707-4.053-1.221-6.992-1-5.921-2.382-14.075-3.908-23.08-.68-4.08-1.328-7.977-1.922-11.537l.139.112-15.371,1.108-4.412.3-1.178.07h-.305l.305-.037,1.173-.107,4.406-.375,15.36-1.226h.118v.118c.6,3.56,1.258,7.458,1.943,11.532,1.494,9.01,2.843,17.17,3.828,23.1.471,2.945.857,5.354,1.13,7l.289,1.911c.032.2.054.369.07.493A.692.692,0,0,1,532.431,364.749Z" transform="translate(-411.976 -230.401)" fill="#455a64"/>
      <path id="Path_702" data-name="Path 702" d="M546.945,313.54c.048.064-.889.867-1.949,1.949s-1.852,2.029-1.917,1.976a12.753,12.753,0,0,1,3.865-3.924Z" transform="translate(-430.287 -227.199)" fill="#455a64"/>
      <path id="Path_703" data-name="Path 703" d="M479.139,203.072a.9.9,0,0,1,.064.177,2.511,2.511,0,0,1,.1.535,4.394,4.394,0,0,1-.257,1.949,4.989,4.989,0,0,1-1.767,2.313,5.354,5.354,0,0,1-3.432.921,6.2,6.2,0,0,1-3.335-1.253,7.084,7.084,0,0,1-1.9-2.211,7.646,7.646,0,0,1-.728-1.82,5.189,5.189,0,0,1-.107-.535.525.525,0,0,1,0-.187,12.153,12.153,0,0,0,1.012,2.431,7.34,7.34,0,0,0,1.879,2.1,6.066,6.066,0,0,0,3.212,1.178,5.2,5.2,0,0,0,3.271-.851,4.937,4.937,0,0,0,1.724-2.174,4.547,4.547,0,0,0,.337-1.868C479.182,203.329,479.139,203.083,479.139,203.072Z" transform="translate(-395.3 -175.822)" fill="#0e1d3b"/>
      <path id="Path_704" data-name="Path 704" d="M501.667,234.416a2.244,2.244,0,0,1-.118-.535c-.059-.423-.129-.937-.214-1.531-.177-1.365-.407-3.121-.659-5.065s-.434-3.748-.535-5.075c-.059-.648-.1-1.178-.118-1.542a2.1,2.1,0,0,1,0-.567,2.638,2.638,0,0,1,.112.535c.059.423.129.932.209,1.531.171,1.365.391,3.121.632,5.065s.45,3.748.578,5.07c.059.653.1,1.178.128,1.547a2.432,2.432,0,0,1-.016.568Z" transform="translate(-410.273 -183.785)" fill="#0e1d3b"/>
    </g>
  </g>
</svg>
