<svg id="Group_164" data-name="Group 164" xmlns="http://www.w3.org/2000/svg" width="200" height="151" viewBox="0 0 200 151">
  <g id="Group_1" data-name="Group 1" transform="translate(0.312)">
    <path id="Path_1" data-name="Path 1" d="M80.826,214.829a67.474,67.474,0,0,0-.707-11.553c3.144.157,5.108.236,11.632.236h16.426c9.668,0,17.448,2.672,22.714,7.781,5.738,5.659,8.645,13.911,8.645,24.364,0,10.768-3.144,19.413-9.117,25.386-5.266,5.187-12.732,7.859-22.085,7.859H91.751c-6.052,0-8.252.079-11.553.235a74.994,74.994,0,0,0,.629-11.474Zm26.094,40.318c5.108,0,8.723-1.336,11.553-4.165,3.223-3.3,4.951-8.567,4.951-15.09,0-6.68-1.493-11.553-4.558-14.618-2.751-2.751-6.523-4.008-12.182-4.008h-10.3v37.881Z" transform="translate(-80.119 -202.961)" fill="#0e1d3b"/>
    <path id="Path_2" data-name="Path 2" d="M226.8,269.311a100.934,100.934,0,0,0-12.968-.551H189.078c-5.974,0-8.174.079-11.554.236a72.405,72.405,0,0,0,.629-11.474V214.609a83.284,83.284,0,0,0-.629-11.474c3.222.157,5.423.236,11.554.236h25.071a96.336,96.336,0,0,0,11.71-.551v14.7a96.641,96.641,0,0,0-11.71-.55H193.714V228.52H210.69a94.152,94.152,0,0,0,11.789-.55v14.54a97.045,97.045,0,0,0-11.789-.55H193.714v13.2h20.277a106.551,106.551,0,0,0,12.811-.55Z" transform="translate(-110.4 -202.82)" fill="#0e1d3b"/>
    <path id="Path_3" data-name="Path 3" d="M272.11,269.007c-5.423,0-8.645.079-11.632.236a70.543,70.543,0,0,0,.629-11.474v-41.5a95.2,95.2,0,0,0-.629-12.653h17.133a77.958,77.958,0,0,0-.629,12.418v38.982H296a92.548,92.548,0,0,0,13.046-.55v15.09A102.35,102.35,0,0,0,296,269.007Z" transform="translate(-136.237 -203.066)" fill="#0e1d3b"/>
    <path id="Path_4" data-name="Path 4" d="M355.83,203.617a72.76,72.76,0,0,0-.629,11.632v42.126a75.949,75.949,0,0,0,.629,11.632H338.539a75.312,75.312,0,0,0,.629-11.632V215.249a73.394,73.394,0,0,0-.629-11.632Z" transform="translate(-160.383 -203.066)" fill="#0e1d3b"/>
  </g>
  <g id="Group_2" data-name="Group 2" transform="translate(0 70.647)">
    <path id="Path_5" data-name="Path 5" d="M107.784,348.114c.559,1.86.559,1.86,1.326,4.753.837-3.031.977-3.444,1.325-4.753l10.117-33.136a37.8,37.8,0,0,0,1.605-7.44h16.4c-.977,2.067-1.6,3.651-3.349,8.4l-14.791,41.472a59.737,59.737,0,0,0-2.232,7.44H100.04a53.47,53.47,0,0,0-2.233-7.44L82.946,315.942c-1.4-4-2.093-5.718-3.279-8.4H95.993a48.34,48.34,0,0,0,1.674,7.44Z" transform="translate(-79.667 -306.297)" fill="#0d7684"/>
    <path id="Path_6" data-name="Path 6" d="M225.669,335.365c0,18.187-11.233,30.242-28.187,30.242-17.094,0-28.117-11.78-28.117-30.036,0-18.187,11.023-29.829,28.187-29.829S225.669,317.315,225.669,335.365Zm-14.512.137c0-11.16-5.163-17.911-13.605-17.911-8.512,0-13.745,6.82-13.745,17.911,0,11.229,5.233,18.187,13.745,18.187C205.994,353.689,211.157,346.8,211.157,335.5Z" transform="translate(-107.557 -305.742)" fill="#0d7684"/>
    <path id="Path_7" data-name="Path 7" d="M302.381,364.854a61.932,61.932,0,0,0-1.465-7.371l-5.3-20.254c-.7-2.687-1.256-5.856-1.954-10.4-.419,2.824-1.256,7.164-2.093,10.4L286.4,357.552a50.577,50.577,0,0,0-1.535,7.3H270.984c-.349-2-.7-3.444-1.745-7.44l-11.163-41.334c-.977-3.514-1.953-6.682-2.651-8.542h15.907a45.09,45.09,0,0,0,.977,7.578l4.465,20.942c.209,1.034.7,4.271,1.535,9.714,1.046-5.787,1.535-8.267,1.953-9.714l5.581-21.356a58.643,58.643,0,0,0,1.535-7.164H299.8a57.787,57.787,0,0,0,1.605,6.958l5.651,21.219c.558,2.2,1.046,4.478,1.953,10.058.14-1.309.14-1.309.558-4.2.209-1.516.7-4.822.977-5.925l4.395-20.529a37.441,37.441,0,0,0,1.046-7.578h15.839c-.7,1.86-1.675,5.1-2.582,8.542L318.08,357.345a59.968,59.968,0,0,0-1.745,7.509Z" transform="translate(-134.363 -306.297)" fill="#0d7684"/>
  </g>
  <g id="Group_3" data-name="Group 3" transform="translate(139.869 133.315)">
    <path id="Path_8" data-name="Path 8" d="M292.4,405.391a9.165,9.165,0,0,1-1.292,4.628,9,9,0,0,1-4.808,3.642,8.791,8.791,0,0,0-2.1-2.835c3.229-.932,4.682-2.565,4.844-5.435h-3.678a21.926,21.926,0,0,0-2.709.089v-3.013a15.744,15.744,0,0,0,2.763.144h9.992a17.367,17.367,0,0,0,2.853-.126v3a23.966,23.966,0,0,0-2.8-.089ZM292,398a23.264,23.264,0,0,0,2.655-.108c-.054-.108-.072-.125-.144-.251l1.453-.467a11.791,11.791,0,0,1,1.31,2.87l-1.544.556a13.614,13.614,0,0,0-1.04-2.655v2.942c-.538-.054-.646-.054-2.637-.09h-4.772a26.37,26.37,0,0,0-2.8.09v-3.031a14.777,14.777,0,0,0,2.853.143Zm6.046,1.812a12.635,12.635,0,0,0-1.256-2.853l1.4-.484a12.1,12.1,0,0,1,1.256,2.781Z" transform="translate(-282.654 -396.475)" fill="#0e1d3b"/>
    <path id="Path_9" data-name="Path 9" d="M314.894,398.448a21.593,21.593,0,0,0-.09,2.4v3.569a23.442,23.442,0,0,0,.09,2.565h-3.48a18.58,18.58,0,0,0,.108-2.618v-3.552a17.954,17.954,0,0,0-.108-2.368Zm8.342,0c-.072,1-.09,1.274-.09,2.422v2.1a23.165,23.165,0,0,1-.412,5.22A7.379,7.379,0,0,1,319,412.747a15.052,15.052,0,0,1-3.732,1.47,8.2,8.2,0,0,0-1.83-3.067,11.576,11.576,0,0,0,3.552-1.095,4.629,4.629,0,0,0,2.673-3.48,30.4,30.4,0,0,0,.2-3.8v-1.866a17.376,17.376,0,0,0-.108-2.458Z" transform="translate(-291.55 -397.085)" fill="#0e1d3b"/>
    <path id="Path_10" data-name="Path 10" d="M339.365,404.655c-.054.287-.18.861-.359,1.721a18.176,18.176,0,0,1-2.548,6.011,14.11,14.11,0,0,0-2.96-1.472,14.909,14.909,0,0,0,2.781-6.979Zm1.094-5.167a13.252,13.252,0,0,0-.107-1.991h3.391c-.054.43-.072,1.023-.09,2.027v.664h3.409a17.043,17.043,0,0,0,2.817-.144v3.05a22.99,22.99,0,0,0-2.763-.09h-3.462v7.911a17.1,17.1,0,0,0,.108,2.656h-3.427a16.641,16.641,0,0,0,.126-2.691V403h-3.337a21.349,21.349,0,0,0-2.709.09v-3.05a16.474,16.474,0,0,0,2.727.144h3.319Zm7.248,4.414a19.253,19.253,0,0,0,2.906,6.853,23.509,23.509,0,0,0-2.96,1.668A26.024,26.024,0,0,1,345,405.534a5.35,5.35,0,0,0-.269-.879Zm-.592-6.854a9.564,9.564,0,0,1,1.363,2.512l-1.776.538a10.547,10.547,0,0,0-1.345-2.565Zm2.565-.573a8.979,8.979,0,0,1,1.363,2.493l-1.669.539a12.9,12.9,0,0,0-1.363-2.547Z" transform="translate(-298.381 -396.475)" fill="#0e1d3b"/>
    <path id="Path_11" data-name="Path 11" d="M366.66,415.155a3.409,3.409,0,1,1-3.408-3.409A3.407,3.407,0,0,1,366.66,415.155Zm-4.969,0a1.561,1.561,0,1,0,1.561-1.561A1.561,1.561,0,0,0,361.691,415.155Z" transform="translate(-306.529 -401.198)" fill="#0e1d3b"/>
  </g>
  <g id="Group_4" data-name="Group 4" transform="translate(0 135.931)">
    <path id="Path_12" data-name="Path 12" d="M86.273,412.232a2.975,2.975,0,0,1,.013-.319,3.6,3.6,0,0,1-2.706,1.043c-2.439,0-3.913-1.768-3.913-4.695a5.124,5.124,0,0,1,1.153-3.535,3.59,3.59,0,0,1,2.72-1.13,3.82,3.82,0,0,1,2.747,1.072c-.013-.218-.013-.348-.013-.55v-1.2a17.438,17.438,0,0,0-.107-2.275h2.747a17.6,17.6,0,0,0-.107,2.275v7.505a18.619,18.619,0,0,0,.107,2.275h-2.64Zm-4.007-3.956a2.726,2.726,0,0,0,.617,1.913,1.784,1.784,0,0,0,1.3.55,2.252,2.252,0,0,0,2.064-2.507,2.181,2.181,0,0,0-2.077-2.419C83,405.813,82.267,406.755,82.267,408.276Z" transform="translate(-79.667 -400.379)" fill="#0e1d3b"/>
    <path id="Path_13" data-name="Path 13" d="M97.049,410.372c.134,1.173.764,1.8,1.823,1.8a1.87,1.87,0,0,0,1.353-.536,1.44,1.44,0,0,0,.4-.738l2.332.71a4.242,4.242,0,0,1-.885,1.492,4.168,4.168,0,0,1-3.162,1.232A4.015,4.015,0,0,1,95.8,413.1a5.162,5.162,0,0,1-1.22-3.535c0-2.869,1.7-4.767,4.262-4.767a3.924,3.924,0,0,1,4.02,3.391,11.382,11.382,0,0,1,.2,1.9,2.888,2.888,0,0,0,.013.289Zm3.484-2a1.592,1.592,0,0,0-1.688-1.419,1.642,1.642,0,0,0-1.756,1.419Z" transform="translate(-84.281 -401.664)" fill="#0e1d3b"/>
    <path id="Path_14" data-name="Path 14" d="M111.233,400.64a16.01,16.01,0,0,0-.107,2.188v7.679a18.818,18.818,0,0,0,.107,2.188h-2.8a15.74,15.74,0,0,0,.108-2.188v-7.679a14.973,14.973,0,0,0-.108-2.188Z" transform="translate(-88.564 -400.379)" fill="#0e1d3b"/>
    <path id="Path_15" data-name="Path 15" d="M117.324,403.856a15.5,15.5,0,0,0-.107,2.188v4.462a21.362,21.362,0,0,0,.107,2.188h-2.8a17.571,17.571,0,0,0,.107-2.188v-4.462a16.855,16.855,0,0,0-.107-2.188Zm-.041-3.216v2.174h-2.72V400.64Z" transform="translate(-90.448 -400.379)" fill="#0e1d3b"/>
    <path id="Path_16" data-name="Path 16" d="M122.715,405.3a6.432,6.432,0,0,0,.255,1.247l1.246,4.506c.014.028.027.087.054.16.04.144.04.159.107.405.04-.131.054-.2.067-.261a.627.627,0,0,0,.04-.144c.027-.072.04-.131.054-.174l1.246-4.492a7.138,7.138,0,0,0,.255-1.247h2.975c-.268.653-.375.928-.55,1.406l-2.251,6.215a6.527,6.527,0,0,0-.362,1.217h-2.935a6.568,6.568,0,0,0-.361-1.217L120.3,406.7c-.08-.2-.268-.667-.563-1.406Z" transform="translate(-92.062 -401.819)" fill="#0e1d3b"/>
    <path id="Path_17" data-name="Path 17" d="M136.268,410.372c.135,1.173.764,1.8,1.823,1.8a1.87,1.87,0,0,0,1.353-.536,1.435,1.435,0,0,0,.4-.738l2.332.71a4.252,4.252,0,0,1-.884,1.492,4.168,4.168,0,0,1-3.163,1.232,4.016,4.016,0,0,1-3.109-1.232,5.165,5.165,0,0,1-1.219-3.535c0-2.869,1.7-4.767,4.261-4.767a3.924,3.924,0,0,1,4.02,3.391,11.37,11.37,0,0,1,.2,1.9,2.891,2.891,0,0,0,.013.289Zm3.485-2a1.592,1.592,0,0,0-1.689-1.419,1.642,1.642,0,0,0-1.755,1.419Z" transform="translate(-96.412 -401.664)" fill="#0e1d3b"/>
    <path id="Path_18" data-name="Path 18" d="M153.682,407.827a4.042,4.042,0,0,0-1.367-.275,1.87,1.87,0,0,0-1.595.783,2.212,2.212,0,0,0-.4,1.289v2.261a17.022,17.022,0,0,0,.108,2.173h-2.774a17.567,17.567,0,0,0,.107-2.188v-4.462a15.477,15.477,0,0,0-.107-2.188h2.666v1.145A2.954,2.954,0,0,1,153,405.046a5.039,5.039,0,0,1,1.326.173Z" transform="translate(-100.696 -401.742)" fill="#0e1d3b"/>
    <path id="Path_19" data-name="Path 19" d="M158.386,407.239c-.576-1.449-.629-1.58-.8-1.942h2.908a10.21,10.21,0,0,0,.522,1.87l1.233,3.347,1.193-3.29a9.174,9.174,0,0,0,.576-1.927h2.908c-.335.754-.335.754-.8,1.942L163.05,414.9a2.912,2.912,0,0,1-3.028,1.985,7.471,7.471,0,0,1-1.836-.247l.294-2.3a1.924,1.924,0,0,0,1.045.32,1.129,1.129,0,0,0,1.086-.682l.282-.623Z" transform="translate(-103.767 -401.819)" fill="#0e1d3b"/>
    <path id="Path_20" data-name="Path 20" d="M178.7,416.642a20.1,20.1,0,0,0,.108-2.116v-7.071a19.089,19.089,0,0,0-.108-2.275h2.64v.493c0,.087-.013.2-.013.275a3.793,3.793,0,0,1,2.747-1.028,3.746,3.746,0,0,1,2.841,1.116,4.838,4.838,0,0,1,1.072,3.375,5.039,5.039,0,0,1-1.166,3.507,3.694,3.694,0,0,1-2.76,1.144,4.505,4.505,0,0,1-1.81-.377,3.167,3.167,0,0,1-.924-.666c0,.131,0,.318.013.521v1a16.4,16.4,0,0,0,.107,2.1Zm6.084-5.318a2.72,2.72,0,0,0,.59-1.884c0-1.478-.724-2.333-1.984-2.333a2.409,2.409,0,0,0,.081,4.767A1.778,1.778,0,0,0,184.789,411.324Z" transform="translate(-110.301 -401.703)" fill="#0d7684"/>
    <path id="Path_21" data-name="Path 21" d="M196.5,400.64a16.027,16.027,0,0,0-.106,2.188v7.679a18.822,18.822,0,0,0,.106,2.188h-2.8a15.877,15.877,0,0,0,.107-2.188v-7.679a15.1,15.1,0,0,0-.107-2.188Z" transform="translate(-114.938 -400.379)" fill="#0d7684"/>
    <path id="Path_22" data-name="Path 22" d="M205.037,407.969c0-.7-.388-1.015-1.272-1.015a1.335,1.335,0,0,0-1.515,1.015l-2.56-.449a3.121,3.121,0,0,1,1.126-1.753,4.852,4.852,0,0,1,3.015-.826,5.446,5.446,0,0,1,2.479.507,2.677,2.677,0,0,1,1.233,2.608v3.912a18.134,18.134,0,0,0,.094,2.058h-2.6v-.666a3.7,3.7,0,0,1-2.6.869,3.122,3.122,0,0,1-2.319-.8,2.719,2.719,0,0,1-.737-1.971,2.5,2.5,0,0,1,.978-2.116,5.3,5.3,0,0,1,2.787-.941c.523-.059.926-.073,1.89-.1Zm0,2.188a7.415,7.415,0,0,0-2.318.289,1.052,1.052,0,0,0-.777.957c0,.522.4.826,1.1.826a2.358,2.358,0,0,0,1.513-.551,1.507,1.507,0,0,0,.483-1.115Z" transform="translate(-116.696 -401.709)" fill="#0d7684"/>
    <path id="Path_23" data-name="Path 23" d="M214.169,403.967a15.867,15.867,0,0,0-.108-1.984H216.8a18.175,18.175,0,0,0-.108,1.984v.3h.483a8.555,8.555,0,0,0,1.313-.072v2.4a8.008,8.008,0,0,0-1.233-.087h-.563v3.71c0,.405.067.608.241.738a1.1,1.1,0,0,0,.617.16,1.745,1.745,0,0,0,.938-.26l.2,2.2a5.364,5.364,0,0,1-1.85.29,3.047,3.047,0,0,1-1.97-.508,2.12,2.12,0,0,1-.7-1.9v-4.434h-.509a7.486,7.486,0,0,0-1.166.087v-2.42a7.462,7.462,0,0,0,1.192.087h.483Z" transform="translate(-120.752 -400.794)" fill="#0d7684"/>
    <path id="Path_24" data-name="Path 24" d="M223.3,405.971a8.924,8.924,0,0,0-1.5.1v-2.435a11.131,11.131,0,0,0,1.5.1h.361v-.68c0-1.913,1.006-2.8,3.19-2.8a6.573,6.573,0,0,1,2.037.3l-.415,2.13a2.458,2.458,0,0,0-1.327-.363c-.657,0-.912.29-.912,1.044v.362h.389a17.04,17.04,0,0,0,1.783-.1v2.435a12.35,12.35,0,0,0-1.756-.1h-.416v4.419a16.824,16.824,0,0,0,.108,2.188h-2.788a17.289,17.289,0,0,0,.107-2.188v-4.419Z" transform="translate(-123.632 -400.262)" fill="#0d7684"/>
    <path id="Path_25" data-name="Path 25" d="M231.084,409.552c0-2.9,1.715-4.737,4.422-4.737s4.422,1.84,4.422,4.709-1.769,4.8-4.435,4.8C232.8,414.319,231.084,412.465,231.084,409.552Zm2.559-.014c0,1.608.7,2.579,1.863,2.579s1.836-.942,1.836-2.55c0-1.623-.684-2.58-1.823-2.58C234.34,406.988,233.643,407.945,233.643,409.539Z" transform="translate(-126.502 -401.67)" fill="#0d7684"/>
    <path id="Path_26" data-name="Path 26" d="M251.486,407.827a4.048,4.048,0,0,0-1.367-.275,1.87,1.87,0,0,0-1.595.783,2.212,2.212,0,0,0-.4,1.289v2.261a17.171,17.171,0,0,0,.107,2.173h-2.774a17.442,17.442,0,0,0,.107-2.188v-4.462a15.379,15.379,0,0,0-.107-2.188h2.667v1.145a2.954,2.954,0,0,1,2.68-1.318,5.044,5.044,0,0,1,1.327.173Z" transform="translate(-130.947 -401.742)" fill="#0d7684"/>
    <path id="Path_27" data-name="Path 27" d="M256.28,414.025a17.288,17.288,0,0,0,.106-2.188v-4.463a14.61,14.61,0,0,0-.106-2.188h2.653v.609a1.656,1.656,0,0,1-.013.2v.145a3.135,3.135,0,0,1,2.559-1.189,2.7,2.7,0,0,1,1.715.522,1.755,1.755,0,0,1,.549.725,3.536,3.536,0,0,1,2.815-1.261c1.917,0,2.895,1.13,2.895,3.318v3.594a17.326,17.326,0,0,0,.106,2.173h-2.787a16.564,16.564,0,0,0,.108-2.188v-2.984c0-1.086-.295-1.507-1.059-1.507-.684,0-1.3.579-1.635,1.55v2.957a17.774,17.774,0,0,0,.107,2.173h-2.787a16.976,16.976,0,0,0,.107-2.188v-2.984a1.8,1.8,0,0,0-.228-1.131.841.841,0,0,0-.737-.362c-.724,0-1.34.565-1.715,1.551v2.926a17.585,17.585,0,0,0,.107,2.188Z" transform="translate(-134.295 -401.709)" fill="#0d7684"/>
  </g>
</svg>
