<svg xmlns="http://www.w3.org/2000/svg" xmlns:xlink="http://www.w3.org/1999/xlink" width="327" height="210" viewBox="0 0 327 210">
  <defs>
    <clipPath id="clip-path">
      <rect id="Rectangle_254" data-name="Rectangle 254" width="327" height="210" transform="translate(26.146 149.615)" fill="none" stroke="#707070" stroke-width="1"/>
    </clipPath>
    <clipPath id="clip-path-2">
      <path id="Path_1355" data-name="Path 1355" d="M344.693,102.6" transform="translate(-344.693 -102.599)" fill="#e0e0e0"/>
    </clipPath>
  </defs>
  <g id="Mask_Group_7" data-name="Mask Group 7" transform="translate(-26.146 -149.615)" clip-path="url(#clip-path)">
    <g id="Group_1637" data-name="Group 1637" transform="translate(117.061 150.205)">
      <g id="Group_1634" data-name="Group 1634" transform="translate(10.829 5.406)">
        <g id="Group_1552" data-name="Group 1552" transform="translate(2.08 3.262)">
          <g id="Group_1551" data-name="Group 1551">
            <g id="Group_1550" data-name="Group 1550">
              <rect id="Rectangle_255" data-name="Rectangle 255" width="139.253" height="243.635" fill="#fafafa"/>
            </g>
          </g>
        </g>
        <g id="Group_1554" data-name="Group 1554" transform="translate(0 0.485)">
          <g id="Group_1553" data-name="Group 1553">
            <path id="Path_1315" data-name="Path 1315" d="M388.49,349.131s-15.252-109.612-23.248-121.656c0,0,45.622-34.256,47.02-127.092h-69.23V349.131Z" transform="translate(-343.032 -100.382)" fill="#ebebeb"/>
          </g>
        </g>
        <g id="Group_1556" data-name="Group 1556" transform="translate(74.164)">
          <g id="Group_1555" data-name="Group 1555">
            <path id="Path_1316" data-name="Path 1316" d="M426,348.744s15.252-109.611,23.248-121.658c0,0-45.622-34.254-47.019-127.091h69.229V348.744Z" transform="translate(-402.232 -99.995)" fill="#ebebeb"/>
          </g>
        </g>
        <g id="Group_1633" data-name="Group 1633" transform="translate(2.081 3.262)">
          <g id="Group_1632" data-name="Group 1632">
            <path id="Path_1317" data-name="Path 1317" d="M344.693,102.6" transform="translate(-344.693 -102.599)" fill="#e0e0e0"/>
            <g id="Group_1631" data-name="Group 1631" clip-path="url(#clip-path-2)">
              <g id="Group_1558" data-name="Group 1558">
                <g id="Group_1557" data-name="Group 1557">
                  <path id="Path_1318" data-name="Path 1318" d="M344.693,102.6Z" transform="translate(-344.693 -102.599)" fill="#e0e0e0"/>
                </g>
              </g>
              <g id="Group_1560" data-name="Group 1560">
                <g id="Group_1559" data-name="Group 1559">
                  <path id="Path_1319" data-name="Path 1319" d="M344.693,102.6Z" transform="translate(-344.693 -102.599)" fill="#e0e0e0"/>
                </g>
              </g>
              <g id="Group_1562" data-name="Group 1562">
                <g id="Group_1561" data-name="Group 1561">
                  <path id="Path_1320" data-name="Path 1320" d="M344.693,102.6Z" transform="translate(-344.693 -102.599)" fill="#e0e0e0"/>
                </g>
              </g>
              <g id="Group_1564" data-name="Group 1564">
                <g id="Group_1563" data-name="Group 1563">
                  <path id="Path_1321" data-name="Path 1321" d="M344.693,102.6Z" transform="translate(-344.693 -102.599)" fill="#e0e0e0"/>
                </g>
              </g>
              <g id="Group_1566" data-name="Group 1566">
                <g id="Group_1565" data-name="Group 1565">
                  <path id="Path_1322" data-name="Path 1322" d="M344.693,102.6Z" transform="translate(-344.693 -102.599)" fill="#e0e0e0"/>
                </g>
              </g>
              <g id="Group_1568" data-name="Group 1568">
                <g id="Group_1567" data-name="Group 1567">
                  <path id="Path_1323" data-name="Path 1323" d="M344.693,102.6Z" transform="translate(-344.693 -102.599)" fill="#e0e0e0"/>
                </g>
              </g>
              <g id="Group_1570" data-name="Group 1570">
                <g id="Group_1569" data-name="Group 1569">
                  <path id="Path_1324" data-name="Path 1324" d="M344.693,102.6Z" transform="translate(-344.693 -102.599)" fill="#e0e0e0"/>
                </g>
              </g>
              <g id="Group_1572" data-name="Group 1572">
                <g id="Group_1571" data-name="Group 1571">
                  <path id="Path_1325" data-name="Path 1325" d="M344.693,102.6Z" transform="translate(-344.693 -102.599)" fill="#e0e0e0"/>
                </g>
              </g>
              <g id="Group_1574" data-name="Group 1574">
                <g id="Group_1573" data-name="Group 1573">
                  <path id="Path_1326" data-name="Path 1326" d="M344.693,102.6Z" transform="translate(-344.693 -102.599)" fill="#e0e0e0"/>
                </g>
              </g>
              <g id="Group_1576" data-name="Group 1576">
                <g id="Group_1575" data-name="Group 1575">
                  <path id="Path_1327" data-name="Path 1327" d="M344.693,102.6Z" transform="translate(-344.693 -102.599)" fill="#e0e0e0"/>
                </g>
              </g>
              <g id="Group_1578" data-name="Group 1578">
                <g id="Group_1577" data-name="Group 1577">
                  <path id="Path_1328" data-name="Path 1328" d="M344.693,102.6Z" transform="translate(-344.693 -102.599)" fill="#e0e0e0"/>
                </g>
              </g>
              <g id="Group_1580" data-name="Group 1580">
                <g id="Group_1579" data-name="Group 1579">
                  <path id="Path_1329" data-name="Path 1329" d="M344.693,102.6Z" transform="translate(-344.693 -102.599)" fill="#e0e0e0"/>
                </g>
              </g>
              <g id="Group_1582" data-name="Group 1582">
                <g id="Group_1581" data-name="Group 1581">
                  <path id="Path_1330" data-name="Path 1330" d="M344.693,102.6Z" transform="translate(-344.693 -102.599)" fill="#e0e0e0"/>
                </g>
              </g>
              <g id="Group_1584" data-name="Group 1584">
                <g id="Group_1583" data-name="Group 1583">
                  <path id="Path_1331" data-name="Path 1331" d="M344.693,102.6Z" transform="translate(-344.693 -102.599)" fill="#e0e0e0"/>
                </g>
              </g>
              <g id="Group_1586" data-name="Group 1586">
                <g id="Group_1585" data-name="Group 1585">
                  <path id="Path_1332" data-name="Path 1332" d="M344.693,102.6Z" transform="translate(-344.693 -102.599)" fill="#e0e0e0"/>
                </g>
              </g>
              <g id="Group_1588" data-name="Group 1588">
                <g id="Group_1587" data-name="Group 1587">
                  <path id="Path_1333" data-name="Path 1333" d="M344.693,102.6Z" transform="translate(-344.693 -102.599)" fill="#e0e0e0"/>
                </g>
              </g>
              <g id="Group_1590" data-name="Group 1590">
                <g id="Group_1589" data-name="Group 1589">
                  <path id="Path_1334" data-name="Path 1334" d="M344.693,102.6Z" transform="translate(-344.693 -102.599)" fill="#e0e0e0"/>
                </g>
              </g>
              <g id="Group_1592" data-name="Group 1592">
                <g id="Group_1591" data-name="Group 1591">
                  <path id="Path_1335" data-name="Path 1335" d="M344.693,102.6Z" transform="translate(-344.693 -102.599)" fill="#e0e0e0"/>
                </g>
              </g>
              <g id="Group_1594" data-name="Group 1594">
                <g id="Group_1593" data-name="Group 1593">
                  <path id="Path_1336" data-name="Path 1336" d="M344.693,102.6Z" transform="translate(-344.693 -102.599)" fill="#e0e0e0"/>
                </g>
              </g>
              <g id="Group_1596" data-name="Group 1596">
                <g id="Group_1595" data-name="Group 1595">
                  <path id="Path_1337" data-name="Path 1337" d="M344.693,102.6Z" transform="translate(-344.693 -102.599)" fill="#e0e0e0"/>
                </g>
              </g>
              <g id="Group_1598" data-name="Group 1598">
                <g id="Group_1597" data-name="Group 1597">
                  <path id="Path_1338" data-name="Path 1338" d="M344.693,102.6Z" transform="translate(-344.693 -102.599)" fill="#e0e0e0"/>
                </g>
              </g>
              <g id="Group_1600" data-name="Group 1600">
                <g id="Group_1599" data-name="Group 1599">
                  <path id="Path_1339" data-name="Path 1339" d="M344.693,102.6Z" transform="translate(-344.693 -102.599)" fill="#e0e0e0"/>
                </g>
              </g>
              <g id="Group_1602" data-name="Group 1602">
                <g id="Group_1601" data-name="Group 1601">
                  <path id="Path_1340" data-name="Path 1340" d="M344.693,102.6Z" transform="translate(-344.693 -102.599)" fill="#e0e0e0"/>
                </g>
              </g>
              <g id="Group_1604" data-name="Group 1604">
                <g id="Group_1603" data-name="Group 1603">
                  <path id="Path_1341" data-name="Path 1341" d="M344.693,102.6Z" transform="translate(-344.693 -102.599)" fill="#e0e0e0"/>
                </g>
              </g>
              <g id="Group_1606" data-name="Group 1606">
                <g id="Group_1605" data-name="Group 1605">
                  <path id="Path_1342" data-name="Path 1342" d="M344.693,102.6Z" transform="translate(-344.693 -102.599)" fill="#e0e0e0"/>
                </g>
              </g>
              <g id="Group_1608" data-name="Group 1608">
                <g id="Group_1607" data-name="Group 1607">
                  <path id="Path_1343" data-name="Path 1343" d="M344.693,102.6Z" transform="translate(-344.693 -102.599)" fill="#e0e0e0"/>
                </g>
              </g>
              <g id="Group_1610" data-name="Group 1610">
                <g id="Group_1609" data-name="Group 1609">
                  <path id="Path_1344" data-name="Path 1344" d="M344.693,102.6Z" transform="translate(-344.693 -102.599)" fill="#e0e0e0"/>
                </g>
              </g>
              <g id="Group_1612" data-name="Group 1612">
                <g id="Group_1611" data-name="Group 1611">
                  <path id="Path_1345" data-name="Path 1345" d="M344.693,102.6Z" transform="translate(-344.693 -102.599)" fill="#e0e0e0"/>
                </g>
              </g>
              <g id="Group_1614" data-name="Group 1614">
                <g id="Group_1613" data-name="Group 1613">
                  <path id="Path_1346" data-name="Path 1346" d="M344.693,102.6Z" transform="translate(-344.693 -102.599)" fill="#e0e0e0"/>
                </g>
              </g>
              <g id="Group_1616" data-name="Group 1616">
                <g id="Group_1615" data-name="Group 1615">
                  <path id="Path_1347" data-name="Path 1347" d="M344.693,102.6Z" transform="translate(-344.693 -102.599)" fill="#e0e0e0"/>
                </g>
              </g>
              <g id="Group_1618" data-name="Group 1618">
                <g id="Group_1617" data-name="Group 1617">
                  <path id="Path_1348" data-name="Path 1348" d="M344.693,102.6Z" transform="translate(-344.693 -102.599)" fill="#e0e0e0"/>
                </g>
              </g>
              <g id="Group_1620" data-name="Group 1620">
                <g id="Group_1619" data-name="Group 1619">
                  <path id="Path_1349" data-name="Path 1349" d="M344.693,102.6Z" transform="translate(-344.693 -102.599)" fill="#e0e0e0"/>
                </g>
              </g>
              <g id="Group_1622" data-name="Group 1622">
                <g id="Group_1621" data-name="Group 1621">
                  <path id="Path_1350" data-name="Path 1350" d="M344.693,102.6Z" transform="translate(-344.693 -102.599)" fill="#e0e0e0"/>
                </g>
              </g>
              <g id="Group_1624" data-name="Group 1624">
                <g id="Group_1623" data-name="Group 1623">
                  <path id="Path_1351" data-name="Path 1351" d="M344.693,102.6Z" transform="translate(-344.693 -102.599)" fill="#e0e0e0"/>
                </g>
              </g>
              <g id="Group_1626" data-name="Group 1626">
                <g id="Group_1625" data-name="Group 1625">
                  <path id="Path_1352" data-name="Path 1352" d="M344.693,102.6Z" transform="translate(-344.693 -102.599)" fill="#e0e0e0"/>
                </g>
              </g>
              <g id="Group_1628" data-name="Group 1628">
                <g id="Group_1627" data-name="Group 1627">
                  <path id="Path_1353" data-name="Path 1353" d="M344.693,102.6Z" transform="translate(-344.693 -102.599)" fill="#e0e0e0"/>
                </g>
              </g>
              <g id="Group_1630" data-name="Group 1630">
                <g id="Group_1629" data-name="Group 1629">
                  <path id="Path_1354" data-name="Path 1354" d="M344.693,102.6Z" transform="translate(-344.693 -102.599)" fill="#e0e0e0"/>
                </g>
              </g>
            </g>
          </g>
        </g>
      </g>
      <g id="Group_1636" data-name="Group 1636">
        <g id="Group_1635" data-name="Group 1635">
          <path id="Path_1356" data-name="Path 1356" d="M490.216,95.68H334.388V356.651H496.671V95.68ZM375.287,231.266v62.06H347.3v-62.06ZM347.3,226.779v-64.23h27.989v64.23Zm70.592,0v-64.23H452.9v64.23Zm35.011,4.487v62.06H417.89v-62.06Zm-76.369-4.487v-64.23H413.4v64.23Zm36.872,4.487v62.06H376.532v-62.06Zm-36.872-69.828V104.96H413.4v56.477Zm36.872,133v54.181H376.532V294.436Zm4.486,0H452.9v54.181H417.89Zm0-133V104.96H452.9v56.477Zm36.256,69.828h29.615v62.06H454.146Zm0-4.487v-64.23h29.615v64.23Zm29.615-65.341H454.146V104.96h29.615ZM375.287,104.96v56.477H347.3V104.96ZM347.3,294.436h27.989v54.181H347.3Zm106.849,54.181V294.436h29.615v54.181Z" transform="translate(-334.388 -95.68)" fill="#e0e0e0"/>
        </g>
      </g>
    </g>
    <g id="Floor" transform="translate(54.422 511.254)">
      <g id="Group_1389" data-name="Group 1389">
        <path id="Path_1219" data-name="Path 1219" d="M397.071,463.275c0,.14-77.189.253-172.386.253-95.229,0-172.4-.113-172.4-.253s77.173-.253,172.4-.253C319.882,463.022,397.071,463.135,397.071,463.275Z" transform="translate(-52.284 -463.022)" fill="#263238"/>
      </g>
    </g>
    <g id="Character" transform="translate(92.181 211.235)">
      <g id="Group_1507" data-name="Group 1507" transform="translate(0 0)">
        <g id="Group_1394" data-name="Group 1394" transform="translate(2.629 134.023)">
          <g id="Group_1392" data-name="Group 1392">
            <g id="Group_1390" data-name="Group 1390">
              <path id="Path_1220" data-name="Path 1220" d="M106.62,446.064s24.56-78.006,25.081-80.539c.471-2.289-8.913-58.425-10.1-72.953l33.185,1.238,0,.242,14.106.783L156.266,454.37H140.995l1.514-52.93c-9.416,25.282-22.911,51.045-22.911,51.045Z" transform="translate(-106.62 -292.572)" fill="#ffbe9d"/>
            </g>
            <g id="Group_1391" data-name="Group 1391" transform="translate(35.265 94.149)">
              <path id="Path_1221" data-name="Path 1221" d="M142.832,422.937c-.014-.484.185-17.734.185-17.734.191,1.032,5.855-14.977,5.718-15.95C148.664,388.748,142.832,422.937,142.832,422.937Z" transform="translate(-142.831 -389.247)" fill="#eb996e"/>
            </g>
          </g>
          <g id="Group_1393" data-name="Group 1393" transform="translate(35.445 86.575)">
            <path id="Path_1222" data-name="Path 1222" d="M149.386,381.47a3.665,3.665,0,0,1,.1.967,25.5,25.5,0,0,1-.02,2.645c-.021.559-.08,1.169-.152,1.824s-.173,1.353-.324,2.077a35.725,35.725,0,0,1-1.248,4.648c-1.109,3.226-2.332,6.049-3.2,8.1l-1.063,2.411a3.6,3.6,0,0,1-.453.859,3.617,3.617,0,0,1,.27-.932c.2-.589.516-1.434.914-2.474.784-2.082,1.955-4.927,3.053-8.125a40.451,40.451,0,0,0,1.271-4.578c.162-.712.265-1.4.365-2.04s.168-1.244.211-1.8c.105-1.1.153-2,.18-2.619A3.59,3.59,0,0,1,149.386,381.47Z" transform="translate(-143.016 -381.47)" fill="#eb996e"/>
          </g>
        </g>
        <g id="Group_1407" data-name="Group 1407" transform="translate(8.267 45.257)">
          <g id="Group_1403" data-name="Group 1403">
            <g id="Group_1398" data-name="Group 1398" transform="translate(0.632)">
              <g id="Group_1397" data-name="Group 1397">
                <g id="Group_1396" data-name="Group 1396">
                  <g id="Group_1395" data-name="Group 1395">
                    <path id="Path_1223" data-name="Path 1223" d="M170.273,321.866c.588-22.241-1.91-45.28-3.887-52.268-.189-.665-.351-1.339-.511-2.012l-3.774-15.8s-1.571-1.283,2.626-6.87c1.945-2.59,1.583-12.485,1.583-12.485l-1.877,13.076,19.713-9.493s-8.277-23.58-10.952-27.026c-6.945-8.944-19.49-7.379-19.49-7.379l-16.423-.189a38.248,38.248,0,0,0-12.256,3.2l-.408.107v.085c-4.708,2.3-8.905,6.163-10.115,12.465-1.971,10.279-1.351,14.964-1.351,14.964l13.379-.238-1.187,28.321c-1.012,3.485-3.837,2.65-8.017,18.748a129.205,129.205,0,0,0-3.365,18.5,92.907,92.907,0,0,0,.3,22.149l7.511,57.04h45.457Z" transform="translate(-113.059 -201.424)" fill="#455a64"/>
                  </g>
                </g>
              </g>
            </g>
            <path id="Path_1224" data-name="Path 1224" d="M132.97,227.9l2.438,10.386h-23l1.513-17.412Z" transform="translate(-112.41 -201.932)" fill="#455a64"/>
            <g id="Group_1399" data-name="Group 1399" transform="translate(0 35.86)">
              <path id="Path_1225" data-name="Path 1225" d="M112.41,238.74a17.137,17.137,0,0,1,3.044-.3c1.884-.11,4.492-.2,7.375-.191s5.492.139,7.374.288a16.49,16.49,0,0,1,3.037.375,20.413,20.413,0,0,1-3.056-.017c-1.883-.057-4.484-.126-7.358-.139s-5.475.023-7.36.042A19.629,19.629,0,0,1,112.41,238.74Z" transform="translate(-112.41 -238.246)" fill="#263238"/>
            </g>
            <g id="Group_1400" data-name="Group 1400" transform="translate(49.54 26.933)">
              <path id="Path_1226" data-name="Path 1226" d="M163.413,253.26a3.494,3.494,0,0,1-.134-1.013,7.289,7.289,0,0,1,.088-1.2,7.515,7.515,0,0,1,.4-1.548,11.682,11.682,0,0,1,.807-1.755c.33-.609.723-1.232,1.132-1.884a20.164,20.164,0,0,0,2.272-4.379,10.123,10.123,0,0,0,.482-2.476,12.85,12.85,0,0,0-.07-2.368,24.169,24.169,0,0,0-.829-3.963c-.656-2.222-1.2-3.56-1.124-3.593a3.736,3.736,0,0,1,.467.9c.265.6.629,1.471,1,2.583a21.574,21.574,0,0,1,.95,4.013,12.814,12.814,0,0,1,.1,2.454,10.394,10.394,0,0,1-.5,2.6,19.358,19.358,0,0,1-2.361,4.473c-.42.645-.821,1.253-1.159,1.84a12.161,12.161,0,0,0-.839,1.676,7.941,7.941,0,0,0-.454,1.47,9.068,9.068,0,0,0-.168,1.155A4.53,4.53,0,0,1,163.413,253.26Z" transform="translate(-163.279 -229.08)" fill="#263238"/>
            </g>
            <g id="Group_1401" data-name="Group 1401" transform="translate(9.346 50.366)">
              <path id="Path_1227" data-name="Path 1227" d="M122.008,378.116a1.676,1.676,0,0,1,.09-.329c.079-.238.182-.551.313-.948l1.249-3.63c.535-1.58,1.256-3.486,2.068-5.711s1.769-4.745,2.828-7.53l7.539-19.529c1.412-3.678,2.894-7.538,4.431-11.538s3.081-8.161,4.663-12.422c1.551-4.272,3.083-8.439,4.47-12.494l2.05-5.967q.952-2.942,1.862-5.755c1.253-3.734,2.227-7.348,3.25-10.7.473-1.685.881-3.325,1.3-4.895.4-1.576.852-3.071,1.141-4.53q.479-2.18.913-4.147.218-.982.422-1.908.155-.933.3-1.808c.192-1.164.371-2.25.537-3.251a26.69,26.69,0,0,0,.382-2.741c.154-1.633.275-2.913.359-3.817.044-.415.079-.742.106-.992a1.672,1.672,0,0,1,.054-.338,1.688,1.688,0,0,1,0,.34c-.014.25-.032.579-.055,1-.063.908-.152,2.192-.265,3.832a25.775,25.775,0,0,1-.34,2.754c-.152,1.005-.317,2.1-.5,3.265-.091.585-.185,1.192-.282,1.816l-.4,1.916q-.416,1.974-.879,4.163c-.279,1.467-.725,2.965-1.111,4.546-.411,1.576-.811,3.222-1.276,4.912-1.006,3.358-1.967,6.983-3.209,10.724l-1.848,5.766q-1,2.929-2.04,5.977c-1.382,4.061-2.911,8.231-4.463,12.506-1.583,4.263-3.13,8.424-4.675,12.424l-4.46,11.531c-2.873,7.328-5.461,13.931-7.639,19.488-1.072,2.776-2.043,5.288-2.9,7.5-.838,2.214-1.586,4.111-2.148,5.679-.573,1.539-1.022,2.744-1.338,3.6l-.359.931A1.751,1.751,0,0,1,122.008,378.116Z" transform="translate(-122.007 -253.141)" fill="#263238"/>
            </g>
            <g id="Group_1402" data-name="Group 1402" transform="translate(20.77 18.856)">
              <path id="Path_1228" data-name="Path 1228" d="M134.519,220.786a13.819,13.819,0,0,1,.077,2.641c-.018,1.63-.077,3.88-.173,6.363s-.212,4.733-.321,6.358a13.637,13.637,0,0,1-.281,2.627,13.71,13.71,0,0,1-.077-2.641c.018-1.629.077-3.88.173-6.364s.212-4.731.321-6.357A13.638,13.638,0,0,1,134.519,220.786Z" transform="translate(-133.738 -220.786)" fill="#263238"/>
            </g>
            <path id="Path_1229" data-name="Path 1229" d="M155.089,237.08S150.164,268.105,135.8,267.1c0,0-6.469-.077-8.55-4.378v-1.693Z" transform="translate(-112.798 -202.356)" opacity="0.3"/>
          </g>
          <g id="Group_1404" data-name="Group 1404" transform="translate(35.722 50.263)">
            <path id="Path_1230" data-name="Path 1230" d="M163.043,253.138a48.393,48.393,0,0,1-6.968.515,48.371,48.371,0,0,1-6.984.008,48.226,48.226,0,0,1,6.969-.515A48.185,48.185,0,0,1,163.043,253.138Z" transform="translate(-149.091 -253.035)" fill="#263238"/>
          </g>
          <g id="Group_1405" data-name="Group 1405" transform="translate(41.78 44.889)">
            <path id="Path_1231" data-name="Path 1231" d="M157.94,253.206c0,.026-.212.068-.5-.144a3.088,3.088,0,0,1-.771-1.149l-.865-1.794a5.975,5.975,0,0,1-.457-1.139,1.219,1.219,0,0,1,.548-1.374.9.9,0,0,1,.848.038,1.687,1.687,0,0,1,.526.5,5.91,5.91,0,0,1,.563,1.095,6.7,6.7,0,0,1,.451,1.993,3.487,3.487,0,0,1-.228,1.847c-.084-.012.026-.712-.129-1.809a7.384,7.384,0,0,0-.527-1.851,6.042,6.042,0,0,0-.533-.983c-.213-.3-.519-.5-.746-.375a.737.737,0,0,0-.286.822,6.191,6.191,0,0,0,.4,1.047l.765,1.838a3.735,3.735,0,0,0,.576,1.149C157.769,253.132,157.95,253.164,157.94,253.206Z" transform="translate(-155.311 -247.517)" fill="#263238"/>
          </g>
          <g id="Group_1406" data-name="Group 1406" transform="translate(44.43 44.813)">
            <path id="Path_1232" data-name="Path 1232" d="M158.043,253.728a7.4,7.4,0,0,1,.622-2.034c.238-.613.543-1.333.915-2.118.186-.392.39-.8.609-1.22a2.321,2.321,0,0,1,.458-.653.835.835,0,0,1,.964-.176,1,1,0,0,1,.5.808,2.309,2.309,0,0,1-.1.791,5.808,5.808,0,0,1-.506,1.316,6.012,6.012,0,0,1-1.5,1.821,3.609,3.609,0,0,1-1.926.938,16.988,16.988,0,0,0,1.692-1.209,6.266,6.266,0,0,0,1.323-1.764,5.736,5.736,0,0,0,.438-1.219c.127-.436.125-.889-.154-1.033-.221-.152-.555.214-.747.613L160,249.782c-.391.765-.728,1.464-1.005,2.053A10.978,10.978,0,0,1,158.043,253.728Z" transform="translate(-158.032 -247.439)" fill="#263238"/>
          </g>
        </g>
        <path id="Path_1233" data-name="Path 1233" d="M134.507,223.079l2.751,18.579-1.781,3.26L133.3,238.6l.487-.087Z" transform="translate(-104.689 -156.733)" opacity="0.3"/>
        <g id="Group_1441" data-name="Group 1441" transform="translate(36.664 294.492)">
          <g id="Group_1440" data-name="Group 1440">
            <g id="Group_1410" data-name="Group 1410" transform="translate(0.218)">
              <g id="Group_1408" data-name="Group 1408">
                <path id="Path_1234" data-name="Path 1234" d="M157.472,459.463l.006-1.435-15.642-.682-.043,5.916.965.064c4.294.251,21.85.976,24.723.115C170.686,462.48,157.472,459.463,157.472,459.463Z" transform="translate(-141.793 -457.347)" fill="#e8505b"/>
              </g>
              <g id="Group_1409" data-name="Group 1409" transform="translate(0.017 1.329)" opacity="0.5">
                <path id="Path_1235" data-name="Path 1235" d="M147.437,463.194a5.4,5.4,0,0,0-1.976-3.325,5.25,5.25,0,0,0-3.634-1.142l-.017,4.35Z" transform="translate(-141.81 -458.712)" fill="#fff"/>
              </g>
            </g>
            <g id="Group_1411" data-name="Group 1411" transform="translate(0.218 3.82)">
              <path id="Path_1236" data-name="Path 1236" d="M163.928,461.27s4.63,1.351,4.049,2.112-18.349.7-26.184-.017l.026-.348,20.725.251S163.021,461.305,163.928,461.27Z" transform="translate(-141.793 -461.27)" fill="#fff" opacity="0.5"/>
            </g>
            <g id="Group_1413" data-name="Group 1413" transform="translate(0 5.55)">
              <g id="Group_1412" data-name="Group 1412">
                <path id="Path_1237" data-name="Path 1237" d="M141.569,463.054a1.405,1.405,0,0,0,.268.03l.768.049,2.827.132c2.389.094,5.691.181,9.339.2s6.951-.042,9.341-.116l2.829-.107.768-.043a1.511,1.511,0,0,0,.267-.027,1.428,1.428,0,0,0-.269-.011l-.769.007-2.83.048c-2.389.039-5.69.076-9.337.06s-6.946-.082-9.335-.142l-2.829-.072-.77-.014A1.431,1.431,0,0,0,141.569,463.054Z" transform="translate(-141.569 -463.046)" fill="#263238"/>
              </g>
            </g>
            <g id="Group_1415" data-name="Group 1415" transform="translate(20.938 3.63)">
              <g id="Group_1414" data-name="Group 1414">
                <path id="Path_1238" data-name="Path 1238" d="M163.1,463.507a4.113,4.113,0,0,1,1.5-2.428,2.514,2.514,0,0,0-1.5,2.428Z" transform="translate(-163.069 -461.074)" fill="#263238"/>
              </g>
            </g>
            <g id="Group_1417" data-name="Group 1417" transform="translate(16.374 2.421)">
              <g id="Group_1416" data-name="Group 1416">
                <path id="Path_1239" data-name="Path 1239" d="M158.39,461.127c.044.028.264-.239.493-.6s.378-.669.334-.7-.265.239-.493.6S158.346,461.1,158.39,461.127Z" transform="translate(-158.382 -459.833)" fill="#263238"/>
              </g>
            </g>
            <g id="Group_1419" data-name="Group 1419" transform="translate(15.119 2.17)">
              <g id="Group_1418" data-name="Group 1418">
                <path id="Path_1240" data-name="Path 1240" d="M157.1,460.449c.035.039.281-.124.55-.363s.459-.466.425-.505-.281.125-.55.364S157.064,460.411,157.1,460.449Z" transform="translate(-157.094 -459.575)" fill="#263238"/>
              </g>
            </g>
            <g id="Group_1421" data-name="Group 1421" transform="translate(14.332 1.49)">
              <g id="Group_1420" data-name="Group 1420">
                <path id="Path_1241" data-name="Path 1241" d="M156.286,458.96a1.811,1.811,0,0,0,.811.106.412.412,0,1,0-.811-.106Z" transform="translate(-156.286 -458.877)" fill="#263238"/>
              </g>
            </g>
            <g id="Group_1423" data-name="Group 1423" transform="translate(14.062 0.52)">
              <g id="Group_1422" data-name="Group 1422">
                <path id="Path_1242" data-name="Path 1242" d="M156.009,457.9a2.289,2.289,0,0,0,1.841.146,5.031,5.031,0,0,0-.92-.067A5.12,5.12,0,0,0,156.009,457.9Z" transform="translate(-156.008 -457.881)" fill="#263238"/>
              </g>
            </g>
            <g id="Group_1425" data-name="Group 1425" transform="translate(16.914 0.968)">
              <g id="Group_1424" data-name="Group 1424">
                <path id="Path_1243" data-name="Path 1243" d="M158.937,459.733a2.852,2.852,0,0,0,1,0A5.754,5.754,0,0,0,161,459.5a2.917,2.917,0,0,0,.611-.248.543.543,0,0,0,.248-.31.394.394,0,0,0-.15-.4,1.834,1.834,0,0,0-2.27.528,1.772,1.772,0,0,0-.328.666.56.56,0,0,0-.027.27,2.829,2.829,0,0,1,.459-.851,1.813,1.813,0,0,1,.856-.552,1.553,1.553,0,0,1,1.192.086c.158.118.1.3-.082.409a2.97,2.97,0,0,1-.563.239,6.859,6.859,0,0,1-1.03.264C159.318,459.7,158.937,459.7,158.937,459.733Z" transform="translate(-158.937 -458.341)" fill="#263238"/>
              </g>
            </g>
            <g id="Group_1427" data-name="Group 1427" transform="translate(15.873 0.472)">
              <g id="Group_1426" data-name="Group 1426">
                <path id="Path_1244" data-name="Path 1244" d="M159.168,459.77a.988.988,0,0,0,.118-.693,1.643,1.643,0,0,0-.271-.732,1,1,0,0,0-.831-.512.4.4,0,0,0-.31.461,1.084,1.084,0,0,0,.168.447,3.012,3.012,0,0,0,.469.607,1.439,1.439,0,0,0,.572.407c.018-.024-.2-.18-.473-.5a3.487,3.487,0,0,1-.417-.6c-.136-.211-.229-.591.021-.636.251-.023.505.227.657.426a1.629,1.629,0,0,1,.281.652A3.669,3.669,0,0,1,159.168,459.77Z" transform="translate(-157.868 -457.831)" fill="#263238"/>
              </g>
            </g>
            <g id="Group_1429" data-name="Group 1429" transform="translate(0.333 1.199)">
              <g id="Group_1428" data-name="Group 1428">
                <path id="Path_1245" data-name="Path 1245" d="M141.911,458.68c0,.035.446-.041,1.149.045a4.875,4.875,0,0,1,4.064,3.264c.236.668.257,1.116.292,1.112a.886.886,0,0,0,0-.314,4.04,4.04,0,0,0-.167-.84,4.732,4.732,0,0,0-4.177-3.355,4.058,4.058,0,0,0-.856.019A.876.876,0,0,0,141.911,458.68Z" transform="translate(-141.911 -458.578)" fill="#263238"/>
              </g>
            </g>
            <g id="Group_1431" data-name="Group 1431" transform="translate(7.824 4.299)">
              <g id="Group_1430" data-name="Group 1430">
                <path id="Path_1246" data-name="Path 1246" d="M149.6,461.78a12.778,12.778,0,0,0,4.549.024c-.006-.055-1.022.012-2.275,0S149.609,461.726,149.6,461.78Z" transform="translate(-149.603 -461.761)" fill="#263238"/>
              </g>
            </g>
            <g id="Group_1433" data-name="Group 1433" transform="translate(4.768 4.279)">
              <g id="Group_1432" data-name="Group 1432">
                <path id="Path_1247" data-name="Path 1247" d="M146.472,461.747c-.038.038.083.215.186.449s.159.44.212.437.081-.245-.041-.514S146.506,461.709,146.472,461.747Z" transform="translate(-146.465 -461.741)" fill="#263238"/>
              </g>
            </g>
            <g id="Group_1435" data-name="Group 1435" transform="translate(3.623 2.843)">
              <g id="Group_1434" data-name="Group 1434">
                <path id="Path_1248" data-name="Path 1248" d="M145.3,460.274c-.037.036.063.2.223.362s.321.267.358.231-.063-.2-.223-.362S145.335,460.237,145.3,460.274Z" transform="translate(-145.289 -460.266)" fill="#263238"/>
              </g>
            </g>
            <g id="Group_1437" data-name="Group 1437" transform="translate(1.988 2.103)">
              <g id="Group_1436" data-name="Group 1436">
                <path id="Path_1249" data-name="Path 1249" d="M143.611,459.594c.011.054.217.053.445.133s.393.2.434.169-.089-.25-.373-.347S143.6,459.546,143.611,459.594Z" transform="translate(-143.61 -459.506)" fill="#263238"/>
              </g>
            </g>
            <g id="Group_1439" data-name="Group 1439" transform="translate(0.816 1.843)">
              <g id="Group_1438" data-name="Group 1438">
                <path id="Path_1250" data-name="Path 1250" d="M142.41,459.274c-.019.049.07.13.2.179s.249.053.268,0-.07-.129-.2-.179S142.428,459.226,142.41,459.274Z" transform="translate(-142.407 -459.239)" fill="#263238"/>
              </g>
            </g>
          </g>
        </g>
        <g id="Group_1475" data-name="Group 1475" transform="translate(0 286.893)">
          <g id="Group_1474" data-name="Group 1474" transform="translate(0 0)">
            <g id="Group_1444" data-name="Group 1444" transform="translate(0.053)">
              <g id="Group_1442" data-name="Group 1442">
                <path id="Path_1251" data-name="Path 1251" d="M119.834,457.879l.594-1.306-13.992-7.029-2.462,5.38.854.454c3.814,1.989,19.533,9.84,22.506,10.232C130.653,466.044,119.834,457.879,119.834,457.879Z" transform="translate(-103.975 -449.544)" fill="#e8505b"/>
              </g>
              <g id="Group_1443" data-name="Group 1443" transform="translate(0.106 1.222)" opacity="0.5">
                <path id="Path_1252" data-name="Path 1252" d="M109.169,457.172a5.394,5.394,0,0,0-.44-3.842,5.243,5.243,0,0,0-2.848-2.531l-1.8,3.962Z" transform="translate(-104.084 -450.799)" fill="#fff"/>
              </g>
            </g>
            <g id="Group_1445" data-name="Group 1445" transform="translate(0.053 5.073)">
              <path id="Path_1253" data-name="Path 1253" d="M125.026,462.215s3.67,3.129,2.829,3.586-17.025-6.88-23.88-10.741l.167-.307,18.8,8.719S124.185,461.876,125.026,462.215Z" transform="translate(-103.975 -454.753)" fill="#fff" opacity="0.5"/>
            </g>
            <g id="Group_1447" data-name="Group 1447" transform="translate(0 4.962)">
              <g id="Group_1446" data-name="Group 1446">
                <path id="Path_1254" data-name="Path 1254" d="M103.921,454.64a1.387,1.387,0,0,0,.232.137l.681.359,2.526,1.279c2.141,1.065,5.117,2.5,8.438,4.006s6.359,2.809,8.569,3.72l2.626,1.06.719.277a1.276,1.276,0,0,0,.255.084,1.5,1.5,0,0,0-.242-.119l-.705-.31-2.6-1.115c-2.2-.943-5.223-2.261-8.544-3.77s-6.3-2.92-8.457-3.954l-2.552-1.224-.7-.328A1.478,1.478,0,0,0,103.921,454.64Z" transform="translate(-103.921 -454.639)" fill="#263238"/>
              </g>
            </g>
            <g id="Group_1449" data-name="Group 1449" transform="translate(18.914 12.39)">
              <g id="Group_1448" data-name="Group 1448">
                <path id="Path_1255" data-name="Path 1255" d="M123.348,463.886a4.112,4.112,0,0,1,2.364-1.6,2.513,2.513,0,0,0-2.364,1.6Z" transform="translate(-123.342 -462.266)" fill="#263238"/>
              </g>
            </g>
            <g id="Group_1451" data-name="Group 1451" transform="translate(15.697 9.145)">
              <g id="Group_1450" data-name="Group 1450">
                <path id="Path_1256" data-name="Path 1256" d="M120.041,459.782c.028.043.339-.109.693-.342s.618-.455.59-.5-.339.109-.693.341S120.013,459.738,120.041,459.782Z" transform="translate(-120.039 -458.934)" fill="#263238"/>
              </g>
            </g>
            <g id="Group_1453" data-name="Group 1453" transform="translate(14.826 8.452)">
              <g id="Group_1452" data-name="Group 1452">
                <path id="Path_1257" data-name="Path 1257" d="M119.145,458.636c.016.05.307,0,.651-.106s.61-.238.594-.287-.307,0-.651.107S119.129,458.586,119.145,458.636Z" transform="translate(-119.144 -458.223)" fill="#263238"/>
              </g>
            </g>
            <g id="Group_1455" data-name="Group 1455" transform="translate(14.706 7.188)">
              <g id="Group_1454" data-name="Group 1454">
                <path id="Path_1258" data-name="Path 1258" d="M119.023,456.936c-.022.047.29.24.7.43a1.821,1.821,0,0,0,.777.258c.021-.047-.29-.24-.7-.429A1.82,1.82,0,0,0,119.023,456.936Z" transform="translate(-119.022 -456.925)" fill="#263238"/>
              </g>
            </g>
            <g id="Group_1457" data-name="Group 1457" transform="translate(14.883 6.138)">
              <g id="Group_1456" data-name="Group 1456">
                <path id="Path_1259" data-name="Path 1259" d="M119.206,455.851c-.035.035.252.361.717.615a1.589,1.589,0,0,0,.9.273,69.759,69.759,0,0,1-1.621-.887Z" transform="translate(-119.203 -455.846)" fill="#263238"/>
              </g>
            </g>
            <g id="Group_1459" data-name="Group 1459" transform="translate(16.74 8.357)">
              <g id="Group_1458" data-name="Group 1458">
                <path id="Path_1260" data-name="Path 1260" d="M121.11,458.742a2.882,2.882,0,0,0,.913.407,5.9,5.9,0,0,0,1.067.226,2.9,2.9,0,0,0,.658.022.536.536,0,0,0,.354-.18.393.393,0,0,0,.027-.427,1.833,1.833,0,0,0-2.288-.448,1.8,1.8,0,0,0-.573.473c-.107.139-.144.229-.134.235a2.831,2.831,0,0,1,.766-.589,1.808,1.808,0,0,1,1.008-.152,1.547,1.547,0,0,1,1.052.566c.1.172-.037.317-.242.34a2.922,2.922,0,0,1-.612-.014,6.829,6.829,0,0,1-1.049-.181C121.47,458.871,121.123,458.714,121.11,458.742Z" transform="translate(-121.11 -458.125)" fill="#263238"/>
              </g>
            </g>
            <g id="Group_1461" data-name="Group 1461" transform="translate(16.065 6.948)">
              <g id="Group_1460" data-name="Group 1460">
                <path id="Path_1261" data-name="Path 1261" d="M121.308,458.857a.989.989,0,0,0,.391-.584,1.64,1.64,0,0,0,.053-.779,1,1,0,0,0-.547-.807c-.224-.069-.745.38-.781.548-.056.168.263.081.279.222a3.048,3.048,0,0,0,.18.746,1.451,1.451,0,0,0,.354.6c.026-.015-.107-.245-.228-.648a3.5,3.5,0,0,1-.133-.72c-.038-.249.033-.634.28-.572.238.082.368.414.425.659a1.652,1.652,0,0,1-.011.709A3.648,3.648,0,0,1,121.308,458.857Z" transform="translate(-120.417 -456.679)" fill="#263238"/>
              </g>
            </g>
            <g id="Group_1463" data-name="Group 1463" transform="translate(2.048 1.213)">
              <g id="Group_1462" data-name="Group 1462">
                <path id="Path_1262" data-name="Path 1262" d="M106.024,450.793c-.012.033.424.145,1.029.511a4.874,4.874,0,0,1,2.371,4.642c-.059.705-.223,1.123-.19,1.134a.9.9,0,0,0,.131-.285,4.135,4.135,0,0,0,.192-.835,4.732,4.732,0,0,0-2.437-4.772,4.093,4.093,0,0,0-.789-.333A.882.882,0,0,0,106.024,450.793Z" transform="translate(-106.024 -450.789)" fill="#263238"/>
              </g>
            </g>
            <g id="Group_1465" data-name="Group 1465" transform="translate(7.645 7.034)">
              <g id="Group_1464" data-name="Group 1464">
                <path id="Path_1263" data-name="Path 1263" d="M111.772,456.77a12.749,12.749,0,0,0,4.139,1.885c.018-.052-.936-.407-2.075-.929S111.8,456.722,111.772,456.77Z" transform="translate(-111.771 -456.767)" fill="#263238"/>
              </g>
            </g>
            <g id="Group_1467" data-name="Group 1467" transform="translate(4.851 5.757)">
              <g id="Group_1466" data-name="Group 1466">
                <path id="Path_1264" data-name="Path 1264" d="M108.929,455.457c-.051.019-.014.23-.016.485s-.035.467.016.486.174-.191.173-.486S108.975,455.436,108.929,455.457Z" transform="translate(-108.902 -455.455)" fill="#263238"/>
              </g>
            </g>
            <g id="Group_1469" data-name="Group 1469" transform="translate(4.396 3.979)">
              <g id="Group_1468" data-name="Group 1468">
                <path id="Path_1265" data-name="Path 1265" d="M108.46,453.631c-.049.018-.024.207.056.423s.183.375.232.356.024-.206-.056-.422S108.509,453.613,108.46,453.631Z" transform="translate(-108.435 -453.63)" fill="#263238"/>
              </g>
            </g>
            <g id="Group_1471" data-name="Group 1471" transform="translate(3.193 2.681)">
              <g id="Group_1470" data-name="Group 1470">
                <path id="Path_1266" data-name="Path 1266" d="M107.2,452.322c-.012.053.177.135.353.3s.275.347.326.331.022-.265-.2-.469S107.206,452.272,107.2,452.322Z" transform="translate(-107.199 -452.297)" fill="#263238"/>
              </g>
            </g>
            <g id="Group_1473" data-name="Group 1473" transform="translate(2.242 1.93)">
              <g id="Group_1472" data-name="Group 1472">
                <path id="Path_1267" data-name="Path 1267" d="M106.236,451.538c-.037.036.011.146.108.244s.205.15.243.114-.011-.147-.108-.245S106.273,451.5,106.236,451.538Z" transform="translate(-106.223 -451.526)" fill="#263238"/>
              </g>
            </g>
          </g>
        </g>
        <g id="Group_1477" data-name="Group 1477" transform="translate(61.071 39.004)">
          <path id="Path_1268" data-name="Path 1268" d="M166.745,208.554c.13-1.3.387-3.056.447-3.865.183-2.464.6-3.013,1.423-2.647,1.334.6-.063,6.895.9,6.979.515.046,1.207-3.637,1.482-5.453.3-1.943.5-4.573.621-5.51.135-1.033,1.893-1.269,1.829.564-.066,1.894-.157,7.113.285,7.318,1.221.566,1.175-6.884,1.466-9.32a3.157,3.157,0,0,1,.337-1.187.916.916,0,0,1,1.681.382c.323,2.375-.15,8.791.03,9.831.055.318.853.48,1.05-.584.264-1.429.146-8.264,1.552-7.658,1.545.665-.115,8.753.517,9.577,1.176,1.534,1.309-7.255,2.77-6.874.739.193.723.469-.027,5.162-.345,2.159-1.79,6.84-2.576,10.846,3.387,11.95,9.316,34.333,8.449,41.711-.5,4.23-10.305,7.151-14.512,4s-7.135-17.2-7.135-17.2l5.056-2.99-4.943-27.075h0c-.207-.568-.3-2.043-.6-2.742A8.225,8.225,0,0,1,166.745,208.554Z" transform="translate(-166.63 -195.004)" fill="#ffbe9d"/>
          <g id="Group_1476" data-name="Group 1476" transform="translate(5.825 46.659)">
            <path id="Path_1269" data-name="Path 1269" d="M175.417,257.156a52.165,52.165,0,0,1-1.64-7.071,52.074,52.074,0,0,1-1.143-7.17,52.226,52.226,0,0,1,1.641,7.072A52.1,52.1,0,0,1,175.417,257.156Z" transform="translate(-172.611 -242.915)" fill="#eb996e"/>
          </g>
        </g>
        <g id="Group_1503" data-name="Group 1503" transform="translate(10.771)">
          <g id="Group_1501" data-name="Group 1501">
            <path id="Path_1270" data-name="Path 1270" d="M163.065,189.771a62.7,62.7,0,0,1,12.952-.523,4.727,4.727,0,0,0-2.618-6.779,3.991,3.991,0,0,1-1.538-.663,2.627,2.627,0,0,1-.347-2.579,3.907,3.907,0,0,0,.116-2.669c-.635-1.277-2.494-1.3-3.527-2.283-1.189-1.13-.911-3.041-1.136-4.667a6.928,6.928,0,0,0-5.914-5.753" transform="translate(-116.185 -155.185)" fill="#263238"/>
            <path id="Path_1271" data-name="Path 1271" d="M146.133,156.2a11.671,11.671,0,0,0-12.609,5.567c-1.287,2.349-1.946,5.375-4.342,6.573-1.464.732-3.192.549-4.822.7s-3.466.91-3.855,2.5c-.392,1.607.836,3.574-.249,4.824-.694.8-1.932.753-2.908,1.168-1.979.839-2.54,3.407-2.326,5.545s.925,4.3.422,6.392a27.926,27.926,0,0,0,6.645,1.455,9.39,9.39,0,0,0,6.42-1.8,2.387,2.387,0,0,0,1.232,2.374,5.982,5.982,0,0,0,2.741.669,27.035,27.035,0,0,0,9.241-1.029" transform="translate(-114.981 -154.978)" fill="#263238"/>
            <g id="Group_1497" data-name="Group 1497" transform="translate(14.476 0.109)">
              <g id="Group_1490" data-name="Group 1490">
                <g id="Group_1478" data-name="Group 1478" transform="translate(9.96 2.909)">
                  <path id="Path_1272" data-name="Path 1272" d="M157.477,201.636c-.062-4.06-.122-8.077-.122-8.077s6.568-.644,7.035-7.316.231-22.073.231-22.073l-11.885-6.119L140.073,168.3l.516,33.74a8.447,8.447,0,0,0,8.865,8.163h0A8.447,8.447,0,0,0,157.477,201.636Z" transform="translate(-140.073 -158.052)" fill="#ffbe9d"/>
                </g>
                <g id="Group_1482" data-name="Group 1482" transform="translate(30.612 18.447)">
                  <g id="Group_1479" data-name="Group 1479" transform="translate(0.808 1.113)">
                    <path id="Path_1273" data-name="Path 1273" d="M163.774,176.013a.833.833,0,1,1-.824-.863A.843.843,0,0,1,163.774,176.013Z" transform="translate(-162.109 -175.15)" fill="#263238"/>
                  </g>
                  <g id="Group_1481" data-name="Group 1481">
                    <g id="Group_1480" data-name="Group 1480">
                      <path id="Path_1274" data-name="Path 1274" d="M164.569,175.061c-.109.109-.718-.434-1.614-.493s-1.574.377-1.666.252c-.045-.055.069-.257.365-.462a2.168,2.168,0,0,1,2.618.191C164.538,174.795,164.621,175.012,164.569,175.061Z" transform="translate(-161.279 -174.007)" fill="#263238"/>
                    </g>
                  </g>
                </g>
                <g id="Group_1486" data-name="Group 1486" transform="translate(20.676 18.447)">
                  <g id="Group_1483" data-name="Group 1483" transform="translate(1.096 1.116)">
                    <path id="Path_1275" data-name="Path 1275" d="M153.867,176.016a.833.833,0,1,1-.824-.863A.843.843,0,0,1,153.867,176.016Z" transform="translate(-152.202 -175.153)" fill="#263238"/>
                  </g>
                  <g id="Group_1485" data-name="Group 1485">
                    <g id="Group_1484" data-name="Group 1484">
                      <path id="Path_1276" data-name="Path 1276" d="M154.365,175.061c-.108.109-.718-.434-1.614-.493s-1.573.377-1.665.253c-.045-.056.068-.258.365-.463a2.168,2.168,0,0,1,2.618.191C154.334,174.795,154.418,175.012,154.365,175.061Z" transform="translate(-151.076 -174.007)" fill="#263238"/>
                    </g>
                  </g>
                </g>
                <g id="Group_1488" data-name="Group 1488" transform="translate(27.044 18.987)">
                  <g id="Group_1487" data-name="Group 1487">
                    <path id="Path_1277" data-name="Path 1277" d="M157.689,182.589a5.5,5.5,0,0,1,1.468-.182c.23-.01.448-.044.495-.208a1.347,1.347,0,0,0-.122-.737q-.283-.911-.6-1.913a34.457,34.457,0,0,1-1.308-4.986,34.133,34.133,0,0,1,1.677,4.868c.2.671.387,1.31.567,1.922a1.527,1.527,0,0,1,.077.97.573.573,0,0,1-.392.333,1.5,1.5,0,0,1-.391.031A5.5,5.5,0,0,1,157.689,182.589Z" transform="translate(-157.615 -174.562)" fill="#263238"/>
                  </g>
                </g>
                <g id="Group_1489" data-name="Group 1489">
                  <path id="Path_1278" data-name="Path 1278" d="M129.855,174.332c.073-.473-.064.513.029-.229v0h0a25.581,25.581,0,0,1,.43-2.7c3.695-13.887,15.645-16.358,18-16.333,2.529.026,9.766-.186,13.793,4.857a13.236,13.236,0,0,1,2.3,13.25h0l-10.543-1.866c.781-2.626-.293-5.906-.9-7.437l-.06-.058c-2,9.973-12.752,12.213-12.752,12.213l-.126,14.62c-7.832-1.134-10.357-10.53-10.174-16.311Z" transform="translate(-129.846 -155.065)" fill="#263238"/>
                </g>
              </g>
              <g id="Group_1496" data-name="Group 1496" transform="translate(5.593 21.536)">
                <g id="Group_1492" data-name="Group 1492">
                  <g id="Group_1491" data-name="Group 1491">
                    <path id="Path_1279" data-name="Path 1279" d="M140.437,182.674c.064-1,.529-3.4.194-4.346s-1.385-1.159-2.541-1.148a2.6,2.6,0,0,0-2.5,2.5A3.4,3.4,0,0,0,137,182.606a3.825,3.825,0,0,0,3.336.187" transform="translate(-135.589 -177.179)" fill="#ffbe9d"/>
                  </g>
                </g>
                <g id="Group_1495" data-name="Group 1495" transform="translate(1.484 1.44)">
                  <g id="Group_1494" data-name="Group 1494">
                    <g id="Group_1493" data-name="Group 1493">
                      <path id="Path_1280" data-name="Path 1280" d="M139.23,181.4c-.035-.067-.328.072-.749-.069a1.349,1.349,0,0,1-.865-1.3,1.015,1.015,0,0,1,.237-.795.9.9,0,0,1,.66-.177c.45.052.764.18.792.1.02-.05-.195-.285-.728-.454a1.186,1.186,0,0,0-1.015.168,1.378,1.378,0,0,0-.447,1.173,1.875,1.875,0,0,0,.418,1.137,1.392,1.392,0,0,0,.872.494C139,181.749,139.278,181.434,139.23,181.4Z" transform="translate(-137.113 -178.657)" fill="#eb996e"/>
                    </g>
                  </g>
                </g>
              </g>
            </g>
            <g id="Group_1498" data-name="Group 1498" transform="translate(41.086 28.822)">
              <path id="Path_1281" data-name="Path 1281" d="M157.623,184.77c-.048-.042.167-.3.623-.2a.789.789,0,0,1,.571.559.894.894,0,0,1-.315.947.879.879,0,0,1-1,.006.749.749,0,0,1-.32-.742c.092-.469.438-.543.448-.479.039.059-.121.222-.091.5a.4.4,0,0,0,.212.326.454.454,0,0,0,.452-.019.472.472,0,0,0,.16-.431.452.452,0,0,0-.24-.33C157.875,184.768,157.655,184.834,157.623,184.77Z" transform="translate(-157.169 -184.548)" fill="#263238"/>
            </g>
            <g id="Group_1499" data-name="Group 1499" transform="translate(34.72 16.64)">
              <path id="Path_1282" data-name="Path 1282" d="M154.874,172.371c-.032.145-1.014,0-2.165.272-1.155.253-1.977.807-2.068.69-.1-.09.666-.9,1.956-1.185A2.753,2.753,0,0,1,154.874,172.371Z" transform="translate(-150.632 -172.04)" fill="#263238"/>
            </g>
            <g id="Group_1500" data-name="Group 1500" transform="translate(22.441)">
              <path id="Path_1283" data-name="Path 1283" d="M150.229,155.158a9.094,9.094,0,0,1-1.1,0,9.037,9.037,0,0,0-2.885.564,10.384,10.384,0,0,0-3.641,2.34,12.817,12.817,0,0,0-2.848,4.479,25.076,25.076,0,0,0-1.3,9.656c.044,1.178.081,2.18.111,3a4.661,4.661,0,0,1-.01,1.1,4.575,4.575,0,0,1-.187-1.089c-.085-.705-.193-1.727-.273-3a32.284,32.284,0,0,1,.014-4.477,19.055,19.055,0,0,1,1.175-5.377,12.846,12.846,0,0,1,2.994-4.631,10.337,10.337,0,0,1,3.85-2.344,8.19,8.19,0,0,1,3.006-.423,5.416,5.416,0,0,1,.818.107C150.137,155.112,150.231,155.141,150.229,155.158Z" transform="translate(-138.025 -154.953)" fill="#455a64"/>
            </g>
          </g>
          <g id="Group_1502" data-name="Group 1502" transform="translate(32.645 35.112)">
            <path id="Path_1284" data-name="Path 1284" d="M158.3,194.275a3.966,3.966,0,0,1-1.569.292,11.062,11.062,0,0,1-3.834-.442,8.718,8.718,0,0,1-3.388-1.864c-.736-.676-1.045-1.217-1-1.25.063-.053.466.4,1.228.975a10.382,10.382,0,0,0,3.306,1.655A23.946,23.946,0,0,0,158.3,194.275Z" transform="translate(-148.502 -191.007)" fill="#eb996e"/>
          </g>
        </g>
        <g id="Group_1506" data-name="Group 1506" transform="translate(12.929 38.984)">
          <path id="Path_1285" data-name="Path 1285" d="M125.173,237.445l7.705.427a38.736,38.736,0,0,0,2.179,6.317c6.2-10.765,11.011-25.188,12.2-30.986-.173-.579-.38-1.219-.637-1.935a8.232,8.232,0,0,1,.1-3.259c.207-1.291.569-3.027.677-3.831.331-2.449.726-2.834,1.58-2.557,1.162.377-.476,6.879.476,7.021.512.076,1.137-2.152,1.32-3.98s1.008-7.45,1.612-7.825c.885-.549,1.658.32,1.434,2.141-.226,1.842-.511,7.335.455,7.409s1.75-9.248,1.75-9.248-.15-2.028.968-1.979c2.018.087.441,9.914.269,10.845-.121.648.927.766,1.019.063.1-.723.582-9.321,2.636-9.252,1.576.053-1.221,8.1-.337,9.963s1.5-6.334,3.005-6.221c.56.043.975.152-.056,4.791a104.268,104.268,0,0,1-3.6,10.874c-2.385,12.865-12.853,54.02-29.265,46.487-9.184-4.215-13.469-25.086-13.469-25.086Z" transform="translate(-117.197 -194.987)" fill="#ffbe9d"/>
          <g id="Group_1505" data-name="Group 1505" transform="translate(17.848)">
            <g id="Group_1504" data-name="Group 1504">
              <path id="Path_1286" data-name="Path 1286" d="M158.238,206.535a.5.5,0,0,1-.213-.029.476.476,0,0,1-.335-.514c.02-.552.108-1.358.236-2.4a34.406,34.406,0,0,0,.409-3.793c.013-.746-.007-1.546-.05-2.4a8.2,8.2,0,0,0-.13-1.283c-.07-.4-.34-.864-.652-.809l-.034.007h-.015c-.317-.015-.565.232-.666.61a3.484,3.484,0,0,0-.117,1.192v.028a72.165,72.165,0,0,1-.952,7.434c-.071.332-.145.667-.248,1a4.9,4.9,0,0,1-.186.509,1.539,1.539,0,0,1-.151.264.483.483,0,0,1-.372.234.665.665,0,0,1-.56-.467,2.746,2.746,0,0,1-.167-.547,8.134,8.134,0,0,1-.143-1.087,32.371,32.371,0,0,1,.059-4.453,10.24,10.24,0,0,0,.093-2.229,1.235,1.235,0,0,0-.438-.831.477.477,0,0,0-.383-.049.863.863,0,0,0-.211.092.284.284,0,0,0-.1.131,11.1,11.1,0,0,0-.617,2.238c-.158.788-.3,1.59-.421,2.4s-.241,1.633-.337,2.461a17.242,17.242,0,0,1-.41,2.533,8.725,8.725,0,0,1-.4,1.258,2.291,2.291,0,0,1-.367.629.529.529,0,0,1-.533.194.57.57,0,0,1-.363-.4,4.418,4.418,0,0,1-.094-1.386c.019-.442.055-.878.092-1.315.064-.75.135-1.492.162-2.223a7.627,7.627,0,0,0-.027-1.07,1.7,1.7,0,0,0-.108-.465.381.381,0,0,0-.086-.132c-.014-.015-.022-.008-.034-.022l-.116-.033c-.59-.244-.787.578-.944,1.24-.137.69-.224,1.4-.363,2.106-.234,1.4-.534,2.8-.689,4.135a4.777,4.777,0,0,0,.078,1.917q.316.966.625,1.91l.019.057-.014.059a102.956,102.956,0,0,1-3.983,12.873c-1.41,3.8-2.818,7.082-4.063,9.767s-2.353,4.758-3.121,6.17l-.926,1.592a3.7,3.7,0,0,1-.345.535,3.912,3.912,0,0,1,.274-.575l.859-1.626c.724-1.434,1.792-3.52,2.992-6.218s2.575-5.985,3.952-9.784a105.71,105.71,0,0,0,3.894-12.83l0,.117q-.308-.932-.623-1.884a5.177,5.177,0,0,1-.11-2.13c.16-1.393.451-2.745.684-4.155.136-.7.221-1.411.365-2.141a4.142,4.142,0,0,1,.363-1.1,1.066,1.066,0,0,1,.491-.5,1.1,1.1,0,0,1,.7-.028l.149.043a.779.779,0,0,1,.2.115.876.876,0,0,1,.225.317,2.166,2.166,0,0,1,.148.608,7.988,7.988,0,0,1,.031,1.148c-.026.756-.1,1.5-.163,2.25-.037.434-.073.867-.092,1.293a4.17,4.17,0,0,0,.066,1.2c.022.094.066.076.016.122l0,0c0-.03-.008.045,0,.032v-.009a.059.059,0,0,0,0-.03c0-.008-.024-.04-.013-.042a.137.137,0,0,0,.054-.049,1.868,1.868,0,0,0,.272-.483,8.151,8.151,0,0,0,.378-1.181,16.831,16.831,0,0,0,.4-2.469c.1-.838.216-1.663.344-2.48s.268-1.625.43-2.423a11.112,11.112,0,0,1,.676-2.378.8.8,0,0,1,.28-.313,1.39,1.39,0,0,1,.332-.14.973.973,0,0,1,.753.105,1.669,1.669,0,0,1,.657,1.159,4.237,4.237,0,0,1,.016,1.219c-.045.381-.082.753-.111,1.129a32.1,32.1,0,0,0-.081,4.385,7.928,7.928,0,0,0,.129,1.028,2.319,2.319,0,0,0,.135.461.591.591,0,0,0,.1.167c.032.074.061-.017.057.1-.045-.091,0-.04.033-.117a1.181,1.181,0,0,0,.106-.184,4.6,4.6,0,0,0,.168-.457c.1-.316.174-.644.246-.967a74.025,74.025,0,0,0,1.006-7.376v.028a3.821,3.821,0,0,1,.145-1.324,1.348,1.348,0,0,1,.349-.592.923.923,0,0,1,.659-.241l-.049.006a.769.769,0,0,1,.767.368,1.917,1.917,0,0,1,.274.69,8.367,8.367,0,0,1,.119,1.338c.032.856.039,1.662.014,2.416a31.826,31.826,0,0,1-.491,3.811c-.155,1.034-.271,1.838-.32,2.378a.422.422,0,0,0,.259.466C158.165,206.516,158.239,206.524,158.238,206.535Z" transform="translate(-135.524 -194.982)" fill="#eb996e"/>
            </g>
          </g>
        </g>
      </g>
    </g>
    <g id="Group_1543" data-name="Group 1543" transform="translate(193.81 221.488)">
      <g id="Group_1534" data-name="Group 1534" transform="translate(21.7 9.033)">
        <path id="Path_1295" data-name="Path 1295" d="M257.71,181.178l-26.189,59.988a11.321,11.321,0,0,0,11.516,15.794c18.2-1.845,45.46-4.656,64.357-6.608a12.033,12.033,0,0,0,8.291-19.319L275.551,178.98A10.443,10.443,0,0,0,257.71,181.178Z" transform="translate(-230.558 -174.912)" fill="#ce082e"/>
        <g id="Group_1533" data-name="Group 1533" transform="translate(3.374 4.345)">
          <path id="Path_1296" data-name="Path 1296" d="M259.149,185.325a1.886,1.886,0,0,1,.216-.586c.088-.187.183-.429.331-.7l.586-.9c.238-.329.56-.654.888-1.037a10.772,10.772,0,0,1,1.283-1.044,9.214,9.214,0,0,1,3.816-1.546,9.863,9.863,0,0,1,5.151.5A10,10,0,0,1,274,181.535l.6.512c.186.189.36.394.544.594.381.4.694.821,1.028,1.246l9.049,11.551c6.678,8.587,14.626,18.8,23.45,30.147q1.649,2.136,3.34,4.322a11.461,11.461,0,0,1,2.257,5.438,11.554,11.554,0,0,1-10.355,13.07l-5.98.619-12.22,1.258-24.1,2.459-11.458,1.158-2.793.28-1.386.138-1.477.048A10.67,10.67,0,0,1,239,252.645a11,11,0,0,1-4.973-9.5c.045-.452.045-.909.13-1.35s.179-.881.292-1.312l.454-1.252c.16-.4.333-.765.5-1.147l1.969-4.46,7.2-16.261c4.413-9.936,8.008-17.967,10.525-23.5l2.931-6.359a14.635,14.635,0,0,1,1.118-2.176,14.824,14.824,0,0,1-.837,2.3l-2.67,6.473c-2.349,5.609-5.794,13.7-10.081,23.7l-7.03,16.336q-.95,2.2-1.932,4.476c-.16.378-.338.764-.484,1.138l-.392,1.107c-.1.38-.163.768-.248,1.154s-.065.787-.1,1.181a9.64,9.64,0,0,0,4.4,8.282,9.258,9.258,0,0,0,4.788,1.48l1.29-.047,1.384-.144,2.791-.293,11.455-1.195,24.093-2.489,12.219-1.25,5.982-.61a10.082,10.082,0,0,0,9.069-11.384,10.01,10.01,0,0,0-1.957-4.765l-3.31-4.329L284.377,196.1l-8.87-11.689c-.326-.429-.642-.866-.974-1.226-.166-.187-.321-.38-.489-.558l-.546-.48a8.814,8.814,0,0,0-7.137-2.041,8.919,8.919,0,0,0-3.66,1.338,10.846,10.846,0,0,0-1.269.942c-.331.352-.66.648-.91.951l-.63.831c-.166.249-.281.475-.39.648C259.293,185.16,259.172,185.336,259.149,185.325Z" transform="translate(-234.022 -179.374)" fill="#fff"/>
        </g>
        <path id="Path_1297" data-name="Path 1297" d="M264.13,199.449l3.909,23.906a3.923,3.923,0,0,0,4.026,3.287h0a3.922,3.922,0,0,0,3.768-3.876l.273-24.443a3.079,3.079,0,0,0-3.425-3.093l-5.86.664A3.079,3.079,0,0,0,264.13,199.449Z" transform="translate(-231.434 -175.443)" fill="#fff"/>
        <path id="Path_1298" data-name="Path 1298" d="M279.378,239.587a5.9,5.9,0,1,1-4.459-7.053A5.9,5.9,0,0,1,279.378,239.587Z" transform="translate(-231.529 -176.414)" fill="#fff"/>
      </g>
      <g id="Group_1536" data-name="Group 1536">
        <path id="Path_1299" data-name="Path 1299" d="M229.266,166.745l-19.5,17.835a4.571,4.571,0,0,0,1.658,7.716c7.015,2.3,17.535,5.739,24.826,8.118a4.859,4.859,0,0,0,6.228-5.767l-6.269-25.787A4.215,4.215,0,0,0,229.266,166.745Z" transform="translate(-208.276 -165.637)" fill="#ce082e"/>
        <g id="Group_1535" data-name="Group 1535" transform="translate(1.234 1.564)" opacity="0.5">
          <path id="Path_1300" data-name="Path 1300" d="M229.135,168.5c-.022-.02.164-.334.733-.7a3.807,3.807,0,0,1,2.892-.446,4.145,4.145,0,0,1,1.927,1.048,4.621,4.621,0,0,1,1.212,2.3c.446,1.694.951,3.612,1.509,5.73l3.8,14.945q.263,1.059.532,2.144a5.044,5.044,0,0,1-.058,2.6,5.1,5.1,0,0,1-6.518,3.427l-2.309-.751-4.715-1.538L218.85,194.2l-4.414-1.463-1.076-.358-.534-.177-.6-.248a4.718,4.718,0,0,1-1.912-1.7,4.841,4.841,0,0,1-.285-4.721,5.171,5.171,0,0,1,.651-.993l.406-.42.377-.342,1.467-1.314,5.36-4.777c3.286-2.912,5.963-5.249,7.836-6.838a18.376,18.376,0,0,1,3.013-2.354,18.5,18.5,0,0,1-2.614,2.791c-1.75,1.724-4.316,4.182-7.509,7.195l-5.236,4.914-1.439,1.343-.36.34-.292.313a3.916,3.916,0,0,0-.455.724,3.486,3.486,0,0,0,.254,3.374,3.318,3.318,0,0,0,1.359,1.175l.432.172.535.171,1.079.347,4.425,1.428,9.3,3.024,4.713,1.546,2.306.759a3.631,3.631,0,0,0,4.658-2.408,3.619,3.619,0,0,0,.06-1.86l-.5-2.138c-1.31-5.645-2.489-10.733-3.483-15.022-.477-2.138-.91-4.075-1.29-5.784a3.9,3.9,0,0,0-.9-2,3.614,3.614,0,0,0-1.562-.982,3.712,3.712,0,0,0-2.6.145C229.441,168.318,229.182,168.552,229.135,168.5Z" transform="translate(-209.543 -167.243)" fill="#fff"/>
        </g>
        <path id="Path_1301" data-name="Path 1301" d="M228.873,174.4l-2.479,9.461a1.584,1.584,0,0,0,.947,1.873h0a1.584,1.584,0,0,0,2.026-.812l4.11-8.973a1.242,1.242,0,0,0-.756-1.7l-2.271-.716A1.242,1.242,0,0,0,228.873,174.4Z" transform="translate(-208.748 -165.842)" fill="#fff" opacity="0.5"/>
        <path id="Path_1302" data-name="Path 1302" d="M227.969,191.716a2.382,2.382,0,1,1-.488-3.334A2.381,2.381,0,0,1,227.969,191.716Z" transform="translate(-208.678 -166.219)" fill="#fff" opacity="0.5"/>
      </g>
      <g id="Group_1538" data-name="Group 1538" transform="translate(91.312 4.051)">
        <path id="Path_1303" data-name="Path 1303" d="M306.548,172.387l-4.424,20.164a3.571,3.571,0,0,0,4.531,4.181c5.516-1.687,13.778-4.228,19.5-5.99a3.8,3.8,0,0,0,1.381-6.485l-15.608-13.643A3.293,3.293,0,0,0,306.548,172.387Z" transform="translate(-302.038 -169.796)" fill="#ce082e"/>
        <g id="Group_1537" data-name="Group 1537" transform="translate(0.453 1.079)" opacity="0.5">
          <path id="Path_1304" data-name="Path 1304" d="M307.224,173.58c-.034,0-.068-.292.123-.793A2.99,2.99,0,0,1,309,171.155a3.292,3.292,0,0,1,1.738-.216,3.7,3.7,0,0,1,1.856.932l3.558,2.961,9.177,7.8,1.308,1.128a4.1,4.1,0,0,1,1.178,1.75,4.147,4.147,0,0,1-2.721,5.33l-1.811.561-3.7,1.141-7.308,2.228-3.478,1.049-.848.254-.422.126-.517.118a3.844,3.844,0,0,1-2.067-.235,3.933,3.933,0,0,1-2.4-3,4.217,4.217,0,0,1-.03-.964l.074-.467.088-.389.349-1.5c.465-1.958.9-3.785,1.293-5.459.8-3.335,1.476-6.027,1.976-7.882a11.344,11.344,0,0,1,.928-2.845,11.406,11.406,0,0,1-.35,2.972c-.321,1.892-.837,4.62-1.5,7.984-.341,1.686-.713,3.526-1.111,5.5q-.153.741-.311,1.507l-.075.378-.043.315a2.973,2.973,0,0,0,.035.63,2.581,2.581,0,0,0,1.594,1.921,2.443,2.443,0,0,0,1.315.128l.333-.081.418-.131.844-.266,3.467-1.084,7.3-2.257,3.7-1.134,1.813-.552a2.677,2.677,0,0,0,1.788-3.426,2.665,2.665,0,0,0-.752-1.149l-1.28-1.14c-3.366-3.022-6.4-5.747-8.962-8.05l-3.41-3.13a2.691,2.691,0,0,0-2.832-.8,2.89,2.89,0,0,0-1.585,1.215C307.363,173.334,307.291,173.6,307.224,173.58Z" transform="translate(-302.503 -170.904)" fill="#fff"/>
        </g>
        <path id="Path_1305" data-name="Path 1305" d="M309.545,177.693l2.675,7.156a1.236,1.236,0,0,0,1.447.769h0a1.237,1.237,0,0,0,.928-1.43l-1.415-7.579a.971.971,0,0,0-1.249-.747l-1.772.565A.97.97,0,0,0,309.545,177.693Z" transform="translate(-302.232 -169.954)" fill="#fff" opacity="0.5"/>
        <path id="Path_1306" data-name="Path 1306" d="M316.726,189.18a1.861,1.861,0,1,1-1.811-1.909A1.859,1.859,0,0,1,316.726,189.18Z" transform="translate(-302.324 -170.253)" fill="#fff" opacity="0.5"/>
      </g>
      <g id="Group_1539" data-name="Group 1539" transform="translate(6.986 73.974)">
        <path id="Path_1307" data-name="Path 1307" d="M221.546,263.549c-.025.023-.267-.2-.686-.631a8.193,8.193,0,0,1-.726-.818,13.916,13.916,0,0,1-.877-1.154,20.511,20.511,0,0,1-1.87-3.28,21.693,21.693,0,0,1-1.939-9,20.406,20.406,0,0,1,.353-3.76,13.616,13.616,0,0,1,.324-1.412,8.217,8.217,0,0,1,.323-1.044,3.34,3.34,0,0,1,.365-.857c.093.029-.347,1.28-.659,3.372a23.2,23.2,0,0,0-.24,3.7,23.1,23.1,0,0,0,1.9,8.812,23.228,23.228,0,0,0,1.74,3.27C220.7,262.524,221.618,263.484,221.546,263.549Z" transform="translate(-215.449 -241.596)" fill="#263238"/>
      </g>
      <g id="Group_1540" data-name="Group 1540" transform="translate(12.586 75.041)">
        <path id="Path_1308" data-name="Path 1308" d="M230.179,264.8a3.7,3.7,0,0,1-.833-.529,8.093,8.093,0,0,1-.91-.716,13.55,13.55,0,0,1-1.128-1.041,20.253,20.253,0,0,1-2.525-3.1,21.6,21.6,0,0,1-3.41-9.121,20.38,20.38,0,0,1-.127-4,13.735,13.735,0,0,1,.167-1.525,8.219,8.219,0,0,1,.217-1.137,3.649,3.649,0,0,1,.283-.945c.1.02-.238,1.386-.31,3.625a22.56,22.56,0,0,0,.231,3.915,22.783,22.783,0,0,0,3.338,8.932,22.564,22.564,0,0,0,2.393,3.107C229.091,263.915,230.24,264.724,230.179,264.8Z" transform="translate(-221.199 -242.692)" fill="#263238"/>
      </g>
      <g id="Group_1541" data-name="Group 1541" transform="translate(112.137 60.057)">
        <path id="Path_1309" data-name="Path 1309" d="M323.429,254.033c-.085-.045.674-1.4,1.533-3.742a32.525,32.525,0,0,0,1.217-4.193,31.972,31.972,0,0,0,.509-10.631,32.607,32.607,0,0,0-.809-4.291c-.633-2.409-1.257-3.834-1.168-3.871a4.515,4.515,0,0,1,.495.975,21.541,21.541,0,0,1,1.018,2.8,28.549,28.549,0,0,1,.929,4.329,29.884,29.884,0,0,1-.518,10.791,28.571,28.571,0,0,1-1.338,4.219,21.792,21.792,0,0,1-1.281,2.691A4.441,4.441,0,0,1,323.429,254.033Z" transform="translate(-323.422 -227.306)" fill="#263238"/>
      </g>
      <g id="Group_1542" data-name="Group 1542" transform="translate(119.8 63.195)">
        <path id="Path_1310" data-name="Path 1310" d="M331.453,252.112c-.083-.044.525-1.154,1.175-3.068a24.025,24.025,0,0,0,.878-3.429,23.63,23.63,0,0,0-.062-8.62,24.041,24.041,0,0,0-.927-3.417c-.679-1.9-1.3-3-1.219-3.049a3.027,3.027,0,0,1,.5.738,15.532,15.532,0,0,1,1.056,2.185,20.746,20.746,0,0,1,1.05,3.45,21.982,21.982,0,0,1,.063,8.8,20.7,20.7,0,0,1-1,3.466,15.4,15.4,0,0,1-1.025,2.2A2.985,2.985,0,0,1,331.453,252.112Z" transform="translate(-331.29 -230.528)" fill="#263238"/>
      </g>
    </g>
    <g id="Speech_Bubble" data-name="Speech Bubble" transform="translate(62.496 169.804)">
      <g id="Group_1549" data-name="Group 1549">
        <g id="Group_1548" data-name="Group 1548">
          <path id="Path_1312" data-name="Path 1312" d="M127.722,163.422l-15.269-3.752.112-.018a25.376,25.376,0,0,1-13.18,3.952,27.6,27.6,0,0,1-8.168-1.192,25.268,25.268,0,0,1-7.96-4.22,25.58,25.58,0,0,1-9.63-17.018,25.265,25.265,0,0,1,6.561-20.385,26.459,26.459,0,0,1,4.422-3.854c.825-.509,1.639-1.039,2.49-1.487l1.3-.625.648-.312.673-.245a25.759,25.759,0,0,1,10.978-1.672A25.416,25.416,0,0,1,123.1,129.7a26.339,26.339,0,0,1,1.411,8.245,25.314,25.314,0,0,1-3.658,13.227l0-.138,6.864,12.387-7.1-12.251-.04-.069.042-.069a25.146,25.146,0,0,0,3.522-13.084,26.032,26.032,0,0,0-1.428-8.112,25.02,25.02,0,0,0-22.051-16.753A25.311,25.311,0,0,0,89.9,114.734l-.659.242-.634.3-1.273.614c-.834.44-1.63.96-2.441,1.459a26.086,26.086,0,0,0-4.334,3.779,25.071,25.071,0,0,0,2.972,36.708,24.861,24.861,0,0,0,7.81,4.176,27.276,27.276,0,0,0,8.035,1.211,25.188,25.188,0,0,0,13.032-3.818l.054-.033.059.016Z" transform="translate(-73.439 -112.537)" fill="#263238"/>
        </g>
        <path id="Path_1313" data-name="Path 1313" d="M97.509,127.075l.807,12.756a2.07,2.07,0,0,0,1.943,1.935h0a2.069,2.069,0,0,0,2.18-1.839l1.416-12.82a1.624,1.624,0,0,0-1.636-1.8l-3.111.044A1.624,1.624,0,0,0,97.509,127.075Z" transform="translate(-74.068 -112.871)" fill="#ce082e"/>
        <path id="Path_1314" data-name="Path 1314" d="M103.641,149.463a3.113,3.113,0,1,1-1.973-3.935A3.113,3.113,0,0,1,103.641,149.463Z" transform="translate(-74.069 -113.395)" fill="#ce082e"/>
      </g>
    </g>
  </g>
</svg>
