<svg xmlns="http://www.w3.org/2000/svg" width="248" height="237" viewBox="0 0 248 237">
  <g id="Group_1914" data-name="Group 1914" transform="translate(-28.631 -41.296)">
    <g id="Background_Complete" data-name="Background Complete" transform="translate(39.342 41.296)">
      <g id="Group_1670" data-name="Group 1670" transform="translate(170.523 139.191)">
        <g id="Group_1644" data-name="Group 1644">
          <g id="Group_1643" data-name="Group 1643">
            <g id="Group_1642" data-name="Group 1642">
              <g id="Group_1641" data-name="Group 1641">
                <path id="Path_1357" data-name="Path 1357" d="M377.656,387.15c-14.659-5.8-21.38-21.432-24.359-36.208-.5-2.466-1.378-4.982-.724-7.405s3.022-4.534,5.458-4.022c2.02.424,3.313,2.35,4.744,3.857a14.714,14.714,0,0,0,7.039,4.119c1.75.439,3.795.476,5.132-.737,1.834-1.665,1.392-4.64.8-7.07q-1.657-6.794-3.313-13.586a23.312,23.312,0,0,1-.98-7.4,7.755,7.755,0,0,1,3.533-6.229c2.162-1.2,5.341-.542,6.395,1.724a23.072,23.072,0,0,1,.788,3.014c.307.994,1.043,2,2.069,2.054s1.849-.866,2.407-1.75c1.929-3.053,2.882-6.623,3.729-10.149a46.12,46.12,0,0,1,3.271-10.335c1.643-3.22,4.292-6.092,7.73-7.116s7.662.246,9.354,3.459.521,7.177-1,10.47a55.851,55.851,0,0,1-8.753,13.464,4.592,4.592,0,0,0-1.41,2.483c-.144,1.748,1.776,2.995,3.5,3.148,1.957.174,3.881-.481,5.831-.708s4.2.123,5.348,1.746c1.587,2.251.125,5.352-1.517,7.545a47.841,47.841,0,0,1-11.886,11.216,16.118,16.118,0,0,0-4.527,3.7c-1.145,1.6-1.5,3.994-.219,5.5s3.649,1.527,5.441.734,3.229-2.208,4.856-3.306c3.045-2.056,7.418-2.849,10.246-.467a7.914,7.914,0,0,1,2.435,6.616,18.24,18.24,0,0,1-2.263,6.889,48.089,48.089,0,0,1-16.649,18.781c-7.119,4.53-14.135,6.963-22.514,5.972" transform="translate(-352.34 -289.56)" fill="#f5f5f5"/>
              </g>
            </g>
          </g>
        </g>
        <g id="Group_1649" data-name="Group 1649" transform="translate(26.92 1.301)">
          <g id="Group_1648" data-name="Group 1648">
            <g id="Group_1647" data-name="Group 1647">
              <g id="Group_1646" data-name="Group 1646">
                <g id="Group_1645" data-name="Group 1645">
                  <path id="Path_1358" data-name="Path 1358" d="M400.372,378.084a224.075,224.075,0,0,1,3.086-25.53q.584-3.368,1.153-6.65c.384-2.182.764-4.346,1.266-6.439a112.018,112.018,0,0,1,3.577-11.864c1.32-3.719,2.709-7.2,4.031-10.444s2.626-6.243,3.924-8.927a88.741,88.741,0,0,1,7.061-12.2c.943-1.37,1.709-2.408,2.238-3.1l.606-.789a1.823,1.823,0,0,1,.219-.259,1.776,1.776,0,0,1-.182.288l-.569.816c-.5.714-1.246,1.768-2.166,3.151a93.953,93.953,0,0,0-6.915,12.238c-1.276,2.685-2.552,5.685-3.863,8.93s-2.679,6.729-3.985,10.442a113.2,113.2,0,0,0-3.537,11.825c-.5,2.083-.871,4.228-1.254,6.416s-.762,4.4-1.151,6.647a229.529,229.529,0,0,0-3.117,25.475" transform="translate(-400.372 -291.882)" fill="#e0e0e0"/>
                </g>
              </g>
            </g>
          </g>
        </g>
        <g id="Group_1654" data-name="Group 1654" transform="translate(22.642 22.905)">
          <g id="Group_1653" data-name="Group 1653">
            <g id="Group_1652" data-name="Group 1652">
              <g id="Group_1651" data-name="Group 1651">
                <g id="Group_1650" data-name="Group 1650">
                  <path id="Path_1359" data-name="Path 1359" d="M402.646,356.36a5.141,5.141,0,0,1-.484-.982c-.288-.642-.672-1.584-1.13-2.756-.919-2.342-2.078-5.618-3.341-9.235s-2.465-6.871-3.418-9.191c-.472-1.161-.865-2.1-1.144-2.742a5.024,5.024,0,0,1-.387-1.024,4.979,4.979,0,0,1,.548.947c.33.622.768,1.541,1.281,2.69,1.032,2.3,2.288,5.543,3.553,9.166,1.238,3.573,2.357,6.805,3.213,9.275.393,1.113.726,2.051.993,2.8A4.953,4.953,0,0,1,402.646,356.36Z" transform="translate(-392.738 -330.429)" fill="#e0e0e0"/>
                </g>
              </g>
            </g>
          </g>
        </g>
        <g id="Group_1659" data-name="Group 1659" transform="translate(32.549 35.561)">
          <g id="Group_1658" data-name="Group 1658">
            <g id="Group_1657" data-name="Group 1657">
              <g id="Group_1656" data-name="Group 1656">
                <g id="Group_1655" data-name="Group 1655">
                  <path id="Path_1360" data-name="Path 1360" d="M440.317,353.017a6.982,6.982,0,0,1-1.213.445c-.786.262-1.925.635-3.317,1.141-2.792.989-6.6,2.491-10.732,4.331s-7.793,3.68-10.4,5.081c-1.312.692-2.358,1.28-3.084,1.682a6.886,6.886,0,0,1-1.15.589,6.866,6.866,0,0,1,1.059-.745c.7-.451,1.723-1.084,3.019-1.815,2.579-1.479,6.234-3.364,10.374-5.218a113.372,113.372,0,0,1,10.814-4.216c1.41-.467,2.568-.794,3.372-1A6.786,6.786,0,0,1,440.317,353.017Z" transform="translate(-410.415 -353.011)" fill="#e0e0e0"/>
                </g>
              </g>
            </g>
          </g>
        </g>
        <g id="Group_1664" data-name="Group 1664" transform="translate(1.935 50.613)">
          <g id="Group_1663" data-name="Group 1663">
            <g id="Group_1662" data-name="Group 1662">
              <g id="Group_1661" data-name="Group 1661">
                <g id="Group_1660" data-name="Group 1660">
                  <path id="Path_1361" data-name="Path 1361" d="M381.025,416.09a1.69,1.69,0,0,1-.3-.331l-.8-1.005c-.694-.875-1.665-2.169-2.843-3.783-2.36-3.226-5.479-7.785-8.853-12.862s-6.449-9.661-8.738-12.931l-2.723-3.867-.735-1.056a1.645,1.645,0,0,1-.231-.388,1.692,1.692,0,0,1,.305.332l.8,1c.694.876,1.665,2.17,2.844,3.783,2.36,3.226,5.479,7.785,8.854,12.865s6.447,9.659,8.736,12.93c1.119,1.587,2.039,2.895,2.722,3.865l.735,1.056A1.652,1.652,0,0,1,381.025,416.09Z" transform="translate(-355.793 -379.866)" fill="#e0e0e0"/>
                </g>
              </g>
            </g>
          </g>
        </g>
        <g id="Group_1669" data-name="Group 1669" transform="translate(27.167 63.572)">
          <g id="Group_1668" data-name="Group 1668">
            <g id="Group_1667" data-name="Group 1667">
              <g id="Group_1666" data-name="Group 1666">
                <g id="Group_1665" data-name="Group 1665">
                  <path id="Path_1362" data-name="Path 1362" d="M439.212,402.992a1.72,1.72,0,0,1-.373.268l-1.111.692-4.11,2.5c-3.47,2.111-8.229,5.082-13.483,8.37s-10.047,6.22-13.561,8.26c-1.757,1.02-3.187,1.832-4.187,2.371l-1.155.616a1.693,1.693,0,0,1-.419.187,1.742,1.742,0,0,1,.372-.269l1.112-.69,4.109-2.5c3.47-2.11,8.23-5.081,13.485-8.372s10.045-6.219,13.559-8.258c1.757-1.021,3.187-1.832,4.187-2.372l1.155-.616A1.709,1.709,0,0,1,439.212,402.992Z" transform="translate(-400.814 -402.99)" fill="#e0e0e0"/>
                </g>
              </g>
            </g>
          </g>
        </g>
      </g>
      <g id="Group_1679" data-name="Group 1679" transform="translate(0 66.065)">
        <g id="Group_1671" data-name="Group 1671" transform="translate(0 0)">
          <rect id="Rectangle_256" data-name="Rectangle 256" width="39.272" height="58.265" transform="translate(0 38.552) rotate(-79.008)" fill="#ebebeb"/>
        </g>
        <g id="Group_1674" data-name="Group 1674" transform="translate(7.58 0.498)">
          <g id="Group_1673" data-name="Group 1673">
            <g id="Group_1672" data-name="Group 1672">
              <path id="Path_1363" data-name="Path 1363" d="M118.463,171.14a4.055,4.055,0,0,1-.632.41l-1.864,1.086-6.907,3.913L86.122,189.312l-.189.105-.141-.165-.34-.4-17.186-20.31-5.162-6.194-1.383-1.7a4.152,4.152,0,0,1-.455-.617,4.125,4.125,0,0,1,.536.548l1.459,1.637,5.29,6.085,17.3,20.21.34.4-.33-.06,23.015-12.627,6.988-3.766,1.911-1A4.029,4.029,0,0,1,118.463,171.14Z" transform="translate(-61.266 -160.03)" fill="#e0e0e0"/>
            </g>
          </g>
        </g>
        <g id="Group_1676" data-name="Group 1676" transform="translate(0.092 19.587)">
          <g id="Group_1675" data-name="Group 1675">
            <path id="Path_1364" data-name="Path 1364" d="M47.907,213.553c-.092-.114,5.236-4.563,11.9-9.936s12.139-9.639,12.231-9.526-5.235,4.562-11.9,9.937S48,213.667,47.907,213.553Z" transform="translate(-47.906 -194.089)" fill="#e0e0e0"/>
          </g>
        </g>
        <g id="Group_1678" data-name="Group 1678" transform="translate(43.323 22.799)">
          <g id="Group_1677" data-name="Group 1677">
            <path id="Path_1365" data-name="Path 1365" d="M125.046,199.822c.13-.067,3.361,6,7.216,13.559s6.876,13.735,6.746,13.8-3.361-6-7.216-13.56S124.916,199.888,125.046,199.822Z" transform="translate(-125.042 -199.821)" fill="#e0e0e0"/>
          </g>
        </g>
      </g>
      <g id="Group_1688" data-name="Group 1688" transform="translate(48.559 33.194)">
        <g id="Group_1680" data-name="Group 1680">
          <path id="Path_1366" data-name="Path 1366" d="M173.6,125.644l-36.159,3.787-2.976-25.121,36.159-3.787Z" transform="translate(-134.467 -100.523)" fill="#f5f5f5"/>
        </g>
        <g id="Group_1683" data-name="Group 1683" transform="translate(0.151 0.289)">
          <g id="Group_1682" data-name="Group 1682">
            <g id="Group_1681" data-name="Group 1681">
              <path id="Path_1367" data-name="Path 1367" d="M170.9,101.04a2.46,2.46,0,0,1-.3.37l-.9,1.014-3.354,3.691-11.183,12.119-.092.1-.115-.076-.279-.183-14.135-9.309-4.264-2.854-1.15-.79a2.714,2.714,0,0,1-.39-.295,2.576,2.576,0,0,1,.424.237l1.183.737,4.319,2.762,14.186,9.226.279.183-.207.024,11.255-12.048,3.431-3.616.944-.971A2.555,2.555,0,0,1,170.9,101.04Z" transform="translate(-134.737 -101.039)" fill="#e0e0e0"/>
            </g>
          </g>
        </g>
        <g id="Group_1685" data-name="Group 1685" transform="translate(3.126 12.736)">
          <g id="Group_1684" data-name="Group 1684">
            <path id="Path_1368" data-name="Path 1368" d="M140.046,139.709c-.076-.053,2.235-3.781,5.162-8.326s5.362-8.188,5.439-8.136-2.235,3.78-5.162,8.327S140.122,139.763,140.046,139.709Z" transform="translate(-140.044 -123.247)" fill="#e0e0e0"/>
          </g>
        </g>
        <g id="Group_1687" data-name="Group 1687" transform="translate(25.709 11.162)">
          <g id="Group_1686" data-name="Group 1686">
            <path id="Path_1369" data-name="Path 1369" d="M180.339,120.44c.064-.065,3.156,3.072,6.9,7.006s6.736,7.177,6.672,7.242-3.156-3.071-6.905-7.006S180.275,120.506,180.339,120.44Z" transform="translate(-180.338 -120.439)" fill="#e0e0e0"/>
          </g>
        </g>
      </g>
      <g id="Group_1697" data-name="Group 1697" transform="translate(17.607)">
        <g id="Group_1689" data-name="Group 1689" transform="translate(0.05)">
          <path id="Path_1370" data-name="Path 1370" d="M99.228,69.165,79.246,55.329,88.684,41.3l19.982,13.837Z" transform="translate(-79.246 -41.296)" fill="#f5f5f5"/>
        </g>
        <g id="Group_1692" data-name="Group 1692" transform="translate(9.437 0.213)">
          <g id="Group_1691" data-name="Group 1691">
            <g id="Group_1690" data-name="Group 1690">
              <path id="Path_1371" data-name="Path 1371" d="M115.979,55.513a1.657,1.657,0,0,1-.312.058l-.9.123-3.309.41-10.951,1.271-.09.01-.025-.089-.062-.214c-1.212-4.239-2.308-8.075-3.11-10.88-.382-1.378-.694-2.5-.918-3.3-.1-.375-.178-.675-.239-.9A1.825,1.825,0,0,1,96,41.676a1.72,1.72,0,0,1,.112.3l.279.889c.24.8.574,1.915.986,3.283l3.172,10.859.062.214-.116-.078,10.956-1.2,3.315-.339.9-.081A1.615,1.615,0,0,1,115.979,55.513Z" transform="translate(-95.995 -41.676)" fill="#e0e0e0"/>
            </g>
          </g>
        </g>
        <g id="Group_1694" data-name="Group 1694" transform="translate(0 10.516)">
          <g id="Group_1693" data-name="Group 1693">
            <path id="Path_1372" data-name="Path 1372" d="M79.157,63.789c-.016-.06,2.781-.943,6.245-1.972s6.287-1.815,6.3-1.754-2.78.943-6.246,1.972S79.173,63.849,79.157,63.789Z" transform="translate(-79.157 -60.059)" fill="#e0e0e0"/>
          </g>
        </g>
        <g id="Group_1696" data-name="Group 1696" transform="translate(19.291 14.943)">
          <g id="Group_1695" data-name="Group 1695">
            <path id="Path_1373" data-name="Path 1373" d="M113.594,67.958c.061,0,.261,2.933.448,6.561s.288,6.574.226,6.579-.262-2.932-.448-6.562S113.533,67.963,113.594,67.958Z" transform="translate(-113.576 -67.958)" fill="#e0e0e0"/>
          </g>
        </g>
      </g>
      <g id="Group_1698" data-name="Group 1698" transform="translate(153.536 24)">
        <path id="Path_1374" data-name="Path 1374" d="M366.519,106.4a22.279,22.279,0,1,0-41.483,11.256h-.012l.063.084c.854,1.44,1.925,2.469,3.006,3.982l12.935,17.135a4.024,4.024,0,0,0,6.422,0L360.171,122a47.967,47.967,0,0,0,3.236-4.287l.046-.061h-.009A22.14,22.14,0,0,0,366.519,106.4Zm-22.279,9.7a9.8,9.8,0,1,1,9.8-9.8A9.8,9.8,0,0,1,344.24,116.1Z" transform="translate(-321.961 -84.118)" fill="#f5f5f5"/>
      </g>
      <g id="Group_1699" data-name="Group 1699" transform="translate(191.064 72.517)">
        <path id="Path_1375" data-name="Path 1375" d="M413.017,182.667a12.014,12.014,0,1,0-22.37,6.07h-.007l.034.045c.461.777,1.038,1.332,1.621,2.147l6.975,9.24a2.169,2.169,0,0,0,3.463,0l6.859-9.088a25.9,25.9,0,0,0,1.745-2.312l.025-.033h0A11.939,11.939,0,0,0,413.017,182.667ZM401,187.9a5.287,5.287,0,1,1,5.287-5.287A5.287,5.287,0,0,1,401,187.9Z" transform="translate(-388.989 -170.653)" fill="#ebebeb"/>
      </g>
    </g>
    <g id="Floor" transform="translate(28.631 277.98)">
      <g id="Group_1700" data-name="Group 1700">
        <path id="Path_1376" data-name="Path 1376" d="M276.576,463.659c0,.08-55.509.146-123.966.146-68.482,0-123.979-.066-123.979-.146s55.5-.146,123.979-.146C221.067,463.513,276.576,463.579,276.576,463.659Z" transform="translate(-28.631 -463.513)" fill="#263238"/>
      </g>
    </g>
    <g id="Character" transform="translate(70.644 55.337)">
      <g id="Group_1888" data-name="Group 1888">
        <g id="Group_1842" data-name="Group 1842" transform="translate(43.717)">
          <g id="Group_1841" data-name="Group 1841">
            <g id="Group_1833" data-name="Group 1833" transform="translate(0 2.381)">
              <g id="Group_1832" data-name="Group 1832">
                <g id="Group_1826" data-name="Group 1826" transform="translate(0 1.722)">
                  <g id="Group_1825" data-name="Group 1825">
                    <g id="Group_1721" data-name="Group 1721" transform="translate(4.067)">
                      <g id="Group_1720" data-name="Group 1720">
                        <g id="Group_1719" data-name="Group 1719">
                          <g id="Group_1709" data-name="Group 1709">
                            <g id="Group_1708" data-name="Group 1708">
                              <g id="Group_1707" data-name="Group 1707">
                                <g id="Group_1706" data-name="Group 1706">
                                  <g id="Group_1705" data-name="Group 1705">
                                    <g id="Group_1704" data-name="Group 1704">
                                      <g id="Group_1703" data-name="Group 1703">
                                        <g id="Group_1702" data-name="Group 1702">
                                          <g id="Group_1701" data-name="Group 1701">
                                            <path id="Path_1377" data-name="Path 1377" d="M189.281,99.041l3.687,52.237a16.287,16.287,0,0,0,16.247,15.14h0a16.286,16.286,0,0,0,16.252-17.352c-.327-4.972-.623-9.044-.623-9.044s12.646-1.966,12.8-14.61c.09-7.3-1.169-23.874-2.249-36.57A16.582,16.582,0,0,0,218.868,73.67H211.23A23.4,23.4,0,0,0,189.281,99.041Z" transform="translate(-189.193 -73.67)" fill="#b78876"/>
                                          </g>
                                        </g>
                                      </g>
                                    </g>
                                  </g>
                                </g>
                              </g>
                            </g>
                          </g>
                          <g id="Group_1718" data-name="Group 1718" transform="translate(19.188 61.484)">
                            <g id="Group_1717" data-name="Group 1717">
                              <g id="Group_1716" data-name="Group 1716">
                                <g id="Group_1715" data-name="Group 1715">
                                  <g id="Group_1714" data-name="Group 1714">
                                    <g id="Group_1713" data-name="Group 1713">
                                      <g id="Group_1712" data-name="Group 1712">
                                        <g id="Group_1711" data-name="Group 1711">
                                          <g id="Group_1710" data-name="Group 1710">
                                            <path id="Path_1378" data-name="Path 1378" d="M239.913,188.059a29.4,29.4,0,0,1-16.484-4.685s3.9,9.1,16.513,7.961Z" transform="translate(-223.429 -183.374)" fill="#aa6550"/>
                                          </g>
                                        </g>
                                      </g>
                                    </g>
                                  </g>
                                </g>
                              </g>
                            </g>
                          </g>
                        </g>
                      </g>
                    </g>
                    <g id="Group_1804" data-name="Group 1804" transform="translate(20.627 19.143)">
                      <g id="Group_1803" data-name="Group 1803">
                        <g id="Group_1784" data-name="Group 1784" transform="translate(1.228 6.81)">
                          <g id="Group_1783" data-name="Group 1783">
                            <g id="Group_1782" data-name="Group 1782">
                              <g id="Group_1741" data-name="Group 1741" transform="translate(19.1)">
                                <g id="Group_1730" data-name="Group 1730" transform="translate(1.781 2.86)">
                                  <g id="Group_1729" data-name="Group 1729">
                                    <g id="Group_1728" data-name="Group 1728">
                                      <g id="Group_1727" data-name="Group 1727">
                                        <g id="Group_1726" data-name="Group 1726">
                                          <g id="Group_1725" data-name="Group 1725">
                                            <g id="Group_1724" data-name="Group 1724">
                                              <g id="Group_1723" data-name="Group 1723">
                                                <g id="Group_1722" data-name="Group 1722">
                                                  <path id="Path_1379" data-name="Path 1379" d="M261.79,126.71a1.805,1.805,0,0,1-1.741,1.822,1.727,1.727,0,0,1-1.861-1.628,1.806,1.806,0,0,1,1.739-1.823A1.728,1.728,0,0,1,261.79,126.71Z" transform="translate(-258.187 -125.079)" fill="#263238"/>
                                                </g>
                                              </g>
                                            </g>
                                          </g>
                                        </g>
                                      </g>
                                    </g>
                                  </g>
                                </g>
                                <g id="Group_1740" data-name="Group 1740">
                                  <g id="Group_1739" data-name="Group 1739">
                                    <g id="Group_1738" data-name="Group 1738">
                                      <g id="Group_1737" data-name="Group 1737">
                                        <g id="Group_1736" data-name="Group 1736">
                                          <g id="Group_1735" data-name="Group 1735">
                                            <g id="Group_1734" data-name="Group 1734">
                                              <g id="Group_1733" data-name="Group 1733">
                                                <g id="Group_1732" data-name="Group 1732">
                                                  <g id="Group_1731" data-name="Group 1731">
                                                    <path id="Path_1380" data-name="Path 1380" d="M262.147,121.875c-.224.235-1.592-.777-3.535-.771-1.941-.023-3.367.977-3.577.739-.1-.105.124-.53.745-.982a4.954,4.954,0,0,1,2.864-.883,4.761,4.761,0,0,1,2.814.908C262.054,121.343,262.257,121.769,262.147,121.875Z" transform="translate(-255.01 -119.977)" fill="#263238"/>
                                                  </g>
                                                </g>
                                              </g>
                                            </g>
                                          </g>
                                        </g>
                                      </g>
                                    </g>
                                  </g>
                                </g>
                              </g>
                              <g id="Group_1761" data-name="Group 1761" transform="translate(0 0.363)">
                                <g id="Group_1750" data-name="Group 1750" transform="translate(1.922 2.497)">
                                  <g id="Group_1749" data-name="Group 1749">
                                    <g id="Group_1748" data-name="Group 1748">
                                      <g id="Group_1747" data-name="Group 1747">
                                        <g id="Group_1746" data-name="Group 1746">
                                          <g id="Group_1745" data-name="Group 1745">
                                            <g id="Group_1744" data-name="Group 1744">
                                              <g id="Group_1743" data-name="Group 1743">
                                                <g id="Group_1742" data-name="Group 1742">
                                                  <path id="Path_1381" data-name="Path 1381" d="M227.963,126.711a1.805,1.805,0,0,1-1.741,1.821,1.727,1.727,0,0,1-1.861-1.628,1.806,1.806,0,0,1,1.739-1.823A1.728,1.728,0,0,1,227.963,126.711Z" transform="translate(-224.36 -125.079)" fill="#263238"/>
                                                </g>
                                              </g>
                                            </g>
                                          </g>
                                        </g>
                                      </g>
                                    </g>
                                  </g>
                                </g>
                                <g id="Group_1760" data-name="Group 1760">
                                  <g id="Group_1759" data-name="Group 1759">
                                    <g id="Group_1758" data-name="Group 1758">
                                      <g id="Group_1757" data-name="Group 1757">
                                        <g id="Group_1756" data-name="Group 1756">
                                          <g id="Group_1755" data-name="Group 1755">
                                            <g id="Group_1754" data-name="Group 1754">
                                              <g id="Group_1753" data-name="Group 1753">
                                                <g id="Group_1752" data-name="Group 1752">
                                                  <g id="Group_1751" data-name="Group 1751">
                                                    <path id="Path_1382" data-name="Path 1382" d="M228.068,122.522c-.224.235-1.594-.777-3.535-.772-1.941-.023-3.367.976-3.578.739-.1-.105.123-.53.746-.982a4.949,4.949,0,0,1,2.863-.883,4.759,4.759,0,0,1,2.814.909C227.974,121.99,228.178,122.416,228.068,122.522Z" transform="translate(-220.931 -120.624)" fill="#263238"/>
                                                  </g>
                                                </g>
                                              </g>
                                            </g>
                                          </g>
                                        </g>
                                      </g>
                                    </g>
                                  </g>
                                </g>
                              </g>
                              <g id="Group_1771" data-name="Group 1771" transform="translate(13.279 0.48)">
                                <g id="Group_1770" data-name="Group 1770">
                                  <g id="Group_1769" data-name="Group 1769">
                                    <g id="Group_1768" data-name="Group 1768">
                                      <g id="Group_1767" data-name="Group 1767">
                                        <g id="Group_1766" data-name="Group 1766">
                                          <g id="Group_1765" data-name="Group 1765">
                                            <g id="Group_1764" data-name="Group 1764">
                                              <g id="Group_1763" data-name="Group 1763">
                                                <g id="Group_1762" data-name="Group 1762">
                                                  <path id="Path_1383" data-name="Path 1383" d="M245.534,137.024a12.882,12.882,0,0,1,3.156-.569c.5-.051.966-.15,1.049-.489a2.523,2.523,0,0,0-.331-1.47q-.7-1.8-1.467-3.778c-2.038-5.379-3.512-9.8-3.3-9.883s2.046,4.215,4.083,9.594q.736,1.99,1.406,3.8a2.872,2.872,0,0,1,.257,1.948,1.244,1.244,0,0,1-.815.725,3.368,3.368,0,0,1-.842.117A12.651,12.651,0,0,1,245.534,137.024Z" transform="translate(-244.624 -120.834)" fill="#263238"/>
                                                </g>
                                              </g>
                                            </g>
                                          </g>
                                        </g>
                                      </g>
                                    </g>
                                  </g>
                                </g>
                              </g>
                              <g id="Group_1781" data-name="Group 1781" transform="translate(8.155 18.014)">
                                <g id="Group_1780" data-name="Group 1780">
                                  <g id="Group_1779" data-name="Group 1779">
                                    <g id="Group_1778" data-name="Group 1778">
                                      <g id="Group_1777" data-name="Group 1777">
                                        <g id="Group_1776" data-name="Group 1776">
                                          <g id="Group_1775" data-name="Group 1775">
                                            <g id="Group_1774" data-name="Group 1774">
                                              <g id="Group_1773" data-name="Group 1773">
                                                <g id="Group_1772" data-name="Group 1772">
                                                  <path id="Path_1384" data-name="Path 1384" d="M235.8,152.119c.316-.018.32,2.091,2.125,3.587s4.05,1.265,4.067,1.56c.029.132-.5.409-1.449.435a5.251,5.251,0,0,1-3.395-1.183,4.577,4.577,0,0,1-1.647-3.009C235.418,152.629,235.653,152.107,235.8,152.119Z" transform="translate(-235.482 -152.119)" fill="#263238"/>
                                                </g>
                                              </g>
                                            </g>
                                          </g>
                                        </g>
                                      </g>
                                    </g>
                                  </g>
                                </g>
                              </g>
                            </g>
                          </g>
                        </g>
                        <g id="Group_1793" data-name="Group 1793">
                          <g id="Group_1792" data-name="Group 1792">
                            <g id="Group_1791" data-name="Group 1791">
                              <g id="Group_1790" data-name="Group 1790">
                                <g id="Group_1789" data-name="Group 1789">
                                  <g id="Group_1788" data-name="Group 1788">
                                    <g id="Group_1787" data-name="Group 1787">
                                      <g id="Group_1786" data-name="Group 1786">
                                        <g id="Group_1785" data-name="Group 1785">
                                          <path id="Path_1385" data-name="Path 1385" d="M227.607,109.282c-.192.529-2.131.278-4.411.553-2.286.229-4.124.9-4.426.423-.135-.226.186-.724.929-1.235a7.726,7.726,0,0,1,6.732-.743C227.268,108.616,227.689,109.031,227.607,109.282Z" transform="translate(-218.74 -107.826)" fill="#263238"/>
                                        </g>
                                      </g>
                                    </g>
                                  </g>
                                </g>
                              </g>
                            </g>
                          </g>
                        </g>
                        <g id="Group_1802" data-name="Group 1802" transform="translate(20.134 1.072)">
                          <g id="Group_1801" data-name="Group 1801">
                            <g id="Group_1800" data-name="Group 1800">
                              <g id="Group_1799" data-name="Group 1799">
                                <g id="Group_1798" data-name="Group 1798">
                                  <g id="Group_1797" data-name="Group 1797">
                                    <g id="Group_1796" data-name="Group 1796">
                                      <g id="Group_1795" data-name="Group 1795">
                                        <g id="Group_1794" data-name="Group 1794">
                                          <path id="Path_1386" data-name="Path 1386" d="M261.28,111.752c-.342.441-1.68-.017-3.29-.038-1.609-.078-2.972.3-3.286-.165-.137-.224.077-.666.673-1.084a4.764,4.764,0,0,1,5.3.164C261.245,111.082,261.431,111.536,261.28,111.752Z" transform="translate(-254.665 -109.739)" fill="#263238"/>
                                        </g>
                                      </g>
                                    </g>
                                  </g>
                                </g>
                              </g>
                            </g>
                          </g>
                        </g>
                      </g>
                    </g>
                    <g id="Group_1824" data-name="Group 1824" transform="translate(0 34.463)">
                      <g id="Group_1813" data-name="Group 1813">
                        <g id="Group_1812" data-name="Group 1812">
                          <g id="Group_1811" data-name="Group 1811">
                            <g id="Group_1810" data-name="Group 1810">
                              <g id="Group_1809" data-name="Group 1809">
                                <g id="Group_1808" data-name="Group 1808">
                                  <g id="Group_1807" data-name="Group 1807">
                                    <g id="Group_1806" data-name="Group 1806">
                                      <g id="Group_1805" data-name="Group 1805">
                                        <path id="Path_1387" data-name="Path 1387" d="M190.354,135.559c-.215-.094-8.687-2.569-8.411,6.075s8.9,6.584,8.9,6.335S190.354,135.559,190.354,135.559Z" transform="translate(-181.936 -135.16)" fill="#b78876"/>
                                      </g>
                                    </g>
                                  </g>
                                </g>
                              </g>
                            </g>
                          </g>
                        </g>
                      </g>
                      <g id="Group_1823" data-name="Group 1823" transform="translate(2.201 2.83)">
                        <g id="Group_1822" data-name="Group 1822">
                          <g id="Group_1821" data-name="Group 1821">
                            <g id="Group_1820" data-name="Group 1820">
                              <g id="Group_1819" data-name="Group 1819">
                                <g id="Group_1818" data-name="Group 1818">
                                  <g id="Group_1817" data-name="Group 1817">
                                    <g id="Group_1816" data-name="Group 1816">
                                      <g id="Group_1815" data-name="Group 1815">
                                        <g id="Group_1814" data-name="Group 1814">
                                          <path id="Path_1388" data-name="Path 1388" d="M189.829,147c-.039-.026-.147.11-.4.235a1.509,1.509,0,0,1-1.125.059c-.924-.306-1.739-1.731-1.831-3.288a4.967,4.967,0,0,1,.353-2.17,1.738,1.738,0,0,1,1.1-1.192.767.767,0,0,1,.9.384c.123.238.074.412.12.426.025.021.182-.151.1-.506a.965.965,0,0,0-.357-.531,1.14,1.14,0,0,0-.84-.193,2.115,2.115,0,0,0-1.53,1.391,5.119,5.119,0,0,0-.446,2.426c.112,1.74,1.055,3.341,2.316,3.663a1.614,1.614,0,0,0,1.37-.273C189.82,147.207,189.859,147.012,189.829,147Z" transform="translate(-185.864 -140.21)" fill="#aa6550"/>
                                        </g>
                                      </g>
                                    </g>
                                  </g>
                                </g>
                              </g>
                            </g>
                          </g>
                        </g>
                      </g>
                    </g>
                  </g>
                </g>
                <g id="Group_1831" data-name="Group 1831" transform="translate(2.084)">
                  <g id="Group_1830" data-name="Group 1830">
                    <g id="Group_1829" data-name="Group 1829">
                      <g id="Group_1828" data-name="Group 1828">
                        <g id="Group_1827" data-name="Group 1827">
                          <path id="Path_1389" data-name="Path 1389" d="M187.179,106.887a4.542,4.542,0,0,1,4.161,2.133c.562,1.235.686,2.633,1.246,3.868s1.828,2.352,3.148,2.04a2.66,2.66,0,0,0,1.8-1.973,7.308,7.308,0,0,0,.026-2.788c-.509-4.037-1.358-8.04-1.521-12.106s.417-8.29,2.552-11.754,6.056-6.011,10.112-5.684c2.687.216,5.151,1.617,7.819,1.991a10.561,10.561,0,0,0,8.774-2.929c.29-.289,1.639-1.179,1.639-1.179a4.968,4.968,0,0,0-.91-2.673c-5.295-4.9-14.836-6.264-21.83-4.5s-13.55,6.7-16.559,13.253-2.117,15.671-.459,22.3" transform="translate(-185.655 -70.597)" fill="#263238"/>
                        </g>
                      </g>
                    </g>
                  </g>
                </g>
              </g>
            </g>
            <g id="Group_1835" data-name="Group 1835" transform="translate(0.747)">
              <g id="Group_1834" data-name="Group 1834">
                <path id="Path_1390" data-name="Path 1390" d="M232.933,83.673S199.762,73,185.413,101.7c0,0-2.144-7.182-2.144-11.031,0-2.571,1.538-17.884,17.294-22.7C200.563,67.967,224.3,58.907,232.933,83.673Z" transform="translate(-183.269 -66.349)" fill="#0d7684"/>
              </g>
            </g>
            <g id="Group_1837" data-name="Group 1837" transform="translate(21.266 12.101)">
              <g id="Group_1836" data-name="Group 1836">
                <path id="Path_1391" data-name="Path 1391" d="M220.524,93.879a7.215,7.215,0,0,0,11.485,1.045,4.254,4.254,0,0,0,8.041-.421,9.661,9.661,0,0,0,3.227,2.356,3.3,3.3,0,0,0,3.686-.77,3.219,3.219,0,0,0-.229-3.8,7.854,7.854,0,0,0-3.362-2.264,24.3,24.3,0,0,0-12.517-1.9A16.866,16.866,0,0,0,219.881,94.1" transform="translate(-219.881 -87.941)" fill="#263238"/>
              </g>
            </g>
            <g id="Group_1839" data-name="Group 1839" transform="translate(-9.253)" opacity="0.4">
              <g id="Group_1838" data-name="Group 1838" transform="translate(10)">
                <path id="Path_1392" data-name="Path 1392" d="M232.933,83.673a15.413,15.413,0,0,0-10.548-4.79c-9.784-.433-28.1,5.069-36.972,22.816,0,0-2.144-7.182-2.144-11.031,0-2.571,1.538-17.884,17.294-22.7C200.563,67.967,224.3,58.907,232.933,83.673Z" transform="translate(-183.269 -66.349)"/>
              </g>
            </g>
            <g id="Group_1840" data-name="Group 1840" transform="translate(4.277 0.7)">
              <path id="Path_1393" data-name="Path 1393" d="M189.567,98.889a62.47,62.47,0,0,1,19.325-18.511c7.625-4.763,20.233-9.475,28.922-11.781a18.9,18.9,0,0,1,7.988-.838c2.659.46,5.263,2.23,5.923,4.847.826,3.276-4.988,8.331-7.72,10.319a89.632,89.632,0,0,1-8.3,4.9s.075-6.076-9.65-7.329C212.824,78.8,189.567,98.889,189.567,98.889Z" transform="translate(-189.567 -67.599)" fill="#0d7684"/>
            </g>
          </g>
          <path id="Path_1394" data-name="Path 1394" d="M237.724,75.42a31.284,31.284,0,0,1,9.58-3.26,12.361,12.361,0,0,0-2.6-1.563,24.673,24.673,0,0,0-7.465,2.51Z" transform="translate(-206.242 -68.216)" fill="#e0e0e0"/>
        </g>
        <g id="Group_1856" data-name="Group 1856" transform="translate(0 72.462)">
          <g id="Group_1849" data-name="Group 1849">
            <path id="Path_1395" data-name="Path 1395" d="M206.053,204.468l-10.521-2.318-4.28-1.07-3.566-5.528s-1.7,9.88-8.066,15.2a7.4,7.4,0,0,1-6.268,1.5c-1.443-.3-3.135-.676-4.39-1.011-.267-.071-.562-.166-.875-.278a20.518,20.518,0,0,1-10.832-9.346c-1.416-2.512-2.609-5.09-2.2-6.068l-4.993,10.342-29.422,13.552-16.7,40.791,32.375,9.576,1.008,33.611-6.1,42.391,91.6.064-3.248-94.321" transform="translate(-103.934 -195.552)" fill="#0d7684"/>
            <g id="Group_1843" data-name="Group 1843" transform="translate(69.465 19.597)">
              <path id="Path_1396" data-name="Path 1396" d="M236.852,256.349a3.341,3.341,0,0,1-.577.012l-1.629-.039-5.823-.207-.114,0,0-.115c-.1-2.528-.216-5.519-.341-8.722-.152-4.61-.29-8.781-.392-11.846-.035-1.488-.064-2.705-.085-3.591,0-.4-.006-.722-.008-.977a1.513,1.513,0,0,1,.017-.341,1.54,1.54,0,0,1,.041.339c.017.254.038.577.063.975.044.886.1,2.1.178,3.587.124,3.065.291,7.235.478,11.843.109,3.2.212,6.2.3,8.724l-.119-.119,5.819.312,1.625.106A3.279,3.279,0,0,1,236.852,256.349Z" transform="translate(-227.877 -230.518)" fill="#263238"/>
            </g>
            <g id="Group_1844" data-name="Group 1844" transform="translate(71.749 31.442)">
              <path id="Path_1397" data-name="Path 1397" d="M233.65,252.015a.763.763,0,0,1,.436-.143,1.791,1.791,0,0,1,1.208.335,1.845,1.845,0,0,1,.588.669,1.7,1.7,0,0,1,.159,1.018,2.065,2.065,0,0,1-1.5,1.689,2.177,2.177,0,0,1-2.13-.76,2.072,2.072,0,0,1-.4-1.811,2.241,2.241,0,0,1,.605-1.1c.215-.206.368-.274.376-.261s-.113.118-.292.337a2.362,2.362,0,0,0-.487,1.061,1.894,1.894,0,0,0,.406,1.6,1.934,1.934,0,0,0,1.855.65,1.82,1.82,0,0,0,1.3-1.447,1.529,1.529,0,0,0-.6-1.48,1.791,1.791,0,0,0-1.079-.387C233.812,251.985,233.659,252.039,233.65,252.015Z" transform="translate(-231.952 -251.653)" fill="#263238"/>
            </g>
            <g id="Group_1845" data-name="Group 1845" transform="translate(71.1 19.594)">
              <path id="Path_1398" data-name="Path 1398" d="M232.161,230.879a.891.891,0,0,1,.461-.21,1.991,1.991,0,0,1,1.368.2,2.018,2.018,0,0,1,.734.65,1.83,1.83,0,0,1,.3,1.093,2.186,2.186,0,0,1-1.478,1.988,2.238,2.238,0,0,1-2.343-.816,1.965,1.965,0,0,1-.406-1.056,2.26,2.26,0,0,1,1.037-2.032.955.955,0,0,1,.472-.182c.01.025-.159.087-.408.275a2.254,2.254,0,0,0-.75,1.045,1.837,1.837,0,0,0,.268,1.783,1.991,1.991,0,0,0,2.046.7,1.938,1.938,0,0,0,1.294-1.721,1.67,1.67,0,0,0-.869-1.551,2,2,0,0,0-1.248-.27C232.334,230.82,232.173,230.9,232.161,230.879Z" transform="translate(-230.795 -230.513)" fill="#263238"/>
            </g>
            <g id="Group_1846" data-name="Group 1846" transform="translate(69.481 15.735)">
              <path id="Path_1399" data-name="Path 1399" d="M227.907,273.091a.667.667,0,0,1,.141-.064l.42-.163c.375-.127.909-.363,1.588-.678a20.936,20.936,0,0,0,5.154-3.665,40.824,40.824,0,0,0,5.9-7.321,103.606,103.606,0,0,0,5.751-10.02,173.917,173.917,0,0,0,8.165-19.348c.919-2.528,1.63-4.586,2.129-6.006l.576-1.634.156-.423a.644.644,0,0,1,.063-.141.567.567,0,0,1-.035.15c-.034.114-.076.256-.129.432-.126.4-.3.951-.523,1.652-.465,1.431-1.148,3.5-2.042,6.039a161.885,161.885,0,0,1-8.1,19.411,100.177,100.177,0,0,1-5.786,10.036,40.115,40.115,0,0,1-5.985,7.323,20.281,20.281,0,0,1-5.246,3.617,14.805,14.805,0,0,1-1.618.631l-.431.135A.572.572,0,0,1,227.907,273.091Z" transform="translate(-227.907 -223.628)" fill="#263238"/>
            </g>
            <path id="Path_1400" data-name="Path 1400" d="M259.387,291.611c.24,0,5.816-.384,5.816-.384s-2.3,4.069-4.7,5.589h-4.879Z" transform="translate(-170.609 -237.605)" fill="#fafafa"/>
            <g id="Group_1847" data-name="Group 1847" transform="translate(68.506 50.347)">
              <path id="Path_1401" data-name="Path 1401" d="M226.167,312.559a2.019,2.019,0,0,1,.318-.242l.94-.65c.814-.568,1.984-1.4,3.391-2.479,2.825-2.147,6.533-5.356,10.521-9.022,2-1.829,3.916-3.558,5.573-5.215a43.121,43.121,0,0,0,4.109-4.663,25.749,25.749,0,0,0,2.249-3.533c.243-.432.4-.786.516-1.018a2.086,2.086,0,0,1,.192-.351,1.991,1.991,0,0,1-.138.375c-.1.24-.239.6-.468,1.046a23.227,23.227,0,0,1-2.184,3.6,40.993,40.993,0,0,1-4.084,4.731c-1.653,1.675-3.567,3.413-5.567,5.241a138.051,138.051,0,0,1-10.593,8.971c-1.426,1.061-2.618,1.869-3.452,2.409-.417.271-.749.469-.972.6A2.079,2.079,0,0,1,226.167,312.559Z" transform="translate(-226.167 -285.385)" fill="#263238"/>
            </g>
            <g id="Group_1848" data-name="Group 1848" transform="translate(52.792 97.032)">
              <path id="Path_1402" data-name="Path 1402" d="M198.129,411.435a.607.607,0,0,1,.07-.131l.229-.369c.205-.323.52-.791.939-1.383.844-1.182,2.143-2.837,3.858-4.786,3.451-3.876,8.287-9.16,13.616-15.011l13.694-14.942,4.174-4.505,1.146-1.215.3-.311a.554.554,0,0,1,.111-.1.586.586,0,0,1-.089.119l-.282.33-1.105,1.252-4.106,4.568-13.63,15L203.379,404.9c-1.731,1.928-3.051,3.558-3.92,4.717-.433.581-.762,1.037-.982,1.348l-.253.353A.537.537,0,0,1,198.129,411.435Z" transform="translate(-198.128 -368.682)" fill="#263238"/>
            </g>
          </g>
          <path id="Path_1403" data-name="Path 1403" d="M284.839,210.954c.481.722,11.313,1.926,13.96,4.573s29.124,22.866,29.124,22.866l-18.86,25.437-12.187-2.683Z" transform="translate(-183.45 -202.322)" fill="#0d7684"/>
          <path id="Path_1404" data-name="Path 1404" d="M339.423,255.557l-21.169,26.668,5.5,1.21L342.611,258Z" transform="translate(-198.137 -221.927)" opacity="0.4"/>
          <g id="Group_1850" data-name="Group 1850" transform="translate(106.502 13.37)">
            <path id="Path_1405" data-name="Path 1405" d="M294.619,241.148a5.376,5.376,0,0,1-.219-.886,10.094,10.094,0,0,1-.186-1.055c-.054-.414-.137-.884-.164-1.41-.044-.525-.086-1.1-.082-1.719-.025-.619.017-1.28.048-1.976a25.5,25.5,0,0,1,2.178-8.753c.3-.629.572-1.232.884-1.768.287-.549.594-1.037.878-1.48s.564-.828.806-1.169a10.263,10.263,0,0,1,.658-.845,5.373,5.373,0,0,1,.609-.679,5.42,5.42,0,0,1-.519.749c-.178.232-.39.52-.615.869s-.507.729-.764,1.184-.565.936-.84,1.485c-.3.536-.562,1.137-.851,1.763a26.715,26.715,0,0,0-2.156,8.664c-.038.688-.088,1.342-.074,1.955-.015.614.015,1.184.046,1.705.013.523.081.991.12,1.4s.087.768.135,1.056A5.471,5.471,0,0,1,294.619,241.148Z" transform="translate(-293.961 -219.407)" fill="#263238"/>
          </g>
          <g id="Group_1851" data-name="Group 1851" transform="translate(111.216 45.55)">
            <path id="Path_1406" data-name="Path 1406" d="M306.79,287.281a110.245,110.245,0,0,1-4.414-10.456,110.406,110.406,0,0,1,4.414,10.456Z" transform="translate(-302.372 -276.824)" fill="#263238"/>
          </g>
          <g id="Group_1852" data-name="Group 1852" transform="translate(20.419 25.937)">
            <path id="Path_1407" data-name="Path 1407" d="M152.323,253.436c-.045.024-.5-.809-1.355-2.072a29.081,29.081,0,0,0-8.489-8.238c-1.287-.819-2.134-1.246-2.111-1.292a2.937,2.937,0,0,1,.617.256c.391.179.94.47,1.6.861a25.8,25.8,0,0,1,8.553,8.3c.41.65.718,1.191.908,1.577A2.916,2.916,0,0,1,152.323,253.436Z" transform="translate(-140.367 -241.831)" fill="#263238"/>
          </g>
          <path id="Path_1408" data-name="Path 1408" d="M103.934,308.476l1.3-3.177,35.818,9.751-1.42,3.985Z" transform="translate(-103.934 -243.79)" opacity="0.4"/>
          <path id="Path_1409" data-name="Path 1409" d="M271.532,288.556h13.635v5.63l-17.443-.112A38.07,38.07,0,0,0,271.532,288.556Z" transform="translate(-175.927 -236.431)" fill="#fafafa"/>
          <g id="Group_1853" data-name="Group 1853" transform="translate(46.971 11.238)" opacity="0.2">
            <path id="Path_1410" data-name="Path 1410" d="M187.743,215.939c.493,4.373,1.029,8.882,3.191,12.715s6.4,6.854,10.75,6.211c2.905-.429,5.366-2.372,7.344-4.543s3.635-4.638,5.793-6.629a25.446,25.446,0,0,0,4.349,3.741,8.542,8.542,0,0,0,5.452,1.438,3.7,3.7,0,0,0,3.552-2.8,8.906,8.906,0,0,1-5.167.145,14.143,14.143,0,0,1-6.118-2.812c-1.189-.936-1.617-2.342-3.127-2.255-1.4.081-2.488,1.185-3.408,2.238a39.206,39.206,0,0,1-4.861,4.688,8.194,8.194,0,0,1-5.446,2.178c-3.528-.077-6.415-2.846-8.362-5.788a29.028,29.028,0,0,1-3.918-8.86" transform="translate(-187.743 -215.604)"/>
          </g>
          <g id="Group_1854" data-name="Group 1854" transform="translate(73.794 6.12)">
            <path id="Path_1411" data-name="Path 1411" d="M250.049,206.471a1.293,1.293,0,0,1,.059.312c.027.206.073.509.109.9.083.785.168,1.926.2,3.339A47.67,47.67,0,0,1,249.371,222l-.019.089-.018.089-.087.022a11.948,11.948,0,0,1-6.038-.159,14.305,14.305,0,0,1-4.472-2.1,11.537,11.537,0,0,1-2.444-2.259,6.654,6.654,0,0,1-.53-.734,1.25,1.25,0,0,1-.16-.271,14.145,14.145,0,0,0,3.251,3.094,14.514,14.514,0,0,0,4.426,2.006,11.836,11.836,0,0,0,5.894.136l-.105.11.019-.089a51.341,51.341,0,0,0,1.127-10.909c-.006-1.407-.06-2.546-.108-3.332-.022-.367-.04-.666-.054-.906A1.364,1.364,0,0,1,250.049,206.471Z" transform="translate(-235.602 -206.471)" fill="#263238"/>
          </g>
          <g id="Group_1855" data-name="Group 1855" transform="translate(46.447 9.576)">
            <path id="Path_1412" data-name="Path 1412" d="M211.578,220.24a1.854,1.854,0,0,1-.179.336,9.636,9.636,0,0,1-.622.9,23.925,23.925,0,0,1-2.756,2.907c-.622.573-1.321,1.181-2.078,1.824-.381.321-.763.656-1.186.989a10.724,10.724,0,0,1-1.387.893,8.609,8.609,0,0,1-3.381,1.027,6.4,6.4,0,0,1-3.7-.817,11.794,11.794,0,0,1-2.9-2.442,28.38,28.38,0,0,1-2.182-2.759,28.056,28.056,0,0,1-2.856-5.213,27.079,27.079,0,0,1-1.257-3.8c-.117-.458-.189-.818-.233-1.063a1.869,1.869,0,0,1-.056-.376,1.83,1.83,0,0,1,.113.363c.063.24.152.595.285,1.047a31.165,31.165,0,0,0,1.337,3.752,28.9,28.9,0,0,0,5.059,7.86,11.613,11.613,0,0,0,2.83,2.38,6.133,6.133,0,0,0,3.534.786,8.4,8.4,0,0,0,3.275-.979,10.649,10.649,0,0,0,1.358-.86c.411-.318.8-.655,1.186-.97.763-.634,1.467-1.231,2.095-1.792a26.92,26.92,0,0,0,2.806-2.825c.3-.361.518-.655.661-.857A1.839,1.839,0,0,1,211.578,220.24Z" transform="translate(-186.808 -212.639)" fill="#263238"/>
          </g>
        </g>
        <g id="Group_1863" data-name="Group 1863" transform="translate(0 128.878)">
          <g id="Group_1861" data-name="Group 1861">
            <g id="Group_1860" data-name="Group 1860" transform="translate(59.145)">
              <path id="Path_1413" data-name="Path 1413" d="M209.464,321.368l4.318-6.3s2.97-10.328,2.567-11.767-1.716-6.827-1.406-6.89,3.544-1.269,5.3,3.049a28.26,28.26,0,0,1,1.566,8.518,1.958,1.958,0,0,0,2.353,1.824c2.988-.612,7.958-1.549,9.138-1.266a5.842,5.842,0,0,1,3.4,3.329c.15.731-1.035,2.386-1.035,2.386a4.5,4.5,0,0,1,1.906,1.872c.061.153.113.3.158.448a2.717,2.717,0,0,1-.6,2.628l-.457.5s1.818.5,2.043,1.54a6.21,6.21,0,0,1-.062,2.3l-1.706,1.763a2.875,2.875,0,0,1,.885,1.668c.088.961-2.472,3.333-2.472,3.333l-10.99,3.939L220,335.356Z" transform="translate(-209.464 -296.213)" fill="#b78876"/>
              <g id="Group_1857" data-name="Group 1857" transform="translate(18.597 18.034)">
                <path id="Path_1414" data-name="Path 1414" d="M250.28,328.408c.012.082-1.7.393-3.807.823a38.861,38.861,0,0,1-3.827.73,4.314,4.314,0,0,1,1.083-.375c.68-.192,1.629-.425,2.685-.641s2.02-.37,2.721-.46A4.257,4.257,0,0,1,250.28,328.408Z" transform="translate(-242.646 -328.391)" fill="#aa6550"/>
              </g>
              <g id="Group_1858" data-name="Group 1858" transform="translate(21.335 23.476)">
                <path id="Path_1415" data-name="Path 1415" d="M253.432,338.111a32.58,32.58,0,0,1-5.9,1.8,32.776,32.776,0,0,1,5.9-1.8Z" transform="translate(-247.531 -338.1)" fill="#aa6550"/>
              </g>
              <g id="Group_1859" data-name="Group 1859" transform="translate(21.597 28.844)">
                <path id="Path_1416" data-name="Path 1416" d="M254.293,347.685A40.5,40.5,0,0,1,248,350.437a40.5,40.5,0,0,1,6.294-2.752Z" transform="translate(-247.998 -347.678)" fill="#aa6550"/>
              </g>
            </g>
            <path id="Path_1417" data-name="Path 1417" d="M137.754,368.247l40.418-27.115-10.2-18.472-36.892,18.973L135.27,321.7l-25.036-7.405L103.988,348.4h0c-.967,15.176,11.205,27.43,25.881,23.444h0A26.727,26.727,0,0,0,137.754,368.247Z" transform="translate(-103.934 -304.159)" fill="#b78876"/>
          </g>
          <g id="Group_1862" data-name="Group 1862" transform="translate(21.53 37.089)">
            <path id="Path_1418" data-name="Path 1418" d="M142.631,373.476a1.679,1.679,0,0,1-.139-.508,8.507,8.507,0,0,1-.14-1.429,9.924,9.924,0,0,1,4.092-8.2,8.508,8.508,0,0,1,1.226-.748,1.665,1.665,0,0,1,.49-.194c.025.047-.654.367-1.591,1.107a10.444,10.444,0,0,0-4.011,8.04C142.531,372.733,142.684,373.468,142.631,373.476Z" transform="translate(-142.349 -362.39)" fill="#aa6550"/>
          </g>
        </g>
        <g id="Group_1887" data-name="Group 1887" transform="translate(80.931 110.731)">
          <g id="Group_1865" data-name="Group 1865" transform="translate(44.684)">
            <path id="Path_1419" data-name="Path 1419" d="M328.062,287.073c.253-.345,28.787,17.037,28.787,17.037l9.144,41.672,13.164,4.83s4.11-46.372.981-53.593-34.83-33.186-34.83-33.186Z" transform="translate(-328.062 -263.834)" fill="#b78876"/>
            <g id="Group_1864" data-name="Group 1864" transform="translate(29.397 37.077)">
              <path id="Path_1420" data-name="Path 1420" d="M386.135,329.991a9.291,9.291,0,0,1-5.621,3.617,17.09,17.09,0,0,0,5.621-3.617Z" transform="translate(-380.513 -329.989)" fill="#aa6550"/>
            </g>
          </g>
          <g id="Group_1881" data-name="Group 1881" transform="translate(0 21.533)">
            <path id="Path_1421" data-name="Path 1421" d="M266.835,304.051l2.233,39.993,45.6-3.082-1.38-29.772-6.638-8.936Z" transform="translate(-256.467 -302.254)" fill="#263238"/>
            <path id="Path_1422" data-name="Path 1422" d="M248.335,374.532c.138.768,4.009,36.991,4.009,36.991l67.866-4.72,11.486-1.537-5.3-33.733-8.114-1.941Z" transform="translate(-248.335 -331.852)" fill="#0d7684"/>
            <path id="Path_1423" data-name="Path 1423" d="M318.286,369.593l-69.951,4.939c.138.768,4.009,36.991,4.009,36.991L323,406.609Z" transform="translate(-248.335 -331.852)" opacity="0.4"/>
            <path id="Path_1424" data-name="Path 1424" d="M307.832,341.424l-38.763,2.62-2.233-39.993,39.814-1.8Z" transform="translate(-256.467 -302.254)" fill="#455a64"/>
            <path id="Path_1425" data-name="Path 1425" d="M292.622,304.025l.817,12.325,2.073-1.187,1.152,1.187,1.426-1.187,2.207,1.187V303.678Z" transform="translate(-267.801 -302.88)" fill="#263238"/>
            <g id="Group_1869" data-name="Group 1869" transform="translate(38.37 9.992)">
              <path id="Path_1426" data-name="Path 1426" d="M319.451,350.1,316.8,320.083l25.912,7.142,2.5,20.717Z" transform="translate(-316.798 -320.082)" fill="#0d7684"/>
              <g id="Group_1866" data-name="Group 1866">
                <path id="Path_1427" data-name="Path 1427" d="M342.709,327.224a1.089,1.089,0,0,1-.16.215l-.5.59-1.9,2.175-6.622,7.425-.1.113-.105-.11-3.526-3.7-9.23-9.755-2.773-2.979-.743-.82a.194.194,0,1,1,.043-.04l.783.782,2.84,2.915,9.292,9.7,3.519,3.7-.206,0,6.7-7.356,1.966-2.12.535-.559A1.128,1.128,0,0,1,342.709,327.224Z" transform="translate(-316.797 -320.082)" fill="#263238"/>
              </g>
              <g id="Group_1867" data-name="Group 1867" transform="translate(2.876 12.703)">
                <path id="Path_1428" data-name="Path 1428" d="M330.437,342.749c.071.038-1.776,3.581-4.124,7.913s-4.311,7.813-4.382,7.774,1.776-3.581,4.126-7.913S330.366,342.71,330.437,342.749Z" transform="translate(-321.929 -342.748)" fill="#263238"/>
              </g>
              <g id="Group_1868" data-name="Group 1868" transform="translate(20.034 14.891)">
                <path id="Path_1429" data-name="Path 1429" d="M360.317,359.619c-.069.042-1.865-2.828-4.011-6.408s-3.83-6.517-3.761-6.558,1.865,2.827,4.012,6.408S360.386,359.578,360.317,359.619Z" transform="translate(-352.542 -346.652)" fill="#263238"/>
              </g>
            </g>
            <g id="Group_1873" data-name="Group 1873" transform="translate(53.245 19.722)">
              <path id="Path_1430" data-name="Path 1430" d="M345.03,356.559l-1.69-19.115,16.5,4.548,1.59,13.193Z" transform="translate(-343.339 -337.443)" fill="#0d7684"/>
              <path id="Path_1431" data-name="Path 1431" d="M345.03,356.559l-1.69-19.115,16.5,4.548,1.59,13.193Z" transform="translate(-343.339 -337.443)" fill="#fff" opacity="0.4"/>
              <g id="Group_1870" data-name="Group 1870">
                <path id="Path_1432" data-name="Path 1432" d="M359.84,341.992a3.473,3.473,0,0,1-.408.524l-1.2,1.4-4.2,4.741-.1.114-.105-.111-2.247-2.352c-2.3-2.419-4.377-4.62-5.866-6.223l-1.754-1.909a5.875,5.875,0,0,1-.614-.727,5.957,5.957,0,0,1,.7.649l1.82,1.845c1.528,1.566,3.625,3.745,5.928,6.164l2.24,2.36-.206,0,4.28-4.672,1.263-1.341A3.481,3.481,0,0,1,359.84,341.992Z" transform="translate(-343.339 -337.443)" fill="#263238"/>
              </g>
              <g id="Group_1871" data-name="Group 1871" transform="translate(1.83 8.09)">
                <path id="Path_1433" data-name="Path 1433" d="M352.024,351.878a110.469,110.469,0,0,1-5.417,9.99,110.866,110.866,0,0,1,5.417-9.99Z" transform="translate(-346.604 -351.877)" fill="#263238"/>
              </g>
              <g id="Group_1872" data-name="Group 1872" transform="translate(12.756 9.483)">
                <path id="Path_1434" data-name="Path 1434" d="M371.052,362.621a79.659,79.659,0,0,1-4.949-8.258,79.576,79.576,0,0,1,4.949,8.258Z" transform="translate(-366.099 -354.363)" fill="#263238"/>
              </g>
            </g>
            <path id="Path_1435" data-name="Path 1435" d="M365.121,344.117v1.538l2.41.28.126-1.174Z" transform="translate(-299.668 -320.655)" fill="#fff"/>
            <path id="Path_1436" data-name="Path 1436" d="M349.945,330.207v2.247l4.549.75.251-1.71Z" transform="translate(-292.997 -314.541)" fill="#fff"/>
            <path id="Path_1437" data-name="Path 1437" d="M310.967,384.818l-.224-11.178-9.068.613.972,11.352Z" transform="translate(-271.78 -333.631)" fill="#0d7684"/>
            <g id="Group_1880" data-name="Group 1880" transform="translate(53.329 56.94)">
              <g id="Group_1875" data-name="Group 1875">
                <rect id="Rectangle_257" data-name="Rectangle 257" width="15.282" height="13.518" transform="translate(0.174 1.577) rotate(-5.416)" fill="#fafafa"/>
                <g id="Group_1874" data-name="Group 1874">
                  <path id="Path_1438" data-name="Path 1438" d="M360.151,417.443a2.359,2.359,0,0,1-.038-.258c-.021-.184-.049-.425-.083-.728-.07-.655-.168-1.575-.292-2.738-.24-2.364-.578-5.707-.986-9.722l.135.112-15.21,1.465c-.03.034.248-.3.131-.157v.025l0,.029.006.058.011.114.022.229.043.456q.043.455.086.907.085.9.169,1.79l.326,3.47c.21,2.258.408,4.4.592,6.38l-.141-.115,10.978-.976,3.118-.262.832-.063a2.41,2.41,0,0,1,.3-.013,1.667,1.667,0,0,1-.265.04l-.8.091L356,417.9l-11.048,1.113-.128.013-.013-.129c-.192-1.981-.4-4.122-.617-6.378l-.332-3.469q-.085-.886-.17-1.79-.044-.451-.086-.907l-.044-.456-.021-.229-.011-.114-.005-.058,0-.029,0-.014v-.011c-.118.141.159-.2.132-.161l15.214-1.42.124-.012.011.123c.358,4.053.656,7.426.866,9.811.1,1.153.172,2.068.225,2.717.022.294.04.527.053.707A1.375,1.375,0,0,1,360.151,417.443Z" transform="translate(-343.488 -403.85)" fill="#263238"/>
                </g>
              </g>
              <g id="Group_1876" data-name="Group 1876" transform="translate(2.289 3.343)">
                <path id="Path_1439" data-name="Path 1439" d="M359.482,409.831c.008.081-2.651.426-5.939.772s-5.962.562-5.971.482,2.65-.425,5.94-.772S359.473,409.751,359.482,409.831Z" transform="translate(-347.572 -409.815)" fill="#263238"/>
              </g>
              <g id="Group_1877" data-name="Group 1877" transform="translate(2.727 5.636)">
                <path id="Path_1440" data-name="Path 1440" d="M359.737,413.915a8.656,8.656,0,0,1-1.635.4c-1.019.2-2.437.439-4.014.625s-3.011.284-4.05.321a8.609,8.609,0,0,1-1.684-.015,10.824,10.824,0,0,1,1.671-.191c1.033-.091,2.459-.221,4.029-.405s2.987-.387,4.013-.539A10.852,10.852,0,0,1,359.737,413.915Z" transform="translate(-348.353 -413.906)" fill="#263238"/>
              </g>
              <g id="Group_1878" data-name="Group 1878" transform="translate(3.368 10.635)">
                <path id="Path_1441" data-name="Path 1441" d="M360.882,422.836a8.71,8.71,0,0,1-1.635.4c-1.02.2-2.438.439-4.015.625s-3.011.283-4.05.321a8.606,8.606,0,0,1-1.684-.015,10.828,10.828,0,0,1,1.671-.191c1.033-.091,2.459-.221,4.03-.405s2.987-.387,4.013-.539A10.771,10.771,0,0,1,360.882,422.836Z" transform="translate(-349.498 -422.826)" fill="#263238"/>
              </g>
              <g id="Group_1879" data-name="Group 1879" transform="translate(2.851 8.07)">
                <path id="Path_1442" data-name="Path 1442" d="M359.71,418.263a108.33,108.33,0,0,1-11.135,1.592,108.4,108.4,0,0,1,11.135-1.592Z" transform="translate(-348.575 -418.25)" fill="#263238"/>
              </g>
            </g>
          </g>
          <g id="Group_1886" data-name="Group 1886" transform="translate(62.389 81.235)">
            <path id="Path_1443" data-name="Path 1443" d="M378.012,434.941s12.526-8.286,13.489-12.525,1.541-8.094,1.541-8.094l-13.382-5.543,1.328,4.822s-4.8,2.854-5.288,6.309c-.326,2.306-6.529,6.247-6.529,6.247h0a5.122,5.122,0,0,0-4.3-1.842l-5.212.368,3.521,7.945Z" transform="translate(-359.654 -408.779)" fill="#b78876"/>
            <g id="Group_1882" data-name="Group 1882" transform="translate(9.16 14.799)">
              <path id="Path_1444" data-name="Path 1444" d="M390.091,435.188a2.065,2.065,0,0,1-.592.24c-.39.13-.972.258-1.659.484a6.809,6.809,0,0,0-2.175,1.263,10.834,10.834,0,0,1-2.677,1.7,9.071,9.071,0,0,1-5.681.476,2.98,2.98,0,0,1-.95-.353.694.694,0,0,1-.346-.693.514.514,0,0,1,.281-.4c.112-.041.174-.016.172-.01s-.06.012-.145.063a.467.467,0,0,0-.2.366.569.569,0,0,0,.323.543,2.988,2.988,0,0,0,.907.288,9.3,9.3,0,0,0,5.521-.544,11.127,11.127,0,0,0,2.627-1.644,6.7,6.7,0,0,1,2.275-1.246c.712-.205,1.3-.3,1.692-.4A3.868,3.868,0,0,1,390.091,435.188Z" transform="translate(-375.998 -435.184)" fill="#aa6550"/>
            </g>
            <g id="Group_1883" data-name="Group 1883" transform="translate(3.685 15.538)">
              <path id="Path_1445" data-name="Path 1445" d="M377.12,442.2c-.024.041-.643-.326-1.709-.766a15.417,15.417,0,0,0-4.345-1.081c-.438-.047-.869-.06-1.284-.069l-.079,0-.041-.064a13.564,13.564,0,0,0-2.33-2.751c-.674-.609-1.124-.924-1.1-.957a1.113,1.113,0,0,1,.348.182,9.121,9.121,0,0,1,.874.634,11.907,11.907,0,0,1,2.451,2.737l-.12-.066c.424.006.863.017,1.311.064a13.686,13.686,0,0,1,4.4,1.183,11.48,11.48,0,0,1,1.218.653A1.673,1.673,0,0,1,377.12,442.2Z" transform="translate(-366.229 -436.504)" fill="#aa6550"/>
            </g>
            <g id="Group_1884" data-name="Group 1884" transform="translate(14.359 18.939)">
              <path id="Path_1446" data-name="Path 1446" d="M388.875,442.586c.025.082-.849.4-1.833.961s-1.707,1.146-1.765,1.082a6.1,6.1,0,0,1,3.6-2.043Z" transform="translate(-385.275 -442.571)" fill="#aa6550"/>
            </g>
            <g id="Group_1885" data-name="Group 1885" transform="translate(21.115 3.888)">
              <path id="Path_1447" data-name="Path 1447" d="M400.959,415.883c-.011.087-.869-.019-1.871.25s-1.7.766-1.755.7a3.625,3.625,0,0,1,3.626-.946Z" transform="translate(-397.329 -415.717)" fill="#aa6550"/>
            </g>
          </g>
        </g>
      </g>
    </g>
    <g id="Plant" transform="translate(34.209 224.372)">
      <g id="Group_1913" data-name="Group 1913">
        <g id="Group_1891" data-name="Group 1891" transform="translate(19.948)">
          <g id="Group_1890" data-name="Group 1890">
            <g id="Group_1889" data-name="Group 1889">
              <path id="Path_1448" data-name="Path 1448" d="M76.188,390.062c1.652,1.96,4.435,1.014,5.641-.381a10.675,10.675,0,0,0,1.948-5.1c.8-4.134,1.592-8.468.362-12.5a6.9,6.9,0,0,0-1.879-3.22,3.6,3.6,0,0,0-3.5-.828c-1.4.507-2.168,1.992-2.692,3.387a29.589,29.589,0,0,0-1.783,12.91,10.264,10.264,0,0,0,1.906,5.733" transform="translate(-74.175 -367.862)" fill="#0d7684"/>
            </g>
          </g>
        </g>
        <g id="Group_1894" data-name="Group 1894" transform="translate(19.948)" opacity="0.2">
          <g id="Group_1893" data-name="Group 1893">
            <g id="Group_1892" data-name="Group 1892">
              <path id="Path_1449" data-name="Path 1449" d="M76.188,390.062c1.652,1.96,4.435,1.014,5.641-.381a10.675,10.675,0,0,0,1.948-5.1c.8-4.134,1.592-8.468.362-12.5a6.9,6.9,0,0,0-1.879-3.22,3.6,3.6,0,0,0-3.5-.828c-1.4.507-2.168,1.992-2.692,3.387a29.589,29.589,0,0,0-1.783,12.91,10.264,10.264,0,0,0,1.906,5.733" transform="translate(-74.175 -367.862)"/>
            </g>
          </g>
        </g>
        <g id="Group_1897" data-name="Group 1897" transform="translate(25.954 30.592)">
          <g id="Group_1896" data-name="Group 1896">
            <g id="Group_1895" data-name="Group 1895">
              <path id="Path_1450" data-name="Path 1450" d="M87.331,424.156a12.74,12.74,0,0,1,7.788-1.661,6.567,6.567,0,0,1,4.044,1.389c1.068.986,1.421,2.857.387,3.879a3.743,3.743,0,0,1-2.4.841c-2.084.161-4.425,0-5.977,1.4-.884.8-1.41,2.043-2.513,2.5a2.692,2.692,0,0,1-3.067-1.049,4.6,4.6,0,0,1-.636-3.352A5.183,5.183,0,0,1,87.331,424.156Z" transform="translate(-84.892 -422.447)" fill="#0d7684"/>
            </g>
          </g>
        </g>
        <g id="Group_1900" data-name="Group 1900" transform="translate(0 8.73)">
          <g id="Group_1899" data-name="Group 1899">
            <g id="Group_1898" data-name="Group 1898">
              <path id="Path_1451" data-name="Path 1451" d="M56.791,400.269a7.641,7.641,0,0,0,.558-7.109,13.549,13.549,0,0,0-4.685-5.646,22.414,22.414,0,0,0-7.819-3.719,7.942,7.942,0,0,0-3.391-.269,3.517,3.517,0,0,0-2.652,1.946c-.649,1.56.262,3.3,1.2,4.7a56.856,56.856,0,0,0,5.542,6.993c1.631,1.754,3.471,3.464,5.776,4.117s4.611.346,5.654-1.305" transform="translate(-38.583 -383.439)" fill="#0d7684"/>
            </g>
          </g>
        </g>
        <g id="Group_1904" data-name="Group 1904" transform="translate(24.466 33.563)">
          <g id="Group_1903" data-name="Group 1903">
            <g id="Group_1902" data-name="Group 1902">
              <g id="Group_1901" data-name="Group 1901">
                <path id="Path_1452" data-name="Path 1452" d="M82.451,447.942a4.622,4.622,0,0,0,.048-.962c.005-.7.012-1.574.021-2.616a37.573,37.573,0,0,1,.243-3.856,29.5,29.5,0,0,1,.981-4.614,16.618,16.618,0,0,1,1.93-4.267,8.591,8.591,0,0,1,2.683-2.669,8.159,8.159,0,0,1,2.374-.979,4.547,4.547,0,0,0,.934-.221,4.488,4.488,0,0,0-.964.071,7.42,7.42,0,0,0-2.486.89,8.578,8.578,0,0,0-2.84,2.7,16.219,16.219,0,0,0-2.006,4.357,27.54,27.54,0,0,0-.965,4.686,32.27,32.27,0,0,0-.162,3.9c.016,1.109.065,2,.1,2.621A4.474,4.474,0,0,0,82.451,447.942Z" transform="translate(-82.237 -427.747)" fill="#263238"/>
              </g>
            </g>
          </g>
        </g>
        <g id="Group_1908" data-name="Group 1908" transform="translate(23.485 8.442)">
          <g id="Group_1907" data-name="Group 1907">
            <g id="Group_1906" data-name="Group 1906">
              <g id="Group_1905" data-name="Group 1905">
                <path id="Path_1453" data-name="Path 1453" d="M81.682,426.229a1.956,1.956,0,0,0-.014-.443c-.031-.331-.069-.748-.116-1.26-.1-1.094-.242-2.678-.358-4.638-.253-3.92-.4-9.349-.278-15.341s.516-11.413.966-15.314c.1-.977.212-1.859.322-2.631s.187-1.44.28-1.982c.075-.508.136-.923.185-1.252a1.865,1.865,0,0,0,.038-.442,1.825,1.825,0,0,0-.116.427c-.068.326-.154.736-.258,1.241-.115.539-.224,1.2-.346,1.976s-.262,1.652-.381,2.629a143.513,143.513,0,0,0-1.083,15.339c-.12,6,.069,11.446.394,15.369.152,1.962.335,3.545.483,4.636.077.509.14.924.189,1.254A1.838,1.838,0,0,0,81.682,426.229Z" transform="translate(-80.486 -382.925)" fill="#263238"/>
              </g>
            </g>
          </g>
        </g>
        <g id="Group_1912" data-name="Group 1912" transform="translate(7.191 13.314)">
          <g id="Group_1911" data-name="Group 1911">
            <g id="Group_1910" data-name="Group 1910">
              <g id="Group_1909" data-name="Group 1909">
                <path id="Path_1454" data-name="Path 1454" d="M68,419.6a8.332,8.332,0,0,0-.127-1.316c-.124-.842-.35-2.055-.722-3.533a47.129,47.129,0,0,0-1.625-5.1A46.257,46.257,0,0,0,62.8,403.7a32.913,32.913,0,0,0-7.274-9.372,16.331,16.331,0,0,0-1.627-1.262c-.248-.174-.469-.35-.69-.486l-.619-.35a8.4,8.4,0,0,0-1.172-.611,39.417,39.417,0,0,1,3.925,2.918,34.689,34.689,0,0,1,7.111,9.351,49.386,49.386,0,0,1,2.731,5.9,53.007,53.007,0,0,1,1.695,5.038c.4,1.459.67,2.657.84,3.487A8.513,8.513,0,0,0,68,419.6Z" transform="translate(-51.415 -391.618)" fill="#263238"/>
              </g>
            </g>
          </g>
        </g>
      </g>
    </g>
  </g>
</svg>
