<svg xmlns="http://www.w3.org/2000/svg" width="312" height="325" viewBox="0 0 312 325">
  <g id="_5" data-name="5" transform="translate(-353.597 -402)">
    <g id="_5-2" data-name="5" transform="translate(353.597 402)">
      <g id="Path_1160" data-name="Path 1160" transform="translate(90.99 1.687)" fill="#f5feff">
        <path d="M 191.9670104980469 306.7783508300781 L 3.000012874603271 306.7783508300781 L 3.000012874603271 3.000008821487427 L 191.9670104980469 3.000008821487427 L 191.9670104980469 306.7783508300781 Z" stroke="none"/>
        <path d="M 6.000015258789063 6 L 6.000015258789063 303.7783508300781 L 188.9670104980469 303.7783508300781 L 188.9670104980469 6 L 6.000015258789063 6 M 1.52587890625e-05 0 L 194.9670104980469 0 L 194.9670104980469 309.7783508300781 L 1.52587890625e-05 309.7783508300781 L 1.52587890625e-05 0 Z" stroke="none" fill="#67afb9"/>
      </g>
      <path id="Path_1027" data-name="Path 1027" d="M916.567,440.135H732.018V422.792H926.35Z" transform="translate(-640.73 -417.773)" fill="#b5dce2" style="mix-blend-mode: multiply;isolation: isolate"/>
      <g id="Group_1263" data-name="Group 1263" transform="translate(112.096 193.877)">
        <g id="Group_1256" data-name="Group 1256" transform="translate(0 0.038)">
          <rect id="Rectangle_246" data-name="Rectangle 246" width="48" height="48" rx="14" fill="#b5dce2"/>
          <g id="Group_1255" data-name="Group 1255" transform="translate(9.732 4.308)">
            <g id="Group_1254" data-name="Group 1254" transform="translate(3.105 16.208)">
              <path id="Path_1028" data-name="Path 1028" d="M873.6,1309.5H863.054s.714,10.112,3.927,12.539a6.267,6.267,0,0,1,2.05,2.049.872.872,0,0,0,.8.58h6.376a.871.871,0,0,0,.8-.58,6.272,6.272,0,0,1,2.05-2.049c3.214-2.427,3.927-12.539,3.927-12.539Z" transform="translate(-863.054 -1309.496)" fill="#fff"/>
              <g id="Group_1253" data-name="Group 1253" transform="translate(15.597 1.964)">
                <path id="Path_1029" data-name="Path 1029" d="M931.088,1327.547a12.485,12.485,0,0,1-3.419-.584l.512-1.617c1.218.385,3.28.734,4.045.306,1.049-.582,2.7-4.924,2.32-6.114-.2-.3-1.9-.28-3.521.163l-.449-1.635c1.14-.314,4.914-1.17,5.587.96.625,1.979-1.353,7.131-3.113,8.108A4.1,4.1,0,0,1,931.088,1327.547Z" transform="translate(-927.669 -1317.63)" fill="#fff"/>
              </g>
            </g>
            <ellipse id="Ellipse_51" data-name="Ellipse 51" cx="12.967" cy="0.806" rx="12.967" ry="0.806" transform="translate(0 31.864)" fill="#fff"/>
            <path id="Path_1030" data-name="Path 1030" d="M881.336,1268.849a12.368,12.368,0,0,1,1.075-2.808,5.516,5.516,0,0,0,.14-3.381,6.336,6.336,0,0,1,.366,5.537,10.672,10.672,0,0,0-.935,2.316,4.785,4.785,0,0,0-.006,1.135A4.323,4.323,0,0,1,881.336,1268.849Z" transform="translate(-873.801 -1257.756)" fill="#fff"/>
            <path id="Path_1031" data-name="Path 1031" d="M902.6,1251.742a25.4,25.4,0,0,1,1.075-4.263,12.524,12.524,0,0,0,.14-5.133,14.128,14.128,0,0,1,.366,8.406,21.651,21.651,0,0,0-.935,3.515,10.956,10.956,0,0,0-.006,1.723A9.385,9.385,0,0,1,902.6,1251.742Z" transform="translate(-889.931 -1242.347)" fill="#fff"/>
            <path id="Path_1032" data-name="Path 1032" d="M920.182,1278c.11-.673.725-1.254,1.075-1.889a2.575,2.575,0,0,0,.14-2.274,3.06,3.06,0,0,1,.366,3.723,6.1,6.1,0,0,0-.935,1.557,2.168,2.168,0,0,0-.006.763A2.191,2.191,0,0,1,920.182,1278Z" transform="translate(-903.27 -1266.233)" fill="#fff"/>
          </g>
        </g>
        <g id="Group_1260" data-name="Group 1260" transform="translate(53.989)">
          <rect id="Rectangle_247" data-name="Rectangle 247" width="48" height="48" rx="14" fill="#b5dce2"/>
          <g id="Group_1259" data-name="Group 1259" transform="translate(12.359 13.94)">
            <path id="Path_1033" data-name="Path 1033" d="M1104.473,1333.377h-5.242l-1.1,1.515-2.249-1.515h-14.626c0,.017,0,.034,0,.051,0,3.463,5.2,6.27,11.613,6.27s11.613-2.807,11.613-6.27C1104.478,1333.411,1104.474,1333.394,1104.473,1333.377Z" transform="translate(-1080.995 -1319.823)" fill="#fff"/>
            <g id="Group_1257" data-name="Group 1257" transform="translate(0.192)">
              <path id="Path_1034" data-name="Path 1034" d="M1092.589,1277.223c-6.382,0-11.557,3.417-11.609,7.644H1104.2C1104.146,1280.64,1098.97,1277.223,1092.589,1277.223Z" transform="translate(-1080.98 -1277.223)" fill="#fff"/>
              <path id="Path_1035" data-name="Path 1035" d="M1100.347,1287.635a.235.235,0,1,1-.236-.236A.236.236,0,0,1,1100.347,1287.635Z" transform="translate(-1095.315 -1284.943)" fill="#5166a1"/>
              <path id="Path_1036" data-name="Path 1036" d="M1116.858,1282.713a.236.236,0,1,1-.236-.235A.236.236,0,0,1,1116.858,1282.713Z" transform="translate(-1107.84 -1281.209)" fill="#5166a1"/>
              <path id="Path_1037" data-name="Path 1037" d="M1111.989,1290.5a.236.236,0,1,1-.235-.236A.236.236,0,0,1,1111.989,1290.5Z" transform="translate(-1104.147 -1287.119)" fill="#5166a1"/>
              <path id="Path_1038" data-name="Path 1038" d="M1129.126,1283.3a.236.236,0,1,1-.235-.236A.236.236,0,0,1,1129.126,1283.3Z" transform="translate(-1117.147 -1281.652)" fill="#5166a1"/>
              <path id="Path_1039" data-name="Path 1039" d="M1132.243,1293.814a.236.236,0,1,1-.236-.236A.236.236,0,0,1,1132.243,1293.814Z" transform="translate(-1119.512 -1289.631)" fill="#5166a1"/>
              <path id="Path_1040" data-name="Path 1040" d="M1140.23,1287.776a.236.236,0,1,1-.236-.235A.236.236,0,0,1,1140.23,1287.776Z" transform="translate(-1125.571 -1285.05)" fill="#5166a1"/>
              <path id="Path_1041" data-name="Path 1041" d="M1140.425,1282.521a.235.235,0,1,1-.235-.236A.235.235,0,0,1,1140.425,1282.521Z" transform="translate(-1125.719 -1281.063)" fill="#5166a1"/>
              <path id="Path_1042" data-name="Path 1042" d="M1156.007,1287a.236.236,0,1,1-.236-.236A.236.236,0,0,1,1156.007,1287Z" transform="translate(-1137.54 -1284.459)" fill="#5166a1"/>
              <path id="Path_1043" data-name="Path 1043" d="M1150.358,1294.6a.236.236,0,1,1-.236-.236A.235.235,0,0,1,1150.358,1294.6Z" transform="translate(-1133.254 -1290.223)" fill="#5166a1"/>
              <path id="Path_1044" data-name="Path 1044" d="M1149.384,1286.025a.236.236,0,1,1-.236-.235A.236.236,0,0,1,1149.384,1286.025Z" transform="translate(-1132.515 -1283.722)" fill="#5166a1"/>
              <path id="Path_1045" data-name="Path 1045" d="M1159.707,1292.843a.236.236,0,1,1-.235-.235A.235.235,0,0,1,1159.707,1292.843Z" transform="translate(-1140.347 -1288.894)" fill="#5166a1"/>
              <path id="Path_1046" data-name="Path 1046" d="M1121.338,1293.621a.236.236,0,1,1-.236-.236A.236.236,0,0,1,1121.338,1293.621Z" transform="translate(-1111.239 -1289.484)" fill="#5166a1"/>
              <path id="Path_1047" data-name="Path 1047" d="M1099.329,1292.839a.236.236,0,1,1-.236-.236A.236.236,0,0,1,1099.329,1292.839Z" transform="translate(-1094.543 -1288.891)" fill="#5166a1"/>
              <path id="Path_1048" data-name="Path 1048" d="M1108.288,1296.736a.236.236,0,1,1-.236-.235A.236.236,0,0,1,1108.288,1296.736Z" transform="translate(-1101.339 -1291.848)" fill="#5166a1"/>
              <path id="Path_1049" data-name="Path 1049" d="M1109.654,1284.271a.236.236,0,1,1-.236-.236A.236.236,0,0,1,1109.654,1284.271Z" transform="translate(-1102.375 -1282.391)" fill="#5166a1"/>
              <path id="Path_1050" data-name="Path 1050" d="M1123.288,1287.388a.235.235,0,1,1-.235-.236A.235.235,0,0,1,1123.288,1287.388Z" transform="translate(-1112.718 -1284.755)" fill="#5166a1"/>
              <path id="Path_1051" data-name="Path 1051" d="M1124.261,1279.4a.236.236,0,1,1-.236-.235A.236.236,0,0,1,1124.261,1279.4Z" transform="translate(-1113.456 -1278.697)" fill="#5166a1"/>
              <path id="Path_1052" data-name="Path 1052" d="M1134.974,1286.608a.235.235,0,1,1-.235-.235A.236.236,0,0,1,1134.974,1286.608Z" transform="translate(-1121.584 -1284.164)" fill="#5166a1"/>
              <path id="Path_1053" data-name="Path 1053" d="M1135.168,1279.6a.235.235,0,1,1-.235-.236A.236.236,0,0,1,1135.168,1279.6Z" transform="translate(-1121.731 -1278.845)" fill="#5166a1"/>
            </g>
            <path id="Path_1054" data-name="Path 1054" d="M1113.359,1312.9l8.98,5.415,3.522-5.295Z" transform="translate(-1105.352 -1304.286)" fill="#fff"/>
            <g id="Group_1258" data-name="Group 1258" transform="translate(0 8.681)">
              <path id="Path_1055" data-name="Path 1055" d="M1160.335,1313.187h-.445l-2.579,3.782h3.024a1.891,1.891,0,1,0,0-3.782Z" transform="translate(-1138.695 -1313.187)" fill="#fff"/>
              <path id="Path_1056" data-name="Path 1056" d="M1087.035,1313.187h-4.958a1.891,1.891,0,1,0,0,3.782h11.387Z" transform="translate(-1080.186 -1313.187)" fill="#fff"/>
            </g>
          </g>
        </g>
        <g id="Group_1262" data-name="Group 1262" transform="translate(108.328 0.011)">
          <rect id="Rectangle_248" data-name="Rectangle 248" width="48" height="48" rx="14" fill="#b5dce2"/>
          <g id="Group_1261" data-name="Group 1261" transform="translate(9.177 7.032)">
            <path id="Path_1057" data-name="Path 1057" d="M1313.169,1285.155h20.407l-3.982,22.527h-12.568Z" transform="translate(-1309.189 -1274.52)" fill="#fff"/>
            <path id="Path_1058" data-name="Path 1058" d="M1330.574,1312.564a12.031,12.031,0,0,0-3.583,2.4l1.865,11.216h9.906s2.357-13.732,2.359-13.742c-.082.474-6.559-.439-7.245-.453A8.268,8.268,0,0,0,1330.574,1312.564Z" transform="translate(-1319.675 -1294.87)" fill="#b5dce2"/>
            <path id="Path_1059" data-name="Path 1059" d="M1372.066,1252.382l3.923-11.289,7.941,4.114-.957,1.052-6.41-3.157-2.966,9.663Z" transform="translate(-1353.869 -1241.094)" fill="#fff"/>
            <path id="Path_1060" data-name="Path 1060" d="M1309.19,1250.49c.564,1.553-1.77,3.826-5.212,5.076s-6.691,1.006-7.255-.548,4.562-5.814,4.562-5.814S1308.626,1248.937,1309.19,1250.49Z" transform="translate(-1296.68 -1247.233)" fill="#fff"/>
            <path id="Path_1061" data-name="Path 1061" d="M1323.837,1269.984l2.2,5.946.2-.561-2.044-5.709Z" transform="translate(-1317.282 -1262.764)" fill="#fff"/>
          </g>
        </g>
      </g>
      <g id="Group_1264" data-name="Group 1264" transform="translate(135.247 22.989)">
        <rect id="Rectangle_249" data-name="Rectangle 249" width="100.409" height="131.6" fill="#0d7684"/>
        <rect id="Rectangle_250" data-name="Rectangle 250" width="94.304" height="130.096" transform="translate(3.053 1.503)" fill="#b5dce2"/>
        <rect id="Rectangle_251" data-name="Rectangle 251" width="67.595" height="130.096" transform="translate(29.762 1.503)" fill="#4da1ac"/>
      </g>
      <g id="Group_1272" data-name="Group 1272" transform="translate(124.672 46.105)">
        <g id="Group_1265" data-name="Group 1265" transform="translate(0 32.664)">
          <path id="Path_1062" data-name="Path 1062" d="M878.511,747.109a1.272,1.272,0,0,0,.069.66,2.238,2.238,0,0,0,.306.529c.152.2.119.2-.046.377a8.518,8.518,0,0,1-.844.766,7.34,7.34,0,0,1-2.073,1.3,2.541,2.541,0,0,1-1.078.181,3.368,3.368,0,0,1-1.643-.66,8.451,8.451,0,0,1-1.373-1.013,4.865,4.865,0,0,1-.964-1.637c-.047-.126-.088-.257-.129-.383-.021-.06-.041-.126-.057-.187-.026-.085-.047-.166-.068-.247-.052-.187-.093-.373-.129-.559a21.979,21.979,0,0,1-.166-5.511q.28-5.071.554-10.146c.047-.876.311-2,1.176-2.106.482-.056.98.252,1.425.081.181-.065.337-.212.534-.227.358-.025.581.383.876.59a.751.751,0,0,0,.14.075.454.454,0,0,0,.124.051,2.317,2.317,0,0,0,.332.091,1.663,1.663,0,0,1,.767.292,1.48,1.48,0,0,1,.394.8,25.606,25.606,0,0,1,.492,3.209c.28,2.539.56,5.068.835,7.607a6.873,6.873,0,0,1,1.907-1.879c1.311-.373.969,1.562.762,2.116-.508,1.365-1.141,3.179-1.659,4.549A6.306,6.306,0,0,0,878.511,747.109Z" transform="translate(-870.223 -728.332)" fill="#ffbe9d"/>
          <path id="Path_1063" data-name="Path 1063" d="M880.126,740.58a3.089,3.089,0,0,1-.192.776c-.347,1.013-.648,2.04-1.011,3.048-.373,1.028-.86,1.99-1.264,3.008a18.151,18.151,0,0,1-.99,2.192,7.433,7.433,0,0,1-.658.987.682.682,0,0,0-.088.156,2.541,2.541,0,0,1-1.078.181,3.368,3.368,0,0,1-1.643-.66,8.451,8.451,0,0,1-1.373-1.013c-.145-.2-.3-.383-.43-.579a5.816,5.816,0,0,1-.534-1.058c-.047-.126-.088-.257-.129-.383-.021-.06-.041-.126-.057-.187-.026-.085-.047-.166-.068-.247-.052-.187-.093-.373-.129-.559a21.979,21.979,0,0,1-.166-5.511q.28-5.071.554-10.146c.047-.876.311-2,1.176-2.106.482-.056.98.252,1.425.081.181-.065.337-.212.534-.227.358-.025.581.383.876.59a.751.751,0,0,0,.14.075.7.7,0,0,0,.124.051,2.317,2.317,0,0,0,.332.091c1.534,4.655,1.151,9.622,1.052,14.62.011-.468.7-1.073.912-1.466a14.15,14.15,0,0,1,1.006-1.642,2.808,2.808,0,0,1,.834-.811,1.262,1.262,0,0,1,.264-.121.367.367,0,0,1,.182-.025.351.351,0,0,1,.2.136A1.033,1.033,0,0,1,880.126,740.58Z" transform="translate(-870.223 -728.332)" fill="#ffbe9d" opacity="0.5" style="mix-blend-mode: multiply;isolation: isolate"/>
        </g>
        <path id="Path_1064" data-name="Path 1064" d="M931.483,763l-1.792,17.83s-.739.577-1.878,1.443c-3.4,2.6-10.33,7.827-11.328,7.993-6.023,1-27.109-13.039-27.109-13.039l2.914-1.959.971-.655,20.363,6.189S929.135,764.312,931.483,763Z" transform="translate(-884.753 -721.966)" fill="#ffbe9d"/>
        <path id="Path_1065" data-name="Path 1065" d="M927.813,787.1c-3.4,2.6-10.33,7.827-11.328,7.993-6.023,1-27.109-13.039-27.109-13.039l2.914-1.959a22.892,22.892,0,0,0,4.663,3.836c2.772,1.713,5.546,3.695,8.409,5.36,2.582,1.5,6.307,3.883,9.355,2.466a.8.8,0,0,0,.376-.293.929.929,0,0,0,.053-.576q-.147-1.206-.3-2.413c.692,1.1,1.66,2.333,2.92,2.17,1.15-.149,1.813-1.386,2.273-2.48,1.571-3.737,3.131-7.482,5.018-11.076a19.245,19.245,0,0,1,6.6-7.725,40.248,40.248,0,0,0-2.426,9.43,37,37,0,0,0-.612,3.89C928.587,783.683,928.7,786.42,927.813,787.1Z" transform="translate(-884.753 -726.797)" fill="#f1cc97" opacity="0.5" style="mix-blend-mode: multiply;isolation: isolate"/>
        <path id="Path_1066" data-name="Path 1066" d="M1061.854,816.523c-11.906,4.8-23.827-2.176-35.8,2.426.614-8.613,5.768-16.662,4.949-25.241-.588-6.589-4.167-12.834-3.5-19.434a25.478,25.478,0,0,1,1.938-6.689c1.851-4.724,3.184-11.879,8.5-12.934.95-.189,1.905-.355,2.86-.494a60.647,60.647,0,0,1,8.263-.683c1.112-.017,9.04,1.582,8.9,1.815-2.315,3.908-.34,11.507-.62,15.765a17.42,17.42,0,0,1-.335,2.52c-.631,3.026-1.889,4.746-2.607,8.338-.038.178-.076.367-.108.555-1.08,6.134-1.339,11.413.637,17.292.14.411.561,1.493,1.15,2.914C1058.1,807.525,1060.315,817.145,1061.854,816.523Z" transform="translate(-988.441 -714.742)" fill="#0e1d3b"/>
        <path id="Path_1067" data-name="Path 1067" d="M1045.09,756.3a51.487,51.487,0,0,0-.6,8.837c.048,2.565-1.722,4.374-2.283,6.961a45.952,45.952,0,0,0-.5,13.195,9.255,9.255,0,0,1-.14,3.319c-.732,2.453-5.7,6.867-6.271,7.239-.588-6.589-4.166-12.834-3.5-19.434a25.5,25.5,0,0,1,1.937-6.689c1.851-4.724,3.184-11.879,8.5-12.934C1043.179,756.609,1044.135,756.443,1045.09,756.3Z" transform="translate(-992.731 -716.889)" fill="#c055a8" opacity="0.5" style="mix-blend-mode: multiply;isolation: isolate"/>
        <path id="Path_1068" data-name="Path 1068" d="M1138.987,783.331c-.586,2.809-1.8,5.556-2.625,8.3-1-.25-1.154-2.853-1.305-3.723-.134-.776-.895-4.27-.318-4.854l-.626.634a32.294,32.294,0,0,0,.953-7.618,14.557,14.557,0,0,1,.847-5.482,12.4,12.4,0,0,1,1.074-2.331c.293-.466,1.435-1.446,1.52-1.919-.07.389-.67,1.059-.762,1.492a26.818,26.818,0,0,0,.615,13.389C1138.583,781.916,1138.831,782.615,1138.987,783.331Z" transform="translate(-1070.416 -724.498)" fill="#c055a8" opacity="0.5" style="mix-blend-mode: multiply;isolation: isolate"/>
        <path id="Path_1069" data-name="Path 1069" d="M1061.521,823.543c-.6.011-1.43.022-2.029.022h-35.9c-1.282-10.052,5.7-17.312,4.026-31.8a2.5,2.5,0,0,0,2.439-1.926,7.782,7.782,0,0,0-.016-3.4q-.9-5.712-1.786-11.43a24.062,24.062,0,0,1-.135-2.992c-.043-1.338,1.079-2.742,2.288-2.326-.221-.078.772-3.225.837-3.442q.955-3.222,2.083-6.389c.6-1.671,1.193-4.3,3-4.991a6.439,6.439,0,0,1,1.516-.322c-.7,1.771-1.511,3.575-2.045,5.4q-1.393,4.8-2.984,9.537c.426-.089.864-.161,1.3-.222a16.4,16.4,0,0,1,8.533.944c1.387-5.612,2.7-11.163,6.126-15.771a1.027,1.027,0,0,1,.518-.433,13.18,13.18,0,0,1,2.644.577.023.023,0,0,1,.022.039c-3.762,4.6-4.792,10.514-6.088,16.381a2.11,2.11,0,0,1,2,1.6,6.453,6.453,0,0,1-.07,2.992c-.486,2.415-1.29,4.768-1.587,7.216a9.859,9.859,0,0,0,1.43,7.055c1.166,1.571,3.19,1.954,5.111,1.982a60.106,60.106,0,0,0,2.726,11.835C1057.49,810.138,1061.224,816.777,1061.521,823.543Z" transform="translate(-986.452 -715.134)" fill="#0d7684"/>
        <path id="Path_1070" data-name="Path 1070" d="M1045.994,784.065c-.756-.572-3.649.782-4.366,1.149A13.742,13.742,0,0,0,1037.9,788c-2.978,3.328-2.888,12.368-1.872,15.8.682,2.357,1.053,2.5.448,5.407q-1.7,8.06-3.405,16.109h-9.477c-1.282-10.052,5.7-17.312,4.026-31.8a2.5,2.5,0,0,0,2.439-1.926,7.782,7.782,0,0,0-.016-3.4q-.9-5.712-1.786-11.43a24.063,24.063,0,0,1-.135-2.992c-.043-1.338,1.079-2.742,2.288-2.326-.221-.077.772-3.225.837-3.442q.955-3.222,2.083-6.389c.6-1.671,1.193-4.3,3-4.991a6.427,6.427,0,0,1,1.516-.322c-.7,1.771-1.511,3.575-2.045,5.4q-1.393,4.8-2.984,9.537c.426-.089.864-.161,1.3-.222-1.026,3.036-2.736,8.826-.022,10.719a3.458,3.458,0,0,0,1.716.455q2.477.2,4.954.411C1042.588,782.755,1044.521,782.949,1045.994,784.065Z" transform="translate(-986.452 -716.889)" fill="#5166a1" opacity="0.5" style="mix-blend-mode: multiply;isolation: isolate"/>
        <path id="Path_1071" data-name="Path 1071" d="M1081.171,727.344a1.238,1.238,0,0,0,.448.618c.6.357,1.268-.321,1.634-.913l5.8-9.369a3.373,3.373,0,0,0,.4-.79,3.729,3.729,0,0,0-.412-2.357,20.129,20.129,0,0,1-1.369-7.943,43.636,43.636,0,0,1-5.62,4.1c-2.25,1.495-1.372,1.893-1.062,4.354C1081.5,719.114,1079.511,723.393,1081.171,727.344Z" transform="translate(-1029.741 -679.174)" fill="#ffbe9d"/>
        <path id="Path_1072" data-name="Path 1072" d="M1089.118,714.734l-.079-.2a20.137,20.137,0,0,1-1.369-7.943,43.665,43.665,0,0,1-5.62,4.1c-2.25,1.495-1.372,1.893-1.062,4.354.512,4.074-1.476,8.352.184,12.3a1.238,1.238,0,0,0,.448.618c.465.279.973-.073,1.349-.521C1082.736,722.409,1085.036,717.3,1089.118,714.734Z" transform="translate(-1029.741 -679.174)" fill="#f1cc97" opacity="0.5" style="mix-blend-mode: multiply;isolation: isolate"/>
        <g id="Group_1269" data-name="Group 1269" transform="translate(39.809 2.961)">
          <path id="Path_1073" data-name="Path 1073" d="M1036.463,658.406v.082a116.635,116.635,0,0,1,.839,11.99c.089,3.1.145,6.31-1.066,9.165l2.768-.011a15.142,15.142,0,0,0,.771-2.073q.085.937.17,1.873a3.211,3.211,0,0,0,3.046-.791c-.15.24.313.374.579.274a6.957,6.957,0,0,0,1.6-.853.519.519,0,0,0,.211-.235.548.548,0,0,0-.139-.456,29.722,29.722,0,0,1-4.872-20.391,5.242,5.242,0,0,0-2.309-.109C1037.306,657.064,1036.444,657.628,1036.463,658.406Z" transform="translate(-1035.974 -644.347)" fill="#4f3d24"/>
          <g id="Group_1267" data-name="Group 1267" transform="translate(1.289 2.965)">
            <path id="Path_1074" data-name="Path 1074" d="M1060.03,640.2c-.142.341-.284.682-.42,1.023-.568,1.409-1.006,2.863-1.71,4.21a11.308,11.308,0,0,1-7.437,5.244,3.7,3.7,0,0,1-1.54-.017,2,2,0,0,1-.25-.062,2.756,2.756,0,0,1-.3-.114,6.712,6.712,0,0,1-2.245-1.841c-1.96-2.165-4.005-4.494-4.608-7.3-.04-.188-.068-.375-.1-.563a30.744,30.744,0,0,1-.034-4.1c-.028-2.824-.835-5.591-.9-8.414-.006-.233-.006-.466.005-.7a8.818,8.818,0,0,1,6.028-7.852,12.345,12.345,0,0,1,2.71-.71l.1-.017a14.534,14.534,0,0,1,6.17.33,10.2,10.2,0,0,1,6.937,7.051,11.584,11.584,0,0,1,.574,3.028C1063.211,633.163,1061.541,636.583,1060.03,640.2Z" transform="translate(-1040.487 -618.507)" fill="#ffbe9d"/>
            <path id="Path_1075" data-name="Path 1075" d="M1060.03,639.25a11.206,11.206,0,0,0-.6-6.335,3.164,3.164,0,0,1-.443,1.761c.471-.79-.659-3.875-.926-4.721a8.444,8.444,0,0,0-2.364-4.085c-1.717-1.435-6-1.693-7.287.436a6.5,6.5,0,0,0-.7,2.07,38.545,38.545,0,0,0,.249,18.182,16.3,16.3,0,0,1,.653,2.956,1.718,1.718,0,0,1-1.423-.64c-.358-.369-.728-.75-1.1-1.142-1.988-2.114-3.971-4.557-4.568-7.335-.04-.188-.068-.375-.1-.563a30.745,30.745,0,0,1-.034-4.1c-.028-2.824-.835-5.591-.9-8.414-.006-.233-.006-.466.005-.7.085-2.619,1.035-5.358,3.307-6.7a8,8,0,0,1,2.721-1.147c.1-.029.181-.051.267-.074.154-.04.318-.08.483-.125.608-.159,1.273-.346,1.96-.511.528-.131,1.068-.25,1.608-.341a7.6,7.6,0,0,1,3.443.08,5.4,5.4,0,0,1,1.216.574,21.132,21.132,0,0,1,5.148,5.312,18.9,18.9,0,0,1,2.25,4.46c.04.1.08.2.114.307C1063.211,632.217,1061.541,635.637,1060.03,639.25Z" transform="translate(-1040.487 -617.561)" fill="#ffbe9d" opacity="0.5" style="mix-blend-mode: multiply;isolation: isolate"/>
          </g>
          <g id="Group_1268" data-name="Group 1268">
            <path id="Path_1081" data-name="Path 1081" d="M1035.367,620.088a7.567,7.567,0,0,1,3.507-.371,2.674,2.674,0,0,1,.4-1.553,3.479,3.479,0,0,1,.4,1.45,51.738,51.738,0,0,1,5.409-.111l.619-1.326a2.593,2.593,0,0,1,.285,1.593l4.144-.009a8.615,8.615,0,0,1,.713-1.263l.007,1.061a.278.278,0,0,0,.04.175.3.3,0,0,0,.194.081,2.271,2.271,0,0,1,1.306.726.64.64,0,0,0,.329.252,1.39,1.39,0,0,0,.243-.758c.364,2.493.221,4.969.4,7.484a45.425,45.425,0,0,1-1.024,13.443c1.19-.529,3.238-1.687,3.238-1.687l.892-3.329.112,2.944a5.966,5.966,0,0,0,3.769-4.11c1-3.809,2.573-10.226,2.832-13.6.5-6.578-3.867-14.677-11.194-15.7-5.993-.834-13.3.816-15.989,6.661C1035.013,614.3,1035.005,617.794,1035.367,620.088Z" transform="translate(-1035.148 -605.276)" fill="#4f3d24"/>
            <path id="Path_1082" data-name="Path 1082" d="M1041.918,618.23a11.54,11.54,0,0,0-2.627,6.912,2.189,2.189,0,0,1,2.269-1.024,3.608,3.608,0,0,1,1.051-1.742q-.061.744-.122,1.488l2.19-.143a1.54,1.54,0,0,1,.967-1.176q.049.587.1,1.173l1.8.3a.69.69,0,0,0,.479-.035c.378-.224.49-1.1.9-.975q.081.415.163.831a3.65,3.65,0,0,0,1.562.457,1.458,1.458,0,0,0,1.336-.941l.211.962a1.8,1.8,0,0,1,2.2.824c.48.1.947-.374,1.115-.949a4.033,4.033,0,0,0-.005-1.813,11.449,11.449,0,0,0-3.734-6.764,11.757,11.757,0,0,1,.571,5.134,1.806,1.806,0,0,1-1.207-.219,10.044,10.044,0,0,0-.508-4.3q-.591,1.879-1.062,3.814a5.555,5.555,0,0,0-2.375-.043,3.128,3.128,0,0,1,.658-2.565,2.685,2.685,0,0,0-1.925,1.6l-2.452.247a4.975,4.975,0,0,1,1.814-1.823,8.139,8.139,0,0,0-2.065.847c.439-.254.989-1.548,1.427-1.979a10.28,10.28,0,0,1,1.539-1.162A10.454,10.454,0,0,0,1041.918,618.23Z" transform="translate(-1038.291 -612.781)" fill="#4f3d24" opacity="0.5" style="mix-blend-mode: screen;isolation: isolate"/>
            <path id="Path_1083" data-name="Path 1083" d="M1105.5,636.39a27.4,27.4,0,0,0,1.5-4.782,16.188,16.188,0,0,1-.135,4.935,2.618,2.618,0,0,0-.085.677.783.783,0,0,0,.293.6l.824-3.022a19.814,19.814,0,0,0,.48-8.535,38.763,38.763,0,0,1,.527,7.649q.762-2.015,1.335-4.092a4.888,4.888,0,0,0,.244-1.563,41.151,41.151,0,0,1-.34,7.281c.677-1.8,1.216-3.65,1.754-5.5q-.245,1.342-.359,2.7a22.339,22.339,0,0,1,.561-2.346,16.849,16.849,0,0,0,.41-2.6,19.867,19.867,0,0,0-.411-4.93,23.858,23.858,0,0,0-2.724-6.525,14.172,14.172,0,0,0-1.68-2.215l1,2.645a9.789,9.789,0,0,1,.831,2.9,4.964,4.964,0,0,0,.042,1.512,6.569,6.569,0,0,1-.538-1.689,7.2,7.2,0,0,0-1.8-3.163,29.286,29.286,0,0,1,1.219,5.359,18.685,18.685,0,0,0-3.719-7.82,14.061,14.061,0,0,1,1.464,5.4,13.315,13.315,0,0,0-4.858-6.555c2.314,3.07,3.3,6.888,3.995,10.636a34.855,34.855,0,0,1,.434,6.25c0,1.17-.025,2.34-.074,3.509q-.035.849-.084,1.7A5.693,5.693,0,0,1,1105.5,636.39Z" transform="translate(-1085.353 -610.921)" fill="#4f3d24" opacity="0.5" style="mix-blend-mode: screen;isolation: isolate"/>
          </g>
        </g>
        <g id="Group_1270" data-name="Group 1270" transform="translate(33.297)">
          <path id="Path_1084" data-name="Path 1084" d="M1064.135,612.287a13.411,13.411,0,0,0-.426,2.7c-5.624-7.021-11.1-10.125-15.711-11.312a20.1,20.1,0,0,0-12.089.669c.173-.059.864-3.044,1.025-3.427a14.234,14.234,0,0,1,1.938-3.265,12.112,12.112,0,0,1,6.228-4.166,15.27,15.27,0,0,1,7.28-.07,15.989,15.989,0,0,1,8.387,4.609C1064.038,601.671,1064.572,607.635,1064.135,612.287Z" transform="translate(-1029.213 -593.01)" fill="#d3ecf0"/>
          <path id="Path_1085" data-name="Path 1085" d="M1052.38,593.414a15.98,15.98,0,0,0-2.223,2.979,16.507,16.507,0,0,0-2.159,7.281,20.1,20.1,0,0,0-12.089.669c.173-.059.864-3.044,1.025-3.427a14.234,14.234,0,0,1,1.938-3.265,12.112,12.112,0,0,1,6.228-4.166A15.27,15.27,0,0,1,1052.38,593.414Z" transform="translate(-1029.213 -593.01)" fill="#0d7684" opacity="0.5" style="mix-blend-mode: multiply;isolation: isolate"/>
          <path id="Path_1086" data-name="Path 1086" d="M1014.863,611.071c-5.573-3.412-8.711-5.393-5.243-7.375s11.516-1.882,16.516.5c3.192,1.517,7.382,9.09,7.382,9.09S1023.739,607.216,1014.863,611.071Z" transform="translate(-1008.167 -600.058)" fill="#f5feff"/>
          <path id="Path_1087" data-name="Path 1087" d="M1014.863,612.39c-5.573-3.412-8.711-5.393-5.243-7.375s11.516-1.882,16.516.5c3.192,1.518,7.382,9.09,7.382,9.09S1023.739,608.534,1014.863,612.39Z" transform="translate(-1008.167 -601.059)" fill="#0d7684"/>
        </g>
        <g id="Group_1271" data-name="Group 1271" transform="translate(58.574 40.398)">
          <path id="Path_1088" data-name="Path 1088" d="M1129.8,1020.3a.476.476,0,0,0-.44.362,1.125,1.125,0,0,0,.609,1.055,3.093,3.093,0,0,0,3.4-.492,3.191,3.191,0,0,0,.519-.56,2.5,2.5,0,0,0,.3-1.216,3.746,3.746,0,0,0-1.369.162c-.278.074-.549.172-.819.269a4.815,4.815,0,0,1-1.5.442C1130.263,1020.323,1130.011,1020.273,1129.8,1020.3Z" transform="translate(-1125.378 -956.901)" fill="#ffbe9d"/>
          <path id="Path_1089" data-name="Path 1089" d="M1138.3,793.5c-.448,4.652-9.623,26.473-11.409,29.576-.73,1.268-.563,2.582-.777,3.985a1.461,1.461,0,0,1-.458,1.007,1.441,1.441,0,0,1-.648.2c-.7.1-1.385.138-2.086.244-.737.111-1.481.18-2.224.225a30.174,30.174,0,0,1-4.573-.052c-2.181-.2-3.7-.688-3.1-1.5.664-.9,3.4-1.681,5.651-2.624,1.311-.544,2.261-1.395,3.1-1.7.632-.233.5-.237.5-.237l7.615-27.69s-7.286-13.478-8.819-17.664a4.867,4.867,0,0,1-.243-1.077c-.631-5.812-.577-10.7,1.3-13.844a7.024,7.024,0,0,1,1.716-1.982C1126.871,764.111,1138.749,788.852,1138.3,793.5Z" transform="translate(-1112.891 -760.375)" fill="#ffbe9d"/>
          <path id="Path_1090" data-name="Path 1090" d="M1156.867,800.309c-.426,1.1-.728,2.265-1.155,3.37l-8.544,26.356c-.523-.328-1.011-.794-1.545-1.094.634,0,.449-.082.449-.082l7.615-27.69s-7.286-13.478-8.819-17.664a4.883,4.883,0,0,1-.243-1.077c-.631-5.812-.577-10.7,1.3-13.845a2.327,2.327,0,0,1,.351.6c.378.883-.016,2.942.087,3.969a34.131,34.131,0,0,0,.647,3.98,81.069,81.069,0,0,0,2.391,8.2c1.543,4.663,3.227,9.553,6.827,12.8a2.15,2.15,0,0,1,.837,1.171A2.046,2.046,0,0,1,1156.867,800.309Z" transform="translate(-1136.692 -766.603)" fill="#f1cc97" opacity="0.5" style="mix-blend-mode: multiply;isolation: isolate"/>
        </g>
      </g>
      <g id="Group_1273" data-name="Group 1273" transform="translate(126.56 154.067)">
        <path id="Path_1091" data-name="Path 1091" d="M987.011,1056.807l-12.246,14.71h-96.7l11.21-16.223Z" transform="translate(-878.062 -1052.107)" fill="#b5dce2" style="mix-blend-mode: multiply;isolation: isolate"/>
        <rect id="Rectangle_252" data-name="Rectangle 252" width="106.788" height="4.7" transform="translate(2.161)" fill="#0d7684"/>
        <rect id="Rectangle_253" data-name="Rectangle 253" width="96.435" height="4.7" transform="translate(1.208)" fill="#0d7684"/>
      </g>
      <g id="Group_1283" data-name="Group 1283" transform="translate(54.138 0)">
        <path id="Path_1143" data-name="Path 1143" d="M810.4,402H578.288v4.755H810.421Z" transform="translate(-578.245 -402)" fill="#0d7684"/>
        <g id="Group_1282" data-name="Group 1282">
          <path id="Path_1144" data-name="Path 1144" d="M578.152,402s-1,14.755,6.653,14.755,6.7-14.677,6.7-14.677Z" transform="translate(-578.108 -402)" fill="#0d7684"/>
          <path id="Path_1145" data-name="Path 1145" d="M633.579,402s-1,14.755,6.653,14.755,6.7-14.677,6.7-14.677Z" transform="translate(-620.156 -402)" fill="#0d7684"/>
          <path id="Path_1146" data-name="Path 1146" d="M689.007,402s-1,14.755,6.653,14.755,6.7-14.677,6.7-14.677Z" transform="translate(-662.205 -402)" fill="#0d7684"/>
          <path id="Path_1147" data-name="Path 1147" d="M744.434,402s-1,14.755,6.653,14.755,6.7-14.677,6.7-14.677Z" transform="translate(-704.254 -402)" fill="#0d7684"/>
          <path id="Path_1148" data-name="Path 1148" d="M799.862,402s-1,14.755,6.653,14.755,6.7-14.677,6.7-14.677Z" transform="translate(-746.303 -402)" fill="#0d7684"/>
          <path id="Path_1149" data-name="Path 1149" d="M855.289,402s-1,14.755,6.653,14.755,6.7-14.677,6.7-14.677Z" transform="translate(-788.351 -402)" fill="#0d7684"/>
          <path id="Path_1150" data-name="Path 1150" d="M910.716,402s-1,14.755,6.653,14.755,6.7-14.677,6.7-14.677Z" transform="translate(-830.4 -402)" fill="#0d7684"/>
          <path id="Path_1151" data-name="Path 1151" d="M966.143,402s-1,14.755,6.653,14.755,6.7-14.677,6.7-14.677Z" transform="translate(-872.448 -402)" fill="#0d7684"/>
          <path id="Path_1152" data-name="Path 1152" d="M1021.571,402s-1,14.755,6.653,14.755,6.7-14.677,6.7-14.677Z" transform="translate(-914.497 -402)" fill="#0d7684"/>
          <path id="Path_1153" data-name="Path 1153" d="M1077,402s-1,14.755,6.653,14.755,6.7-14.677,6.7-14.677Z" transform="translate(-956.545 -402)" fill="#0d7684"/>
          <path id="Path_1154" data-name="Path 1154" d="M1132.426,402s-1,14.755,6.653,14.755,6.7-14.677,6.7-14.677Z" transform="translate(-998.593 -402)" fill="#0d7684"/>
          <path id="Path_1155" data-name="Path 1155" d="M1187.854,402s-1,14.755,6.653,14.755,6.7-14.677,6.7-14.677Z" transform="translate(-1040.642 -402)" fill="#0d7684"/>
          <path id="Path_1156" data-name="Path 1156" d="M1243.281,402s-1,14.755,6.653,14.755,6.7-14.677,6.7-14.677Z" transform="translate(-1082.691 -402)" fill="#0d7684"/>
          <path id="Path_1157" data-name="Path 1157" d="M1298.708,402s-1,14.755,6.653,14.755,6.7-14.677,6.7-14.677Z" transform="translate(-1124.739 -402)" fill="#0d7684"/>
          <path id="Path_1158" data-name="Path 1158" d="M1354.136,402s-1,14.755,6.653,14.755,6.7-14.677,6.7-14.677Z" transform="translate(-1166.788 -402)" fill="#0d7684"/>
          <path id="Path_1159" data-name="Path 1159" d="M1409.563,402s-1,14.755,6.653,14.755,6.7-14.677,6.7-14.677Z" transform="translate(-1208.836 -402)" fill="#0d7684"/>
        </g>
      </g>
      <ellipse id="Ellipse_52" data-name="Ellipse 52" cx="156" cy="8.517" rx="156" ry="8.517" transform="translate(0 307.965)" fill="#edeeef"/>
      <g id="Group_1281" data-name="Group 1281" transform="translate(3.205 59.316)">
        <g id="Group_1275" data-name="Group 1275" transform="translate(33.479)">
          <path id="Path_1092" data-name="Path 1092" d="M897.047,1606.531c.148.282,3.212,3.72,3.212,3.72l-8.87,6.273-2.283-3.667Z" transform="translate(-796.531 -1375.96)" fill="#f1cc97"/>
          <path id="Path_1093" data-name="Path 1093" d="M742.517,1231.059l-5.467,4.474-4.161,3.406-32.824-47.224-16.31-48.389,8.43-16.169,8.511-16.315,9.4.669c2.822,9.925,8.651,73.528,8.651,73.528Z" transform="translate(-640.747 -999.919)" fill="#0e1d3b"/>
          <path id="Path_1094" data-name="Path 1094" d="M737.05,1286.28l-4.161,3.406-32.824-47.223-16.31-48.389,8.43-16.169c3.276-1.041,6.03,2.954,6.672,6.553.9,5.035-.437,11.172-.286,16.337.356,11.878,3.755,19.282,6.793,30.772.95,3.594,2.067,7.415,4.809,9.925Z" transform="translate(-640.747 -1050.666)" fill="#5166a1" opacity="0.5" style="mix-blend-mode: multiply;isolation: isolate"/>
          <path id="Path_1095" data-name="Path 1095" d="M507.249,1680.361c0,.319-1.117,4.786-1.117,4.786l10.769,1.436.319-4.308Z" transform="translate(-505.998 -1431.969)" fill="#f1cc97"/>
          <path id="Path_1096" data-name="Path 1096" d="M569.006,1124.546a66.318,66.318,0,0,1-1.042,7.734c-.211,1.122-.421,2.186-.615,3.157-2.515,12.634-26.035,46.867-32.846,55.459l-17,63.878-4.614-.648-7.313-1.031,7.351-66.247s15.193-45.377,21.442-62.6a58.35,58.35,0,0,1,2.558-6.493c.826-1.015,6.277-.507,7.6-.637,2.564-.254,5.127-.534,7.7-.766,4.15-.378,9.941.7,13.708-1.4a1.633,1.633,0,0,1,1.155-.34c.5.134.815.75,1.031,1.317A20.954,20.954,0,0,1,569.006,1124.546Z" transform="translate(-505.576 -1002.759)" fill="#0e1d3b"/>
          <path id="Path_1097" data-name="Path 1097" d="M575.882,1158.7a27.135,27.135,0,0,1-7.917.135c-6.077-.475-13.368-1.344-19.866,2-12.839,6.6-23.131,35.064-23.131,35.064s-3.972,6.6-5.683,18.3c-2.175,14.906-4.965,46.359-5.747,61.406a26.575,26.575,0,0,1-.648,5.084l-7.313-1.031,7.351-66.247s15.193-45.378,21.442-62.6a47.736,47.736,0,0,1,7.7-.939,162.469,162.469,0,0,1,22.748.27,19.087,19.087,0,0,1,4.193.966C574.878,1153.044,581.829,1157.286,575.882,1158.7Z" transform="translate(-505.576 -1029.313)" fill="#5166a1" opacity="0.5" style="mix-blend-mode: multiply;isolation: isolate"/>
          <path id="Path_1098" data-name="Path 1098" d="M605.335,1197.619l3.016.4-8.044,16.289Z" transform="translate(-577.441 -1065.75)" fill="#5166a1" opacity="0.5" style="mix-blend-mode: multiply;isolation: isolate"/>
          <path id="Path_1099" data-name="Path 1099" d="M792.567,815.772l-.162.286-11.868,20.649a3.031,3.031,0,0,1-1.7,1.128l-.14.032-8.2,1.792-3.373.74-2.963-21.831,6.071,2.477,6.833,2.785,9.774-10.4.108-.119,1.587.7Z" transform="translate(-701.742 -774.205)" fill="#ffbe9d"/>
          <path id="Path_1100" data-name="Path 1100" d="M797.486,883.784c-.043.011-.092.022-.14.032l-8.2,1.792a8.357,8.357,0,0,1-.389-2.536,35.5,35.5,0,0,1,.831-8.673l1.862-.518C791.232,879.462,792.376,884,797.486,883.784Z" transform="translate(-720.391 -820.155)" fill="#f1cc97" opacity="0.5" style="mix-blend-mode: multiply;isolation: isolate"/>
          <path id="Path_1101" data-name="Path 1101" d="M851.943,740.261c.064,1.285-2.148,6.514-2.148,6.514l-.135-.059-4.242-1.835-1.193-.518s-.054-.108-.135-.275c-.324-.664-1.117-2.3-.874-2.029-1.171-1.684-2.288-3.978-3.281-5.769a1.727,1.727,0,0,1-.135-1.694,1.223,1.223,0,0,1,1.29-.47c1.581.313,2.526,2.164,3.589,3.276-.178-2.153-.453-4.2-.442-6.368a66.423,66.423,0,0,1,.356-6.789c.076-.745.108-1.554.793-1.9.313-.162,1.247-.238,1.338.329-.054-.319.356-.621.642-.718a1.148,1.148,0,0,1,.879.1,1.4,1.4,0,0,1,.583.578c.059.086.108.167.167.254a1.217,1.217,0,0,1,1.106.421,3.111,3.111,0,0,1,.415,1.036c.437-.07.669.529.74.993.1.669.189,1.338.254,2.008C851.948,731.642,851.727,735.917,851.943,740.261Z" transform="translate(-758.996 -704.863)" fill="#ffbe9d"/>
          <path id="Path_1102" data-name="Path 1102" d="M805.182,732.143a46.9,46.9,0,0,1,.406-7.278c.118-.72.866-2.086,1.751-1.213-.426-.094-.641.493-.668.929q-.348,5.7-.222,11.425.062,2.813.239,5.622c.039.621.351,4.125,1.334,4.125-2.325,0-3.67,2.4-5,3.967q-2.491,2.948-4.98,5.9c-.539.631-1.106,1.49-.723,2.229-.545-1.414-2.272-1.894-3.756-2.18l-5.418-1.052a10.1,10.1,0,0,1,.281-1.8l6.833,2.785,9.774-10.4c-.324-.664-1.117-2.3-.874-2.029-1.171-1.684-2.289-3.978-3.281-5.769a1.727,1.727,0,0,1-.135-1.694,1.222,1.222,0,0,1,1.29-.47c1.581.313,2.526,2.164,3.589,3.276C805.446,736.357,805.171,734.312,805.182,732.143Z" transform="translate(-719.942 -705.973)" fill="#f1cc97" opacity="0.5" style="mix-blend-mode: multiply;isolation: isolate"/>
          <path id="Path_1103" data-name="Path 1103" d="M749.684,834.54c-4.89-1.518-8.3-3.275-11.224-2.847-7.9,1.159,3.941,14.827,4.542,26.518.388,7.532,8.424-5.326,8.424-5.326C752.954,850.323,755.245,840.875,749.684,834.54Z" transform="translate(-680.193 -788.1)" fill="#0d7684"/>
          <path id="Path_1104" data-name="Path 1104" d="M653.582,914.615a104,104,0,0,0-22.818-3.119,67.628,67.628,0,0,0-13.082,1.047c-2.024.372-4.026.831-6.055,1.166-1.608.264-3.746.092-4.188,2a3.769,3.769,0,0,1-.912-3.017c.124-2.5,1.274-4.215,2.3-6.374,1.08-2.278,1.382-5.159,1.679-7.648.75-6.277-1.058-7.307-1.16-14.372-.184-12.893-1.3-23.423-2.17-37.735-.3-4.884,1.657-11.862,5.035-15.711.615-.7,7.07-2.968,14.534-3.562a38.967,38.967,0,0,1,8,.14c4.15.534,7.717-.156,10.513,3.022a15.987,15.987,0,0,1,3.821,6.417c3.794,13.2,3.627,27.168,3.432,40.9-.129,9.029,2.083,12.569,2.278,21.215.081,3.622-.356,7.534.928,11C656.767,912.812,658.585,915.813,653.582,914.615Z" transform="translate(-582.152 -784.701)" fill="#0d7684"/>
          <path id="Path_1105" data-name="Path 1105" d="M633.457,911.276a26.713,26.713,0,0,0-2.693.658,67.657,67.657,0,0,0-13.082,1.047c-2.024.373-4.026.831-6.055,1.166-1.608.264-3.746.092-4.188,2a3.769,3.769,0,0,1-.912-3.017c.124-2.5,1.274-4.215,2.3-6.374,1.08-2.278,1.382-5.16,1.679-7.648.75-6.276-1.058-7.307-1.16-14.372-.184-12.893-1.3-23.423-2.17-37.735-.3-4.884,1.657-11.862,5.035-15.711.615-.7,7.07-2.968,14.534-3.562.853.826,1.743,1.77,1.7,2.132-.081.723-2.7,1.97-3.324,2.526a17.363,17.363,0,0,0-4.787,7.529c-1.6,4.911-1.4,10.217-.982,15.371s1.031,10.367.183,15.467c-.918,5.5-3.448,11.377-.928,16.348a10.3,10.3,0,0,1,1.311,2.914c.464,3.076-3.449,5.5-3.055,8.587a17.185,17.185,0,0,1,5.327,2.817,4.506,4.506,0,0,0-3.492,3.967A35.777,35.777,0,0,1,633.457,911.276Z" transform="translate(-582.152 -785.14)" fill="#75c6b8" opacity="0.5" style="mix-blend-mode: multiply;isolation: isolate"/>
          <g id="Group_1274" data-name="Group 1274" transform="translate(30.432)">
            <path id="Path_1106" data-name="Path 1106" d="M679.223,795.621a69.931,69.931,0,0,1-7.027-1.338l-.842-8.349,6.034-1.441,7.442-1.776s-1.344,6.374.631,11.334C686.266,796.064,682.812,796.091,679.223,795.621Z" transform="translate(-661.771 -750.996)" fill="#ffbe9d"/>
            <path id="Path_1107" data-name="Path 1107" d="M679.223,801.2a69.96,69.96,0,0,1-7.027-1.338l-.842-8.349,6.034-1.441a54.6,54.6,0,0,0,1.042,7.178C678.71,798.563,679.039,799.874,679.223,801.2Z" transform="translate(-661.771 -756.576)" fill="#f1cc97" opacity="0.5" style="mix-blend-mode: multiply;isolation: isolate"/>
            <path id="Path_1108" data-name="Path 1108" d="M694.927,698.574c1.08,2.177,1.047,4.788.985,7.265q-.062,2.495-.124,4.99a36.269,36.269,0,0,1-.508,6.182,12.069,12.069,0,0,1-5.58,8.44,8.423,8.423,0,0,1-6.935.478c-1.562-.559-4.419-2.046-4.882-3.878-.472-1.865,1.389-4.466,2.187-6.015a73.527,73.527,0,0,1,8.468-12.922C690.4,700.835,692.179,699.094,694.927,698.574Z" transform="translate(-666.667 -687.163)" fill="#ffbe9d"/>
            <path id="Path_1109" data-name="Path 1109" d="M664.139,656.015a24.225,24.225,0,0,1-.82,5.327,13.733,13.733,0,0,1-3.152,6.665c-.95,1.063-1.209,8.371-1.209,8.371s-.081-4.593-3.168-3.7c-2.315.669-3.26,9.828-3.589,14.366a2.84,2.84,0,0,1-2.72,2.628c-.3.011-.615.021-.939.038-2.348.081-5.106.157-5.64.054a4.29,4.29,0,0,1-2.553-1.943c-2.758-4.253-6.066-9.094-7.529-14.032a22.63,22.63,0,0,1-1.149-7.48c.34-6.795,5.246-10,10.783-11.334a97.137,97.137,0,0,0,11.819-3.675,10.148,10.148,0,0,1-1.829,3.659l.9-.459,5.78-2.952a6.981,6.981,0,0,1-1.052,3.692,37.507,37.507,0,0,0,5.4-3.692C663.475,651.659,664.134,655.578,664.139,656.015Z" transform="translate(-631.654 -651.298)" fill="#75432c"/>
            <path id="Path_1110" data-name="Path 1110" d="M702.832,676.672a9.864,9.864,0,0,0-1.587,1.9,7.308,7.308,0,0,0-1.1,5.515,12.082,12.082,0,0,1,2.86-4.954c-1.813,1.894-.882,6.661-.81,9.023a6.4,6.4,0,0,1,1.946-4.2,2.036,2.036,0,0,1,2.2-.65,2.953,2.953,0,0,1,.733.664,5.712,5.712,0,0,0,2.068,1.406,21.191,21.191,0,0,1,3.933-12.278,11.539,11.539,0,0,1-5.317,2.259,14.194,14.194,0,0,0,1.14-3.9C707.234,673.626,704.77,674.832,702.832,676.672Z" transform="translate(-683.487 -666.588)" fill="#75432c" opacity="0.25" style="mix-blend-mode: screen;isolation: isolate"/>
            <path id="Path_1111" data-name="Path 1111" d="M643.641,673.328a2.988,2.988,0,0,1,1.527-2.763,36.1,36.1,0,0,0,3.087,17.691,2.2,2.2,0,0,1,.286,1.452c-2.348.081-5.106.157-5.64.054a4.29,4.29,0,0,1-2.553-1.943c-2.758-4.253-6.066-9.094-7.529-14.032a22.63,22.63,0,0,1-1.149-7.48c.34-6.795,5.246-10,10.783-11.334a97.137,97.137,0,0,0,11.819-3.675,10.148,10.148,0,0,1-1.829,3.659l.9-.459c-1.657,1.376-3.691,2.321-5.327,3.751C643.928,661.843,643.015,667.91,643.641,673.328Z" transform="translate(-631.654 -651.298)" fill="#75432c" opacity="0.5" style="mix-blend-mode: multiply;isolation: isolate"/>
          </g>
        </g>
        <g id="Group_1278" data-name="Group 1278" transform="translate(0 45.456)">
          <g id="Group_1277" data-name="Group 1277">
            <path id="Path_1112" data-name="Path 1112" d="M501.665,954.393l-6.26,16.838-.157.426c-7.334,2.521-25.916-1.144-41.3-1.209h-.583l.238-2.067.356-3.141,19.456-1.662,10.978-.939,2.094-13.341,6.072,1.506,7.07,1.759Z" transform="translate(-432.49 -922.824)" fill="#ffbe9d"/>
            <path id="Path_1113" data-name="Path 1113" d="M568.232,952.844c-.4.906-4.505,10.878-3.28,10.948-5.057-.286-6.009-.477-11.26-.532l6.811-.621L562.6,949.3l6.071,1.506A5.871,5.871,0,0,1,568.232,952.844Z" transform="translate(-508.598 -922.824)" fill="#f1cc97" opacity="0.5" style="mix-blend-mode: multiply;isolation: isolate"/>
            <g id="Group_1276" data-name="Group 1276" transform="translate(0 34.245)">
              <path id="Path_1114" data-name="Path 1114" d="M391.118,994.865c-.648.1-1.275.165-1.814.246a42.975,42.975,0,0,1-8.209.488c-1.029-.046-7.567.5-6.661-3.9a3.247,3.247,0,0,1,2.309-2.373c.12-.039.246-.073.366-.107,1.761-.458,3.6-.078,5.413-.295,1.938-.232,3.834-.684,5.764-.933,2.7-.343,6.655-.434,7.159,2.852C395.967,993.692,393.572,994.506,391.118,994.865Z" transform="translate(-372.544 -986.297)" fill="#f0c96e"/>
              <path id="Path_1115" data-name="Path 1115" d="M451.132,995.033a2.42,2.42,0,0,1-.4-2.157.691.691,0,0,1,.369-.384c1.688-.686,1.7,2.511.889,4.484.1-.251-.154-.754-.264-.97C451.559,995.667,451.334,995.356,451.132,995.033Z" transform="translate(-430.403 -989.764)" fill="#f0c96e" opacity="0.5" style="mix-blend-mode: multiply;isolation: isolate"/>
              <path id="Path_1116" data-name="Path 1116" d="M368.039,985.492c1.075-1.27,3.973-1.2,5.365-1.174,4.349.076,8.783.121,12.939-1.159a5.33,5.33,0,0,1,2.191-.39,1.569,1.569,0,0,1,1.46,1.428c-.125,3.364-14.7,2.986-17.265,3.084q-1.529.059-3.048.221C367.186,987.77,367.481,986.151,368.039,985.492Z" transform="translate(-367.467 -982.446)" fill="#d27534"/>
              <path id="Path_1117" data-name="Path 1117" d="M371.84,993.835a.671.671,0,0,0-.28-.321,2.811,2.811,0,0,0-.457-.294,1,1,0,0,0-.638-.09c-.4.084-.743.346-1.146.4-.174.023-.353.007-.524.048a.807.807,0,0,0-.509.382,1.025,1.025,0,0,1-.17.275,1.453,1.453,0,0,1-.392.168c-.47.22-.431.96-.851,1.264C368.744,996.627,370.58,993.628,371.84,993.835Z" transform="translate(-366.874 -990.306)" fill="#54965d"/>
              <path id="Path_1118" data-name="Path 1118" d="M437.071,989.109a1.192,1.192,0,0,0-.691,0,.671.671,0,0,1,.223-.364,2.853,2.853,0,0,1,.4-.366,1.006,1.006,0,0,1,.614-.194c.405.017.791.218,1.2.2a5.254,5.254,0,0,1,.524-.04.806.806,0,0,1,.565.292,1.029,1.029,0,0,0,.214.243,1.461,1.461,0,0,0,.414.1c.5.138.584.875,1.049,1.1C440.187,991.131,437.994,989.357,437.071,989.109Z" transform="translate(-419.603 -986.569)" fill="#54965d"/>
              <path id="Path_1119" data-name="Path 1119" d="M390.25,994.927a11.483,11.483,0,0,1-2.6.85,23.6,23.6,0,0,1-3.377.541c-.26.039-.515.078-.776.112l-.777.1a39.239,39.239,0,0,1-6.412.261c-.576-.028-1.185-.018-1.784-.032a.2.2,0,0,0-.058,0c-1.966-.046-3.8-.446-4.492-2.279a.052.052,0,0,1-.021-.039c-.016-.057-.033-.114-.056-.177-.034-.126-.055-.235-.076-.345-.011-.063-.023-.133-.029-.2a1.7,1.7,0,0,1-.015-.245c0-.059,0-.123.008-.182a2.874,2.874,0,0,1,.638-1.682,3.163,3.163,0,0,1,.692-.626,4.3,4.3,0,0,1,1.31-.585,6.131,6.131,0,0,1,.848-.159c1.444-.18,2.929.06,4.4-.117,1.879-.228,3.723-.681,5.6-.919a10.46,10.46,0,0,1,4.6.172,3.456,3.456,0,0,1,1.785,1.227c.371.516.257.844.465,1.5.139.421.578,1.267.658,1.626A1.1,1.1,0,0,1,390.25,994.927Z" transform="translate(-369.081 -987.209)" fill="#f0c96e"/>
              <path id="Path_1120" data-name="Path 1120" d="M384.264,993.556c.157-.067.262-.844.319-1.014a.783.783,0,0,1,.626-.588c.561.727-.375,1.695.356,3.1.172.331.5.656.863.579.119-2.692,1.254-3.675,1.782-3.161.279.271,0,.781.191,1.12a.63.63,0,0,0,.847.146c.551-.315.713-1.14,1.348-1.31,1.185-.316,1.441,1.691,2.349,1.6.55-.057-.031-.8.047-1.3a.722.722,0,0,1,.465-.6c.456-.129.918.37,1.373.237a.258.258,0,0,0,.2-.208.4.4,0,0,0-.053-.174.941.941,0,0,1-.014-.711,2.216,2.216,0,0,0-1.885.116,7.648,7.648,0,0,1-4.3.623c-4.719-.522-5.1-.456-5.266.072C383.324,992.682,384.051,993.647,384.264,993.556Z" transform="translate(-379.473 -988.791)" fill="#f0c96e" opacity="0.5" style="mix-blend-mode: multiply;isolation: isolate"/>
              <path id="Path_1121" data-name="Path 1121" d="M422.315,984.944l.14-.079s.668,1.318.745,1.5c-.086-.517-.256-1.618-.256-1.618l.25-.1.118,2.075Z" transform="translate(-408.933 -983.887)" fill="#e28900"/>
              <path id="Path_1122" data-name="Path 1122" d="M442.543,981.49l.157.03s-.449,1.379-.525,1.563c.3-.432.958-1.344.958-1.344l.252.081L442,983.412Z" transform="translate(-423.869 -981.49)" fill="#e28900"/>
              <path id="Path_1123" data-name="Path 1123" d="M380.71,983.6l.111-.211s1.04,1.607,1.169,1.845c-.239-.743-.735-2.333-.735-2.333l.21-.315.74,3.125Z" transform="translate(-377.37 -982.318)" fill="#e28900"/>
              <path id="Path_1124" data-name="Path 1124" d="M399.832,984.533c.09-.076.188-.2.116-.3-.053-.068-.157-.057-.242-.039-1.809.379-3.65.581-5.487.781-.659.072-1.32.144-1.984.152-1.2.013-2.388-.185-3.584-.245a4.927,4.927,0,0,0-3.086.445c-.25.184-.455.547-.263.791.108.137.3.176.422.3.459.48-.294.977-.356,1.518-.054.473.406.845.7.72.352-.15.181-.561.112-.9a.884.884,0,0,1,.29-.906.519.519,0,0,1,.792.283.889.889,0,0,1-.08.4,2.537,2.537,0,0,0,.089,2.181c.354.556.928.588,1.219-.02.328-.685-.012-2.7,1.2-2.7a.43.43,0,0,1,.369.167c.165.254-.108.585-.058.883.092.54,1.278.661,1.5.206.261-.528-.231-.917,1.173-1.292.734-.2.878.065.921.587a1.372,1.372,0,0,0,.52,1.048.728.728,0,0,0,1.041-.215,1.009,1.009,0,0,0-.155-.889,1.9,1.9,0,0,1-.359-.856c-.008-.313.288-.652.582-.544.2.071.284.289.395.465a.883.883,0,0,0,.527.41.528.528,0,0,0,.585-.248c.089-.182.04-.413.144-.587.2-.346,1-.4,1.349-.534A5.657,5.657,0,0,0,399.832,984.533Z" transform="translate(-380.797 -983.534)" fill="#c73933"/>
              <path id="Path_1125" data-name="Path 1125" d="M390.7,986.612l-.034.734.35,0,.115-.9Z" transform="translate(-384.92 -985.252)" fill="#4a845e"/>
              <path id="Path_1126" data-name="Path 1126" d="M398.579,991.61l.565.47.213-.278-.648-.635Z" transform="translate(-390.926 -988.832)" fill="#4a845e"/>
              <path id="Path_1127" data-name="Path 1127" d="M412.9,987.719l-.178.714.343.071.291-.86Z" transform="translate(-401.657 -986.158)" fill="#4a845e"/>
              <path id="Path_1128" data-name="Path 1128" d="M428.814,986.214l.539.5.228-.266-.613-.67Z" transform="translate(-413.863 -984.744)" fill="#4a845e"/>
              <path id="Path_1129" data-name="Path 1129" d="M439.641,985.147l-.409.611.3.184.565-.71Z" transform="translate(-421.766 -984.264)" fill="#4a845e"/>
              <path id="Path_1130" data-name="Path 1130" d="M420.078,992.163l-.037.436.348-.028.119-.541Z" transform="translate(-407.207 -989.486)" fill="#4a845e"/>
              <path id="Path_1131" data-name="Path 1131" d="M402.092,986.7l-.037.436.348-.028.119-.541Z" transform="translate(-393.563 -985.343)" fill="#4a845e"/>
              <path id="Path_1132" data-name="Path 1132" d="M386.073,992.65l-.037.436.348-.028.119-.541Z" transform="translate(-381.411 -989.855)" fill="#4a845e"/>
              <path id="Path_1133" data-name="Path 1133" d="M432.909,991.089l-.037.436.348-.028.119-.541Z" transform="translate(-416.942 -988.671)" fill="#4a845e"/>
              <path id="Path_1134" data-name="Path 1134" d="M391.525,1000.285c-1.14,1.553-4.037,1.688-7.246,2.194-.26.039-.515.078-.776.112l-.777.1a42.1,42.1,0,0,1-8.2.229.2.2,0,0,0-.058,0c-.307-.027-.608-.055-.91-.088-1.65-.17-2.992-.633-3.582-2.19a.052.052,0,0,1-.021-.039c-.016-.057-.033-.114-.056-.177-.034-.126-.055-.236-.076-.345-.011-.063-.023-.133-.029-.2a1.7,1.7,0,0,1-.015-.245c0-.059,0-.123.008-.182a2.976,2.976,0,0,1,1.343-2.3c-.328.215-.239,1.21-.163,1.619.008.029.01.052.018.075a2.392,2.392,0,0,0,.926,1.4,5.1,5.1,0,0,0,1.642.718c10.557,3.087,2.651-2.851,11.36-1.173l2.73.526c1.292.249,2.9.353,2.949-1a3.613,3.613,0,0,1,.187.909l.307-.884C390.953,1000.234,391.171,1000.258,391.525,1000.285Z" transform="translate(-369.081 -993.371)" fill="#f0c96e" opacity="0.5" style="mix-blend-mode: multiply;isolation: isolate"/>
            </g>
            <path id="Path_1135" data-name="Path 1135" d="M398.224,1012.471c0,.729.011,1.462.043,2.056a50.693,50.693,0,0,1-16.9-1.074,2.158,2.158,0,0,1-1.117-.513,1.494,1.494,0,0,1,.4-2.1,1.6,1.6,0,0,1,.227-.146,4.9,4.9,0,0,1,2.078-.469c2.364-.178,6.358-.345,8.727-.524-2.767-.223-5.559-4.807,6.59-.383C398.278,1009.319,398.224,1010.879,398.224,1012.471Z" transform="translate(-376.807 -966.903)" fill="#f1cc97"/>
            <path id="Path_1136" data-name="Path 1136" d="M439.721,1025.662l-.157.426c-7.334,2.521-25.916-1.144-41.3-1.209a50.69,50.69,0,0,1-16.9-1.074,2.155,2.155,0,0,1-1.117-.513,1.494,1.494,0,0,1,.4-2.1,1.614,1.614,0,0,1,.227-.146c.356.156.836.394,1.538.664a16.912,16.912,0,0,0,5.591.837c3.3.113,6.606.183,9.909.264.1,0,.2.006.3.011,6.32.151,12.36,1.43,18.648,2.067C424.39,1025.651,432.6,1027.411,439.721,1025.662Z" transform="translate(-376.807 -977.255)" fill="#f1cc97" opacity="0.5" style="mix-blend-mode: multiply;isolation: isolate"/>
            <path id="Path_1137" data-name="Path 1137" d="M600.484,873.216c-3.762-.631-8.117-1.662-12.262-2.547-1.932-.416-3.815-.793-5.575-1.09.675-3.886,1.635-7.728,2.693-11.539s1.846-8.02,3.438-11.663c2.234-5.079,7.437-9.79,12.106-4.3.081.1.167.2.248.3C606.55,849.2,602.076,865.687,600.484,873.216Z" transform="translate(-530.564 -839.618)" fill="#0d7684"/>
            <path id="Path_1138" data-name="Path 1138" d="M600.883,842.076c-.319.966-1.733,1.43-2.424,2.067a11.35,11.35,0,0,0-2.4,3.638,108.907,108.907,0,0,0-7.842,22.888c-1.932-.416-3.815-.793-5.575-1.09.675-3.886,1.635-7.728,2.693-11.539s1.846-8.02,3.438-11.663C591.012,841.3,596.215,836.587,600.883,842.076Z" transform="translate(-530.564 -839.618)" fill="#5166a1" opacity="0.5" style="mix-blend-mode: multiply;isolation: isolate"/>
          </g>
        </g>
        <g id="Group_1279" data-name="Group 1279" transform="translate(11.776 247.208)">
          <path id="Path_1139" data-name="Path 1139" d="M450.748,1683.82c-1.015,2.752-.81,6.158-1.419,7.243-.421.756-17.238-2.391-26.893-5.278-.173-.054-.5-.135-.907-.248-1.792-.486-5.289-1.522-5.807-2.979a1.233,1.233,0,0,1,.318-1.252,2.516,2.516,0,0,1,1.1-.637c5.607-2.029,11.717-2.375,17.3-4.447a7.509,7.509,0,0,1,3.335-.744c.032,1.527.329,2.612,1.333,3.373a4.3,4.3,0,0,0,.977.556,7.949,7.949,0,0,0,5.769.464c1.031-.389,2.062-1.112,3.13-.848a2.44,2.44,0,0,1,1.565,1.49A4.708,4.708,0,0,1,450.748,1683.82Z" transform="translate(-415.66 -1675.456)" fill="#334169"/>
          <path id="Path_1140" data-name="Path 1140" d="M439.107,1678.849c-.993.815-1.948,1.684-2.99,2.434-4.188,3.006-9.374,4.026-14.588,4.253-1.792-.486-5.289-1.522-5.807-2.979a1.233,1.233,0,0,1,.318-1.252,2.516,2.516,0,0,1,1.1-.637c5.607-2.029,11.717-2.375,17.3-4.447a7.509,7.509,0,0,1,3.335-.744C437.806,1677,438.1,1678.088,439.107,1678.849Z" transform="translate(-415.66 -1675.456)" fill="#334169" opacity="0.5" style="mix-blend-mode: multiply;isolation: isolate"/>
        </g>
        <g id="Group_1280" data-name="Group 1280" transform="translate(116.385 229.404)">
          <path id="Path_1141" data-name="Path 1141" d="M862.708,1620.96c-2.45,2.024-4.933,3.967-7.086,5.5-3.271,2.332-5.77,3.7-6.207,2.931a3.439,3.439,0,0,1-.367-1.6c-.065-2.877,1.306-5.758,2.385-8.354,1.473-3.557,2.79-6.919,3.12-10.8a1.283,1.283,0,0,1,.07-.383c.221-.551,1.052-.529,1.538-.184s.8.9,1.306,1.214a3.52,3.52,0,0,0,2.278.27,7.994,7.994,0,0,0,2.115-.453,2.942,2.942,0,0,0,1.587-1.4,1.352,1.352,0,0,0,.054-.129,16.814,16.814,0,0,0,.356-2.569,5.534,5.534,0,0,1,.912-1.9,2.755,2.755,0,0,1,1.765-1.382c1.463-.178,2.574,1.322,3.265,2.4,1.576,2.466,4.339,4.431,4.846,5.559C874.9,1610.231,868.914,1615.839,862.708,1620.96Z" transform="translate(-849.046 -1601.695)" fill="#334169"/>
          <path id="Path_1142" data-name="Path 1142" d="M863.765,1635.733a14.382,14.382,0,0,1-1.058,3.659c-2.45,2.024-4.933,3.967-7.086,5.5-3.271,2.332-5.77,3.7-6.207,2.93a3.439,3.439,0,0,1-.367-1.6c-.065-2.877,1.306-5.759,2.385-8.354,1.473-3.557,2.79-6.919,3.12-10.8a1.285,1.285,0,0,1,.07-.383c.221-.551,1.052-.529,1.538-.184s.8.9,1.306,1.214a3.517,3.517,0,0,0,2.278.27,7.979,7.979,0,0,0,2.115-.453,2.94,2.94,0,0,0,1.587-1.4,1.328,1.328,0,0,0,.054-.13,24.09,24.09,0,0,0,.048,2.515A27.72,27.72,0,0,1,863.765,1635.733Z" transform="translate(-849.046 -1620.127)" fill="#334169" opacity="0.5" style="mix-blend-mode: multiply;isolation: isolate"/>
        </g>
      </g>
    </g>
  </g>
</svg>
