<svg xmlns="http://www.w3.org/2000/svg" width="260" height="56" viewBox="0 0 260 56">
  <g id="Group_1988" data-name="Group 1988" transform="translate(1455 511.702)">
    <g id="Group_169" data-name="Group 169" transform="translate(-1455 -511.702)">
      <g id="Group_16" data-name="Group 16" transform="translate(0 0)">
        <path id="Path_83" data-name="Path 83" d="M658.947-222.466a40.927,40.927,0,0,0-.44-7.088c1.953.1,3.174.145,7.225.145h10.2c6,0,10.838,1.64,14.109,4.774,3.564,3.472,5.371,8.534,5.371,14.948,0,6.606-1.953,11.911-5.664,15.575-3.271,3.182-7.909,4.822-13.719,4.822h-10.3c-3.759,0-5.126.048-7.177.145a45.45,45.45,0,0,0,.391-7.04Zm16.208,24.737c3.173,0,5.419-.82,7.177-2.556,2-2.026,3.076-5.256,3.076-9.258,0-4.1-.928-7.088-2.832-8.969-1.709-1.688-4.052-2.459-7.567-2.459h-6.4v23.242Z" transform="translate(-658.507 229.75)" fill="#fff"/>
        <path id="Path_84" data-name="Path 84" d="M762.153-189.1a63.543,63.543,0,0,0-8.055-.337H738.719c-3.711,0-5.078.048-7.177.145a43.881,43.881,0,0,0,.391-7.041v-26.331a50.47,50.47,0,0,0-.391-7.041c2,.1,3.369.145,7.177.145h15.574a60.621,60.621,0,0,0,7.275-.338v9.018a60.757,60.757,0,0,0-7.275-.337H741.6v7.09h10.545a59.215,59.215,0,0,0,7.324-.338v8.922a60.987,60.987,0,0,0-7.324-.337H741.6v8.1h12.6a66.843,66.843,0,0,0,7.958-.337Z" transform="translate(-689.75 229.896)" fill="#fff"/>
        <path id="Path_85" data-name="Path 85" d="M800.968-189.179c-3.369,0-5.37.048-7.225.145a42.775,42.775,0,0,0,.39-7.04v-25.461a57.712,57.712,0,0,0-.39-7.763h10.643a47.215,47.215,0,0,0-.391,7.618v23.918H815.81a58.206,58.206,0,0,0,8.1-.337v9.258a64.47,64.47,0,0,0-8.1-.337Z" transform="translate(-716.359 229.64)" fill="#fff"/>
        <path id="Path_86" data-name="Path 86" d="M863.014-229.3a44.09,44.09,0,0,0-.39,7.136v25.844a46.03,46.03,0,0,0,.39,7.136h-10.74a45.714,45.714,0,0,0,.39-7.136v-25.844a44.542,44.542,0,0,0-.39-7.136Z" transform="translate(-741.398 229.64)" fill="#fff"/>
      </g>
      <g id="Group_17" data-name="Group 17" transform="translate(127.699 0.362)">
        <path id="Path_87" data-name="Path 87" d="M900.656-201.03c.373,1.228.373,1.228.886,3.138.56-2,.653-2.274.887-3.138L909.2-222.9a24.692,24.692,0,0,0,1.073-4.911h10.967c-.654,1.364-1.074,2.41-2.24,5.548L909.1-194.891a38.954,38.954,0,0,0-1.493,4.911H895.476a35.02,35.02,0,0,0-1.494-4.911l-9.94-27.375c-.933-2.638-1.4-3.774-2.193-5.548h10.92a31.532,31.532,0,0,0,1.121,4.911Z" transform="translate(-881.848 228.643)" fill="#fff"/>
        <path id="Path_88" data-name="Path 88" d="M991.93-209.7c0,12.012-7.514,19.974-18.854,19.974-11.434,0-18.808-7.781-18.808-19.838,0-12.012,7.374-19.7,18.854-19.7S991.93-221.619,991.93-209.7Zm-9.707.091c0-7.37-3.453-11.829-9.1-11.829-5.694,0-9.194,4.5-9.194,11.829,0,7.417,3.5,12.012,9.194,12.012C978.769-197.6,982.222-202.146,982.222-209.608Z" transform="translate(-912.828 229.263)" fill="#fff"/>
        <path id="Path_89" data-name="Path 89" d="M1055.16-189.98a40.169,40.169,0,0,0-.979-4.866l-3.547-13.369a69.711,69.711,0,0,1-1.307-6.867c-.28,1.865-.84,4.729-1.4,6.867l-3.453,13.415a33.068,33.068,0,0,0-1.027,4.82h-9.287c-.234-1.319-.467-2.274-1.167-4.911l-7.467-27.284c-.653-2.319-1.306-4.411-1.773-5.639h10.64a29.444,29.444,0,0,0,.653,5l2.987,13.824c.139.683.466,2.819,1.026,6.412.7-3.819,1.027-5.457,1.306-6.412l3.734-14.1a38.3,38.3,0,0,0,1.027-4.729h8.307a37.543,37.543,0,0,0,1.073,4.593l3.78,14.006c.373,1.455.7,2.956,1.307,6.639.093-.864.093-.864.373-2.774.14-1,.467-3.183.653-3.911l2.94-13.551a24.44,24.44,0,0,0,.7-5h10.594c-.466,1.228-1.12,3.365-1.726,5.639l-7.467,27.238a39.271,39.271,0,0,0-1.167,4.957Z" transform="translate(-942.553 228.643)" fill="#fff"/>
      </g>
    </g>
    <g id="Group_1987" data-name="Group 1987" transform="translate(-1402.065 -469.22)">
      <g id="Group_7" data-name="Group 7" transform="translate(107.169 0)">
        <path id="Path_47" data-name="Path 47" d="M290.1,403.291a7,7,0,0,1-.987,3.538,6.882,6.882,0,0,1-3.675,2.784,6.718,6.718,0,0,0-1.6-2.167c2.468-.713,3.579-1.961,3.7-4.155h-2.811a16.754,16.754,0,0,0-2.071.068v-2.3a12.04,12.04,0,0,0,2.112.11H292.4a13.262,13.262,0,0,0,2.181-.1v2.29a18.323,18.323,0,0,0-2.139-.068Zm-.3-5.65a17.791,17.791,0,0,0,2.03-.082c-.041-.082-.055-.1-.11-.192l1.111-.357a9.015,9.015,0,0,1,1,2.194l-1.18.425a10.412,10.412,0,0,0-.8-2.029v2.249c-.411-.041-.494-.041-2.016-.069h-3.648a20.175,20.175,0,0,0-2.139.069v-2.317a11.294,11.294,0,0,0,2.181.109Zm4.621,1.385a9.663,9.663,0,0,0-.96-2.181l1.07-.37a9.257,9.257,0,0,1,.96,2.126Z" transform="translate(-282.654 -396.475)" fill="#fff"/>
        <path id="Path_48" data-name="Path 48" d="M314.074,398.448a16.506,16.506,0,0,0-.069,1.838v2.728a17.919,17.919,0,0,0,.069,1.961h-2.66a14.215,14.215,0,0,0,.082-2v-2.715a13.734,13.734,0,0,0-.082-1.81Zm6.377,0c-.055.768-.069.974-.069,1.851v1.6a17.712,17.712,0,0,1-.315,3.99,5.641,5.641,0,0,1-2.852,3.484,11.509,11.509,0,0,1-2.853,1.124,6.267,6.267,0,0,0-1.4-2.345,8.85,8.85,0,0,0,2.715-.837,3.539,3.539,0,0,0,2.043-2.66,23.259,23.259,0,0,0,.151-2.907v-1.426a13.3,13.3,0,0,0-.082-1.879Z" transform="translate(-296.23 -397.406)" fill="#fff"/>
        <path id="Path_49" data-name="Path 49" d="M337.983,402.728c-.041.219-.137.658-.274,1.316a13.894,13.894,0,0,1-1.948,4.595,10.794,10.794,0,0,0-2.263-1.125,11.4,11.4,0,0,0,2.126-5.335Zm.836-3.95a10.136,10.136,0,0,0-.082-1.522h2.592c-.041.329-.055.782-.069,1.55v.507h2.605a13.041,13.041,0,0,0,2.153-.11v2.331a17.56,17.56,0,0,0-2.112-.069H341.26v6.047a13.068,13.068,0,0,0,.082,2.03h-2.62a12.719,12.719,0,0,0,.1-2.057v-6.02h-2.551a16.307,16.307,0,0,0-2.071.069V399.2a12.6,12.6,0,0,0,2.084.11h2.537Zm5.54,3.374a14.716,14.716,0,0,0,2.222,5.238,17.972,17.972,0,0,0-2.263,1.275,19.893,19.893,0,0,1-2.029-5.266,4.082,4.082,0,0,0-.206-.672Zm-.452-5.239a7.313,7.313,0,0,1,1.042,1.92l-1.358.411a8.063,8.063,0,0,0-1.028-1.961Zm1.961-.438a6.862,6.862,0,0,1,1.042,1.905l-1.276.412a9.866,9.866,0,0,0-1.042-1.947Z" transform="translate(-306.654 -396.475)" fill="#fff"/>
        <path id="Path_50" data-name="Path 50" d="M365.054,414.352a2.605,2.605,0,1,1-2.606-2.606A2.6,2.6,0,0,1,365.054,414.352Zm-3.8,0a1.193,1.193,0,1,0,1.193-1.193A1.194,1.194,0,0,0,361.255,414.352Z" transform="translate(-319.09 -403.684)" fill="#fff"/>
      </g>
      <g id="Group_8" data-name="Group 8" transform="translate(0 1.999)">
        <path id="Path_51" data-name="Path 51" d="M84.717,409.5a2.268,2.268,0,0,1,.01-.244,2.754,2.754,0,0,1-2.069.8c-1.864,0-2.991-1.351-2.991-3.589a3.917,3.917,0,0,1,.881-2.7,2.744,2.744,0,0,1,2.079-.864,2.92,2.92,0,0,1,2.1.819c-.01-.166-.01-.266-.01-.421v-.919a13.334,13.334,0,0,0-.082-1.739h2.1a13.452,13.452,0,0,0-.082,1.739v5.737a14.234,14.234,0,0,0,.082,1.739H84.717Zm-3.063-3.024a2.084,2.084,0,0,0,.471,1.462,1.363,1.363,0,0,0,.993.421,1.722,1.722,0,0,0,1.578-1.916,1.667,1.667,0,0,0-1.588-1.849C82.218,404.594,81.654,405.314,81.654,406.477Z" transform="translate(-79.667 -400.441)" fill="#fff"/>
        <path id="Path_52" data-name="Path 52" d="M96.468,409.058c.1.9.584,1.373,1.393,1.373a1.429,1.429,0,0,0,1.034-.41,1.1,1.1,0,0,0,.307-.564l1.782.543a3.243,3.243,0,0,1-.676,1.14,3.186,3.186,0,0,1-2.417.941,3.069,3.069,0,0,1-2.376-.941,3.946,3.946,0,0,1-.932-2.7c0-2.193,1.3-3.644,3.258-3.644a3,3,0,0,1,3.073,2.592,8.7,8.7,0,0,1,.154,1.451,2.205,2.205,0,0,0,.01.221Zm2.663-1.528a1.216,1.216,0,0,0-1.29-1.085,1.255,1.255,0,0,0-1.342,1.085Z" transform="translate(-86.708 -402.401)" fill="#fff"/>
        <path id="Path_53" data-name="Path 53" d="M110.573,400.64a12.238,12.238,0,0,0-.082,1.673v5.87a14.386,14.386,0,0,0,.082,1.673h-2.141a12.034,12.034,0,0,0,.082-1.673v-5.87a11.447,11.447,0,0,0-.082-1.673Z" transform="translate(-93.245 -400.441)" fill="#fff"/>
        <path id="Path_54" data-name="Path 54" d="M116.664,403.1a11.853,11.853,0,0,0-.082,1.673v3.411a16.329,16.329,0,0,0,.082,1.673h-2.141a13.43,13.43,0,0,0,.082-1.673v-3.411a12.883,12.883,0,0,0-.082-1.673Zm-.031-2.459V402.3h-2.079V400.64Z" transform="translate(-96.12 -400.441)" fill="#fff"/>
        <path id="Path_55" data-name="Path 55" d="M122.014,405.3a4.913,4.913,0,0,0,.195.953l.952,3.444c.011.022.021.067.041.122.031.11.031.121.082.31.031-.1.041-.155.051-.2a.481.481,0,0,0,.031-.11c.021-.055.031-.1.041-.133l.952-3.433a5.453,5.453,0,0,0,.195-.953h2.274c-.2.5-.287.709-.42,1.075l-1.721,4.751a4.987,4.987,0,0,0-.277.93h-2.243a5.018,5.018,0,0,0-.276-.93l-1.721-4.751c-.061-.155-.2-.51-.43-1.075Z" transform="translate(-98.583 -402.639)" fill="#fff"/>
        <path id="Path_56" data-name="Path 56" d="M135.687,409.058c.1.9.584,1.373,1.393,1.373a1.429,1.429,0,0,0,1.034-.41,1.1,1.1,0,0,0,.307-.564L140.2,410a3.25,3.25,0,0,1-.676,1.14,3.186,3.186,0,0,1-2.417.941,3.07,3.07,0,0,1-2.376-.941,3.948,3.948,0,0,1-.932-2.7c0-2.193,1.3-3.644,3.257-3.644a3,3,0,0,1,3.073,2.592,8.692,8.692,0,0,1,.154,1.451c0,.044,0,.111.01.221Zm2.664-1.528a1.217,1.217,0,0,0-1.291-1.085,1.255,1.255,0,0,0-1.342,1.085Z" transform="translate(-105.221 -402.401)" fill="#fff"/>
        <path id="Path_57" data-name="Path 57" d="M152.261,407.172a3.09,3.09,0,0,0-1.045-.21,1.429,1.429,0,0,0-1.219.6,1.691,1.691,0,0,0-.307.985v1.729a13.022,13.022,0,0,0,.082,1.661h-2.12a13.427,13.427,0,0,0,.082-1.673v-3.411a11.829,11.829,0,0,0-.082-1.673h2.038v.875a2.258,2.258,0,0,1,2.049-1.007,3.85,3.85,0,0,1,1.014.133Z" transform="translate(-111.759 -402.52)" fill="#fff"/>
        <path id="Path_58" data-name="Path 58" d="M158.2,406.782c-.44-1.108-.481-1.207-.614-1.485h2.223a7.8,7.8,0,0,0,.4,1.429l.942,2.558.912-2.515a7.014,7.014,0,0,0,.44-1.473h2.223c-.256.576-.256.576-.615,1.485l-2.346,5.859a2.226,2.226,0,0,1-2.315,1.517,5.707,5.707,0,0,1-1.4-.188l.225-1.761a1.47,1.47,0,0,0,.8.244.863.863,0,0,0,.83-.521l.215-.476Z" transform="translate(-116.447 -402.639)" fill="#fff"/>
        <path id="Path_59" data-name="Path 59" d="M178.705,413.88a15.359,15.359,0,0,0,.082-1.617v-5.4a14.591,14.591,0,0,0-.082-1.739h2.018v.377c0,.066-.01.155-.01.21a2.9,2.9,0,0,1,2.1-.786,2.863,2.863,0,0,1,2.171.853,3.7,3.7,0,0,1,.819,2.58,3.852,3.852,0,0,1-.891,2.68,2.824,2.824,0,0,1-2.11.875,3.442,3.442,0,0,1-1.383-.288,2.42,2.42,0,0,1-.706-.509c0,.1,0,.243.01.4v.764a12.536,12.536,0,0,0,.082,1.605Zm4.65-4.065a2.079,2.079,0,0,0,.451-1.44c0-1.13-.553-1.783-1.516-1.783a1.841,1.841,0,0,0,.062,3.644A1.359,1.359,0,0,0,183.355,409.815Z" transform="translate(-126.417 -402.461)" fill="#fff"/>
        <path id="Path_60" data-name="Path 60" d="M195.839,400.64a12.247,12.247,0,0,0-.081,1.673v5.87a14.384,14.384,0,0,0,.081,1.673H193.7a12.125,12.125,0,0,0,.082-1.673v-5.87a11.533,11.533,0,0,0-.082-1.673Z" transform="translate(-133.495 -400.441)" fill="#fff"/>
        <path id="Path_61" data-name="Path 61" d="M203.7,407.256c0-.532-.3-.776-.973-.776a1.021,1.021,0,0,0-1.158.776l-1.957-.343a2.386,2.386,0,0,1,.861-1.34,3.709,3.709,0,0,1,2.3-.631,4.162,4.162,0,0,1,1.895.388,2.046,2.046,0,0,1,.942,1.994v2.99a13.863,13.863,0,0,0,.072,1.573H203.7v-.51a2.826,2.826,0,0,1-1.987.664,2.386,2.386,0,0,1-1.772-.609,2.079,2.079,0,0,1-.563-1.506,1.914,1.914,0,0,1,.748-1.617,4.047,4.047,0,0,1,2.13-.72c.4-.045.707-.055,1.445-.078Zm0,1.673a5.666,5.666,0,0,0-1.772.221.8.8,0,0,0-.594.731c0,.4.307.631.84.631a1.8,1.8,0,0,0,1.157-.421,1.152,1.152,0,0,0,.369-.853Z" transform="translate(-136.177 -402.471)" fill="#fff"/>
        <path id="Path_62" data-name="Path 62" d="M213.774,403.5a12.123,12.123,0,0,0-.082-1.517h2.09a13.891,13.891,0,0,0-.082,1.517v.233h.369a6.543,6.543,0,0,0,1-.055v1.838a6.122,6.122,0,0,0-.942-.066h-.43v2.836c0,.31.051.465.184.564a.837.837,0,0,0,.471.122,1.334,1.334,0,0,0,.717-.2l.154,1.683a4.1,4.1,0,0,1-1.414.222,2.329,2.329,0,0,1-1.506-.388,1.621,1.621,0,0,1-.532-1.451V405.45h-.389a5.723,5.723,0,0,0-.891.066v-1.85a5.711,5.711,0,0,0,.911.066h.369Z" transform="translate(-142.367 -401.074)" fill="#fff"/>
        <path id="Path_63" data-name="Path 63" d="M222.951,404.626a6.811,6.811,0,0,0-1.147.078v-1.861a8.51,8.51,0,0,0,1.147.078h.276v-.52c0-1.462.769-2.138,2.438-2.138a5.024,5.024,0,0,1,1.557.233l-.317,1.628a1.879,1.879,0,0,0-1.014-.277c-.5,0-.7.222-.7.8v.277h.3a13.027,13.027,0,0,0,1.363-.078V404.7a9.424,9.424,0,0,0-1.342-.078h-.318V408a12.862,12.862,0,0,0,.082,1.673h-2.131a13.21,13.21,0,0,0,.082-1.673v-3.378Z" transform="translate(-146.761 -400.262)" fill="#fff"/>
        <path id="Path_64" data-name="Path 64" d="M231.084,408.436c0-2.215,1.311-3.621,3.38-3.621a3.263,3.263,0,0,1,3.38,3.6,3.336,3.336,0,0,1-3.39,3.666C232.395,412.08,231.084,410.663,231.084,408.436Zm1.956-.011c0,1.229.533,1.971,1.424,1.971s1.4-.72,1.4-1.949-.523-1.972-1.393-1.972C233.573,406.476,233.04,407.207,233.04,408.426Z" transform="translate(-151.142 -402.411)" fill="#fff"/>
        <path id="Path_65" data-name="Path 65" d="M250.066,407.172a3.1,3.1,0,0,0-1.045-.21,1.429,1.429,0,0,0-1.219.6,1.691,1.691,0,0,0-.307.985v1.729a13.125,13.125,0,0,0,.082,1.661h-2.12a13.319,13.319,0,0,0,.082-1.673v-3.411a11.744,11.744,0,0,0-.082-1.673h2.038v.875a2.258,2.258,0,0,1,2.048-1.007,3.854,3.854,0,0,1,1.014.133Z" transform="translate(-157.926 -402.52)" fill="#fff"/>
        <path id="Path_66" data-name="Path 66" d="M256.28,411.885a13.208,13.208,0,0,0,.081-1.673V406.8a11.159,11.159,0,0,0-.081-1.673h2.028v.465a1.266,1.266,0,0,1-.01.155v.111a2.4,2.4,0,0,1,1.956-.909,2.066,2.066,0,0,1,1.311.4,1.342,1.342,0,0,1,.42.554,2.7,2.7,0,0,1,2.151-.964c1.465,0,2.213.864,2.213,2.536v2.747a13.248,13.248,0,0,0,.081,1.661H264.3a12.665,12.665,0,0,0,.082-1.673v-2.281c0-.83-.225-1.152-.809-1.152-.523,0-.994.443-1.25,1.185v2.26a13.592,13.592,0,0,0,.082,1.661h-2.13a12.981,12.981,0,0,0,.082-1.673v-2.281a1.373,1.373,0,0,0-.174-.864.643.643,0,0,0-.563-.277c-.553,0-1.024.432-1.311,1.185v2.237a13.444,13.444,0,0,0,.082,1.673Z" transform="translate(-163.035 -402.471)" fill="#fff"/>
      </g>
    </g>
  </g>
</svg>
